<svg id="Layer_1" data-name="Layer 1" xmlns="http://www.w3.org/2000/svg" viewBox="0 0 474 69.52"><defs><style>.cls-1{fill:#332c2c}</style></defs><path class="cls-1" d="M109.968 7.192h20.856l14.536 61.62h-10.428l-3.476-12.008H109.02l-3.16 12.008H95.432l14.536-61.62m.948 39.5h18.328l-6.952-29.704h-4.108zM181.384 25.204l-.316 8.848s-6.952-.948-10.428-.948c-9.164 0-11.06 3.476-11.06 12.956 0 10.744 1.896 14.22 11.376 14.22 3.476 0 10.428-.948 10.428-.948l.316 8.848s-9.164 1.58-13.904 1.58c-13.588 0-18.644-6.952-18.644-23.7 0-15.8 5.372-22.752 18.96-22.752 4.74 0 13.272 1.896 13.272 1.896M225.94 24.572v44.24h-10.112V66.6s-6.952 3.16-11.692 3.16c-12.956 0-15.484-6.636-15.484-22.12V24.572h10.112V47.64c0 9.48.632 12.956 7.268 12.956 3.792 0 9.796-1.896 9.796-1.896V24.572h10.112M233.84 68.812v-44.24h10.112V27.1a40.592 40.592 0 0 1 7.9-2.844 24.392 24.392 0 0 1 4.74-.632c4.424.316 7.9 1.264 10.112 3.792 3.792-1.58 10.428-3.792 15.484-3.792 12.324 0 15.484 6.636 15.484 22.12v23.068H287.56V49.536c0-12.008-.316-16.748-7.268-16.748-4.424 0-9.796 2.212-9.796 2.212.316.632.632 6.636.632 10.744v23.068h-10.112V46.06c0-9.48-.948-12.956-7.268-12.956-3.792 0-9.48 1.896-9.48 1.896v33.812H233.84M340.016 56.488c0 3.16.948 4.108 3.792 4.424l-.316 8.532c-6.952 0-9.48-.948-12.008-3.16 0 0-7.584 3.16-14.536 3.16-8.532 0-12.956-5.372-12.956-14.22 0-9.48 5.372-12.64 14.852-13.588l11.06-.948V38.16c0-3.476-2.212-5.372-5.688-5.372-6.636 0-17.38.948-17.38.948l-.316-8.532s11.692-1.896 18.328-1.896c9.796 0 15.168 4.108 15.168 14.852v18.328m-19.908-6.952c-3.792.316-6.004 1.896-6.004 5.688s1.58 5.688 4.424 5.688a47.48 47.48 0 0 0 11.06-1.896V48.904zM361.82 33.42v18.012c0 6.004.316 8.532 4.74 8.532 2.528 0 7.268-.316 7.268-.316l.316 8.848a61.903 61.903 0 0 1-9.164 1.264c-10.428 0-13.588-3.792-13.588-16.748V33.42h-5.688v-8.848h5.688V11.616h10.112v12.956h12.008v9.164H361.82M380.78 6.56h10.112v10.744H380.78zm0 18.012h10.112v44.24H380.78zM430.076 25.204l-.316 8.848s-6.952-.948-10.428-.948c-9.164 0-11.06 3.476-11.06 12.956 0 10.744 1.896 14.22 11.376 14.22 3.476 0 10.428-.948 10.428-.948l.316 8.848s-9.164 1.58-13.904 1.58c-13.588 0-18.644-6.952-18.644-23.7 0-15.8 5.372-22.752 18.96-22.752 4.424 0 13.272 1.896 13.272 1.896M470.208 56.488c0 3.16.948 4.108 3.792 4.424l-.316 8.532c-6.952 0-9.48-.948-12.008-3.16 0 0-7.584 3.16-14.536 3.16-8.532 0-12.956-5.372-12.956-14.22 0-9.48 5.372-12.64 14.852-13.588l11.06-.948V38.16c0-3.476-2.212-5.372-5.688-5.372-6.636 0-17.38.948-17.38.948l-.316-8.532s11.692-1.896 18.328-1.896c9.796 0 15.168 4.108 15.168 14.852v18.328M450.3 49.536c-3.792.316-6.004 1.896-6.004 5.688s1.58 5.688 4.424 5.688a47.48 47.48 0 0 0 11.06-1.896V48.904z" transform="translate(0 -.24)"/><path d="M34.76.24C15.484.24 0 15.408 0 34.368s15.484 34.128 34.76 34.128h34.76V34.368A34.733 34.733 0 0 0 34.76.24m13.588 47.716H34.76a13.588 13.588 0 1 1 13.588-13.588z" transform="translate(0 -.24)" fill="#20ad65"/></svg>