<?xml version="1.0" encoding="utf-8"?>
<!-- Generator: Adobe Illustrator 17.1.0, SVG Export Plug-In . SVG Version: 6.00 Build 0)  -->
<!DOCTYPE svg PUBLIC "-//W3C//DTD SVG 1.1//EN" "http://www.w3.org/Graphics/SVG/1.1/DTD/svg11.dtd">
<svg version="1.1" id="Layer_1" xmlns="http://www.w3.org/2000/svg" xmlns:xlink="http://www.w3.org/1999/xlink" x="0px" y="0px"
	 viewBox="0 0 237 237.6" enable-background="new 0 0 237 237.6" xml:space="preserve">
<polygon fill="none" stroke="#20AD65" stroke-width="4" stroke-miterlimit="10" points="225.1,177 118.5,235.3 11.9,177 11.9,60.5 
	118.5,2.3 225.1,60.5 "/>
<rect x="11.9" y="88.1" fill="#20AD65" width="213.2" height="60.9"/>
<rect x="0" y="81.4" fill="#20AD65" width="11.9" height="74.4"/>
<rect x="225.1" y="81.4" fill="#20AD65" width="11.9" height="74.4"/>
<g>
	<path fill="#332E2D" d="M111.7,35.1V37h-3.1v8.2h-2.3V37h-3.1v-1.9H111.7z"/>
	<path fill="#332E2D" d="M123,40.1c0,0.9-0.1,1.6-0.4,2.3c-0.3,0.7-0.6,1.2-1.1,1.7c-0.5,0.4-1,0.8-1.6,1c-0.6,0.2-1.3,0.3-2,0.3
		c-0.7,0-1.4-0.1-2-0.3s-1.2-0.6-1.6-1c-0.5-0.4-0.8-1-1.1-1.7c-0.3-0.7-0.4-1.4-0.4-2.3c0-0.9,0.1-1.6,0.4-2.3
		c0.3-0.7,0.6-1.2,1.1-1.7c0.5-0.4,1-0.8,1.6-1c0.6-0.2,1.3-0.3,1.9-0.3c0.7,0,1.4,0.1,2,0.3c0.6,0.2,1.2,0.6,1.6,1
		c0.5,0.4,0.8,1,1.1,1.7C122.8,38.5,123,39.3,123,40.1z M115.2,40.1c0,0.5,0.1,0.9,0.2,1.3c0.1,0.4,0.3,0.7,0.5,1
		c0.2,0.3,0.5,0.5,0.8,0.7c0.3,0.2,0.7,0.2,1.1,0.2c0.4,0,0.8-0.1,1.1-0.2c0.3-0.2,0.6-0.4,0.9-0.7c0.2-0.3,0.4-0.6,0.5-1
		c0.1-0.4,0.2-0.8,0.2-1.3c0-0.5-0.1-0.9-0.2-1.4c-0.1-0.4-0.3-0.8-0.5-1c-0.2-0.3-0.5-0.5-0.9-0.7c-0.3-0.2-0.7-0.2-1.1-0.2
		c-0.4,0-0.8,0.1-1.1,0.2c-0.3,0.2-0.6,0.4-0.8,0.7c-0.2,0.3-0.4,0.6-0.5,1C115.2,39.2,115.2,39.6,115.2,40.1z"/>
	<path fill="#332E2D" d="M128.4,35c1.5,0,2.7,0.3,3.5,0.8c0.8,0.5,1.2,1.4,1.2,2.6c0,1.2-0.4,2.1-1.2,2.6c-0.8,0.5-2,0.8-3.5,0.8
		h-0.7v3.4h-2.3v-10c0.5-0.1,1-0.2,1.6-0.2C127.5,35,127.9,35,128.4,35z M128.5,36.9c-0.2,0-0.3,0-0.5,0c-0.2,0-0.3,0-0.4,0v2.9h0.7
		c0.8,0,1.4-0.1,1.8-0.3c0.4-0.2,0.6-0.6,0.6-1.2c0-0.3-0.1-0.5-0.2-0.7c-0.1-0.2-0.2-0.3-0.4-0.4c-0.2-0.1-0.4-0.2-0.7-0.2
		C129.1,36.9,128.8,36.9,128.5,36.9z"/>
</g>
<g>
	<g>
		<path fill="#332E2D" d="M21.8,73.1c0.3,0,0.6,0,0.8-0.1s0.4-0.1,0.5-0.2c0.1-0.1,0.2-0.2,0.3-0.3c0-0.1,0.1-0.3,0.1-0.4
			c0-0.3-0.2-0.6-0.5-0.8c-0.3-0.2-0.9-0.5-1.6-0.7c-0.3-0.1-0.7-0.3-1-0.4c-0.3-0.2-0.6-0.3-0.9-0.6c-0.3-0.2-0.5-0.5-0.6-0.8
			c-0.2-0.3-0.2-0.7-0.2-1.2c0-0.5,0.1-0.9,0.3-1.3c0.2-0.4,0.4-0.7,0.7-1c0.3-0.3,0.7-0.5,1.2-0.6c0.5-0.1,1-0.2,1.6-0.2
			c0.7,0,1.3,0.1,1.8,0.2c0.5,0.1,0.9,0.3,1.2,0.5l-0.7,1.8c-0.3-0.1-0.6-0.3-0.9-0.4c-0.3-0.1-0.8-0.2-1.3-0.2
			c-0.5,0-0.9,0.1-1.2,0.2c-0.2,0.2-0.4,0.4-0.4,0.7c0,0.2,0,0.3,0.1,0.5c0.1,0.1,0.2,0.2,0.4,0.3c0.2,0.1,0.3,0.2,0.6,0.3
			c0.2,0.1,0.4,0.2,0.7,0.3c0.5,0.2,1,0.4,1.4,0.6c0.4,0.2,0.7,0.4,1,0.7c0.3,0.3,0.5,0.6,0.6,0.9c0.1,0.3,0.2,0.8,0.2,1.2
			c0,0.9-0.3,1.7-1,2.2c-0.7,0.5-1.7,0.8-3,0.8c-0.5,0-0.9,0-1.2-0.1c-0.4-0.1-0.7-0.1-1-0.2c-0.3-0.1-0.5-0.2-0.7-0.2
			c-0.2-0.1-0.4-0.2-0.5-0.2l0.6-1.8c0.3,0.2,0.7,0.3,1.1,0.4C20.6,73,21.1,73.1,21.8,73.1z"/>
		<path fill="#332E2D" d="M38.4,69.7c0,0.9-0.1,1.6-0.4,2.3c-0.3,0.7-0.6,1.2-1.1,1.7c-0.5,0.4-1,0.8-1.6,1c-0.6,0.2-1.3,0.3-2,0.3
			c-0.7,0-1.4-0.1-2-0.3c-0.6-0.2-1.2-0.6-1.6-1c-0.5-0.4-0.8-1-1.1-1.7c-0.3-0.7-0.4-1.4-0.4-2.3c0-0.9,0.1-1.6,0.4-2.3
			c0.3-0.7,0.6-1.2,1.1-1.7c0.5-0.4,1-0.8,1.6-1c0.6-0.2,1.3-0.3,1.9-0.3c0.7,0,1.4,0.1,2,0.3c0.6,0.2,1.2,0.6,1.6,1
			c0.5,0.4,0.8,1,1.1,1.7C38.2,68.1,38.4,68.9,38.4,69.7z M30.6,69.7c0,0.5,0.1,0.9,0.2,1.3c0.1,0.4,0.3,0.7,0.5,1
			c0.2,0.3,0.5,0.5,0.8,0.7c0.3,0.2,0.7,0.2,1.1,0.2c0.4,0,0.8-0.1,1.1-0.2c0.3-0.2,0.6-0.4,0.9-0.7c0.2-0.3,0.4-0.6,0.5-1
			c0.1-0.4,0.2-0.8,0.2-1.3c0-0.5-0.1-0.9-0.2-1.4c-0.1-0.4-0.3-0.8-0.5-1c-0.2-0.3-0.5-0.5-0.9-0.7c-0.3-0.2-0.7-0.2-1.1-0.2
			c-0.4,0-0.8,0.1-1.1,0.2c-0.3,0.2-0.6,0.4-0.8,0.7c-0.2,0.3-0.4,0.6-0.5,1C30.6,68.8,30.6,69.2,30.6,69.7z"/>
		<path fill="#332E2D" d="M41.4,74.8V64.7h6.8v1.9h-4.5v2.1h4v1.9h-4v4.2H41.4z"/>
		<path fill="#332E2D" d="M58.8,64.7v1.9h-3.1v8.2h-2.3v-8.2h-3.1v-1.9H58.8z"/>
		<path fill="#332E2D" d="M68.6,65.8c0.1,0.4,0.2,0.9,0.4,1.4c0.1,0.5,0.3,1,0.5,1.6c0.2,0.5,0.3,1.1,0.5,1.6c0.2,0.5,0.3,1,0.5,1.5
			c0.1-0.5,0.3-1,0.4-1.6c0.1-0.6,0.3-1.2,0.4-1.8c0.1-0.6,0.2-1.2,0.3-1.9c0.1-0.6,0.2-1.2,0.3-1.8h2.4c-0.3,1.7-0.7,3.4-1.2,5.2
			c-0.4,1.7-0.9,3.4-1.5,5h-2.1c-0.3-0.9-0.7-1.9-1-2.9c-0.3-1-0.6-2.1-1-3.1c-0.3,1-0.6,2.1-0.9,3.1c-0.3,1-0.6,2-1,2.9h-2.1
			c-0.5-1.6-1-3.2-1.5-5c-0.4-1.7-0.8-3.5-1.2-5.2h2.5c0.1,0.6,0.2,1.2,0.3,1.8c0.1,0.6,0.2,1.2,0.4,1.9c0.1,0.6,0.3,1.2,0.4,1.8
			c0.1,0.6,0.3,1.1,0.4,1.6c0.2-0.5,0.3-1,0.5-1.5c0.2-0.5,0.3-1.1,0.5-1.6c0.2-0.5,0.3-1.1,0.4-1.5c0.1-0.5,0.3-0.9,0.4-1.3H68.6z"
			/>
		<path fill="#332E2D" d="M83,74.8c-0.1-0.4-0.2-0.7-0.4-1.1c-0.1-0.4-0.3-0.7-0.4-1.1h-4c-0.1,0.4-0.3,0.7-0.4,1.1
			c-0.1,0.4-0.2,0.7-0.4,1.1h-2.4c0.4-1.1,0.7-2.1,1.1-3s0.7-1.8,1-2.6c0.3-0.8,0.7-1.6,1-2.3c0.3-0.7,0.7-1.5,1-2.2h2.2
			c0.3,0.7,0.7,1.4,1,2.2c0.3,0.7,0.7,1.5,1,2.3c0.3,0.8,0.7,1.7,1,2.6c0.3,0.9,0.7,1.9,1.1,3H83z M80.3,67
			c-0.1,0.1-0.1,0.3-0.2,0.6c-0.1,0.3-0.2,0.5-0.3,0.9c-0.1,0.3-0.3,0.7-0.4,1.1c-0.2,0.4-0.3,0.8-0.5,1.3h2.9
			c-0.2-0.4-0.3-0.9-0.5-1.3c-0.1-0.4-0.3-0.8-0.4-1.1c-0.1-0.3-0.2-0.6-0.3-0.9C80.4,67.3,80.3,67.1,80.3,67z"/>
		<path fill="#332E2D" d="M90.9,64.6c1.5,0,2.7,0.3,3.5,0.8c0.8,0.5,1.2,1.4,1.2,2.5c0,0.7-0.2,1.3-0.5,1.7c-0.3,0.4-0.8,0.8-1.4,1
			c0.2,0.3,0.4,0.5,0.6,0.9c0.2,0.3,0.4,0.7,0.7,1c0.2,0.4,0.4,0.7,0.6,1.1c0.2,0.4,0.4,0.8,0.6,1.1h-2.6c-0.2-0.3-0.4-0.7-0.6-1
			s-0.4-0.7-0.6-1c-0.2-0.3-0.4-0.6-0.6-0.9c-0.2-0.3-0.4-0.5-0.6-0.8h-1.1v3.7h-2.3v-10c0.5-0.1,1-0.2,1.6-0.2
			C90,64.6,90.5,64.6,90.9,64.6z M91,66.5c-0.2,0-0.3,0-0.4,0c-0.1,0-0.3,0-0.4,0v2.7h0.6c0.9,0,1.5-0.1,1.9-0.3
			c0.4-0.2,0.6-0.6,0.6-1.1c0-0.5-0.2-0.9-0.6-1.1C92.3,66.6,91.7,66.5,91,66.5z"/>
		<path fill="#332E2D" d="M98.8,74.8V64.7h6.9v1.9h-4.6v2h4.1v1.9h-4.1v2.4h4.9v1.9H98.8z"/>
		<path fill="#332E2D" d="M122.4,69.7c0,0.9-0.1,1.6-0.4,2.3c-0.3,0.7-0.7,1.2-1.2,1.6c-0.5,0.4-1.1,0.8-1.8,1
			c-0.7,0.2-1.5,0.3-2.4,0.3c-0.4,0-0.9,0-1.4-0.1c-0.5,0-1.1-0.1-1.6-0.2v-9.9c0.5-0.1,1.1-0.2,1.7-0.2c0.6,0,1.1-0.1,1.5-0.1
			c0.9,0,1.7,0.1,2.4,0.3c0.7,0.2,1.3,0.5,1.8,0.9c0.5,0.4,0.9,1,1.2,1.6C122.2,68,122.4,68.8,122.4,69.7z M115.7,72.9
			c0.1,0,0.2,0,0.4,0s0.3,0,0.5,0c1.1,0,2-0.3,2.6-0.9c0.6-0.6,0.8-1.4,0.8-2.4c0-1.1-0.3-1.9-0.8-2.4c-0.5-0.5-1.4-0.8-2.5-0.8
			c-0.2,0-0.3,0-0.5,0c-0.2,0-0.3,0-0.5,0V72.9z"/>
		<path fill="#332E2D" d="M125.4,74.8V64.7h6.9v1.9h-4.6v2h4.1v1.9h-4.1v2.4h4.9v1.9H125.4z"/>
		<path fill="#332E2D" d="M138.6,74.8c-0.4-0.9-0.8-1.7-1.2-2.7c-0.4-0.9-0.8-1.8-1.1-2.7c-0.4-0.9-0.7-1.8-1-2.6
			c-0.3-0.8-0.6-1.6-0.8-2.2h2.5c0.2,0.6,0.4,1.2,0.6,1.9c0.2,0.7,0.5,1.4,0.7,2c0.2,0.7,0.5,1.3,0.7,1.9c0.2,0.6,0.4,1.1,0.6,1.6
			c0.2-0.4,0.4-1,0.6-1.6c0.2-0.6,0.5-1.3,0.7-1.9c0.2-0.7,0.5-1.3,0.7-2c0.2-0.7,0.4-1.3,0.6-1.9h2.4c-0.2,0.6-0.5,1.4-0.8,2.2
			c-0.3,0.8-0.6,1.7-1,2.6c-0.4,0.9-0.7,1.8-1.1,2.7c-0.4,0.9-0.8,1.8-1.2,2.6H138.6z"/>
		<path fill="#332E2D" d="M147.3,74.8V64.7h6.9v1.9h-4.6v2h4.1v1.9h-4.1v2.4h4.9v1.9H147.3z"/>
		<path fill="#332E2D" d="M164.1,72.8v2h-6.8V64.7h2.3v8.2H164.1z"/>
		<path fill="#332E2D" d="M176.1,69.7c0,0.9-0.1,1.6-0.4,2.3c-0.3,0.7-0.6,1.2-1.1,1.7c-0.5,0.4-1,0.8-1.6,1c-0.6,0.2-1.3,0.3-2,0.3
			c-0.7,0-1.4-0.1-2-0.3s-1.2-0.6-1.6-1c-0.5-0.4-0.8-1-1.1-1.7c-0.3-0.7-0.4-1.4-0.4-2.3c0-0.9,0.1-1.6,0.4-2.3
			c0.3-0.7,0.6-1.2,1.1-1.7c0.5-0.4,1-0.8,1.6-1c0.6-0.2,1.3-0.3,1.9-0.3c0.7,0,1.4,0.1,2,0.3c0.6,0.2,1.2,0.6,1.6,1
			c0.5,0.4,0.8,1,1.1,1.7C175.9,68.1,176.1,68.9,176.1,69.7z M168.3,69.7c0,0.5,0.1,0.9,0.2,1.3c0.1,0.4,0.3,0.7,0.5,1
			c0.2,0.3,0.5,0.5,0.8,0.7c0.3,0.2,0.7,0.2,1.1,0.2c0.4,0,0.8-0.1,1.1-0.2c0.3-0.2,0.6-0.4,0.9-0.7s0.4-0.6,0.5-1
			c0.1-0.4,0.2-0.8,0.2-1.3c0-0.5-0.1-0.9-0.2-1.4c-0.1-0.4-0.3-0.8-0.5-1c-0.2-0.3-0.5-0.5-0.9-0.7c-0.3-0.2-0.7-0.2-1.1-0.2
			c-0.4,0-0.8,0.1-1.1,0.2c-0.3,0.2-0.6,0.4-0.8,0.7c-0.2,0.3-0.4,0.6-0.5,1C168.4,68.8,168.3,69.2,168.3,69.7z"/>
		<path fill="#332E2D" d="M182.1,64.6c1.5,0,2.7,0.3,3.5,0.8c0.8,0.5,1.2,1.4,1.2,2.6c0,1.2-0.4,2.1-1.2,2.6c-0.8,0.5-2,0.8-3.5,0.8
			h-0.7v3.4h-2.3v-10c0.5-0.1,1-0.2,1.6-0.2C181.2,64.6,181.7,64.6,182.1,64.6z M182.3,66.5c-0.2,0-0.3,0-0.5,0c-0.2,0-0.3,0-0.4,0
			v2.9h0.7c0.8,0,1.4-0.1,1.8-0.3c0.4-0.2,0.6-0.6,0.6-1.2c0-0.3-0.1-0.5-0.2-0.7c-0.1-0.2-0.2-0.3-0.4-0.4
			c-0.2-0.1-0.4-0.2-0.7-0.2C182.9,66.5,182.6,66.5,182.3,66.5z"/>
		<path fill="#332E2D" d="M189.7,74.8V64.7h6.9v1.9H192v2h4.1v1.9H192v2.4h4.9v1.9H189.7z"/>
		<path fill="#332E2D" d="M202.7,64.6c1.5,0,2.7,0.3,3.5,0.8c0.8,0.5,1.2,1.4,1.2,2.5c0,0.7-0.2,1.3-0.5,1.7s-0.8,0.8-1.4,1
			c0.2,0.3,0.4,0.5,0.6,0.9c0.2,0.3,0.4,0.7,0.7,1c0.2,0.4,0.4,0.7,0.6,1.1s0.4,0.8,0.6,1.1h-2.6c-0.2-0.3-0.4-0.7-0.6-1
			s-0.4-0.7-0.6-1c-0.2-0.3-0.4-0.6-0.6-0.9c-0.2-0.3-0.4-0.5-0.6-0.8H202v3.7h-2.3v-10c0.5-0.1,1-0.2,1.6-0.2
			C201.8,64.6,202.2,64.6,202.7,64.6z M202.8,66.5c-0.2,0-0.3,0-0.4,0c-0.1,0-0.3,0-0.4,0v2.7h0.6c0.9,0,1.5-0.1,1.9-0.3
			c0.4-0.2,0.6-0.6,0.6-1.1c0-0.5-0.2-0.9-0.6-1.1C204.1,66.6,203.5,66.5,202.8,66.5z"/>
		<path fill="#332E2D" d="M213.4,73.1c0.3,0,0.6,0,0.8-0.1s0.4-0.1,0.5-0.2c0.1-0.1,0.2-0.2,0.3-0.3c0-0.1,0.1-0.3,0.1-0.4
			c0-0.3-0.2-0.6-0.5-0.8c-0.3-0.2-0.9-0.5-1.6-0.7c-0.3-0.1-0.7-0.3-1-0.4c-0.3-0.2-0.6-0.3-0.9-0.6c-0.3-0.2-0.5-0.5-0.6-0.8
			c-0.2-0.3-0.2-0.7-0.2-1.2c0-0.5,0.1-0.9,0.3-1.3c0.2-0.4,0.4-0.7,0.7-1c0.3-0.3,0.7-0.5,1.2-0.6c0.5-0.1,1-0.2,1.6-0.2
			c0.7,0,1.3,0.1,1.8,0.2c0.5,0.1,0.9,0.3,1.2,0.5l-0.7,1.8c-0.3-0.1-0.6-0.3-0.9-0.4c-0.3-0.1-0.8-0.2-1.3-0.2
			c-0.5,0-0.9,0.1-1.2,0.2c-0.2,0.2-0.4,0.4-0.4,0.7c0,0.2,0,0.3,0.1,0.5c0.1,0.1,0.2,0.2,0.4,0.3c0.2,0.1,0.3,0.2,0.6,0.3
			c0.2,0.1,0.4,0.2,0.7,0.3c0.5,0.2,1,0.4,1.4,0.6c0.4,0.2,0.7,0.4,1,0.7c0.3,0.3,0.5,0.6,0.6,0.9c0.1,0.3,0.2,0.8,0.2,1.2
			c0,0.9-0.3,1.7-1,2.2c-0.7,0.5-1.7,0.8-3,0.8c-0.5,0-0.9,0-1.2-0.1c-0.4-0.1-0.7-0.1-1-0.2c-0.3-0.1-0.5-0.2-0.7-0.2
			c-0.2-0.1-0.4-0.2-0.5-0.2l0.6-1.8c0.3,0.2,0.7,0.3,1.1,0.4C212.2,73,212.7,73.1,213.4,73.1z"/>
	</g>
</g>
<g>
	<g>
		<path fill="#332E2D" d="M98.4,177.5c0,0.6-0.1,1.3-0.4,1.9c-0.3,0.6-0.6,1.2-1,1.7c-0.4,0.6-0.9,1.1-1.4,1.6c-0.5,0.5-1,1-1.5,1.4
			c-0.3,0.2-0.5,0.5-0.8,0.8c-0.3,0.3-0.6,0.6-0.9,0.9c-0.3,0.3-0.5,0.6-0.7,0.8c-0.2,0.3-0.3,0.5-0.4,0.6h7.6v3.2H87.1
			c0-0.2-0.1-0.4-0.1-0.7c0-0.3,0-0.5,0-0.6c0-0.8,0.1-1.6,0.4-2.2c0.3-0.7,0.6-1.3,1-1.9c0.4-0.6,0.9-1.1,1.4-1.6
			c0.5-0.5,1.1-1,1.6-1.5c0.4-0.4,0.8-0.8,1.1-1.1c0.4-0.3,0.7-0.7,0.9-1c0.3-0.3,0.5-0.7,0.6-1c0.2-0.3,0.2-0.7,0.2-1
			c0-0.7-0.2-1.3-0.6-1.6c-0.4-0.3-1-0.5-1.6-0.5c-0.5,0-0.9,0.1-1.3,0.2c-0.4,0.1-0.8,0.3-1.1,0.5c-0.3,0.2-0.6,0.4-0.9,0.6
			c-0.2,0.2-0.4,0.4-0.5,0.5l-1.9-2.6c0.7-0.7,1.6-1.3,2.6-1.7c1-0.4,2.1-0.7,3.2-0.7c1,0,1.9,0.1,2.7,0.4c0.7,0.2,1.4,0.6,1.8,1
			c0.5,0.4,0.8,1,1.1,1.6C98.3,176,98.4,176.7,98.4,177.5z"/>
		<path fill="#332E2D" d="M115.8,181.6c0,3-0.6,5.2-1.7,6.8c-1.1,1.6-2.7,2.4-4.7,2.4c-2,0-3.5-0.8-4.7-2.4
			c-1.1-1.6-1.7-3.9-1.7-6.8c0-1.5,0.1-2.8,0.4-3.9c0.3-1.1,0.7-2.1,1.3-2.9c0.6-0.8,1.2-1.4,2-1.8c0.8-0.4,1.7-0.6,2.6-0.6
			c2,0,3.5,0.8,4.7,2.4C115.2,176.4,115.8,178.7,115.8,181.6z M111.9,181.6c0-0.9,0-1.7-0.1-2.4c-0.1-0.7-0.2-1.3-0.4-1.9
			c-0.2-0.5-0.4-0.9-0.8-1.2c-0.3-0.3-0.7-0.4-1.2-0.4c-0.5,0-0.9,0.1-1.2,0.4c-0.3,0.3-0.6,0.7-0.8,1.2c-0.2,0.5-0.3,1.1-0.4,1.9
			c-0.1,0.7-0.1,1.5-0.1,2.4c0,0.9,0,1.7,0.1,2.4c0.1,0.7,0.2,1.4,0.4,1.9c0.2,0.5,0.5,0.9,0.8,1.2c0.3,0.3,0.7,0.4,1.2,0.4
			c0.5,0,0.9-0.1,1.2-0.4c0.3-0.3,0.6-0.7,0.8-1.2c0.2-0.5,0.3-1.1,0.4-1.9C111.8,183.3,111.9,182.5,111.9,181.6z"/>
		<path fill="#332E2D" d="M120.3,176.5c0.5-0.2,1-0.4,1.5-0.7c0.5-0.3,1.1-0.5,1.6-0.9c0.5-0.3,1-0.6,1.5-1c0.5-0.3,0.9-0.7,1.3-1.1
			h2.7v17.6H125v-12.7c-0.5,0.3-1.1,0.6-1.7,0.9c-0.6,0.3-1.2,0.5-1.8,0.7L120.3,176.5z"/>
		<path fill="#332E2D" d="M138.6,190.5c0.1-1.2,0.3-2.5,0.6-3.9c0.3-1.3,0.7-2.6,1.2-3.9c0.5-1.3,1-2.5,1.6-3.6
			c0.6-1.1,1.2-2.1,1.8-3H136v-3.2h12.4v2.7c-0.5,0.6-1.1,1.4-1.8,2.5c-0.7,1-1.3,2.2-1.9,3.6c-0.6,1.3-1.1,2.8-1.5,4.3
			c-0.4,1.5-0.7,3-0.8,4.6H138.6z"/>
	</g>
</g>
<g>
	<path fill="#FFFFFF" d="M82.4,126.3C82.4,126.3,82.4,126.3,82.4,126.3c-1.9,2.5-4.8,4.1-8.5,4.2c-5.9,0.1-10.6-4.3-10.8-11.4
		c-0.2-6.6,4.5-11.4,10.8-11.4c3.5,0,6.5,1.7,8.5,4.2c0,0,0,0,0,0l3.8-3.8c-3-3.5-7.4-5.7-12.3-5.7c-9.2,0-16.3,7.1-16,16.8
		c0.3,10.5,7.4,16.7,16,16.5c5.2-0.1,9.4-2.3,12.3-5.7L82.4,126.3z"/>
	<rect x="89.4" y="101.5" fill="#FFFFFF" width="5.4" height="33.9"/>
	<polygon fill="#FFFFFF" points="134.9,112.5 130.7,112.5 130.7,104.8 125.2,104.8 125.2,112.5 121.5,112.5 121.5,117.5 
		125.2,117.5 125.2,135.3 130.7,135.3 130.7,117.5 134.9,117.5 	"/>
	<path fill="#FFFFFF" d="M174.7,113.2c-5.9-2.8-10.3,0.7-10.3,0.7v-12.4h-5.4v33.9h5.4v-13.1c0.3-4.1,3.9-5.5,7-4.7
		c2.3,0.6,2.3,4.1,2.3,4.1v13.7h5.4v-13.7C179,116.8,176.6,114.1,174.7,113.2z"/>
	<path fill="#FFFFFF" d="M113.8,112.5v13c-0.2,4.4-4.6,5.5-6.7,4.8c-2.6-0.8-2.6-4-2.6-4v-13.8h-5.4v13.8c0.3,7.1,4.6,9.3,8.5,9.5
		c3.8,0.2,6.2-1.8,6.2-1.8v1.3h5.4v-22.8H113.8z"/>
	<g>
		<ellipse fill="#FFFFFF" cx="147.3" cy="123.9" rx="4" ry="4"/>
		<path fill="#FFFFFF" d="M147.5,130.5c-3.8,0-6.6-2.8-6.6-6.6c0-3.8,2.8-6.7,6.6-6.5c2.1,0.1,4,0.9,5.3,2.3l3.8-3.7
			c-2.2-2.4-5.5-3.9-9.2-3.9c-6.9,0-12,5-11.8,11.8c0.2,6.9,4.8,11.7,11.7,11.8c3.8,0.1,7.1-1.5,9.2-4.1l-3.8-3.6
			C151.5,129.5,149.6,130.5,147.5,130.5z"/>
	</g>
</g>
</svg>
