<?xml version="1.0" encoding="utf-8"?>
<!-- Generator: Adobe Illustrator 17.1.0, SVG Export Plug-In . SVG Version: 6.00 Build 0)  -->
<!DOCTYPE svg PUBLIC "-//W3C//DTD SVG 1.1//EN" "http://www.w3.org/Graphics/SVG/1.1/DTD/svg11.dtd">
<svg version="1.1" id="Layer_1" xmlns="http://www.w3.org/2000/svg" xmlns:xlink="http://www.w3.org/1999/xlink" x="0px" y="0px"
	 viewBox="0 0 240 197" enable-background="new 0 0 240 197" xml:space="preserve">
<g>
	<path fill="#FFFFFF" d="M0,98.5V197h120h120V98.5V0H120H0V98.5z M239,26.4v25.5H120H1l0-25.5l0-25.5l119.1,0L239,1V26.4z M62.2,65
		v4.3l0.3-0.5c1-1.5,2.9-2.2,5-2c2,0.3,3.1,1.3,3.8,3.2c0.2,0.5,0.2,1.2,0.2,6.1l0,5.5h-2.1h-2.1l0-5.2c0-5,0-5.2-0.3-5.6
		c-0.5-0.9-1-1.2-2.1-1.2c-1.1,0-1.9,0.5-2.4,1.5c-0.5,0.9-0.5,1.5-0.5,6.1v4.4h-2h-2V71.2V60.7h2h2V65z M113.5,71.2l0,10.5h-2.1
		h-2.1V71.2V60.7l2,0l2,0L113.5,71.2z M29.1,64v1.7h-3h-3v8v8h-2.2h-2.2v-8v-8h-3h-3V64v-1.7h8.3h8.3V64z M187.5,63.8v1.5h-4h-4v2.6
		v2.6h3.9h3.9v1.5v1.5h-3.9h-3.9v4.1v4.1h-2.2h-2.2V72v-9.7h6.2h6.2V63.8z M223.7,65v2.1h1.6h1.6v1.3v1.3h-1.6h-1.6l0,4
		c0,4.4,0,4.5,0.7,5c0.3,0.2,0.4,0.2,1.3,0.2c0.5,0,1-0.1,1.1-0.1c0.2-0.1,0.2,0,0.3,0.5c0,0.3,0.1,0.9,0,1.4l0,0.8l-0.8,0.2
		c-0.6,0.1-1.3,0.2-2.3,0.2c-1.5,0-1.5,0-2.2-0.4c-0.9-0.5-1.4-1-1.8-2.1c-0.2-0.7-0.2-1-0.3-5.3l0-4.5h-1.3h-1.3v-1.3v-1.3h1.3h1.3
		v-1.5v-1.5l1.9-0.6c1.1-0.3,2-0.6,2-0.6C223.6,62.8,223.7,63.8,223.7,65 M37.1,67c1.4,0.3,2.9,1.4,3.5,2.7c0.6,1.2,1,3.4,1,4.9
		l0,0.7l-4.9,0l-4.9,0l0.1,0.6c0.2,1.6,1.3,2.8,3.1,3.2c1.4,0.3,4,0,5.1-0.6c0.3-0.2,0.5-0.2,0.5-0.1c0,0.1,0.1,0.7,0.1,1.4l0.1,1.3
		L40,81.5c-1.6,0.5-2.1,0.5-4,0.5c-1.5,0-2-0.1-2.7-0.3c-2.1-0.6-3.7-1.8-4.5-3.4c-0.7-1.4-0.8-2.1-0.8-3.9c0-1.1,0.1-1.7,0.2-2.2
		C29.2,68.2,32.8,66.1,37.1,67 M54,67c0.4,0.1,0.9,0.2,1.1,0.2l0.4,0.1l-0.1,1.4c0,0.8-0.1,1.4-0.1,1.4c0,0-0.3-0.1-0.6-0.2
		c-1.4-0.5-3.2-0.5-4.5,0c-1.8,0.8-2.8,2.9-2.4,5.2c0.3,1.7,1.1,2.9,2.5,3.5c0.7,0.3,0.8,0.4,2.2,0.3c1.2,0,1.6,0,2.1-0.2l0.7-0.2
		l0.1,0.9c0,0.5,0.1,1.2,0,1.5l0,0.6l-0.8,0.2C53.5,82,51.1,82.1,50,82c-1.9-0.3-3.7-1.2-4.8-2.4c-0.6-0.7-1.3-2.1-1.6-3.1
		c-0.3-1-0.3-3.2,0-4.1c0.7-2.5,2.5-4.4,5.1-5.1C50.2,66.8,52.1,66.7,54,67 M84.5,66.9c1.9,0.2,3.1,1.2,3.7,3
		c0.3,0.7,0.3,0.8,0.3,6.3l0,5.6h-2h-2l0-5c-0.1-5.5-0.1-5.7-0.8-6.4c-0.5-0.5-0.8-0.6-1.7-0.6c-1.2,0-2,0.6-2.5,1.9
		c-0.3,0.6-0.3,0.7-0.3,5.4l0,4.7h-2h-2v-6.1c0-3.3,0-6.6-0.1-7.3L75,67.1h1.9h1.9l0,1.1l0,1.1l0.5-0.6c0.8-1,1.9-1.7,3.3-1.8
		C83.5,66.7,83.6,66.7,84.5,66.9 M101.3,67c1,0.2,2.4,0.9,3.1,1.5c1.7,1.5,2.5,4.2,2.2,6.9c-0.2,2.1-0.9,3.5-2.2,4.7
		c-0.8,0.8-1.7,1.3-2.9,1.6c-1.2,0.3-3.7,0.4-4.9,0.1c-2.6-0.7-4.4-2.5-5.1-5.1c-0.3-1.2-0.3-3.4,0-4.6c0.6-2.4,2.2-4.1,4.5-4.8
		C97.7,66.7,99.5,66.7,101.3,67 M126.4,67.1c2.6,0.7,4.4,2.5,5,5.2c0.3,1.2,0.2,3.7-0.2,4.8c-0.6,1.9-1.8,3.3-3.4,4.1
		c-1,0.5-2.6,0.9-3.8,0.9c-3.8,0-6.5-1.9-7.4-5.2c-0.3-1.2-0.4-3.6-0.1-4.8c0.8-3.1,3.2-5,6.6-5.3C123.9,66.7,125.5,66.9,126.4,67.1
		 M140.3,66.9c1.5,0.2,2.8,1,3.4,2l0.3,0.4l0.1-1.1l0.1-1.1h2h2v7.5c0,7.4,0,7.6-0.2,8.5c-0.6,2.1-1.6,3.4-3.3,4.3
		c-1.3,0.6-2,0.8-3.8,0.9c-1.8,0.1-3.3-0.1-4.9-0.4l-1.1-0.3l0-1.4c0-0.8,0.1-1.5,0.1-1.5c0-0.1,0.2,0,0.4,0.1
		c0.7,0.4,2.3,0.7,3.5,0.8c2,0.1,3.2-0.3,4.1-1.4c0.7-0.8,0.9-1.5,1-3.2l0-1.5l-0.8,0.7c-1.1,1.1-2.3,1.6-3.8,1.6
		c-3.4,0-5.6-2.4-6-6.6c-0.1-1,0.1-2.9,0.4-3.9c0.9-2.8,2.5-4.2,5.4-4.5C139.4,66.8,139.8,66.8,140.3,66.9 M197.9,67.1
		c1.7,0.4,2.9,1.2,3.5,2.6c0.5,1.1,0.6,1.9,0.6,7.4l0,4.7h-1.9h-1.9l-0.1-0.6c0-0.3-0.1-0.8-0.1-1v-0.4l-0.6,0.6
		c-0.7,0.7-1.1,1-2,1.4c-0.8,0.3-2.3,0.4-3.2,0.2c-1-0.2-2.2-0.8-2.8-1.5c-0.7-0.8-1-1.6-1-3c0-1,0-1.2,0.3-1.9c0.8-1.8,2.7-2.7,6-3
		c0.7-0.1,1.7-0.1,2.3,0l0.9,0.1l-0.1-0.7c-0.2-2-1.2-2.7-3.8-2.5c-1.4,0.1-2.1,0.2-3.2,0.7c-0.3,0.2-0.7,0.3-0.7,0.2
		c0,0-0.1-0.6-0.1-1.4l-0.1-1.3l0.3-0.1c0.7-0.3,2.4-0.7,3.4-0.8C195.2,66.7,196.8,66.8,197.9,67.1 M213.4,67
		c0.4,0.1,0.9,0.2,1.1,0.2l0.4,0.1l-0.1,1.4c0,0.8-0.1,1.4-0.1,1.4c0,0-0.5-0.1-1.1-0.3c-1.5-0.4-3.2-0.4-4-0.1
		c-1.1,0.5-1.2,1.7-0.1,2.2c0.2,0.1,1,0.4,1.7,0.7c2.3,0.8,3.4,1.5,3.9,2.6c0.3,0.5,0.3,0.7,0.3,1.9c0,1.1,0,1.4-0.3,1.9
		c-0.5,1.2-1.8,2.2-3.4,2.6c-1.5,0.4-4.4,0.3-6.2-0.2l-0.6-0.2l0.1-1.5c0-0.8,0.1-1.5,0.1-1.6c0,0,0.3,0.1,0.6,0.2
		c0.3,0.2,1,0.4,1.4,0.5c0.9,0.2,2.9,0.3,3.4,0.1c0.8-0.3,1.3-1.2,1-1.9c-0.2-0.5-0.8-0.9-2.6-1.6c-3-1.2-3.9-2.1-4-4
		c-0.2-2.4,1.6-4.2,4.7-4.7C210.3,66.7,212.5,66.8,213.4,67 M155.8,72.6c0.8,3,1.5,5.4,1.6,5.4c0,0,0.7-2.5,1.5-5.5l1.5-5.4l2,0
		c1.6,0,2,0,2,0.1c0,0.1-1.3,4-2.8,8.7c-1.9,5.7-3,8.8-3.3,9.4c-0.6,1.2-1.7,2.3-2.6,2.7c-0.6,0.2-0.9,0.3-2.1,0.3
		c-0.8,0-1.7-0.1-2.1-0.1l-0.6-0.1l0.1-1c0.1-1.7,0.1-1.8,0.4-1.7c0.1,0,0.7,0.1,1.3,0.1c1,0,1,0,1.5-0.3c0.5-0.4,1.1-1.4,1.3-2.3
		l0.1-0.5l-2.6-7.4c-1.4-4.1-2.6-7.5-2.7-7.6c0-0.1,0.4-0.1,2.1-0.1l2.2,0L155.8,72.6z M118.1,97.2c7.9,0.5,14.1,3,19.2,7.9
		c6.1,5.8,10,14.9,11.4,26.4c0.4,3.1,0.5,4.9,0.6,8.6c0.3,16.6-3.8,29.9-11.6,37.7c-4.3,4.3-9.6,6.8-16.3,7.8
		c-2,0.3-6.8,0.4-9.1,0.2c-7.9-0.7-13.7-3.3-18.7-8.5c-4.7-4.8-7.9-11.6-9.6-19.9c-1.6-8.2-1.9-18.6-0.6-27.3
		c1.3-9,4.1-16.4,8.4-21.9c1-1.3,3.2-3.5,4.4-4.5c4.9-3.9,10.9-6.1,17.9-6.4C116,97,116.3,97.1,118.1,97.2 M192.4,97.3
		c15.5,1.4,25.6,12.7,28.7,32c1,6.1,1.2,13.5,0.6,20.2c-1.2,12.3-5,22-11.3,28.2c-4.7,4.7-10.9,7.4-18.3,8c-1.9,0.2-7.1,0.1-8.9-0.2
		c-4.8-0.7-8.7-2-12-4.2c-8.2-5.4-13.3-14.7-15.1-27.6c-0.7-5.1-1-11.1-0.7-16.5c0.8-16.5,6-28.6,15-35
		C176.2,98.3,183.8,96.5,192.4,97.3 M222,97.7c0,0.2-0.1,0.2-0.9,0.2l-0.9,0l0,2.8l0,2.8h-0.3h-0.3v-2.9v-2.9h-0.9
		c-0.8,0-0.9,0-0.9-0.2c0-0.2,0.1-0.2,2.1-0.2C221.9,97.5,222,97.5,222,97.7 M225,100.2l1.1,2.8l0.2-0.4c0.1-0.2,0.6-1.5,1.1-2.8
		l0.9-2.3h0.5h0.5v3.1v3.1H229h-0.3v-2.8c0-1.5,0-2.7-0.1-2.7c0,0-0.6,1.3-1.2,2.7c-1.1,2.6-1.1,2.7-1.4,2.7s-0.3,0-1.4-2.7
		c-0.6-1.5-1.1-2.7-1.2-2.7c0,0-0.1,1.2-0.1,2.7c0,2.7,0,2.8-0.2,2.8c-0.2,0-0.2-0.1-0.2-3.1v-3.1h0.4h0.4L225,100.2z M71,104.8v6.4
		H53H35l-0.1,0.5c-0.1,0.5-0.9,19-0.8,19.8v0.4l0.8-0.2c1.1-0.3,3-0.5,4.7-0.7c1.8-0.1,7.5-0.1,9.2,0c8.1,0.7,14,2.8,18.6,6.7
		c3.4,2.9,5.9,7.1,7,12c0.9,4,0.9,9.1,0,13.2c-1.1,5.1-3.9,10-7.8,13.5c-5.6,5-13,8.2-22.2,9.3c-1.9,0.2-8.2,0.3-11,0.2
		c-5.4-0.3-10.1-1-14.3-2.1c-1.2-0.3-3.7-1-3.8-1.1c0,0,0.1-3,0.4-6.7c0.2-3.7,0.4-6.7,0.4-6.8c0,0,0.3,0,0.6,0.1
		c2.6,1,6.4,2,9.6,2.5c3.4,0.5,4.6,0.6,8.9,0.6c4.5,0,5.7-0.1,8.5-0.8c4.8-1.2,8.5-3.6,10.5-6.9c1.6-2.7,2.3-6.4,1.9-10
		c-0.4-3.2-1.7-6-3.9-8c-1.9-1.7-4.7-3.1-8.1-3.8c-6.8-1.5-15.8-1-25.1,1.6c-0.8,0.2-1.5,0.4-1.5,0.3c-0.1-0.1,0.7-42.2,0.8-44.8
		l0.1-1.6h26.3H71V104.8z"/>
	<path fill="#FFFFFF" d="M18.5,15.5c-0.9,0-1.9,0.1-2.2,0.1l-0.6,0v11.2V38l4.2-0.1c4.5-0.1,5.4-0.1,7.3-0.7
		c3.8-1.1,6.5-3.7,7.5-7.3c0.7-2.8,0.5-6-0.6-8.4c-1.5-3.2-4.4-5.1-8.7-5.9C23.9,15.5,20.9,15.4,18.5,15.5 M24.9,20.2
		c3,0.9,4.6,3.6,4.4,7c-0.2,2.7-1.3,4.6-3.2,5.6c-1.2,0.6-1.9,0.7-3.6,0.7H21v-6.8V20l0.3-0.1C22.1,19.8,24.2,20,24.9,20.2"/>
	<polygon fill="#FFFFFF" points="54.8,26.9 54.8,37.9 57.5,37.9 60.2,37.9 60.2,26.9 60.2,15.9 57.5,15.9 54.8,15.9 	"/>
	<polygon fill="#FFFFFF" points="82.1,18 82.1,20.1 84.8,20.1 87.5,20.1 87.5,18 87.5,15.9 84.8,15.9 82.1,15.9 	"/>
	<path fill="#FFFFFF" d="M94.4,16.9c-1.4,0.2-2.6,0.3-2.6,0.3c0,0,0,1,0,2.2v2.2l-1,0l-1,0v2v2l1,0l1,0v3.7c0,4.3,0.1,5,0.7,6.3
		c0.6,1.2,1.5,2,2.9,2.3c1.1,0.3,4.6,0.1,5.6-0.2c0.2-0.1,0.2-0.3,0.2-2.2v-2.1l-0.4,0.1c-0.8,0.2-2,0.2-2.4,0.1
		c-0.5-0.2-1-0.8-1.2-1.3c-0.1-0.2-0.1-1.7-0.1-3.5v-3.1l1.8,0l1.8,0v-2v-2l-1.8,0l-1.8,0v-2.5c0-1.4,0-2.5-0.1-2.5
		C97.1,16.6,95.9,16.7,94.4,16.9"/>
	<path fill="#FFFFFF" d="M107.1,16.9c-1.4,0.2-2.6,0.3-2.6,0.3c0,0,0,1,0,2.2v2.2l-1,0l-1,0v2v2l1,0l1,0v3.7c0,4.1,0.1,5,0.6,6.2
		c0.9,1.9,2.3,2.6,5,2.6c1.2,0,3.1-0.2,3.6-0.4c0.2-0.1,0.2-0.3,0.2-2.2v-2.1l-0.4,0.1c-0.8,0.2-2,0.2-2.4,0.1
		c-0.5-0.2-1-0.6-1.2-1.2c-0.1-0.2-0.1-1.4-0.1-3.6l0-3.2h1.7h1.7v-2.1v-2.1h-1.7h-1.7v-2.5c0-1.4,0-2.5-0.1-2.5
		C109.7,16.6,108.5,16.7,107.1,16.9"/>
	<path fill="#FFFFFF" d="M43.3,21.4c-3,0.5-5.2,2.6-6.1,5.7c-0.4,1.3-0.4,3.8-0.1,5.2c1,4.2,4.7,6.4,10,6c0.7-0.1,1.6-0.2,1.9-0.2
		c0.8-0.2,2.2-0.7,2.3-0.8c0,0-0.1-0.9-0.3-1.9l-0.4-1.8l-0.8,0.3c-0.4,0.1-1.3,0.3-2,0.4c-2.6,0.3-4.6-0.4-5.4-1.8
		c-0.4-0.8-0.8-0.8,4.8-0.8c3.9,0,5,0,5-0.1c0-0.1,0-0.6,0.1-1.1c0.1-1.2,0-2.8-0.3-3.9c-0.7-2.4-2.4-4.2-4.8-4.9
		C46.4,21.3,44,21.2,43.3,21.4 M45.4,25.2c0.8,0.2,1.6,1.2,1.8,2.2l0.1,0.4h-2.7h-2.7v-0.3c0-0.4,0.4-1.2,0.8-1.6
		C43.4,25.2,44.4,24.9,45.4,25.2"/>
	<path fill="#FFFFFF" d="M69.8,21.4c-3.5,0.5-6,2.7-6.8,6.2c-0.3,1.4-0.3,3.4,0,4.7c0.8,3,3,5.2,6.1,5.8c1.1,0.2,3.1,0.2,4.2,0
		c3.3-0.8,5.5-3,6.2-6.2c0.3-1.2,0.2-3.3,0-4.4c-0.7-3-2.7-5.1-5.6-5.8C72.8,21.3,70.9,21.2,69.8,21.4 M72.2,25.6
		c1.2,0.6,1.9,2.4,1.8,4.6c-0.1,2.5-1.2,4-2.8,4c-1.1,0-2-0.7-2.5-1.9c-1-2.7-0.2-6.1,1.6-6.8C70.7,25.3,71.8,25.4,72.2,25.6"/>
	<path fill="#FFFFFF" d="M121.4,21.4c-2.5,0.4-4.4,1.9-5.5,4.2c-0.6,1.3-0.8,2.2-0.9,4c-0.1,2,0.1,2.9,0.8,4.4
		c1.5,3.1,4.9,4.7,9.3,4.3c0.7-0.1,1.6-0.2,1.9-0.2c0.8-0.2,2.2-0.7,2.3-0.8c0.1-0.1-0.7-3.6-0.8-3.7c0,0-0.4,0.1-0.9,0.2
		c-2.7,0.8-5.4,0.5-6.7-0.7c-0.4-0.3-0.8-1.1-0.8-1.4c0-0.1,1.1-0.1,5-0.1c2.8,0,5,0,5,0c0.2-2.2,0.2-3.6-0.2-5.1
		c-0.7-2.4-2.4-4.2-4.7-4.9C124.5,21.3,122.2,21.2,121.4,21.4 M123.6,25.2c0.9,0.2,1.6,1.2,1.8,2.2l0.1,0.4h-2.7h-2.7v-0.3
		c0-0.4,0.4-1.2,0.8-1.6C121.6,25.2,122.6,24.9,123.6,25.2"/>
	<polygon fill="#FFFFFF" points="82.1,29.7 82.1,37.9 84.8,37.9 87.5,37.9 87.5,29.7 87.5,21.6 84.8,21.6 82.1,21.6 	"/>
	<path fill="#FFFFFF" d="M34,69.5c-1,0.3-2,1.7-2.1,3L31.8,73h3.1h3.1l-0.1-0.7c-0.1-1.4-0.8-2.5-1.7-2.9
		C35.8,69.3,34.5,69.3,34,69.5"/>
	<path fill="#FFFFFF" d="M98.2,69.7c-1.4,0.4-2.2,1.6-2.4,3.7c-0.1,1,0,2.2,0.2,3.2c0.3,1.2,1.2,2.3,2.2,2.5c1.2,0.3,2.5-0.1,3.2-1
		c1.3-1.8,1.3-5.7,0-7.4C100.7,69.8,99.3,69.4,98.2,69.7"/>
	<path fill="#FFFFFF" d="M123.1,69.7c-1.1,0.3-1.8,1.1-2.2,2.4c-0.2,0.6-0.2,1-0.2,2.2c0,2.1,0.4,3.3,1.2,4.1c0.5,0.5,1,0.7,1.8,0.8
		c1.5,0.1,2.6-0.6,3.2-2.3c0.3-0.8,0.4-3.3,0.2-4.3c-0.2-0.8-0.7-1.9-1.1-2.3C125.2,69.7,124.1,69.4,123.1,69.7"/>
	<path fill="#FFFFFF" d="M140,69.8c-1.3,0.4-1.9,1.5-2.1,3.4c-0.4,3.1,0.6,5.2,2.4,5.6c1.6,0.3,2.9-0.6,3.5-2.3
		c0.2-0.8,0.3-2.4,0.2-3.5c-0.2-1.1-0.8-2.3-1.3-2.8C141.9,69.7,140.8,69.5,140,69.8"/>
	<path fill="#FFFFFF" d="M195.2,75c-1.4,0.3-2.2,0.7-2.5,1.4c-0.7,1.5,0.2,3.1,1.9,3.1c2.1,0,3.3-1.4,3.6-3.9l0.1-0.8l-1.1,0
		C196.5,74.8,195.6,74.9,195.2,75"/>
	<path fill="#FFFFFF" d="M114.5,109.7c-1.7,0.2-3.2,0.7-4.8,1.6c-1,0.6-2.9,2.4-3.7,3.6c-2.7,4.1-4.1,10-4.6,19.4
		c-0.1,3.1-0.1,14.6,0.1,16.9c0.6,6.9,1.5,11.1,3.2,14.7c1.5,3.1,3.3,5,5.9,6.3c1.6,0.7,2.6,1,4.6,1c1.9,0.1,3.1-0.1,4.5-0.5
		c5.9-1.9,9.4-8.3,10.5-19.7c0.7-7.4,0.6-19-0.2-25.6c-0.9-7.1-2.8-11.8-5.8-14.7c-2-1.9-4.1-2.8-6.9-3.1
		C116.1,109.6,115.7,109.6,114.5,109.7"/>
	<path fill="#FFFFFF" d="M187.1,109.7c-1.8,0.2-3.7,0.8-5,1.7c-1,0.6-2.8,2.5-3.5,3.6c-2.2,3.4-3.5,8.1-4.2,14.8
		c-0.7,7.2-0.6,19.4,0.2,25.8c1.3,10.2,4.8,15.8,10.6,17.4c1.5,0.4,4.1,0.5,5.7,0.2c5.7-1,9.3-5.6,11.1-14c1-4.8,1.4-9.4,1.4-17.7
		c0-5.4-0.1-8.1-0.4-11.5c-1.1-11.3-4.4-17.6-10.2-19.6C191.2,109.7,188.8,109.5,187.1,109.7"/>
	<path fill="#FFFFFF" d="M136,35.8c0,1.2-1,2.2-2.2,2.2s-2.2-1-2.2-2.2c0-1.2,1-2.2,2.2-2.2S136,34.6,136,35.8"/>
</g>
</svg>
