<?xml version="1.0" encoding="utf-8"?>
<!-- Generator: Adobe Illustrator 17.1.0, SVG Export Plug-In . SVG Version: 6.00 Build 0)  -->
<!DOCTYPE svg PUBLIC "-//W3C//DTD SVG 1.1//EN" "http://www.w3.org/Graphics/SVG/1.1/DTD/svg11.dtd">
<svg version="1.1" id="Layer_1" xmlns="http://www.w3.org/2000/svg" xmlns:xlink="http://www.w3.org/1999/xlink" x="0px" y="0px"
	 viewBox="0 0 435 180" enable-background="new 0 0 435 180" xml:space="preserve">
<g>
	<path fill="#332F2E" d="M102.7,81.7h-7.7v-7.8h23.8v7.8h-7.7v35.7h-8.4V81.7z"/>
	<path fill="#332F2E" d="M121.1,72.8h8.4v16.4h0.1c0.7-1.1,1.7-2,2.7-2.7c1.2-0.7,2.7-1.1,4.2-1.1c5.8,0,8,4.9,8,12.9v19.2h-8.4
		V98.3c0-3.1-0.6-5.8-3.1-5.8c-1.4,0-2.6,0.8-3.3,3c-0.1,0.5-0.3,1.7-0.3,2.4v19.6h-8.4V72.8z"/>
	<path fill="#332F2E" d="M156.5,104.7c0.1,4.9,3,6.7,6.7,6.7c2.4,0,4.5-0.5,6-1l1.2,6.1c-2.2,0.8-5.5,1.4-8.7,1.4
		c-8.6,0-13.3-5.7-13.3-15.6c0-10.6,5.5-16.9,12.6-16.9c6.8,0,10.7,5.4,10.7,14.9c0,2.3-0.1,3.5-0.3,4.4H156.5z M164,98.7
		c0-4.1-1-7.2-3.5-7.2c-2.8,0-3.9,4.1-3.9,7.2H164z"/>
	<path fill="#332F2E" d="M209.2,116.3c-1.9,0.8-5.9,1.6-9,1.6c-5,0-8.7-1.4-11.6-4.3c-3.7-3.6-5.7-10.1-5.6-17.6
		c0.2-15.8,9.2-22.4,18.4-22.4c3.3,0,5.7,0.6,7.1,1.3l-1.5,7.3c-1.2-0.6-2.8-1-5-1c-5.7,0-10.3,3.9-10.3,15.3
		c0,10.5,4.1,14.2,8,14.2c0.8,0,1.4-0.1,1.7-0.2V100h-3.9V93h11.6V116.3z"/>
	<path fill="#332F2E" d="M213.6,72.8h8.4v44.7h-8.4V72.8z"/>
	<path fill="#332F2E" d="M249.9,101.6c0,13.2-7.3,16.4-12,16.4c-7.5,0-12-5.9-12-16.2c0-11.4,5.9-16.4,12.2-16.4
		C245.4,85.4,249.9,91.6,249.9,101.6z M234.2,101.6c0,5.4,0.8,9.9,3.9,9.9c2.7,0,3.4-5.3,3.4-9.9c0-4.3-0.7-9.8-3.5-9.8
		C234.8,91.8,234.2,97.2,234.2,101.6z"/>
	<path fill="#332F2E" d="M253.1,117.5c0.1-2.8,0.3-6.3,0.3-9.4V72.8h8.4V89h0.1c1.5-2.3,3.5-3.7,6.6-3.7c6.1,0,8.9,6.9,8.9,15.4
		c0,11-4.4,17.2-10.2,17.2c-2.6,0-4.5-1.1-6.2-4.3h-0.2l-0.5,3.7H253.1z M261.8,106.2c0,0.8,0.1,1.6,0.3,2c0.7,2.3,1.9,2.9,2.9,2.9
		c2.8,0,4-3.6,4-9.6c0-5.4-1.2-9-4.1-9c-1.3,0-2.4,1.4-2.8,2.9c-0.2,0.5-0.3,1.4-0.3,1.9V106.2z"/>
	<path fill="#332F2E" d="M295.2,117.5l-0.5-3.1h-0.1c-1.7,2.5-4.2,3.6-7,3.6c-4.8,0-8.3-4-8.3-9.6c0-8.3,7.3-11.7,14.4-11.8v-0.7
		c0-2.5-1.5-4.3-4.4-4.3c-2.5,0-4.6,0.6-6.4,1.8l-1.5-5.7c1.7-1,5.4-2.4,9.8-2.4c9.6,0,11.1,6.7,11.1,13.1v11.8
		c0,2.5,0.1,5.1,0.5,7.2H295.2z M294,102.1c-2.8,0.1-6.7,1-6.7,5.4c0,3.2,1.7,4.3,3,4.3c1.4,0,2.9-0.8,3.5-2.7
		c0.1-0.5,0.2-1,0.2-1.5V102.1z"/>
	<path fill="#332F2E" d="M307.1,72.8h8.4v44.7h-8.4V72.8z"/>
</g>
<g>
	<path fill="#20AD65" d="M97.2,66.5V35.7h6.7v30.8H97.2z"/>
	<path fill="#20AD65" d="M133.7,66.5l-2.8-7.6h-13.1l-3.4,7.6h-6.7l12.7-30.8h7.5l13,30.8H133.7z M129.6,54.9l-5.3-12.6L119,54.9
		H129.6z"/>
	<path fill="#20AD65" d="M142.2,50.8c0-4.4,1-7.9,3-10.6c2.8-3.9,7.4-5.8,13.9-5.8c6.5,0,11.1,1.9,13.9,5.8c2,2.7,3,6.2,3,10.6
		c0,4.4-1,7.9-3,10.6c-2.8,3.9-7.4,5.8-13.9,5.8c-6.5,0-11.1-1.9-13.9-5.8C143.2,58.7,142.2,55.2,142.2,50.8z M150.1,50.8
		c0,2.7,0.7,5,2,6.8c1.6,2.2,4,3.3,7.1,3.3c3.1,0,5.5-1.1,7.1-3.3c1.4-1.8,2-4.1,2-6.8c0-2.7-0.7-5-2-6.8c-1.6-2.2-4-3.3-7.1-3.3
		c-3.1,0-5.5,1.1-7.1,3.3C150.8,45.8,150.1,48.1,150.1,50.8z"/>
	<path fill="#20AD65" d="M181.7,66.3v-31h15.8c4,0,6.9,1,8.7,3.1c1.4,1.6,2.2,3.7,2.2,6.3c0,3.4-0.9,5.9-2.6,7.8
		c-1.7,1.8-4.3,2.7-7.6,2.7H188v11.1H181.7z M188,41v8.6h7.1c1.8,0,3.1-0.2,3.8-0.6c1.2-0.6,1.8-1.8,1.8-3.7c0-1.8-0.5-3.1-1.5-3.7
		c-0.7-0.5-1.8-0.7-3.3-0.7H188z"/>
</g>
<g>
	<path fill="#332F2E" d="M122.7,144.6c0,16.4-5.8,23.1-14,23.1c-9.8,0-13.7-10.5-13.7-22.4c0-11.9,4.7-22.1,14.3-22.1
		C119.7,123.1,122.7,134.6,122.7,144.6z M103.7,145.3c0,9.9,1.9,14.9,5.3,14.9c3.5,0,4.9-6.5,4.9-15.3c0-7.6-1.2-14.5-5-14.5
		C105.6,130.4,103.7,136,103.7,145.3z"/>
	<path fill="#332F2E" d="M150,157.5c0,3.4,0.1,6.7,0.3,9.6H143l-0.5-3.4h-0.1c-1.5,2.1-4.1,3.9-7.3,3.9c-6,0-8.4-4.5-8.4-13v-19.1
		h8.5v18.2c0,4.1,0.8,6.8,3.2,6.8c1.4,0,2.3-1.1,2.7-2.1c0.3-0.6,0.5-1.6,0.5-2.7v-20.1h8.4V157.5z"/>
	<path fill="#332F2E" d="M164.8,127v8.5h6.2v6h-6.2v14.4c0,3.7,1.5,4.6,3.2,4.6c0.8,0,1.5-0.1,2.2-0.2l0.1,6.6
		c-1.2,0.3-2.9,0.6-5.1,0.6c-2.4,0-4.6-0.6-6.1-2c-1.7-1.7-2.7-4.1-2.7-9v-14.9h-3.7v-6h3.7V129L164.8,127z"/>
	<path fill="#332F2E" d="M173.5,159.5c1.2,0.8,3.5,1.7,5.7,1.7c2.2,0,3.4-1,3.4-2.8c0-1.6-0.9-2.6-3.7-4.3c-5.1-2.9-6.4-6.2-6.4-9.1
		c0-5.7,4.1-9.9,10.4-9.9c2.6,0,4.7,0.6,6.4,1.4l-1.5,6.2c-1.2-0.7-2.7-1.3-4.4-1.3c-2.1,0-3.2,1.3-3.2,2.7c0,1.4,0.7,2.2,3.7,3.9
		c4.6,2.6,6.4,5.9,6.4,9.6c0,6.5-4.6,9.9-11.1,9.9c-2.6,0-5.7-0.7-7.2-1.8L173.5,159.5z"/>
	<path fill="#332F2E" d="M216.4,151.2c0,13.2-7.3,16.4-12,16.4c-7.5,0-12-5.9-12-16.2c0-11.4,5.9-16.4,12.2-16.4
		C211.9,135,216.4,141.3,216.4,151.2z M200.7,151.2c0,5.4,0.8,9.9,3.9,9.9c2.7,0,3.4-5.3,3.4-9.9c0-4.3-0.7-9.8-3.5-9.8
		C201.3,141.4,200.7,146.9,200.7,151.2z"/>
	<path fill="#332F2E" d="M243,157.5c0,3.4,0.1,6.7,0.3,9.6H236l-0.5-3.4h-0.1c-1.5,2.1-4.1,3.9-7.3,3.9c-6,0-8.4-4.5-8.4-13v-19.1
		h8.5v18.2c0,4.1,0.8,6.8,3.2,6.8c1.4,0,2.3-1.1,2.7-2.1c0.3-0.6,0.5-1.6,0.5-2.7v-20.1h8.4V157.5z"/>
	<path fill="#332F2E" d="M247.9,145c0-3.2-0.1-6.6-0.3-9.5h7.3l0.5,4.6h0.2c1.4-3.4,3.9-5.1,6.2-5.1c0.8,0,1.3,0,1.8,0.1v8.4
		c-0.5-0.1-1.1-0.1-1.8-0.1c-1.8,0-4.2,1.2-5.1,4.5c-0.2,0.7-0.3,1.8-0.3,3.2v16h-8.5V145z"/>
	<path fill="#332F2E" d="M282.9,166.6c-0.8,0.4-3,0.9-5.3,0.9c-8,0-13.2-5.6-13.2-15.9c0-9.8,5.7-16.5,14.4-16.5
		c2,0,3.8,0.5,4.6,0.8l-1.1,6.7c-0.7-0.3-1.7-0.6-3.2-0.6c-4.1,0-6.4,3.9-6.4,9.4c0,5.7,2.4,9.2,6.3,9.2c1.2,0,2.3-0.2,3.2-0.6
		L282.9,166.6z"/>
	<path fill="#332F2E" d="M293.5,127.1c0.1,2.7-1.9,4.6-4.4,4.6c-2.3,0-4.2-1.9-4.2-4.6c-0.1-2.8,2-4.6,4.3-4.6
		C291.6,122.5,293.5,124.3,293.5,127.1z M285.1,167.1v-31.6h8.4v31.6H285.1z"/>
	<path fill="#332F2E" d="M298.3,145c0-3.5-0.2-6.5-0.3-9.5h7.3l0.4,3.6h0.1c1.7-2.5,4.4-4.1,7.7-4.1c6,0,8.4,4.8,8.4,11.8v20.3h-8.4
		v-19.8c0-2.7-0.6-5.2-3.1-5.2c-1.4,0-2.6,1-3.2,2.8c-0.3,0.6-0.5,1.7-0.5,2.9v19.2h-8.4V145z"/>
	<path fill="#332F2E" d="M349.8,135.5c-0.1,2.8-0.3,6.2-0.3,10v18c0,6.8-1.2,10.5-3.8,13c-2.3,2.2-5.6,3.5-10.2,3.5
		c-2.9,0-5.6-0.5-7.9-1.5l1.5-6.5c1.6,0.7,3.6,1.4,6.1,1.4c4.2,0,5.9-2.8,5.9-7.7v-1.9H341c-1.1,2-3.3,3.2-5.7,3.2
		c-7.1,0-9.8-7.7-9.8-15.3c0-10.5,4.8-16.6,10.6-16.6c2.5,0,4.6,1.3,5.8,3.7h0.1l0.5-3.2H349.8z M341.1,147c0-0.8-0.1-1.7-0.3-2.3
		c-0.4-1.4-1.3-2.6-2.7-2.6c-3,0-4.2,4.1-4.2,9.3c0,5.9,1.7,8.8,4.1,8.8c1.1,0,2.2-0.6,2.8-2.3c0.3-0.7,0.4-1.7,0.4-2.5V147z"/>
</g>
<g>
	<path fill="#332F2E" d="M368.1,133.1h-0.1l-7.1,3.7l-1.4-6.6l9.6-5h7.4v42h-8.4V133.1z"/>
	<path fill="#332F2E" d="M408.7,145.9c0,15-5.5,21.7-12.2,21.7c-9.1,0-12.2-10.5-12.2-21.3c0-12.1,3.9-21.7,12.6-21.7
		C406.5,124.6,408.7,135.9,408.7,145.9z M392.8,146.1c-0.1,9.8,1.1,14.3,3.9,14.3c2.6,0,3.5-4.6,3.5-14.3c0-9-0.8-14.3-3.5-14.3
		C394.1,131.8,392.7,136.4,392.8,146.1z"/>
	<path fill="#332F2E" d="M435,145.9c0,15-5.5,21.7-12.2,21.7c-9.1,0-12.2-10.5-12.2-21.3c0-12.1,3.9-21.7,12.6-21.7
		C432.7,124.6,435,135.9,435,145.9z M419,146.1c-0.1,9.8,1.1,14.3,3.9,14.3c2.6,0,3.5-4.6,3.5-14.3c0-9-0.8-14.3-3.5-14.3
		C420.3,131.8,419,136.4,419,146.1z"/>
</g>
<g>
	<path fill="#332F2E" d="M85.4,97.7h-3.3L79,95.3c-4-3.2-7.3-5.8-10.8-5.8c-1.9,0-3.3,1.1-3.3,3.1c0,1.5,0.7,2.8,1.2,3.7l-3.8,0.9
		c-0.7-1.1-1.5-3.2-1.5-5.4c0-5.3,3.6-7.1,7-7.1c4.6,0,8.2,2.9,11.5,5.7l1.7,1.5h0.1v-7.5h4.3V97.7z"/>
	<path fill="#332F2E" d="M73.1,67.7c8.7,0,12.6,3.2,12.6,7.1c0,5.3-6.1,7.1-12.4,7.1c-7,0-12.6-2.3-12.6-7.3
		C60.8,69,67.3,67.7,73.1,67.7z M73.2,77c5.7,0.1,8.3-0.6,8.3-2.3c0-1.5-2.7-2.1-8.3-2.1c-5.2,0-8.3,0.5-8.3,2.1
		C65,76.2,67.6,77,73.2,77z"/>
	<path fill="#332F2E" d="M65.7,60.3L65.7,60.3l2.1,4.2L64,65.3l-2.9-5.6v-4.3h24.4v4.9H65.7z"/>
	<path fill="#332F2E" d="M61.1,36.4h3.2l21.1,7.7v4.8l-20-7.5h-0.1v8.3h-4.3V36.4z"/>
</g>
<g>
	<path fill="#20AD65" d="M115.2,12.2v7c12.3,1,24,3.7,34.2,7.9h16.1C152.2,19.1,134.7,13.6,115.2,12.2z"/>
	<path fill="#20AD65" d="M26.1,65.5c0-0.3,0-0.6,0-1h-0.4h-7.3H0V71h18.9c4.2,24.4,35,44,74.1,47.3v-6.5
		c-17.2-1.6-32.9-6.5-45.3-14.3C33.8,88.6,26.1,77.3,26.1,65.5z"/>
	<path fill="#20AD65" d="M98.4,12c-38.6,1.8-70.2,19.3-78.1,42.2h8.3c3.3-7.5,9.8-14.6,19.2-20.5c15.1-9.5,35.4-14.8,57-14.8v-0.2
		v-6.7V0h-6.4V12z"/>
</g>
</svg>
