<?xml version="1.0" encoding="utf-8"?>
<!-- Generator: Adobe Illustrator 17.1.0, SVG Export Plug-In . SVG Version: 6.00 Build 0)  -->
<!DOCTYPE svg PUBLIC "-//W3C//DTD SVG 1.1//EN" "http://www.w3.org/Graphics/SVG/1.1/DTD/svg11.dtd">
<svg version="1.1" id="Layer_1" xmlns="http://www.w3.org/2000/svg" xmlns:xlink="http://www.w3.org/1999/xlink" x="0px" y="0px"
	 viewBox="0 0 339.2 134.7" enable-background="new 0 0 339.2 134.7" xml:space="preserve">
<path fill="none" stroke="#20AD65" stroke-width="1.2" stroke-miterlimit="10" d="M330,0.6H9.2c-4.7,0-8.6,3.9-8.6,8.6v116.3
	c0,4.7,3.9,8.6,8.6,8.6H330c4.7,0,8.6-3.9,8.6-8.6V9.2C338.6,4.5,334.7,0.6,330,0.6z"/>
<g>
	<path fill="#332C2C" stroke="#2E2E2E" stroke-width="0.5" stroke-miterlimit="10" d="M138.2,97.3h-3.5V81.9l-5.3,11.2h-2.6
		l-5.4-11.2v15.4h-3.5v-23h3.5l6.7,14.3l6.6-14.3h3.5V97.3z"/>
	<path fill="#332C2C" stroke="#2E2E2E" stroke-width="0.5" stroke-miterlimit="10" d="M156.2,89h-10.6c0,1.1,0.2,2,0.5,2.8
		c0.3,0.8,0.8,1.4,1.4,1.8c0.6,0.4,1.4,0.6,2.3,0.6s1.6-0.1,2.2-0.4c0.6-0.3,1.2-0.8,1.8-1.5l2.1,2.2c-0.9,1-1.8,1.8-2.7,2.2
		c-0.9,0.5-2.1,0.7-3.4,0.7c-1.1,0-2-0.2-2.9-0.5c-0.9-0.3-1.7-0.9-2.3-1.6c-0.7-0.8-1.2-1.7-1.5-3c-0.4-1.2-0.6-2.7-0.6-4.4
		c0-2,0.3-3.7,0.9-5.1c0.6-1.4,1.4-2.5,2.4-3.3c1-0.8,2.3-1.1,3.7-1.1c1.4,0,2.7,0.4,3.7,1.1s1.9,1.8,2.4,3.2
		c0.5,1.4,0.8,2.9,0.8,4.7V89z M152.9,86.4c0-1-0.2-1.8-0.4-2.5c-0.3-0.7-0.7-1.3-1.2-1.7s-1.2-0.6-2-0.6c-0.8,0-1.4,0.2-2,0.6
		s-1,1-1.3,1.7c-0.1,0.4-0.2,0.7-0.3,1c0,0.3-0.1,0.8-0.1,1.5H152.9z"/>
	<path fill="#332C2C" stroke="#2E2E2E" stroke-width="0.5" stroke-miterlimit="10" d="M219.8,89h-10.6c0,1.1,0.2,2,0.5,2.8
		c0.3,0.8,0.8,1.4,1.4,1.8c0.6,0.4,1.4,0.6,2.3,0.6s1.6-0.1,2.2-0.4c0.6-0.3,1.2-0.8,1.8-1.5l2.1,2.2c-0.9,1-1.8,1.8-2.7,2.2
		c-0.9,0.5-2.1,0.7-3.4,0.7c-1.1,0-2-0.2-2.9-0.5c-0.9-0.3-1.7-0.9-2.3-1.6c-0.7-0.8-1.2-1.7-1.5-3c-0.4-1.2-0.6-2.7-0.6-4.4
		c0-2,0.3-3.7,0.9-5.1c0.6-1.4,1.4-2.5,2.4-3.3s2.3-1.1,3.7-1.1c1.4,0,2.7,0.4,3.7,1.1s1.9,1.8,2.4,3.2c0.5,1.4,0.8,2.9,0.8,4.7V89z
		 M216.5,86.4c0-1-0.2-1.8-0.4-2.5c-0.3-0.7-0.7-1.3-1.2-1.7s-1.2-0.6-2-0.6c-0.8,0-1.4,0.2-2,0.6s-1,1-1.3,1.7
		c-0.1,0.4-0.2,0.7-0.3,1c0,0.3-0.1,0.8-0.1,1.5H216.5z"/>
	<path fill="#332C2C" stroke="#2E2E2E" stroke-width="0.5" stroke-miterlimit="10" d="M183.2,97.3h-3.3V85.2c0-1.2-0.3-2.1-0.9-2.7
		c-0.6-0.6-1.4-0.9-2.4-0.9c-0.9,0-1.7,0.3-2.4,0.9c-0.7,0.6-1,1.5-1,2.6v12.3h-3.3V85.2c0-0.8-0.1-1.5-0.4-2
		c-0.3-0.5-0.7-0.9-1.2-1.2s-1.1-0.4-1.7-0.4c-1,0-1.8,0.3-2.4,0.9c-0.6,0.6-1,1.5-1,2.7v12.1h-3.3V78.8h3.2v1.6
		c0.5-0.6,1.2-1,1.9-1.4c0.8-0.3,1.6-0.5,2.4-0.5c2.1,0,3.6,0.8,4.7,2.4c1.3-1.6,3-2.4,5.1-2.4c1.7,0,3.1,0.5,4.1,1.5
		c1.2,1.1,1.7,2.6,1.7,4.6V97.3z"/>
	<path fill="#332C2C" stroke="#2E2E2E" stroke-width="0.5" stroke-miterlimit="10" d="M202.1,89.1c0,1,0,1.9-0.1,2.7
		c-0.1,0.8-0.3,1.6-0.5,2.3c-0.3,0.7-0.7,1.4-1.2,1.9c-0.4,0.4-1,0.8-1.7,1.1c-0.7,0.3-1.5,0.4-2.3,0.4c-0.9,0-2.9,0-4.3,0
		c-0.7,0-2.8-1.1-2.8-3.4l-0.2-22.6c0-0.2,0.2-0.4,0.4-0.4h2.3c0.2,0,0.4,0.2,0.4,0.4v8.1c0,0.3,0.4,0.5,0.6,0.3
		c0.4-0.3,0.8-0.6,1.3-0.8c0.7-0.3,1.5-0.4,2.4-0.4c0.8,0,1.6,0.1,2.3,0.4c0.7,0.3,1.3,0.6,1.7,1.1c0.5,0.5,0.9,1.1,1.2,1.9
		c0.3,0.7,0.5,1.5,0.5,2.3C202,85,202.1,88.1,202.1,89.1z M198.8,89.1c0-1.1-0.1-4.2-0.3-5c-0.2-0.8-0.5-1.4-1-1.9
		c-0.5-0.5-1.2-0.7-2.1-0.7c-0.9,0-1.7,0.2-2.2,0.7c-0.5,0.5-0.8,1.1-1,1.9c-0.2,0.8-0.3,3.9-0.3,5c0,1.1,0.1,2.1,0.3,2.8
		c0.2,0.8,0.3,1.5,0.8,1.9c0.5,0.5,1.5,0.7,2.4,0.7c1.3,0,2.2-0.5,2.7-1.4C198.6,92.1,198.8,90.8,198.8,89.1z"/>
	<path fill="#332C2C" stroke="#2E2E2E" stroke-width="0.5" stroke-miterlimit="10" d="M232.9,81.4c0,0-2.3,0-2.9,0
		c-0.6,0-1.1,0.2-1.6,0.5c-0.5,0.3-0.9,0.7-1.2,1.3c-0.3,0.6-0.4,1.2-0.4,1.9v12.1h-3.3V78.7h3.2v1.8c0.4-0.6,1-1.1,1.8-1.4
		c0.8-0.4,1.6-0.5,2.5-0.5c0.8,0,2.1,0.2,2.1,0.2L232.9,81.4z"/>
</g>
<g>
	<path fill="#332C2C" stroke="#2E2E2E" stroke-width="0.5" stroke-miterlimit="10" d="M133.9,58.4h-3.5l-1.5-4.6h-8.5l-1.5,4.6h-3.5
		l7.9-23h2.6L133.9,58.4z M128.3,50.9l-3.5-10.2l-3.6,10.2H128.3z"/>
	<path fill="#332C2C" stroke="#2E2E2E" stroke-width="0.5" stroke-miterlimit="10" d="M143.2,58.4h-2c-1.5,0-2.6-0.4-3.4-1.3
		c-0.8-0.9-1.1-1.9-1.1-3.2V33.7h3.3v20c0,0.7,0.1,1.1,0.4,1.4s0.7,0.5,1.4,0.5h1.5V58.4z"/>
	<path fill="#332C2C" stroke="#2E2E2E" stroke-width="0.5" stroke-miterlimit="10" d="M152.6,58.4h-2c-1.5,0-2.6-0.4-3.4-1.3
		c-0.8-0.9-1.1-1.9-1.1-3.2V33.7h3.3v20c0,0.7,0.1,1.1,0.4,1.4s0.7,0.5,1.4,0.5h1.5V58.4z"/>
	<path fill="#332C2C" stroke="#2E2E2E" stroke-width="0.5" stroke-miterlimit="10" d="M157.9,58.4H155V40.8h2.8V58.4z"/>
	<path fill="#332C2C" stroke="#2E2E2E" stroke-width="0.5" stroke-miterlimit="10" d="M175.5,58.9h-3.2v-1.7
		c-0.6,0.7-1.2,1.2-1.9,1.5c-0.7,0.3-1.5,0.4-2.5,0.4c-1,0-1.8-0.1-2.6-0.4c-0.7-0.3-1.3-0.7-1.8-1.3c-0.9-1-1.3-2.3-1.3-4
		c0-1.1,0.2-2,0.6-2.8c0.4-0.8,1.1-1.4,1.9-1.9s1.9-0.7,3.1-0.7h4.3v-1.3c0-1.2-0.3-2.1-0.9-2.6c-0.6-0.6-1.5-0.8-2.7-0.8
		c-0.9,0-1.6,0.1-2.1,0.4c-0.5,0.3-1,0.7-1.5,1.4l-2.2-2.3c0.7-1,1.6-1.7,2.5-2.1c0.9-0.4,2-0.6,3.4-0.6c4.5,0,6.7,2.1,6.7,6.4V58.9
		z M172.2,52.2v-1.5h-3.8c-1,0-1.7,0.2-2.2,0.7s-0.7,1.1-0.7,2c0,1.8,1,2.6,3,2.6c0.7,0,1.3-0.1,1.8-0.2c0.5-0.1,0.9-0.4,1.3-0.9
		C172,54.4,172.2,53.5,172.2,52.2z"/>
	<path fill="#332C2C" stroke="#2E2E2E" stroke-width="0.5" stroke-miterlimit="10" d="M193.2,58.4h-3.3v-11c0-0.9-0.1-1.7-0.4-2.3
		c-0.3-0.6-0.7-1-1.2-1.3s-1.1-0.4-1.7-0.4c-1,0-1.8,0.3-2.4,1c-0.6,0.7-1,1.7-1,3v11h-3.3V40.3h3.2v1.8c0.5-0.7,1.2-1.2,2-1.5
		c0.8-0.4,1.6-0.5,2.4-0.5c1.7,0,3,0.6,4,1.7c1.1,1.2,1.7,2.9,1.7,5.1V58.4z"/>
	<path fill="#332C2C" stroke="#2E2E2E" stroke-width="0.5" stroke-miterlimit="10" d="M209.5,56c-0.5,0.6-1,1.1-1.6,1.5
		c-0.6,0.4-1.1,0.7-1.8,0.9s-1.3,0.3-2.1,0.3c-1.3,0-2.5-0.3-3.6-0.9c-1.1-0.6-2-1.7-2.7-3.1c-0.7-1.4-1-3.2-1-5.3
		c0-1.7,0.2-3.1,0.6-4.3c0.4-1.2,0.9-2.2,1.6-2.9s1.5-1.3,2.3-1.6c0.9-0.3,1.8-0.5,2.7-0.5c1.2,0,2.2,0.2,3,0.6
		c0.8,0.4,1.6,1.1,2.4,2l-2.3,2.4c-0.5-0.6-1-1.1-1.5-1.3c-0.5-0.3-1-0.4-1.7-0.4c-1.3,0-2.3,0.5-3,1.6c-0.4,0.5-0.6,1.1-0.7,1.8
		c-0.1,0.7-0.2,1.6-0.2,2.6c0,2,0.3,3.5,1,4.5c0.7,1.1,1.7,1.6,3,1.6c0.6,0,1.2-0.1,1.7-0.4c0.5-0.3,1-0.7,1.5-1.3L209.5,56z"/>
	<path fill="#332C2C" stroke="#2E2E2E" stroke-width="0.5" stroke-miterlimit="10" d="M245.5,46.9c0,1.8,0,3.2-0.1,4.2
		s-0.3,1.9-0.6,2.7c-0.3,0.8-0.8,1.6-1.5,2.4c-1.7,1.6-3.7,2.5-6.1,2.5c-2.4,0-4.4-0.8-6-2.4c-0.7-0.7-1.2-1.5-1.5-2.3
		c-0.3-0.8-0.5-1.7-0.6-2.7c-0.1-1-0.1-2.4-0.1-4.2c0-1.4,0-2.5,0.1-3.3c0-0.8,0.1-1.6,0.3-2.3c0.1-0.7,0.3-1.3,0.6-1.9
		c0.3-0.6,0.7-1.2,1.3-1.7c1.6-1.6,3.6-2.4,6-2.4c2.4,0,4.4,0.8,6.1,2.4c0.7,0.7,1.2,1.5,1.5,2.4c0.3,0.8,0.5,1.7,0.6,2.7
		C245.4,43.7,245.5,45.1,245.5,46.9z M242,46.9c0-2.3-0.1-3.9-0.3-4.8c-0.2-0.9-0.5-1.7-1.1-2.3c-0.4-0.4-0.9-0.8-1.5-1
		c-0.6-0.3-1.2-0.4-1.9-0.4c-0.7,0-1.3,0.1-1.9,0.4c-0.6,0.3-1.1,0.6-1.5,1c-0.6,0.6-0.9,1.4-1.1,2.3c-0.2,0.9-0.3,2.5-0.3,4.8
		c0,1.2,0,2.2,0.1,2.9c0,0.7,0.1,1.4,0.2,1.9c0.1,0.5,0.2,1,0.4,1.3c0.1,0.3,0.4,0.6,0.7,1c0.4,0.4,0.9,0.8,1.5,1
		c0.6,0.3,1.2,0.4,1.9,0.4c1.4,0,2.5-0.5,3.4-1.4c0.4-0.4,0.7-0.9,0.9-1.4c0.2-0.5,0.3-1.2,0.4-2.1C241.9,49.6,242,48.4,242,46.9z"
		/>
	<path fill="#332C2C" stroke="#2E2E2E" stroke-miterlimit="10" d="M267.3,58.4h-3.2l-10.6-16.2v16.2H250v-23h3.2l10.6,16.1V35.4h3.5
		V58.4z"/>
	<path fill="#332C2C" stroke="#2E2E2E" stroke-miterlimit="10" d="M287.3,58.4h-14.7v-23h14.7v3.1h-11.2v6.7h9.6v3.1h-9.6v6.9h11.2
		V58.4z"/>
	<circle fill="#332C2C" stroke="#2E2E2E" stroke-miterlimit="10" cx="156.4" cy="35.5" r="1.3"/>
	<path fill="#332C2C" stroke="#2E2E2E" stroke-width="0.5" stroke-miterlimit="10" d="M226.1,50.7h-10.6c0,1.1,0.2,2,0.5,2.8
		c0.3,0.8,0.8,1.4,1.4,1.8c0.6,0.4,1.4,0.6,2.3,0.6s1.6-0.1,2.2-0.4c0.6-0.3,1.2-0.8,1.8-1.5l2.1,2.2c-0.9,1-1.8,1.8-2.7,2.2
		c-0.9,0.5-2.1,0.7-3.4,0.7c-1.1,0-2-0.2-2.9-0.5c-0.9-0.3-1.7-0.9-2.3-1.6c-0.7-0.8-1.2-1.7-1.5-3c-0.4-1.2-0.6-2.7-0.6-4.4
		c0-2,0.3-3.7,0.9-5.1c0.6-1.4,1.4-2.5,2.4-3.3s2.3-1.1,3.7-1.1c1.4,0,2.7,0.4,3.7,1.1s1.9,1.8,2.4,3.2c0.5,1.4,0.8,2.9,0.8,4.7
		V50.7z M222.9,48.1c0-1-0.2-1.8-0.4-2.5s-0.7-1.3-1.2-1.7c-0.6-0.4-1.2-0.6-2-0.6c-0.8,0-1.4,0.2-2,0.6c-0.6,0.4-1,1-1.3,1.7
		c-0.1,0.4-0.2,0.7-0.3,1c0,0.3-0.1,0.8-0.1,1.5H222.9z"/>
</g>
<path fill="#20AD65" d="M66.1,101.3c-0.3,0-0.7,0-1,0l6.8-18.8h9.4c1.7,0,3.5-1.3,4-2.8l7.4-20.4c1.2-3.3-0.7-6.1-4.2-6.1h-13
	L64.5,83.4h0l-6.2,17.1c-14.7-3.5-25.7-16.7-25.7-32.5c0-15.3,10.3-28.3,24.4-32.2l-6.4,17.6h0L40,82.5l7.1,0l9.1-24.9h5.3
	l-9.1,24.9l7.1,0l8.4-23.2c1.2-3.3-0.7-6.1-4.2-6.1h-6l6.8-18.8c0.5,0,1,0,1.5,0c18.5,0,33.4,15,33.4,33.4
	C99.5,86.3,84.6,101.3,66.1,101.3z M86.3,57.6H81l-7.5,20.5h5.3L86.3,57.6z"/>
</svg>
