<?xml version="1.0" encoding="utf-8"?>
<!-- Generator: Adobe Illustrator 17.1.0, SVG Export Plug-In . SVG Version: 6.00 Build 0)  -->
<!DOCTYPE svg PUBLIC "-//W3C//DTD SVG 1.1//EN" "http://www.w3.org/Graphics/SVG/1.1/DTD/svg11.dtd">
<svg version="1.1" id="Layer_1" xmlns="http://www.w3.org/2000/svg" xmlns:xlink="http://www.w3.org/1999/xlink" x="0px" y="0px"
	 viewBox="0 0 235 235" enable-background="new 0 0 235 235" xml:space="preserve">
<path fill="#20AD65" d="M117.4,211.1c51.7,0,93.6-41.9,93.6-93.6s-41.9-93.6-93.6-93.6s-93.6,41.9-93.6,93.6S65.8,211.1,117.4,211.1
	L117.4,211.1z M117.4,208.8L117.4,208.8c-50.4,0-91.3-40.9-91.3-91.3S67,26.2,117.4,26.2s91.3,40.9,91.3,91.3
	S167.8,208.8,117.4,208.8z"/>
<path fill="#20AD65" d="M117.5,235c64.9,0,117.5-52.6,117.5-117.5S182.4,0,117.5,0S0,52.6,0,117.5S52.6,235,117.5,235z M117.5,217
	L117.5,217C62.6,217,18,172.4,18,117.5S62.6,18,117.5,18S217,62.6,217,117.5S172.4,217,117.5,217L117.5,217z"/>
<polygon fill="#332D2C" points="71.2,77.6 71.2,85.6 75.7,85.6 75.7,104.1 71.2,104.1 71.2,111.5 94.8,111.5 94.8,104.1 90.4,104.1 
	90.4,85.6 94.8,85.6 94.8,77.6 "/>
<path fill="#332D2C" d="M96,85.6V93h3.3v11.1H96v7.4h18.4v-7.4h-3.5v-6.4c-0.1-2.5,2-4.6,4.5-4.7c0.1,0,0.2,0,0.2,0
	c2.1,0,3.8,1,3.8,3.4v7.7h-3.4v7.4h18v-7.3c0,0,0-0.1-0.1-0.1h-2.9v-9.7c0-6.2-4.6-8.5-10.2-8.5c-4,0-7,1.1-9.7,4.1
	c-0.2,0.3-0.4,0.5-0.7,0.7v-5.1L96,85.6z"/>
<path fill="#332D2C" d="M149.3,85.8c-8.2,0-16.3,4-16.3,13.2c0,1.8,0.3,3.5,1,5.2h0.1v0.1c2.5,5.4,8.8,7.9,15.2,7.9
	c5.2,0,12.5-1.3,14.1-9.3l0.1-0.9h-9.9c0,2.7-2,4-4.2,4c-4.3,0-4.6-3.6-4.6-7v-0.1l0,0c0-3.4,0.3-7,4.6-7c3.4,0,3.9,2.9,4.1,5.7
	l9.9-1.1c-1.1-10.1-11-10.8-13.5-10.8C149.5,85.8,149.3,85.8,149.3,85.8L149.3,85.8z"/>
<circle fill="#332D2C" cx="166.9" cy="107.4" r="4.2"/>
<path fill="#332D2C" d="M83.6,129.1H66.4l-0.5,5.2c2.2-1.4,4.8-2.1,7.4-2.1c3.4-0.1,6.7,1.1,9.4,3.3c1.2,1,2.2,2.2,2.9,3.6
	c0-0.3,0-0.5,0-0.8c0-5.8,1.5-10.4,4.4-13.8c3-3.4,6.9-5.1,11.9-5.1c5.2,0,9.2,1.8,12,5.4c2,2.6,3.3,5.7,3.8,8.9
	c0.6-3.7,2-6.8,4.1-9.2c3-3.4,6.9-5.1,11.9-5.1c5.2,0,9.2,1.8,12,5.4c2,2.6,3.3,5.7,3.8,8.9c0.6-3.7,2-6.8,4.1-9.2
	c3-3.4,6.9-5.1,11.9-5.1c5.2,0,9.2,1.8,12,5.4c2.8,3.6,4.2,8.2,4.2,13.8c0,5.7-1.5,10.3-4.5,13.6c-3,3.4-6.9,5.1-11.9,5.1
	c-5,0-8.9-1.7-11.8-5.2c-2.1-2.6-3.4-5.7-3.9-8.9c-0.6,3.6-2,6.7-4.1,9.1c-3,3.4-6.9,5.1-11.9,5.1c-5,0-8.9-1.7-11.8-5.2
	c-2.1-2.6-3.4-5.7-3.9-8.9c-0.6,3.6-2,6.7-4.1,9.1c-3,3.4-6.9,5.1-11.9,5.1c-5,0-8.9-1.7-11.8-5.2c-1.5-1.8-2.6-4-3.3-6.3
	c-0.4,3.2-1.9,5.8-4.6,7.9c-3.1,2.4-7.1,3.6-11.9,3.6c-4.2,0-7.9-1-10.9-3c-3-1.8-5.1-4.8-5.7-8.3l10.6-1.2c0.7,2.7,2.6,4,5.8,4
	c1.6,0,2.8-0.4,3.7-1.3c0.9-0.8,1.4-2,1.3-3.1c0.1-1.3-0.5-2.5-1.5-3.3c-1.1-0.8-2.3-1.2-3.7-1.2c-2.1,0-3.7,0.8-4.8,2.3l-9.5-1.2
	l1.8-21.2h27.5L83.6,129.1L83.6,129.1z M101.8,149.5L101.8,149.5c1.7,0,2.9-1,3.5-3c0.6-2,0.9-4.7,0.9-8.1c0-4.7-0.4-7.7-1.2-9.2
	c-0.8-1.4-1.8-2.2-3.2-2.2c-1.6,0-2.7,0.9-3.3,2.8c-0.6,1.9-0.9,4.5-0.9,7.8c0,4.5,0.3,7.6,0.9,9.2
	C99.1,148.7,100.2,149.5,101.8,149.5L101.8,149.5z M133.5,149.5L133.5,149.5c1.7,0,2.9-1,3.5-3c0.6-2,0.9-4.7,0.9-8.1
	c0-4.7-0.4-7.7-1.2-9.2c-0.8-1.4-1.8-2.2-3.2-2.2c-1.6,0-2.7,0.9-3.3,2.8c-0.6,1.9-0.9,4.5-0.9,7.8c0,4.5,0.3,7.6,0.9,9.2
	C130.9,148.7,131.9,149.5,133.5,149.5L133.5,149.5z M165.3,149.5L165.3,149.5c1.7,0,2.9-1,3.5-3c0.6-2,0.9-4.7,0.9-8.1
	c0-4.7-0.4-7.7-1.2-9.2c-0.8-1.4-1.9-2.2-3.2-2.2c-1.6,0-2.7,0.9-3.3,2.8c-0.6,1.9-0.9,4.5-0.9,7.8c0,4.5,0.3,7.6,0.9,9.2
	C162.6,148.7,163.7,149.5,165.3,149.5L165.3,149.5z"/>
</svg>
