<?xml version="1.0" encoding="utf-8"?>
<!-- Generator: Adobe Illustrator 17.1.0, SVG Export Plug-In . SVG Version: 6.00 Build 0)  -->
<!DOCTYPE svg PUBLIC "-//W3C//DTD SVG 1.1//EN" "http://www.w3.org/Graphics/SVG/1.1/DTD/svg11.dtd">
<svg version="1.1" id="Layer_1" xmlns="http://www.w3.org/2000/svg" xmlns:xlink="http://www.w3.org/1999/xlink" x="0px" y="0px"
	 viewBox="0 0 474 95.6" enable-background="new 0 0 474 95.6" xml:space="preserve">
<path fill="#332D2C" d="M34.4,42.3h-3.9V19.3c0-1.8,0.1-4,0.3-6.6h-0.1c-0.4,1.5-0.7,2.6-1,3.3L18.2,42.3h-1.9L4.7,16.2
	c-0.3-0.7-0.6-1.9-1-3.5H3.6c0.1,1.4,0.2,3.6,0.2,6.7v22.9H0V8.1h5.2l10.3,23.8c0.8,1.8,1.3,3.2,1.5,4.1h0.2
	c0.8-2.2,1.3-3.6,1.6-4.2L29.4,8.1h5V42.3"/>
<path fill="#332D2C" d="M45.3,42.3h-3.9V17.9h3.9V42.3 M46,9.1c0,0.7-0.2,1.3-0.8,1.8c-0.5,0.5-1.1,0.7-1.8,0.7
	c-0.7,0-1.3-0.2-1.8-0.7c-0.5-0.5-0.7-1.1-0.7-1.8c0-0.7,0.2-1.3,0.7-1.8c0.5-0.5,1.1-0.8,1.8-0.8c0.7,0,1.3,0.2,1.8,0.7
	C45.7,7.8,46,8.4,46,9.1"/>
<path fill="#332D2C" d="M68.1,41.2c-1.9,1.1-4.1,1.7-6.6,1.7c-2.2,0-4.2-0.5-5.9-1.5c-1.7-1-3.1-2.5-4.1-4.3c-1-1.9-1.5-4-1.5-6.3
	c0-4,1.1-7.3,3.4-9.7c2.3-2.4,5.3-3.7,9.1-3.7c2.1,0,4,0.4,5.6,1.2v4c-1.8-1.3-3.7-1.9-5.7-1.9c-2.5,0-4.5,0.9-6.1,2.7
	c-1.6,1.8-2.3,4.1-2.3,7c0,2.8,0.7,5.1,2.2,6.7c1.5,1.7,3.5,2.5,6,2.5c2.1,0,4.1-0.7,5.9-2.1V41.2"/>
<path fill="#332D2C" d="M85.3,21.8c-0.7-0.5-1.7-0.8-2.9-0.8c-1.7,0-3.1,0.8-4.2,2.4c-1.1,1.6-1.6,3.7-1.6,6.4v12.4h-3.9V17.9h3.9v5
	h0.1c0.5-1.7,1.4-3,2.5-4c1.1-1,2.4-1.5,3.8-1.5c1,0,1.8,0.1,2.3,0.3V21.8"/>
<path fill="#332D2C" d="M105.5,30.1c0-3.1-0.7-5.4-2-7.1c-1.3-1.6-3.3-2.5-5.7-2.5c-2.5,0-4.4,0.8-5.9,2.5c-1.4,1.7-2.2,4-2.2,7.1
	c0,2.9,0.7,5.2,2.2,6.9c1.4,1.6,3.4,2.5,5.9,2.5c2.5,0,4.4-0.8,5.8-2.4C104.9,35.5,105.5,33.2,105.5,30.1 M109.5,30
	c0,3.9-1.1,7-3.3,9.4c-2.2,2.4-5.1,3.5-8.7,3.5c-3.6,0-6.4-1.1-8.5-3.4c-2.1-2.3-3.2-5.3-3.2-9.1c0-4,1.1-7.2,3.3-9.6
	c2.2-2.3,5.2-3.5,9-3.5c3.6,0,6.4,1.1,8.4,3.4C108.5,22.9,109.5,26,109.5,30"/>
<path fill="#332D2C" d="M127.4,35.7c0,2.1-0.8,3.8-2.4,5.1c-1.6,1.3-3.7,2-6.4,2c-2.3,0-4.3-0.5-6-1.5v-4.2c1.9,1.6,4,2.3,6.2,2.3
	c3.1,0,4.6-1.1,4.6-3.4c0-0.9-0.3-1.7-0.9-2.3c-0.6-0.6-1.9-1.4-4.1-2.3c-2.1-0.9-3.6-1.9-4.5-3c-0.9-1.1-1.3-2.5-1.3-4.2
	c0-2,0.8-3.7,2.4-5.1c1.6-1.3,3.6-2,6.1-2c1.9,0,3.6,0.4,5.1,1.1v3.9c-1.6-1.2-3.4-1.7-5.4-1.7c-1.3,0-2.3,0.3-3.1,1
	c-0.8,0.6-1.2,1.5-1.2,2.5c0,1.1,0.3,1.9,0.9,2.5c0.6,0.6,1.8,1.3,3.7,2.1c2.3,1,3.9,2,4.8,3.1C126.9,32.7,127.4,34.1,127.4,35.7"/>
<path fill="#332D2C" d="M149.7,30.1c0-3.1-0.7-5.4-2-7.1c-1.3-1.6-3.3-2.5-5.7-2.5c-2.5,0-4.4,0.8-5.9,2.5c-1.4,1.7-2.2,4-2.2,7.1
	c0,2.9,0.7,5.2,2.2,6.9c1.4,1.6,3.4,2.5,5.9,2.5c2.5,0,4.4-0.8,5.8-2.4C149,35.5,149.7,33.2,149.7,30.1 M153.7,30
	c0,3.9-1.1,7-3.3,9.4c-2.2,2.4-5.1,3.5-8.7,3.5c-3.6,0-6.4-1.1-8.5-3.4c-2.1-2.3-3.2-5.3-3.2-9.1c0-4,1.1-7.2,3.3-9.6
	c2.2-2.3,5.2-3.5,9-3.5c3.6,0,6.4,1.1,8.4,3.4C152.6,22.9,153.7,26,153.7,30"/>
<path fill="#332D2C" d="M169.4,9.6c-0.8-0.4-1.6-0.6-2.6-0.6c-2.7,0-4,1.7-4,5.2v3.8h5.6v3.3h-5.6v21.1H159V21.2h-4.1v-3.3h4.1v-4
	c0-2.5,0.7-4.5,2.2-6c1.4-1.5,3.3-2.3,5.5-2.3c1.2,0,2.1,0.1,2.8,0.4V9.6"/>
<path fill="#332D2C" d="M183.4,42c-0.9,0.5-2.1,0.8-3.6,0.8c-4.2,0-6.3-2.4-6.3-7.2V21.2h-4.1v-3.3h4.1v-6l3.9-1.3v7.2h6.1v3.3h-6.1
	V35c0,1.6,0.3,2.8,0.8,3.5c0.5,0.7,1.5,1,2.7,1c1,0,1.8-0.3,2.5-0.8V42"/>
<path fill="#332D2C" d="M56.1,65.6c0-4.5-2.6-6.8-7.9-6.8h-4.6v14h4.1c2.7,0,4.8-0.6,6.2-1.9C55.4,69.7,56.1,67.9,56.1,65.6
	 M60.2,65.4c0,3.3-1.1,6-3.4,8c-2.2,2-5.2,3-8.8,3h-4.4v12.9h-3.9V55.2h9.3c3.6,0,6.4,0.9,8.4,2.7C59.2,59.6,60.2,62.1,60.2,65.4"/>
<path fill="#332D2C" d="M76.5,77l-5.8,0.8c-2,0.3-3.4,0.8-4.2,1.4c-0.8,0.7-1.2,1.8-1.2,3.3c0,1.2,0.4,2.2,1.3,2.9
	c0.9,0.7,2,1.1,3.3,1.1c1.9,0,3.5-0.7,4.7-2c1.2-1.4,1.9-3.1,1.9-5.1V77 M80.3,89.3h-3.9v-3.8h-0.1c-1.7,2.9-4.1,4.4-7.4,4.4
	c-2.3,0-4.2-0.6-5.6-1.9c-1.4-1.3-2.1-3-2.1-5.2c0-4.5,2.6-7.2,7.9-8l7.2-1c0-4.1-1.7-6.2-5-6.2c-2.9,0-5.5,1-7.8,3v-4
	c0.7-0.5,1.9-1.1,3.6-1.6c1.7-0.5,3.2-0.8,4.6-0.8c5.7,0,8.5,3,8.5,9.1V89.3"/>
<path fill="#332D2C" d="M98.9,68.9c-0.7-0.5-1.7-0.8-2.9-0.8c-1.7,0-3.1,0.8-4.2,2.4c-1.1,1.6-1.6,3.7-1.6,6.4v12.4h-3.9V64.9h3.9v5
	h0.1c0.5-1.7,1.4-3,2.5-4c1.1-1,2.4-1.5,3.8-1.5c1,0,1.8,0.1,2.3,0.3V68.9"/>
<path fill="#332D2C" d="M116.8,89.1c-0.9,0.5-2.1,0.8-3.6,0.8c-4.2,0-6.3-2.4-6.3-7.2V68.2h-4.1v-3.3h4.1v-6l3.9-1.3v7.2h6.1v3.3
	h-6.1V82c0,1.6,0.3,2.8,0.8,3.5c0.5,0.7,1.5,1,2.7,1c1,0,1.8-0.3,2.5-0.8V89.1"/>
<path fill="#332D2C" d="M142.2,89.3h-3.9V75.4c0-5.2-1.9-7.7-5.6-7.7c-1.9,0-3.5,0.7-4.8,2.2c-1.3,1.5-1.9,3.3-1.9,5.6v13.9h-3.9
	V64.9h3.9V69h0.1c1.8-3.1,4.4-4.6,7.9-4.6c2.6,0,4.7,0.9,6,2.6c1.4,1.7,2.1,4.2,2.1,7.4V89.3"/>
<path fill="#332D2C" d="M163.4,74.8c0-2.3-0.6-4-1.6-5.3c-1-1.2-2.5-1.9-4.4-1.9c-1.8,0-3.3,0.7-4.6,2c-1.3,1.3-2.1,3-2.4,5.2H163.4
	 M167.4,78.1h-17c0.1,2.7,0.8,4.8,2.1,6.3c1.4,1.5,3.3,2.2,5.7,2.2c2.7,0,5.2-0.9,7.4-2.7v3.6c-2.1,1.6-4.9,2.4-8.4,2.4
	c-3.4,0-6.1-1.1-8-3.4c-1.9-2.2-2.9-5.4-2.9-9.3c0-2.4,0.5-4.6,1.4-6.6c1-2,2.3-3.5,4-4.6c1.7-1.1,3.6-1.6,5.6-1.6
	c3.1,0,5.5,1,7.3,3.1c1.7,2.1,2.6,4.9,2.6,8.6V78.1"/>
<path fill="#332D2C" d="M184.4,68.9c-0.7-0.5-1.7-0.8-2.9-0.8c-1.7,0-3.1,0.8-4.2,2.4c-1.1,1.6-1.6,3.7-1.6,6.4v12.4h-3.9V64.9h3.9
	v5h0.1c0.5-1.7,1.4-3,2.5-4c1.1-1,2.4-1.5,3.8-1.5c1,0,1.8,0.1,2.3,0.3V68.9"/>
<line fill="none" stroke="#332D2C" stroke-width="0.4" stroke-miterlimit="10" x1="203.5" y1="0" x2="203.5" y2="95.6"/>
<path fill="#20AD65" d="M235.9,26.5c-1.3,0.7-2.7,1.1-4.2,1.1c-1.2,0-2.2-0.3-3.2-0.8c-0.9-0.5-1.6-1.3-2.1-2.3
	c-0.5-1-0.7-2.1-0.7-3.3c0-1.9,0.6-3.5,1.8-4.8s2.8-1.9,4.7-1.9c1.4,0,2.5,0.2,3.5,0.7v1.6c-1-0.6-2.2-1-3.6-1
	c-0.9,0-1.7,0.2-2.5,0.7c-0.7,0.4-1.3,1.1-1.7,1.9c-0.4,0.8-0.6,1.7-0.6,2.7c0,1.6,0.4,2.8,1.2,3.8c0.8,0.9,2,1.4,3.4,1.4
	c1,0,1.8-0.2,2.6-0.6v-3.5h-2.8v-1.3h4.2L235.9,26.5"/>
<path fill="#20AD65" d="M246.8,22.8c0,1.4-0.4,2.6-1.2,3.5c-0.8,0.9-1.9,1.3-3.3,1.3c-1.3,0-2.4-0.4-3.2-1.3c-0.8-0.8-1.2-2-1.2-3.3
	c0-1.5,0.4-2.7,1.2-3.5c0.8-0.9,1.9-1.3,3.4-1.3c1.3,0,2.4,0.4,3.1,1.3C246.4,20.2,246.8,21.3,246.8,22.8L246.8,22.8 M245.3,22.8
	c0-1.1-0.3-2-0.8-2.6c-0.5-0.6-1.2-0.9-2.1-0.9c-0.9,0-1.7,0.3-2.2,0.9c-0.5,0.6-0.8,1.5-0.8,2.6c0,1.1,0.3,1.9,0.8,2.5
	c0.5,0.6,1.3,0.9,2.2,0.9c0.9,0,1.7-0.3,2.2-0.9C245.1,24.8,245.3,24,245.3,22.8"/>
<polyline fill="#20AD65" points="250.5,27.3 249,27.3 249,14 250.5,14 250.5,27.3 "/>
<path fill="#20AD65" d="M261,27.3h-1.4v-1.5h0c-0.7,1.2-1.7,1.7-3.1,1.7c-1.1,0-2-0.4-2.7-1.2c-0.7-0.8-1-1.9-1-3.3
	c0-1.5,0.4-2.7,1.1-3.6c0.7-0.9,1.8-1.4,3-1.4c1.2,0,2.1,0.5,2.7,1.5h0V14h1.4V27.3L261,27.3 M259.5,23.3v-1.3
	c0-0.7-0.2-1.4-0.7-1.9c-0.5-0.5-1.1-0.7-1.8-0.7c-0.9,0-1.6,0.3-2.1,1c-0.5,0.6-0.8,1.5-0.8,2.7c0,1,0.2,1.8,0.7,2.5
	c0.5,0.6,1.1,0.9,1.9,0.9c0.8,0,1.4-0.3,1.9-0.9C259.3,24.9,259.5,24.1,259.5,23.3"/>
<path fill="#332D2C" d="M278,27.3h-1.6l-1.3-3.5h-5.3l-1.3,3.5h-1.6l4.8-12.6h1.5L278,27.3L278,27.3 M274.5,22.5l-2-5.4
	c0-0.1-0.1-0.4-0.2-0.9h0c-0.1,0.4-0.1,0.7-0.2,0.9l-2,5.4H274.5"/>
<path fill="#332D2C" d="M287.9,22.5c0,1.5-0.4,2.7-1.1,3.6c-0.7,0.9-1.7,1.4-3,1.4c-1.2,0-2.1-0.5-2.7-1.5h0v5.4h-1.4V18.3h1.4v1.6
	h0c0.7-1.2,1.7-1.8,3.1-1.8c1.1,0,2,0.4,2.7,1.2C287.6,20.1,287.9,21.2,287.9,22.5L287.9,22.5 M286.5,22.5c0-1-0.2-1.7-0.7-2.3
	s-1.1-0.9-1.9-0.9c-0.8,0-1.5,0.3-2,0.9c-0.5,0.6-0.8,1.3-0.8,2.2v1.3c0,0.8,0.2,1.4,0.7,1.9c0.5,0.5,1.1,0.8,1.8,0.8
	c0.9,0,1.5-0.3,2-1C286.2,24.6,286.5,23.7,286.5,22.5"/>
<path fill="#332D2C" d="M298.4,22.5c0,1.5-0.4,2.7-1.1,3.6c-0.7,0.9-1.7,1.4-3,1.4c-1.2,0-2.1-0.5-2.7-1.5h0v5.4h-1.4V18.3h1.4v1.6
	h0c0.7-1.2,1.7-1.8,3.1-1.8c1.1,0,2,0.4,2.7,1.2C298.1,20.1,298.4,21.2,298.4,22.5L298.4,22.5 M296.9,22.5c0-1-0.2-1.7-0.7-2.3
	s-1.1-0.9-1.9-0.9c-0.8,0-1.5,0.3-2,0.9c-0.5,0.6-0.8,1.3-0.8,2.2v1.3c0,0.8,0.2,1.4,0.7,1.9c0.5,0.5,1.1,0.8,1.8,0.8
	c0.9,0,1.5-0.3,2-1C296.7,24.6,296.9,23.7,296.9,22.5"/>
<polyline fill="#332D2C" points="302.1,27.3 300.6,27.3 300.6,14 302.1,14 302.1,27.3 "/>
<path fill="#332D2C" d="M306.7,15.1c0,0.3-0.1,0.5-0.3,0.7c-0.2,0.2-0.4,0.3-0.7,0.3c-0.3,0-0.5-0.1-0.7-0.3
	c-0.2-0.2-0.3-0.4-0.3-0.7c0-0.3,0.1-0.5,0.3-0.6c0.2-0.2,0.4-0.3,0.7-0.3c0.3,0,0.5,0.1,0.7,0.3C306.6,14.6,306.7,14.8,306.7,15.1
	L306.7,15.1 M306.4,27.3H305v-9h1.4V27.3"/>
<path fill="#332D2C" d="M315.4,26.9c-0.7,0.4-1.5,0.6-2.5,0.6c-0.8,0-1.6-0.2-2.2-0.6c-0.6-0.4-1.2-0.9-1.5-1.6
	c-0.4-0.7-0.5-1.5-0.5-2.3c0-1.5,0.4-2.7,1.3-3.6c0.9-0.9,2-1.4,3.4-1.4c0.8,0,1.5,0.2,2.1,0.5V20c-0.7-0.5-1.4-0.7-2.1-0.7
	c-0.9,0-1.7,0.3-2.3,1c-0.6,0.7-0.9,1.5-0.9,2.6c0,1,0.3,1.9,0.8,2.5c0.6,0.6,1.3,0.9,2.2,0.9c0.8,0,1.5-0.3,2.2-0.8V26.9"/>
<path fill="#332D2C" d="M323.9,27.3h-1.4v-1.4h0c-0.6,1.1-1.5,1.6-2.8,1.6c-0.9,0-1.6-0.2-2.1-0.7c-0.5-0.5-0.8-1.1-0.8-1.9
	c0-1.7,1-2.7,3-2.9l2.7-0.4c0-1.5-0.6-2.3-1.9-2.3c-1.1,0-2.1,0.4-2.9,1.1V19c0.3-0.2,0.7-0.4,1.4-0.6c0.6-0.2,1.2-0.3,1.7-0.3
	c2.1,0,3.2,1.1,3.2,3.4L323.9,27.3L323.9,27.3 M322.5,22.8l-2.2,0.3c-0.7,0.1-1.3,0.3-1.6,0.5c-0.3,0.2-0.4,0.6-0.4,1.2
	c0,0.5,0.2,0.8,0.5,1.1c0.3,0.3,0.7,0.4,1.2,0.4c0.7,0,1.3-0.3,1.8-0.8c0.5-0.5,0.7-1.1,0.7-1.9V22.8"/>
<path fill="#332D2C" d="M330.8,27.2c-0.3,0.2-0.8,0.3-1.4,0.3c-1.6,0-2.4-0.9-2.4-2.7v-5.3h-1.5v-1.2h1.5v-2.2l1.4-0.5v2.7h2.3v1.2
	h-2.3v5.1c0,0.6,0.1,1,0.3,1.3c0.2,0.3,0.5,0.4,1,0.4c0.4,0,0.7-0.1,0.9-0.3V27.2"/>
<path fill="#332D2C" d="M334.4,15.1c0,0.3-0.1,0.5-0.3,0.7c-0.2,0.2-0.4,0.3-0.7,0.3c-0.3,0-0.5-0.1-0.7-0.3
	c-0.2-0.2-0.3-0.4-0.3-0.7c0-0.3,0.1-0.5,0.3-0.6c0.2-0.2,0.4-0.3,0.7-0.3c0.3,0,0.5,0.1,0.7,0.3C334.3,14.6,334.4,14.8,334.4,15.1
	L334.4,15.1 M334.2,27.3h-1.4v-9h1.4V27.3"/>
<path fill="#332D2C" d="M345.2,22.8c0,1.4-0.4,2.6-1.2,3.5c-0.8,0.9-1.9,1.3-3.3,1.3c-1.3,0-2.4-0.4-3.2-1.3c-0.8-0.8-1.2-2-1.2-3.3
	c0-1.5,0.4-2.7,1.2-3.5c0.8-0.9,1.9-1.3,3.4-1.3c1.3,0,2.4,0.4,3.1,1.3C344.9,20.2,345.2,21.3,345.2,22.8L345.2,22.8 M343.8,22.8
	c0-1.1-0.3-2-0.8-2.6c-0.5-0.6-1.2-0.9-2.1-0.9c-0.9,0-1.7,0.3-2.2,0.9c-0.5,0.6-0.8,1.5-0.8,2.6c0,1.1,0.3,1.9,0.8,2.5
	c0.5,0.6,1.3,0.9,2.2,0.9c0.9,0,1.7-0.3,2.2-0.9C343.5,24.8,343.8,24,343.8,22.8"/>
<path fill="#332D2C" d="M354.9,27.3h-1.4v-5.1c0-1.9-0.7-2.9-2.1-2.9c-0.7,0-1.3,0.3-1.8,0.8c-0.5,0.5-0.7,1.2-0.7,2v5.1h-1.4v-9
	h1.4v1.5h0c0.7-1.1,1.7-1.7,3-1.7c1,0,1.7,0.3,2.3,1c0.5,0.6,0.8,1.6,0.8,2.7L354.9,27.3"/>
<polyline fill="#332D2C" points="363.5,27.3 362,27.3 362,14.7 363.5,14.7 363.5,27.3 "/>
<path fill="#332D2C" d="M374.1,27.3h-1.4v-5.1c0-1.9-0.7-2.9-2.1-2.9c-0.7,0-1.3,0.3-1.8,0.8c-0.5,0.5-0.7,1.2-0.7,2v5.1h-1.4v-9
	h1.4v1.5h0c0.7-1.1,1.7-1.7,3-1.7c1,0,1.7,0.3,2.3,1c0.5,0.6,0.8,1.6,0.8,2.7V27.3"/>
<path fill="#332D2C" d="M380.9,27.2c-0.3,0.2-0.8,0.3-1.4,0.3c-1.6,0-2.4-0.9-2.4-2.7v-5.3h-1.5v-1.2h1.5v-2.2l1.4-0.5v2.7h2.3v1.2
	h-2.3v5.1c0,0.6,0.1,1,0.3,1.3c0.2,0.3,0.5,0.4,1,0.4c0.4,0,0.7-0.1,0.9-0.3V27.2"/>
<path fill="#332D2C" d="M390,23.2h-6.3c0,1,0.3,1.8,0.8,2.3c0.5,0.5,1.2,0.8,2.1,0.8c1,0,1.9-0.3,2.8-1v1.3
	c-0.8,0.6-1.8,0.9-3.1,0.9c-1.3,0-2.3-0.4-3-1.2c-0.7-0.8-1.1-2-1.1-3.4c0-0.9,0.2-1.7,0.5-2.4c0.4-0.7,0.9-1.3,1.5-1.7
	c0.6-0.4,1.3-0.6,2.1-0.6c1.2,0,2.1,0.4,2.7,1.1c0.7,0.8,1,1.8,1,3.2V23.2L390,23.2 M388.5,22c0-0.8-0.2-1.5-0.6-1.9
	c-0.4-0.5-0.9-0.7-1.6-0.7c-0.7,0-1.2,0.2-1.7,0.7c-0.5,0.5-0.8,1.1-0.9,1.9H388.5"/>
<path fill="#332D2C" d="M399.7,26.6c0,3.3-1.6,4.9-4.7,4.9c-1.1,0-2.1-0.2-2.9-0.6v-1.4c1,0.6,2,0.8,2.9,0.8c2.2,0,3.3-1.2,3.3-3.5
	v-1h0c-0.7,1.2-1.7,1.7-3.1,1.7c-0.7,0-1.4-0.2-1.9-0.5c-0.6-0.4-1-0.9-1.3-1.6c-0.3-0.7-0.5-1.4-0.5-2.3c0-1.5,0.4-2.8,1.1-3.7
	c0.7-0.9,1.8-1.4,3-1.4c1.2,0,2.1,0.5,2.7,1.5h0v-1.2h1.4L399.7,26.6L399.7,26.6 M398.3,23.3v-1.3c0-0.7-0.2-1.3-0.7-1.8
	c-0.5-0.5-1.1-0.8-1.8-0.8c-0.9,0-1.6,0.3-2.1,1c-0.5,0.6-0.7,1.6-0.7,2.7c0,1,0.2,1.8,0.7,2.4c0.5,0.6,1.1,0.9,1.9,0.9
	s1.5-0.3,2-0.9C398,24.9,398.3,24.1,398.3,23.3"/>
<path fill="#332D2C" d="M407.3,19.8c-0.3-0.2-0.6-0.3-1.1-0.3c-0.6,0-1.2,0.3-1.6,0.9c-0.4,0.6-0.6,1.4-0.6,2.3v4.6h-1.4v-9h1.4v1.9
	h0c0.2-0.6,0.5-1.1,0.9-1.5c0.4-0.4,0.9-0.5,1.4-0.5c0.4,0,0.7,0,0.9,0.1V19.8"/>
<path fill="#332D2C" d="M415.2,27.3h-1.4v-1.4h0c-0.6,1.1-1.5,1.6-2.8,1.6c-0.9,0-1.6-0.2-2.1-0.7c-0.5-0.5-0.8-1.1-0.8-1.9
	c0-1.7,1-2.7,3-2.9l2.7-0.4c0-1.5-0.6-2.3-1.9-2.3c-1.1,0-2.1,0.4-2.9,1.1V19c0.3-0.2,0.7-0.4,1.4-0.6c0.6-0.2,1.2-0.3,1.7-0.3
	c2.1,0,3.2,1.1,3.2,3.4L415.2,27.3L415.2,27.3 M413.8,22.8l-2.2,0.3c-0.7,0.1-1.3,0.3-1.6,0.5c-0.3,0.2-0.4,0.6-0.4,1.2
	c0,0.5,0.2,0.8,0.5,1.1c0.3,0.3,0.7,0.4,1.2,0.4c0.7,0,1.3-0.3,1.8-0.8c0.5-0.5,0.7-1.1,0.7-1.9V22.8"/>
<path fill="#332D2C" d="M422.1,27.2c-0.3,0.2-0.8,0.3-1.4,0.3c-1.6,0-2.4-0.9-2.4-2.7v-5.3h-1.5v-1.2h1.5v-2.2l1.4-0.5v2.7h2.3v1.2
	h-2.3v5.1c0,0.6,0.1,1,0.3,1.3c0.2,0.3,0.5,0.4,1,0.4c0.4,0,0.7-0.1,0.9-0.3V27.2"/>
<path fill="#332D2C" d="M425.7,15.1c0,0.3-0.1,0.5-0.3,0.7c-0.2,0.2-0.4,0.3-0.7,0.3c-0.3,0-0.5-0.1-0.7-0.3
	c-0.2-0.2-0.3-0.4-0.3-0.7c0-0.3,0.1-0.5,0.3-0.6c0.2-0.2,0.4-0.3,0.7-0.3s0.5,0.1,0.7,0.3C425.6,14.6,425.7,14.8,425.7,15.1
	L425.7,15.1 M425.4,27.3H424v-9h1.4V27.3"/>
<path fill="#332D2C" d="M436.5,22.8c0,1.4-0.4,2.6-1.2,3.5c-0.8,0.9-1.9,1.3-3.3,1.3c-1.3,0-2.4-0.4-3.2-1.3c-0.8-0.8-1.2-2-1.2-3.3
	c0-1.5,0.4-2.7,1.2-3.5c0.8-0.9,1.9-1.3,3.4-1.3c1.3,0,2.4,0.4,3.1,1.3C436.1,20.2,436.5,21.3,436.5,22.8L436.5,22.8 M435,22.8
	c0-1.1-0.3-2-0.8-2.6c-0.5-0.6-1.2-0.9-2.1-0.9c-0.9,0-1.7,0.3-2.2,0.9c-0.5,0.6-0.8,1.5-0.8,2.6c0,1.1,0.3,1.9,0.8,2.5
	c0.5,0.6,1.3,0.9,2.2,0.9c0.9,0,1.7-0.3,2.2-0.9C434.8,24.8,435,24,435,22.8"/>
<path fill="#332D2C" d="M446.2,27.3h-1.4v-5.1c0-1.9-0.7-2.9-2.1-2.9c-0.7,0-1.3,0.3-1.8,0.8c-0.5,0.5-0.7,1.2-0.7,2v5.1h-1.4v-9
	h1.4v1.5h0c0.7-1.1,1.7-1.7,3-1.7c1,0,1.7,0.3,2.3,1c0.5,0.6,0.8,1.6,0.8,2.7V27.3"/>
<path fill="#20AD65" d="M235.9,52.3c-1.3,0.7-2.7,1.1-4.2,1.1c-1.2,0-2.2-0.3-3.2-0.8c-0.9-0.5-1.6-1.3-2.1-2.3
	c-0.5-1-0.7-2.1-0.7-3.3c0-1.9,0.6-3.5,1.8-4.8c1.2-1.3,2.8-1.9,4.7-1.9c1.4,0,2.5,0.2,3.5,0.7v1.6c-1-0.6-2.2-1-3.6-1
	c-0.9,0-1.7,0.2-2.5,0.7c-0.7,0.4-1.3,1.1-1.7,1.9c-0.4,0.8-0.6,1.7-0.6,2.7c0,1.6,0.4,2.8,1.2,3.8c0.8,0.9,2,1.4,3.4,1.4
	c1,0,1.8-0.2,2.6-0.6v-3.5h-2.8v-1.3h4.2L235.9,52.3"/>
<path fill="#20AD65" d="M246.8,48.6c0,1.4-0.4,2.6-1.2,3.5c-0.8,0.9-1.9,1.3-3.3,1.3c-1.3,0-2.4-0.4-3.2-1.3c-0.8-0.8-1.2-2-1.2-3.3
	c0-1.5,0.4-2.7,1.2-3.5c0.8-0.9,1.9-1.3,3.4-1.3c1.3,0,2.4,0.4,3.1,1.3C246.4,46,246.8,47.2,246.8,48.6L246.8,48.6 M245.3,48.7
	c0-1.1-0.3-2-0.8-2.6c-0.5-0.6-1.2-0.9-2.1-0.9c-0.9,0-1.7,0.3-2.2,0.9c-0.5,0.6-0.8,1.5-0.8,2.6c0,1.1,0.3,1.9,0.8,2.5
	c0.5,0.6,1.3,0.9,2.2,0.9c0.9,0,1.7-0.3,2.2-0.9C245.1,50.7,245.3,49.8,245.3,48.7"/>
<polyline fill="#20AD65" points="250.5,53.2 249,53.2 249,39.9 250.5,39.9 250.5,53.2 "/>
<path fill="#20AD65" d="M261,53.2h-1.4v-1.5h0c-0.7,1.2-1.7,1.7-3.1,1.7c-1.1,0-2-0.4-2.7-1.2c-0.7-0.8-1-1.9-1-3.3
	c0-1.5,0.4-2.7,1.1-3.6c0.7-0.9,1.8-1.4,3-1.4c1.2,0,2.1,0.5,2.7,1.5h0v-5.6h1.4V53.2L261,53.2 M259.5,49.1v-1.3
	c0-0.7-0.2-1.4-0.7-1.9c-0.5-0.5-1.1-0.7-1.8-0.7c-0.9,0-1.6,0.3-2.1,1c-0.5,0.6-0.8,1.5-0.8,2.7c0,1,0.2,1.8,0.7,2.5
	c0.5,0.6,1.1,0.9,1.9,0.9c0.8,0,1.4-0.3,1.9-0.9C259.3,50.7,259.5,50,259.5,49.1"/>
<path fill="#332D2C" d="M278,53.2h-1.6l-1.3-3.5h-5.3l-1.3,3.5h-1.6l4.8-12.6h1.5L278,53.2L278,53.2 M274.5,48.3l-2-5.4
	c0-0.1-0.1-0.4-0.2-0.9h0c-0.1,0.4-0.1,0.7-0.2,0.9l-2,5.4H274.5"/>
<path fill="#332D2C" d="M287.9,48.4c0,1.5-0.4,2.7-1.1,3.6c-0.7,0.9-1.7,1.4-3,1.4c-1.2,0-2.1-0.5-2.7-1.5h0v5.4h-1.4V44.2h1.4v1.6
	h0c0.7-1.2,1.7-1.8,3.1-1.8c1.1,0,2,0.4,2.7,1.2C287.6,46,287.9,47,287.9,48.4L287.9,48.4 M286.5,48.4c0-1-0.2-1.7-0.7-2.3
	c-0.5-0.6-1.1-0.9-1.9-0.9c-0.8,0-1.5,0.3-2,0.9c-0.5,0.6-0.8,1.3-0.8,2.2v1.3c0,0.8,0.2,1.4,0.7,1.9c0.5,0.5,1.1,0.8,1.8,0.8
	c0.9,0,1.5-0.3,2-1C286.2,50.5,286.5,49.6,286.5,48.4"/>
<path fill="#332D2C" d="M298.4,48.4c0,1.5-0.4,2.7-1.1,3.6c-0.7,0.9-1.7,1.4-3,1.4c-1.2,0-2.1-0.5-2.7-1.5h0v5.4h-1.4V44.2h1.4v1.6
	h0c0.7-1.2,1.7-1.8,3.1-1.8c1.1,0,2,0.4,2.7,1.2C298.1,46,298.4,47,298.4,48.4L298.4,48.4 M296.9,48.4c0-1-0.2-1.7-0.7-2.3
	c-0.5-0.6-1.1-0.9-1.9-0.9c-0.8,0-1.5,0.3-2,0.9c-0.5,0.6-0.8,1.3-0.8,2.2v1.3c0,0.8,0.2,1.4,0.7,1.9c0.5,0.5,1.1,0.8,1.8,0.8
	c0.9,0,1.5-0.3,2-1C296.7,50.5,296.9,49.6,296.9,48.4"/>
<polyline fill="#332D2C" points="302.1,53.2 300.6,53.2 300.6,39.9 302.1,39.9 302.1,53.2 "/>
<path fill="#332D2C" d="M306.7,41c0,0.3-0.1,0.5-0.3,0.7c-0.2,0.2-0.4,0.3-0.7,0.3c-0.3,0-0.5-0.1-0.7-0.3c-0.2-0.2-0.3-0.4-0.3-0.7
	c0-0.3,0.1-0.5,0.3-0.6c0.2-0.2,0.4-0.3,0.7-0.3c0.3,0,0.5,0.1,0.7,0.3C306.6,40.5,306.7,40.7,306.7,41L306.7,41 M306.4,53.2H305v-9
	h1.4V53.2"/>
<path fill="#332D2C" d="M315.4,52.8c-0.7,0.4-1.5,0.6-2.5,0.6c-0.8,0-1.6-0.2-2.2-0.6c-0.6-0.4-1.2-0.9-1.5-1.6
	c-0.4-0.7-0.5-1.5-0.5-2.3c0-1.5,0.4-2.7,1.3-3.6c0.9-0.9,2-1.4,3.4-1.4c0.8,0,1.5,0.2,2.1,0.5v1.5c-0.7-0.5-1.4-0.7-2.1-0.7
	c-0.9,0-1.7,0.3-2.3,1c-0.6,0.7-0.9,1.5-0.9,2.6c0,1,0.3,1.9,0.8,2.5c0.6,0.6,1.3,0.9,2.2,0.9c0.8,0,1.5-0.3,2.2-0.8V52.8"/>
<path fill="#332D2C" d="M323.9,53.2h-1.4v-1.4h0c-0.6,1.1-1.5,1.6-2.8,1.6c-0.9,0-1.6-0.2-2.1-0.7c-0.5-0.5-0.8-1.1-0.8-1.9
	c0-1.7,1-2.7,3-2.9l2.7-0.4c0-1.5-0.6-2.3-1.9-2.3c-1.1,0-2.1,0.4-2.9,1.1v-1.5c0.3-0.2,0.7-0.4,1.4-0.6c0.6-0.2,1.2-0.3,1.7-0.3
	c2.1,0,3.2,1.1,3.2,3.4L323.9,53.2L323.9,53.2 M322.5,48.6l-2.2,0.3c-0.7,0.1-1.3,0.3-1.6,0.5c-0.3,0.2-0.4,0.6-0.4,1.2
	c0,0.5,0.2,0.8,0.5,1.1c0.3,0.3,0.7,0.4,1.2,0.4c0.7,0,1.3-0.3,1.8-0.8c0.5-0.5,0.7-1.1,0.7-1.9V48.6"/>
<path fill="#332D2C" d="M330.8,53.1c-0.3,0.2-0.8,0.3-1.4,0.3c-1.6,0-2.4-0.9-2.4-2.7v-5.3h-1.5v-1.2h1.5V42l1.4-0.5v2.7h2.3v1.2
	h-2.3v5.1c0,0.6,0.1,1,0.3,1.3c0.2,0.3,0.5,0.4,1,0.4c0.4,0,0.7-0.1,0.9-0.3V53.1"/>
<path fill="#332D2C" d="M334.4,41c0,0.3-0.1,0.5-0.3,0.7c-0.2,0.2-0.4,0.3-0.7,0.3c-0.3,0-0.5-0.1-0.7-0.3c-0.2-0.2-0.3-0.4-0.3-0.7
	c0-0.3,0.1-0.5,0.3-0.6c0.2-0.2,0.4-0.3,0.7-0.3c0.3,0,0.5,0.1,0.7,0.3C334.3,40.5,334.4,40.7,334.4,41L334.4,41 M334.2,53.2h-1.4
	v-9h1.4V53.2"/>
<path fill="#332D2C" d="M345.2,48.6c0,1.4-0.4,2.6-1.2,3.5c-0.8,0.9-1.9,1.3-3.3,1.3c-1.3,0-2.4-0.4-3.2-1.3c-0.8-0.8-1.2-2-1.2-3.3
	c0-1.5,0.4-2.7,1.2-3.5c0.8-0.9,1.9-1.3,3.4-1.3c1.3,0,2.4,0.4,3.1,1.3C344.9,46,345.2,47.2,345.2,48.6L345.2,48.6 M343.8,48.7
	c0-1.1-0.3-2-0.8-2.6c-0.5-0.6-1.2-0.9-2.1-0.9c-0.9,0-1.7,0.3-2.2,0.9c-0.5,0.6-0.8,1.5-0.8,2.6c0,1.1,0.3,1.9,0.8,2.5
	c0.5,0.6,1.3,0.9,2.2,0.9c0.9,0,1.7-0.3,2.2-0.9C343.5,50.7,343.8,49.8,343.8,48.7"/>
<path fill="#332D2C" d="M354.9,53.2h-1.4V48c0-1.9-0.7-2.9-2.1-2.9c-0.7,0-1.3,0.3-1.8,0.8c-0.5,0.5-0.7,1.2-0.7,2v5.1h-1.4v-9h1.4
	v1.5h0c0.7-1.1,1.7-1.7,3-1.7c1,0,1.7,0.3,2.3,1c0.5,0.6,0.8,1.6,0.8,2.7L354.9,53.2"/>
<path fill="#332D2C" d="M372.1,46.7c0,1.3-0.3,2.4-0.8,3.4c-0.6,1-1.4,1.7-2.4,2.3c-1,0.5-2.2,0.8-3.6,0.8H362V40.6h3.5
	C369.9,40.6,372.1,42.6,372.1,46.7L372.1,46.7 M370.6,46.8c0-3.2-1.7-4.8-5.1-4.8h-2v9.9h1.9c1.7,0,3-0.4,3.9-1.3
	C370.1,49.6,370.6,48.4,370.6,46.8"/>
<path fill="#332D2C" d="M381.6,49h-6.3c0,1,0.3,1.8,0.8,2.3c0.5,0.5,1.2,0.8,2.1,0.8c1,0,1.9-0.3,2.8-1v1.3
	c-0.8,0.6-1.8,0.9-3.1,0.9c-1.3,0-2.3-0.4-3-1.2c-0.7-0.8-1.1-2-1.1-3.4c0-0.9,0.2-1.7,0.5-2.4c0.4-0.7,0.9-1.3,1.5-1.7
	c0.6-0.4,1.3-0.6,2.1-0.6c1.2,0,2.1,0.4,2.7,1.1c0.7,0.8,1,1.8,1,3.2V49L381.6,49 M380.1,47.8c0-0.8-0.2-1.5-0.6-1.9
	c-0.4-0.5-0.9-0.7-1.6-0.7c-0.7,0-1.2,0.2-1.7,0.7c-0.5,0.5-0.8,1.1-0.9,1.9H380.1"/>
<path fill="#332D2C" d="M390.7,44.2l-3.6,9h-1.4l-3.4-9h1.6l2.3,6.5c0.1,0.3,0.2,0.8,0.3,1.3h0c0.1-0.4,0.1-0.8,0.3-1.2l2.4-6.6
	L390.7,44.2"/>
<path fill="#332D2C" d="M399.4,49h-6.3c0,1,0.3,1.8,0.8,2.3c0.5,0.5,1.2,0.8,2.1,0.8c1,0,1.9-0.3,2.8-1v1.3
	c-0.8,0.6-1.8,0.9-3.1,0.9c-1.3,0-2.3-0.4-3-1.2c-0.7-0.8-1.1-2-1.1-3.4c0-0.9,0.2-1.7,0.5-2.4c0.4-0.7,0.9-1.3,1.5-1.7
	c0.6-0.4,1.3-0.6,2.1-0.6c1.2,0,2.1,0.4,2.7,1.1c0.7,0.8,1,1.8,1,3.2V49L399.4,49 M398,47.8c0-0.8-0.2-1.5-0.6-1.9
	c-0.4-0.5-0.9-0.7-1.6-0.7c-0.7,0-1.2,0.2-1.7,0.7c-0.5,0.5-0.8,1.1-0.9,1.9H398"/>
<polyline fill="#332D2C" points="403,53.2 401.6,53.2 401.6,39.9 403,39.9 403,53.2 "/>
<path fill="#332D2C" d="M414.1,48.6c0,1.4-0.4,2.6-1.2,3.5c-0.8,0.9-1.9,1.3-3.3,1.3c-1.3,0-2.4-0.4-3.2-1.3c-0.8-0.8-1.2-2-1.2-3.3
	c0-1.5,0.4-2.7,1.2-3.5c0.8-0.9,1.9-1.3,3.4-1.3c1.3,0,2.4,0.4,3.1,1.3C413.7,46,414.1,47.2,414.1,48.6L414.1,48.6 M412.6,48.7
	c0-1.1-0.3-2-0.8-2.6c-0.5-0.6-1.2-0.9-2.1-0.9c-0.9,0-1.7,0.3-2.2,0.9c-0.5,0.6-0.8,1.5-0.8,2.6c0,1.1,0.3,1.9,0.8,2.5
	c0.5,0.6,1.3,0.9,2.2,0.9c0.9,0,1.7-0.3,2.2-0.9C412.3,50.7,412.6,49.8,412.6,48.7"/>
<path fill="#332D2C" d="M424.6,48.4c0,1.5-0.4,2.7-1.1,3.6c-0.7,0.9-1.7,1.4-3,1.4c-1.2,0-2.1-0.5-2.7-1.5h0v5.4h-1.4V44.2h1.4v1.6
	h0c0.7-1.2,1.7-1.8,3.1-1.8c1.1,0,2,0.4,2.7,1.2C424.2,46,424.6,47,424.6,48.4L424.6,48.4 M423.1,48.4c0-1-0.2-1.7-0.7-2.3
	c-0.5-0.6-1.1-0.9-1.9-0.9c-0.8,0-1.5,0.3-2,0.9s-0.8,1.3-0.8,2.2v1.3c0,0.8,0.2,1.4,0.7,1.9c0.5,0.5,1.1,0.8,1.8,0.8
	c0.9,0,1.5-0.3,2-1C422.8,50.5,423.1,49.6,423.1,48.4"/>
<path fill="#332D2C" d="M439.6,53.2h-1.4V48c0-1-0.2-1.7-0.5-2.2c-0.3-0.4-0.8-0.7-1.5-0.7c-0.6,0-1.1,0.3-1.6,0.8
	c-0.4,0.6-0.6,1.2-0.6,2v5.1h-1.4v-5.3c0-1.8-0.7-2.6-2-2.6c-0.6,0-1.2,0.3-1.6,0.8c-0.4,0.5-0.6,1.2-0.6,2.1v5.1h-1.4v-9h1.4v1.4h0
	c0.6-1.1,1.6-1.6,2.8-1.6c0.6,0,1.1,0.2,1.6,0.5c0.5,0.3,0.8,0.8,1,1.4c0.7-1.2,1.7-1.9,3-1.9c2,0,3,1.2,3,3.7V53.2"/>
<path fill="#332D2C" d="M449.4,49h-6.3c0,1,0.3,1.8,0.8,2.3c0.5,0.5,1.2,0.8,2.1,0.8c1,0,1.9-0.3,2.8-1v1.3
	c-0.8,0.6-1.8,0.9-3.1,0.9c-1.3,0-2.3-0.4-3-1.2c-0.7-0.8-1.1-2-1.1-3.4c0-0.9,0.2-1.7,0.5-2.4c0.4-0.7,0.9-1.3,1.5-1.7
	c0.6-0.4,1.3-0.6,2.1-0.6c1.2,0,2.1,0.4,2.7,1.1c0.7,0.8,1,1.8,1,3.2V49L449.4,49 M447.9,47.8c0-0.8-0.2-1.5-0.6-1.9
	c-0.4-0.5-0.9-0.7-1.6-0.7c-0.7,0-1.2,0.2-1.7,0.7c-0.5,0.5-0.8,1.1-0.9,1.9H447.9"/>
<path fill="#332D2C" d="M459,53.2h-1.4V48c0-1.9-0.7-2.9-2.1-2.9c-0.7,0-1.3,0.3-1.8,0.8c-0.5,0.5-0.7,1.2-0.7,2v5.1h-1.4v-9h1.4
	v1.5h0c0.7-1.1,1.7-1.7,3-1.7c1,0,1.7,0.3,2.3,1c0.5,0.6,0.8,1.6,0.8,2.7V53.2"/>
<path fill="#332D2C" d="M465.9,53.1c-0.3,0.2-0.8,0.3-1.4,0.3c-1.6,0-2.4-0.9-2.4-2.7v-5.3h-1.5v-1.2h1.5V42l1.4-0.5v2.7h2.3v1.2
	h-2.3v5.1c0,0.6,0.1,1,0.3,1.3c0.2,0.3,0.5,0.4,1,0.4c0.4,0,0.7-0.1,0.9-0.3L465.9,53.1"/>
<path fill="#20AD65" d="M235.9,78.2c-1.3,0.7-2.7,1.1-4.2,1.1c-1.2,0-2.2-0.3-3.2-0.8c-0.9-0.5-1.6-1.3-2.1-2.3
	c-0.5-1-0.7-2.1-0.7-3.3c0-1.9,0.6-3.5,1.8-4.8c1.2-1.3,2.8-1.9,4.7-1.9c1.4,0,2.5,0.2,3.5,0.7v1.6c-1-0.6-2.2-1-3.6-1
	c-0.9,0-1.7,0.2-2.5,0.7c-0.7,0.4-1.3,1.1-1.7,1.9c-0.4,0.8-0.6,1.7-0.6,2.7c0,1.6,0.4,2.8,1.2,3.8c0.8,0.9,2,1.4,3.4,1.4
	c1,0,1.8-0.2,2.6-0.6v-3.5h-2.8v-1.3h4.2L235.9,78.2"/>
<path fill="#20AD65" d="M246.8,74.5c0,1.4-0.4,2.6-1.2,3.5c-0.8,0.9-1.9,1.3-3.3,1.3c-1.3,0-2.4-0.4-3.2-1.3c-0.8-0.8-1.2-2-1.2-3.3
	c0-1.5,0.4-2.7,1.2-3.5c0.8-0.9,1.9-1.3,3.4-1.3c1.3,0,2.4,0.4,3.1,1.3C246.4,71.9,246.8,73,246.8,74.5L246.8,74.5 M245.3,74.5
	c0-1.1-0.3-2-0.8-2.6c-0.5-0.6-1.2-0.9-2.1-0.9c-0.9,0-1.7,0.3-2.2,0.9c-0.5,0.6-0.8,1.5-0.8,2.6c0,1.1,0.3,1.9,0.8,2.5
	c0.5,0.6,1.3,0.9,2.2,0.9c0.9,0,1.7-0.3,2.2-0.9C245.1,76.5,245.3,75.7,245.3,74.5"/>
<polyline fill="#20AD65" points="250.5,79 249,79 249,65.7 250.5,65.7 250.5,79 "/>
<path fill="#20AD65" d="M261,79h-1.4v-1.5h0c-0.7,1.2-1.7,1.7-3.1,1.7c-1.1,0-2-0.4-2.7-1.2c-0.7-0.8-1-1.9-1-3.3
	c0-1.5,0.4-2.7,1.1-3.6c0.7-0.9,1.8-1.4,3-1.4c1.2,0,2.1,0.5,2.7,1.5h0v-5.6h1.4V79L261,79 M259.5,75v-1.3c0-0.7-0.2-1.4-0.7-1.9
	c-0.5-0.5-1.1-0.7-1.8-0.7c-0.9,0-1.6,0.3-2.1,1c-0.5,0.6-0.8,1.5-0.8,2.7c0,1,0.2,1.8,0.7,2.5c0.5,0.6,1.1,0.9,1.9,0.9
	c0.8,0,1.4-0.3,1.9-0.9C259.3,76.6,259.5,75.9,259.5,75"/>
<path fill="#332D2C" d="M276.8,78.5c-0.9,0.5-2.1,0.7-3.5,0.7c-1.2,0-2.2-0.3-3.1-0.8c-0.9-0.5-1.6-1.3-2.1-2.2
	c-0.5-1-0.7-2.1-0.7-3.3c0-1.3,0.3-2.4,0.8-3.5c0.5-1,1.3-1.8,2.3-2.4c1-0.6,2.1-0.9,3.3-0.9c1.2,0,2.2,0.2,3,0.5v1.6
	c-0.9-0.5-1.9-0.8-3-0.8c-0.9,0-1.8,0.2-2.5,0.7s-1.3,1.1-1.7,1.9c-0.4,0.8-0.6,1.7-0.6,2.8c0,1,0.2,1.9,0.6,2.6
	c0.4,0.8,0.9,1.4,1.6,1.8c0.7,0.4,1.5,0.6,2.4,0.6c1.3,0,2.4-0.3,3.3-0.8V78.5"/>
<path fill="#332D2C" d="M287.4,74.5c0,1.4-0.4,2.6-1.2,3.5c-0.8,0.9-1.9,1.3-3.3,1.3c-1.3,0-2.4-0.4-3.2-1.3c-0.8-0.8-1.2-2-1.2-3.3
	c0-1.5,0.4-2.7,1.2-3.5c0.8-0.9,1.9-1.3,3.4-1.3c1.3,0,2.4,0.4,3.1,1.3C287,71.9,287.4,73,287.4,74.5L287.4,74.5 M285.9,74.5
	c0-1.1-0.3-2-0.8-2.6c-0.5-0.6-1.2-0.9-2.1-0.9c-0.9,0-1.7,0.3-2.2,0.9c-0.5,0.6-0.8,1.5-0.8,2.6c0,1.1,0.3,1.9,0.8,2.5
	c0.5,0.6,1.3,0.9,2.2,0.9c0.9,0,1.7-0.3,2.2-0.9C285.6,76.5,285.9,75.7,285.9,74.5"/>
<polyline fill="#332D2C" points="291,79 289.6,79 289.6,65.7 291,65.7 291,79 "/>
<polyline fill="#332D2C" points="295.4,79 293.9,79 293.9,65.7 295.4,65.7 295.4,79 "/>
<path fill="#332D2C" d="M304.7,79h-1.4v-1.4h0c-0.6,1.1-1.5,1.6-2.8,1.6c-0.9,0-1.6-0.2-2.1-0.7c-0.5-0.5-0.8-1.1-0.8-1.9
	c0-1.7,1-2.7,3-2.9l2.7-0.4c0-1.5-0.6-2.3-1.9-2.3c-1.1,0-2.1,0.4-2.9,1.1v-1.5c0.3-0.2,0.7-0.4,1.4-0.6c0.6-0.2,1.2-0.3,1.7-0.3
	c2.1,0,3.2,1.1,3.2,3.4V79L304.7,79 M303.2,74.5l-2.2,0.3c-0.7,0.1-1.3,0.3-1.6,0.5c-0.3,0.2-0.4,0.6-0.4,1.2c0,0.5,0.2,0.8,0.5,1.1
	c0.3,0.3,0.7,0.4,1.2,0.4c0.7,0,1.3-0.3,1.8-0.8c0.5-0.5,0.7-1.1,0.7-1.9V74.5"/>
<path fill="#332D2C" d="M315.6,74.3c0,1.5-0.4,2.7-1.1,3.6c-0.7,0.9-1.7,1.4-3,1.4c-1.2,0-2.1-0.5-2.7-1.5h0V79h-1.4V65.7h1.4v5.9h0
	c0.7-1.2,1.7-1.8,3.1-1.8c1.1,0,2,0.4,2.7,1.2C315.3,71.8,315.6,72.9,315.6,74.3L315.6,74.3 M314.2,74.2c0-1-0.2-1.7-0.7-2.3
	c-0.5-0.6-1.1-0.9-1.9-0.9c-0.8,0-1.5,0.3-2,0.9c-0.5,0.6-0.8,1.3-0.8,2.2v1.3c0,0.8,0.2,1.4,0.7,1.9c0.5,0.5,1.1,0.8,1.8,0.8
	c0.9,0,1.5-0.3,2-1C313.9,76.3,314.2,75.4,314.2,74.2"/>
<path fill="#332D2C" d="M326,74.5c0,1.4-0.4,2.6-1.2,3.5c-0.8,0.9-1.9,1.3-3.3,1.3c-1.3,0-2.4-0.4-3.2-1.3c-0.8-0.8-1.2-2-1.2-3.3
	c0-1.5,0.4-2.7,1.2-3.5c0.8-0.9,1.9-1.3,3.4-1.3c1.3,0,2.4,0.4,3.1,1.3C325.6,71.9,326,73,326,74.5L326,74.5 M324.5,74.5
	c0-1.1-0.3-2-0.8-2.6c-0.5-0.6-1.2-0.9-2.1-0.9c-0.9,0-1.7,0.3-2.2,0.9c-0.5,0.6-0.8,1.5-0.8,2.6c0,1.1,0.3,1.9,0.8,2.5
	c0.5,0.6,1.3,0.9,2.2,0.9c0.9,0,1.7-0.3,2.2-0.9C324.3,76.5,324.5,75.7,324.5,74.5"/>
<path fill="#332D2C" d="M332.9,71.5c-0.3-0.2-0.6-0.3-1.1-0.3c-0.6,0-1.2,0.3-1.6,0.9c-0.4,0.6-0.6,1.4-0.6,2.3V79h-1.4v-9h1.4v1.9
	h0c0.2-0.6,0.5-1.1,0.9-1.5c0.4-0.4,0.9-0.5,1.4-0.5c0.4,0,0.7,0,0.9,0.1V71.5"/>
<path fill="#332D2C" d="M340.9,79h-1.4v-1.4h0c-0.6,1.1-1.5,1.6-2.8,1.6c-0.9,0-1.6-0.2-2.1-0.7c-0.5-0.5-0.8-1.1-0.8-1.9
	c0-1.7,1-2.7,3-2.9l2.7-0.4c0-1.5-0.6-2.3-1.9-2.3c-1.1,0-2.1,0.4-2.9,1.1v-1.5c0.3-0.2,0.7-0.4,1.4-0.6c0.6-0.2,1.2-0.3,1.7-0.3
	c2.1,0,3.2,1.1,3.2,3.4V79L340.9,79 M339.4,74.5l-2.2,0.3c-0.7,0.1-1.3,0.3-1.6,0.5c-0.3,0.2-0.4,0.6-0.4,1.2c0,0.5,0.2,0.8,0.5,1.1
	c0.3,0.3,0.7,0.4,1.2,0.4c0.7,0,1.3-0.3,1.8-0.8c0.5-0.5,0.7-1.1,0.7-1.9V74.5"/>
<path fill="#332D2C" d="M347.7,78.9c-0.3,0.2-0.8,0.3-1.4,0.3c-1.6,0-2.4-0.9-2.4-2.7v-5.3h-1.5V70h1.5v-2.2l1.4-0.5V70h2.3v1.2
	h-2.3v5.1c0,0.6,0.1,1,0.3,1.3c0.2,0.3,0.5,0.4,1,0.4c0.4,0,0.7-0.1,0.9-0.3V78.9"/>
<path fill="#332D2C" d="M351.3,66.8c0,0.3-0.1,0.5-0.3,0.7c-0.2,0.2-0.4,0.3-0.7,0.3c-0.3,0-0.5-0.1-0.7-0.3
	c-0.2-0.2-0.3-0.4-0.3-0.7c0-0.3,0.1-0.5,0.3-0.6c0.2-0.2,0.4-0.3,0.7-0.3c0.3,0,0.5,0.1,0.7,0.3C351.2,66.3,351.3,66.6,351.3,66.8
	L351.3,66.8 M351.1,79h-1.4v-9h1.4V79"/>
<path fill="#332D2C" d="M362.2,74.5c0,1.4-0.4,2.6-1.2,3.5c-0.8,0.9-1.9,1.3-3.3,1.3c-1.3,0-2.4-0.4-3.2-1.3c-0.8-0.8-1.2-2-1.2-3.3
	c0-1.5,0.4-2.7,1.2-3.5c0.8-0.9,1.9-1.3,3.4-1.3c1.3,0,2.4,0.4,3.1,1.3C361.8,71.9,362.2,73,362.2,74.5L362.2,74.5 M360.7,74.5
	c0-1.1-0.3-2-0.8-2.6c-0.5-0.6-1.2-0.9-2.1-0.9c-0.9,0-1.7,0.3-2.2,0.9c-0.5,0.6-0.8,1.5-0.8,2.6c0,1.1,0.3,1.9,0.8,2.5
	c0.5,0.6,1.3,0.9,2.2,0.9c0.9,0,1.7-0.3,2.2-0.9C360.4,76.5,360.7,75.7,360.7,74.5"/>
<path fill="#332D2C" d="M371.9,79h-1.4v-5.1c0-1.9-0.7-2.9-2.1-2.9c-0.7,0-1.3,0.3-1.8,0.8c-0.5,0.5-0.7,1.2-0.7,2V79h-1.4v-9h1.4
	v1.5h0c0.7-1.1,1.7-1.7,3-1.7c1,0,1.7,0.3,2.3,1c0.5,0.6,0.8,1.6,0.8,2.7V79"/>
<path fill="#332D2C" d="M385.1,79h-1.4v-1.4h0c-0.6,1.1-1.5,1.6-2.8,1.6c-0.9,0-1.6-0.2-2.1-0.7c-0.5-0.5-0.8-1.1-0.8-1.9
	c0-1.7,1-2.7,3-2.9l2.7-0.4c0-1.5-0.6-2.3-1.9-2.3c-1.1,0-2.1,0.4-2.9,1.1v-1.5c0.3-0.2,0.7-0.4,1.4-0.6c0.6-0.2,1.2-0.3,1.7-0.3
	c2.1,0,3.2,1.1,3.2,3.4V79L385.1,79 M383.7,74.5l-2.2,0.3c-0.7,0.1-1.3,0.3-1.6,0.5c-0.3,0.2-0.4,0.6-0.4,1.2c0,0.5,0.2,0.8,0.5,1.1
	c0.3,0.3,0.7,0.4,1.2,0.4c0.7,0,1.3-0.3,1.8-0.8c0.5-0.5,0.7-1.1,0.7-1.9V74.5"/>
<path fill="#332D2C" d="M395.3,79h-1.4v-5.1c0-1.9-0.7-2.9-2.1-2.9c-0.7,0-1.3,0.3-1.8,0.8c-0.5,0.5-0.7,1.2-0.7,2V79h-1.4v-9h1.4
	v1.5h0c0.7-1.1,1.7-1.7,3-1.7c1,0,1.7,0.3,2.3,1c0.5,0.6,0.8,1.6,0.8,2.7V79"/>
<path fill="#332D2C" d="M405.6,79h-1.4v-1.5h0c-0.7,1.2-1.7,1.7-3.1,1.7c-1.1,0-2-0.4-2.7-1.2c-0.7-0.8-1-1.9-1-3.3
	c0-1.5,0.4-2.7,1.1-3.6c0.7-0.9,1.8-1.4,3-1.4c1.2,0,2.1,0.5,2.7,1.5h0v-5.6h1.4V79L405.6,79 M404.1,75v-1.3c0-0.7-0.2-1.4-0.7-1.9
	c-0.5-0.5-1.1-0.7-1.8-0.7c-0.9,0-1.6,0.3-2.1,1c-0.5,0.6-0.8,1.5-0.8,2.7c0,1,0.2,1.8,0.7,2.5c0.5,0.6,1.1,0.9,1.9,0.9
	c0.8,0,1.4-0.3,1.9-0.9S404.1,75.9,404.1,75"/>
<path fill="#332D2C" d="M421.4,78.5c-0.9,0.5-2.1,0.7-3.5,0.7c-1.2,0-2.2-0.3-3.1-0.8c-0.9-0.5-1.6-1.3-2.1-2.2
	c-0.5-1-0.7-2.1-0.7-3.3c0-1.3,0.3-2.4,0.8-3.5c0.5-1,1.3-1.8,2.3-2.4c1-0.6,2.1-0.9,3.3-0.9c1.2,0,2.2,0.2,3,0.5v1.6
	c-0.9-0.5-1.9-0.8-3-0.8c-0.9,0-1.8,0.2-2.5,0.7s-1.3,1.1-1.7,1.9c-0.4,0.8-0.6,1.7-0.6,2.8c0,1,0.2,1.9,0.6,2.6
	c0.4,0.8,0.9,1.4,1.6,1.8c0.7,0.4,1.5,0.6,2.4,0.6c1.3,0,2.4-0.3,3.3-0.8V78.5"/>
<path fill="#332D2C" d="M431.9,74.5c0,1.4-0.4,2.6-1.2,3.5c-0.8,0.9-1.9,1.3-3.3,1.3c-1.3,0-2.4-0.4-3.2-1.3c-0.8-0.8-1.2-2-1.2-3.3
	c0-1.5,0.4-2.7,1.2-3.5c0.8-0.9,1.9-1.3,3.4-1.3c1.3,0,2.4,0.4,3.1,1.3C431.6,71.9,431.9,73,431.9,74.5L431.9,74.5 M430.5,74.5
	c0-1.1-0.3-2-0.8-2.6c-0.5-0.6-1.2-0.9-2.1-0.9c-0.9,0-1.7,0.3-2.2,0.9c-0.5,0.6-0.8,1.5-0.8,2.6c0,1.1,0.3,1.9,0.8,2.5
	c0.5,0.6,1.3,0.9,2.2,0.9c0.9,0,1.7-0.3,2.2-0.9C430.2,76.5,430.5,75.7,430.5,74.5"/>
<path fill="#332D2C" d="M441.6,79h-1.4v-5.1c0-1.9-0.7-2.9-2.1-2.9c-0.7,0-1.3,0.3-1.8,0.8c-0.5,0.5-0.7,1.2-0.7,2V79h-1.4v-9h1.4
	v1.5h0c0.7-1.1,1.7-1.7,3-1.7c1,0,1.7,0.3,2.3,1c0.5,0.6,0.8,1.6,0.8,2.7V79"/>
<path fill="#332D2C" d="M448.5,78.9c-0.3,0.2-0.8,0.3-1.4,0.3c-1.6,0-2.4-0.9-2.4-2.7v-5.3h-1.5V70h1.5v-2.2l1.4-0.5V70h2.3v1.2
	h-2.3v5.1c0,0.6,0.1,1,0.3,1.3c0.2,0.3,0.5,0.4,1,0.4c0.4,0,0.7-0.1,0.9-0.3V78.9"/>
<path fill="#332D2C" d="M457.6,74.9h-6.3c0,1,0.3,1.8,0.8,2.3c0.5,0.5,1.2,0.8,2.1,0.8c1,0,1.9-0.3,2.8-1v1.3
	c-0.8,0.6-1.8,0.9-3.1,0.9c-1.3,0-2.3-0.4-3-1.2c-0.7-0.8-1.1-2-1.1-3.4c0-0.9,0.2-1.7,0.5-2.4c0.4-0.7,0.9-1.3,1.5-1.7
	c0.6-0.4,1.3-0.6,2.1-0.6c1.2,0,2.1,0.4,2.7,1.1c0.7,0.8,1,1.8,1,3.2L457.6,74.9L457.6,74.9 M456.1,73.7c0-0.8-0.2-1.5-0.6-1.9
	c-0.4-0.5-0.9-0.7-1.6-0.7c-0.7,0-1.2,0.2-1.7,0.7s-0.8,1.1-0.9,1.9H456.1"/>
<path fill="#332D2C" d="M467.1,79h-1.4v-5.1c0-1.9-0.7-2.9-2.1-2.9c-0.7,0-1.3,0.3-1.8,0.8c-0.5,0.5-0.7,1.2-0.7,2V79h-1.4v-9h1.4
	v1.5h0c0.7-1.1,1.7-1.7,3-1.7c1,0,1.7,0.3,2.3,1c0.5,0.6,0.8,1.6,0.8,2.7V79"/>
<path fill="#332D2C" d="M474,78.9c-0.3,0.2-0.8,0.3-1.4,0.3c-1.6,0-2.4-0.9-2.4-2.7v-5.3h-1.5V70h1.5v-2.2l1.4-0.5V70h2.3v1.2h-2.3
	v5.1c0,0.6,0.1,1,0.3,1.3c0.2,0.3,0.5,0.4,1,0.4c0.4,0,0.7-0.1,0.9-0.3V78.9"/>
</svg>
