<?xml version="1.0" encoding="utf-8"?>
<!-- Generator: Adobe Illustrator 17.1.0, SVG Export Plug-In . SVG Version: 6.00 Build 0)  -->
<!DOCTYPE svg PUBLIC "-//W3C//DTD SVG 1.1//EN" "http://www.w3.org/Graphics/SVG/1.1/DTD/svg11.dtd">
<svg version="1.1" id="图层_1" xmlns="http://www.w3.org/2000/svg" xmlns:xlink="http://www.w3.org/1999/xlink" x="0px" y="0px"
	 viewBox="0 0 264 155" enable-background="new 0 0 264 155" xml:space="preserve">
<polygon opacity="0.1" fill="#332D2C" points="0,0 0,96.4 264,155 264,58.7 "/>
<g>
	<defs>
		<polygon id="SVGID_1_" points="0,0 0,96.4 98.3,96.4 194.6,0 		"/>
	</defs>
	<use xlink:href="#SVGID_1_"  overflow="visible" fill="#20AD65"/>
	<clipPath id="SVGID_2_">
		<use xlink:href="#SVGID_1_"  overflow="visible"/>
	</clipPath>
	<rect x="0" y="0" clip-path="url(#SVGID_2_)" fill="#20AD65" width="194.5" height="96.4"/>
</g>
<g>
	<path fill-rule="evenodd" clip-rule="evenodd" fill="#FFFFFF" d="M115.5,18.1l-19.2,0v45.6L79.6,18.1H63L48.7,56.2
		c-1.5-9.6-11.5-12.9-19.3-15.4c-5.2-1.7-10.6-4.1-10.6-6.8c0-2.2,2.9-4.3,8.7-4c3.9,0.2,7.3,0.5,14,3.8l6.7-11.6
		c-6.2-3.1-14.7-5.1-21.7-5.1h0c-8.2,0-14.9,2.6-19.2,7c-2.9,3-4.5,6.9-4.6,11.2c-0.1,5.9,2,10.1,6.6,13.4c3.8,2.8,8.7,4.6,13,6
		c5.3,1.6,9.7,3.1,9.6,6.1c0,1.1-0.5,2.2-1.3,3c-1.3,1.4-3.4,1.9-6.2,1.9C19.1,65.8,15,65,8.6,61.2L2.7,72.9
		c6.4,3.6,14,5.8,21.7,5.8l1,0c6.7-0.1,12.1-2,16.5-5.5c0.2-0.2,0.5-0.4,0.7-0.6l-1.9,5.1h17.4l2.9-8.9c3.1,1,6.5,1.6,10.2,1.6
		c3.6,0,7-0.6,10-1.5l2.8,8.8h28.4V59.3h6.2c15,0,23.8-7.6,23.8-20.4C142.4,24.7,133.8,18.1,115.5,18.1 M71.2,57.1
		c-2.2,0-4.3-0.4-6.1-1.1l6.1-19.2h0.1l6,19.2C75.4,56.7,73.4,57.1,71.2,57.1 M116.6,46.1h-4.2V30.7h4.2c5.6,0,10.1,1.9,10.1,7.6
		C126.7,44.2,122.2,46.1,116.6,46.1"/>
</g>
<g opacity="0.1">
	<defs>
		<polygon id="SVGID_3_" opacity="0.1" points="165.7,58.7 69.4,155 72.7,153.6 166.2,60 262.6,60 264,58.7 		"/>
	</defs>
	<use xlink:href="#SVGID_3_"  overflow="visible" fill="#332D2C"/>
	<clipPath id="SVGID_4_">
		<use xlink:href="#SVGID_3_"  overflow="visible"/>
	</clipPath>
	<rect x="69.4" y="58.7" clip-path="url(#SVGID_4_)" fill="#332D2C" width="194.6" height="96.3"/>
</g>
<g>
	<defs>
		<polygon id="SVGID_5_" points="262.6,60 166.2,60 72.7,153.6 69.4,155 264,155 264,58.7 		"/>
	</defs>
	<use xlink:href="#SVGID_5_"  overflow="visible" fill="#20AD65"/>
	<clipPath id="SVGID_6_">
		<use xlink:href="#SVGID_5_"  overflow="visible"/>
	</clipPath>
	<rect x="69.4" y="58.7" clip-path="url(#SVGID_6_)" fill="#20AD65" width="194.6" height="96.3"/>
</g>
<polygon fill="#332D2C" points="52.1,148.4 56.9,148.4 56.9,149.4 55.1,149.4 55.1,155 53.9,155 53.9,149.4 52.1,149.4 "/>
<polygon fill="#332D2C" points="63.6,149.8 63.6,149.8 61.7,155 60.7,155 58.8,149.8 58.8,149.8 58.8,155 57.6,155 57.6,148.4 
	59.4,148.4 61.2,153.2 63,148.4 64.7,148.4 64.7,155 63.6,155 "/>
<path fill="#FFFFFF" d="M144.6,141.3v-22.4h8.1c4.8,0,9.2,1.3,9.2,7.2c0,6-4.7,7.3-9.2,7.3h-3.2v8H144.6z M149.5,129.5h3.4
	c3.1,0,4.2-1.2,4.2-3.3c0-2.1-1.1-3.3-4.2-3.3h-3.4V129.5z"/>
<path fill="#FFFFFF" d="M162.4,137.2c0-3.7,3.2-5.8,10.2-6.4v-0.4c0-1.2-0.6-1.9-2.2-1.9c-2.1,0-3.8,0.9-5.3,2l-2.1-2.8
	c1.6-1.5,4-2.9,8.1-2.9c4.4,0,6.2,2.2,6.2,6.3v6.2c0,1.9,0.1,3.1,0.5,3.9H173c-0.2-0.7-0.4-1.5-0.4-2.4c-1.5,1.7-3.2,2.6-5.6,2.6
	C164.6,141.6,162.4,139.9,162.4,137.2 M172.7,136.5v-3c-3.8,0.4-5.5,1.4-5.5,2.9c0,1,0.7,1.5,1.8,1.5
	C170.7,137.9,171.9,137.3,172.7,136.5"/>
<path fill="#FFFFFF" d="M181,141.3v-16.2h4.9v2.7h0c0.9-1.4,2.4-3,5.5-3h0.1l-0.1,4.3c-0.2,0-1-0.1-1.3-0.1c-1.9,0-3.4,1-4.3,2.2v10
	H181z"/>
<path fill="#FFFFFF" d="M195.3,136.8v-8.1h-2.7v-3.5h2.7v-5.6h4.8v5.6h4.2v3.5h-4.2v7c0,1.7,0.5,2.3,2.2,2.3c0.5,0,1.3-0.1,1.6-0.2
	v3.5c-0.4,0.1-2.2,0.2-3.2,0.2C196,141.5,195.3,139.8,195.3,136.8"/>
<path fill="#FFFFFF" d="M207,141.3v-16.2h4.9v2.6c1-1.3,2.8-2.9,5.6-2.9c2.7,0,4.7,1.4,4.7,4.7v11.8h-4.8v-10.3
	c0-1.5-0.5-2.2-1.9-2.2c-1.3,0-2.4,0.7-3.5,1.6v10.9H207z"/>
<path fill="#FFFFFF" d="M224.7,133.2c0-6.3,4.8-8.4,8.1-8.4c3.3,0,7.4,1.7,7.4,9v0.7h-10.7c0.2,2.7,1.7,3.7,3.8,3.7
	c1.9,0,3.7-0.9,4.8-1.9l1.9,2.9c-1.9,1.6-4.2,2.4-7,2.4C228.7,141.6,224.7,139.5,224.7,133.2 M235.9,131.7c-0.2-2.3-1.3-3.4-3.1-3.4
	c-1.5,0-2.8,1-3.2,3.4H235.9z"/>
<path fill="#FFFFFF" d="M243,141.3v-16.2h4.9v2.7h0c0.9-1.4,2.4-3,5.5-3h0.2l-0.1,4.3c-0.2,0-1-0.1-1.3-0.1c-1.9,0-3.4,1-4.3,2.2v10
	H243z"/>
</svg>
