<svg xmlns="http://www.w3.org/2000/svg" width="576" height="286" shape-rendering="geometricPrecision" text-rendering="geometricPrecision" image-rendering="optimizeQuality" fill-rule="evenodd" clip-rule="evenodd" viewBox="0 0 577162 286509"><path fill="none" d="M0 1013h576000v285496H0z"/><path fill="#6E716D" fill-rule="nonzero" d="M255440 285961h1186v-4937h3542c416 0 1106 32 1603 449 544 465 529 1074 561 1843l48 1186c32 898 256 1282 368 1459h1283c-417-625-417-1170-433-1555l-32-1266c-16-721-16-1491-625-2084-129-128-449-416-978-545v-32c369-96 849-320 1282-801 513-593 673-1266 673-1988 0-1041-400-1699-769-2083-737-770-1715-866-2949-866h-4760v11220zm1186-10210h3398c528 0 1474 0 2051 513 289 240 577 705 577 1491 0 689-256 1314-625 1666-433 401-1202 593-1939 593h-3462v-4263zm15691 7854c-32 176-177 785-689 1266-321 288-834 609-1683 609-898 0-1539-305-1988-802-464-496-817-1298-865-2580h6379c-48-1475-177-2725-1058-3638-818-850-1891-962-2597-962-753 0-1875 128-2756 1026-1010 1025-1122 2468-1122 3333 0 1187 208 2517 1202 3479 897 865 1907 945 2757 945 881 0 1811-128 2596-945 401-417 737-1026 882-1731h-1058zm-5225-2308c0-802 304-1699 753-2212 385-433 1042-786 1956-786 833 0 1394 321 1714 658 545 561 786 1683 786 2340h-5209zm8494-6556v11220h1107v-11220h-1107zm9601 8864c-32 176-177 785-689 1266-321 288-834 609-1683 609-898 0-1539-305-1988-802-464-496-817-1298-865-2580h6379c-48-1475-177-2725-1058-3638-817-850-1891-962-2596-962-754 0-1876 128-2757 1026-1010 1025-1122 2468-1122 3333 0 1187 208 2517 1202 3479 898 865 1907 945 2757 945 881 0 1811-128 2596-945 401-417 738-1026 882-1731h-1058zm-5225-2308c0-802 305-1699 753-2212 385-433 1042-786 1956-786 833 0 1394 321 1715 658 544 561 785 1683 785 2340h-5209zm9376-1138c16-465 176-1026 513-1363 449-449 1170-497 1667-497 513 0 1106 65 1539 449 480 433 496 978 496 1395 0 240-16 593-192 785-80 80-240 176-641 240-369 64-801 97-1090 129l-529 64c-769 96-1923 240-2580 881-257 257-593 754-593 1539 0 689 240 1314 673 1715 577 561 1378 657 2003 657 385 0 1202-48 1908-449 320-176 737-513 1058-1042-17 353 96 802 352 1058 288 289 689 305 946 305 224 0 448-32 593-64v-802c-289 80-577 0-737-192-161-192-161-497-161-753l96-4055c16-577-48-1299-657-1908-689-673-1715-753-2388-753-561 0-1571 64-2292 561-833 577-1042 1507-1058 2100h1074zm4151 2324c-32 897-336 1795-961 2308-337 272-866 561-1747 561-401 0-898-48-1283-465-224-241-416-641-416-1090 0-577 208-930 384-1106 273-257 754-465 1651-561l321-32c497-48 705-32 1442-176 257-48 433-80 641-273l-32 834zm3254 1105c64 594 321 1347 785 1828 417 432 1202 865 2613 865 481 0 1555-32 2292-577 545-400 961-1138 961-2019 0-737-304-1234-721-1555-497-385-1234-545-1907-705l-849-193c-449-96-946-224-1299-529-304-272-417-577-417-929 0-497 193-817 369-994 417-416 1074-481 1491-481 689 0 1250 161 1587 481 256 257 448 689 448 1154h1074c-16-769-353-1314-689-1635-721-705-1795-801-2404-801-481 0-1363 48-2020 481-625 416-1010 1138-1010 1907 0 561 209 1074 545 1411 449 448 1251 657 1988 817l897 192c802 177 1154 369 1347 529 304 257 432 593 432 946 0 513-208 994-545 1266-256 208-705 433-1522 433-914 0-1459-257-1763-545-257-241-561-689-561-1347h-1122zm14521 17c-32 176-176 785-689 1266-321 288-833 609-1683 609-897 0-1539-305-1988-802-464-496-817-1298-865-2580h6379c-48-1475-176-2725-1058-3638-817-850-1891-962-2596-962-753 0-1875 128-2757 1026-1010 1025-1122 2468-1122 3333 0 1187 208 2517 1202 3479 898 865 1908 945 2757 945 882 0 1811-128 2596-945 401-417 738-1026 882-1731h-1058zm-5225-2308c0-802 305-1699 753-2212 385-433 1042-786 1956-786 833 0 1394 321 1715 658 545 561 785 1683 785 2340h-5209zm7870 2291c64 594 320 1347 785 1828 417 432 1202 865 2613 865 480 0 1554-32 2292-577 544-400 961-1138 961-2019 0-737-304-1234-721-1555-497-385-1234-545-1907-705l-850-193c-449-96-945-224-1298-529-305-272-417-577-417-929 0-497 193-817 369-994 417-416 1074-481 1491-481 689 0 1250 161 1586 481 257 257 449 689 449 1154h1074c-16-769-353-1314-689-1635-721-705-1795-801-2404-801-481 0-1363 48-2020 481-625 416-1010 1138-1010 1907 0 561 209 1074 545 1411 449 448 1250 657 1988 817l897 192c802 177 1154 369 1347 529 304 257 432 593 432 946 0 513-208 994-545 1266-256 208-705 433-1522 433-914 0-1459-257-1763-545-257-241-561-689-561-1347h-1122z"/><g fill="none" stroke="#433C39" stroke-width="1001.8" stroke-linecap="round" stroke-linejoin="round"><path d="M310055 225759l-17901 45259-8348-18873-19011-8394zM310055 225759l-26249 26386M280403 255411l-12486 12485M281946 260129l-4682 4682M275705 253835l-1560 1560"/></g><path fill="#6E716D" fill-rule="nonzero" d="M11029 108746c-80 1122-657 1795-978 2099-433 401-1202 882-2420 882-1298 0-2148-513-2645-1010-1009-978-1378-2645-1378-4119 0-1571 417-2901 1314-3767 834-801 1779-977 2677-977 1282 0 2051 432 2500 897 401 417 737 1042 801 1795h1203c-65-1058-529-1971-1090-2516-882-865-2324-1186-3511-1186-1731 0-2852 641-3590 1362-1218 1202-1570 3013-1570 4568 0 1603 416 3382 1554 4568 1154 1202 2501 1394 3655 1394 1105 0 2340-144 3381-1186 706-705 1171-1730 1299-2804h-1202zm9825 3654v-8142h-1106v4552c0 817-65 1635-722 2340-609 641-1314 769-1811 769-657 0-1058-256-1282-481-497-497-529-1250-529-2115v-5065h-1106v5497c0 946 128 1715 705 2276 337 337 914 689 1892 689 577 0 1266-128 1763-416 384-209 769-593 1057-1074h33v1170h1106zm1907-2372c64 593 321 1346 785 1827 417 433 1202 865 2613 865 481 0 1554-32 2292-577 545-400 961-1138 961-2019 0-737-304-1234-721-1555-497-384-1234-545-1907-705l-850-192c-448-97-945-225-1298-529-305-273-417-577-417-930 0-497 193-817 369-994 417-416 1074-480 1491-480 689 0 1250 160 1586 480 257 257 449 690 449 1154h1074c-16-769-353-1314-689-1634-721-706-1795-802-2404-802-481 0-1363 48-2020 481-625 417-1010 1138-1010 1907 0 561 209 1074 545 1411 449 449 1251 657 1988 817l897 193c802 176 1154 368 1347 528 304 257 432 594 432 946 0 513-208 994-545 1266-256 209-705 433-1522 433-914 0-1459-256-1763-545-257-240-561-689-561-1346h-1122zm7389-5770v801h1522v5914c0 337 32 898 353 1251 144 160 497 400 1218 400 385 0 833-64 1282-224v-801c-368 128-625 176-945 176-193 0-481-16-641-209-145-160-161-432-161-609v-5898h1747v-801h-1747v-2436h-1106v2436h-1522zm5433 4071c0 1891 705 2965 1282 3494 786 737 1747 897 2629 897 881 0 1779-160 2580-897 1074-978 1299-2468 1299-3494 0-1138-305-2548-1235-3446-833-801-1826-946-2660-946-817 0-1827 145-2661 946-512 497-1234 1523-1234 3446zm1154-16c0-1539 433-2436 930-2917 368-353 961-673 1811-673 978 0 1554 416 1875 753 641 705 850 1843 850 2837 0 1474-417 2468-994 2997-529 497-1186 609-1731 609s-1186-112-1747-625c-561-529-994-1443-994-2981zm8751-4055v8142h1106v-4905c0-1106 417-1779 834-2179 384-369 833-577 1426-577 353 0 770 64 1122 432 545 577 577 1635 577 1988v5241h1106v-4953c0-641 80-1490 705-2115 369-369 898-593 1491-593 481 0 881 160 1170 416 561 513 593 1331 593 1988v5257h1105v-5482c0-673-32-1586-753-2291-336-337-929-690-1859-690-705 0-1298 193-1779 561-545 417-849 962-929 1138-161-657-545-1042-786-1234-481-369-1025-465-1522-465-642 0-1138 145-1587 465-369 257-689 609-914 1026v-1170h-1106zm19730 5786c-32 176-176 785-689 1266-321 289-834 609-1683 609-897 0-1539-305-1988-801-464-497-817-1298-865-2581h6379c-48-1474-176-2724-1058-3638-817-849-1891-962-2596-962-754 0-1875 128-2757 1026-1010 1026-1122 2468-1122 3334 0 1186 208 2516 1202 3478 898 865 1908 945 2757 945 882 0 1811-128 2596-945 401-417 738-1026 882-1731h-1058zm-5225-2308c0-801 305-1699 753-2212 385-433 1042-785 1956-785 833 0 1394 320 1715 657 545 561 785 1683 785 2340h-5209zm12726-3638h-176c-577 0-1250 64-1907 512-337 225-754 626-1010 1267h-32v-1619h-1106v8142h1106v-4199c0-946 128-1747 801-2437 529-545 1154-769 2164-769h160v-897zm-53917 16187v802h1523v5914c0 337 32 898 353 1250 144 161 496 401 1217 401 385 0 834-64 1283-224v-802c-369 128-625 177-946 177-192 0-481-17-641-209-144-160-160-433-160-609v-5898h1747v-802h-1747v-2436h-1106v2436h-1523zm11813 5787c-32 176-177 785-690 1266-320 288-833 609-1682 609-898 0-1539-305-1988-802-465-496-817-1298-865-2580h6379c-48-1475-177-2725-1058-3638-818-850-1891-962-2597-962-753 0-1875 128-2756 1026-1010 1025-1122 2468-1122 3333 0 1187 208 2517 1202 3479 897 865 1907 945 2756 945 882 0 1812-128 2597-945 401-417 737-1026 882-1731h-1058zm-5225-2308c0-802 304-1699 753-2212 385-433 1042-786 1955-786 834 0 1395 321 1715 658 545 561 786 1683 786 2340h-5209zm9376-1139c16-464 176-1025 513-1362 449-449 1170-497 1667-497 513 0 1106 65 1539 449 480 433 496 978 496 1395 0 240-16 593-192 785-80 80-241 176-641 240-369 64-802 97-1090 129l-529 64c-769 96-1923 240-2580 881-257 257-594 754-594 1539 0 689 241 1314 674 1715 577 561 1378 657 2003 657 385 0 1202-48 1907-449 321-176 738-513 1058-1042-16 353 96 802 353 1058 288 289 689 305 946 305 224 0 448-32 593-64v-802c-289 80-577 0-738-192-160-192-160-497-160-753l96-4056c16-577-48-1298-657-1907-689-673-1715-753-2388-753-561 0-1571 64-2292 561-834 577-1042 1507-1058 2099h1074zm4151 2325c-32 897-336 1795-961 2308-337 272-866 561-1748 561-400 0-897-48-1282-465-224-241-417-641-417-1090 0-577 209-930 385-1106 273-257 754-465 1651-561l321-32c496-48 705-32 1442-176 257-48 433-80 641-273l-32 834zm3879-4665v8143h1106v-4905c0-1106 416-1779 833-2180 385-368 834-577 1427-577 352 0 769 65 1122 433 544 577 577 1635 577 1988v5241h1106v-4953c0-641 80-1490 705-2116 368-368 897-593 1490-593 481 0 882 161 1170 417 561 513 593 1330 593 1987v5258h1106v-5482c0-673-32-1587-753-2292-337-337-930-689-1859-689-706 0-1298 192-1779 561-545 417-850 962-930 1138-160-657-545-1042-785-1234-481-369-1026-465-1523-465-641 0-1138 144-1587 465-368 256-689 609-913 1026v-1171h-1106z"/><g fill="none" stroke="#433C39" stroke-width="1001.8" stroke-linecap="round" stroke-linejoin="round"><path d="M47705 90520v-1850c0-4821-12563-5234-14053-9244-14-1488 5-3023 5-4382 674-354 2092-2338 2296-4241 529-44 1402-836 1646-2877 132-1096-643-2157-643-2157s3677-10600-4564-12426c-769-171-1635-279-2618-279-2741 0-2239 694-2661 1227-8241 1826-4597 11531-4597 11531s-775 1061-644 2157c245 2040 1118 2833 1647 2877 203 1904 1649 3867 2322 4220 0 1359 20 2895 6 4383-1491 4009-14046 4390-14046 9211v1850M11801 90520h35904M52331 90520h4729"/><path d="M57060 90520v-1693c0-4414-11501-4793-12865-8463-13-1362 5-2767 5-4012 617-323 1915-2139 2102-3883 484-39 1283-765 1507-2633 120-1002-589-1974-589-1974s3366-9704-4178-11376c-482-107-1005-187-1576-227"/></g><path fill="#6E716D" fill-rule="nonzero" d="M262923 105748v-3894h6555v-1010h-7741v11219h7934v-1009h-6748v-4296h5994v-1010h-5994zm10835 1347l-2196-3174h-1251l2805 3895-3061 4247h1282l2421-3542 2420 3542h1298l-3061-4247 2804-3895h-1266l-2195 3174zm4952-3174v8142h1106v-8142h-1106zm-16-1731h1138v-1346h-1138v1346zm2997 7501c64 593 321 1347 786 1827 416 433 1202 866 2612 866 481 0 1555-32 2292-577 545-401 962-1138 962-2020 0-737-305-1234-722-1554-496-385-1234-545-1907-706l-849-192c-449-96-946-224-1298-529-305-272-417-577-417-929 0-497 192-818 368-994 417-417 1074-481 1491-481 689 0 1250 160 1587 481 256 256 448 689 448 1154h1074c-16-769-352-1314-689-1635-721-705-1795-801-2404-801-481 0-1362 48-2020 481-625 416-1009 1137-1009 1907 0 561 208 1074 545 1410 449 449 1250 657 1987 818l898 192c801 176 1154 369 1346 529 305 257 433 593 433 946 0 513-209 993-545 1266-257 208-705 433-1523 433-913 0-1458-257-1763-545-256-241-561-690-561-1347h-1122zm7389-5770v802h1523v5914c0 337 32 897 352 1250 145 160 497 401 1218 401 385 0 834-64 1283-225v-801c-369 128-625 176-946 176-192 0-481-16-641-208-144-160-161-433-161-609v-5898h1748v-802h-1748v-2436h-1105v2436h-1523zm5818 0v8142h1106v-8142h-1106zm-16-1731h1138v-1346h-1138v1346zm3622 1731v8142h1106v-4551c0-610 48-1699 834-2453 416-400 1026-657 1667-657 432 0 929 144 1250 417 609 529 593 1394 593 1907v5337h1106v-5497c0-737-48-1587-738-2260-432-417-1121-705-1987-705-577 0-1074 128-1603 433-432 256-817 577-1122 1073v-1186h-1106zm9168 9136c112 545 385 978 674 1266 769 770 1971 834 2692 834 785 0 1844-129 2613-882s897-1715 897-2596v-7758h-1041v1202h-33c-272-529-657-865-993-1073-561-353-1154-449-1731-449-818 0-1731 144-2501 945-1025 1074-1073 2597-1073 3350 0 914 176 2276 1073 3270 786 881 1715 1026 2581 1026 513 0 1074-64 1570-369 401-240 802-689 1042-1186v946c0 705-64 1602-753 2211-529 481-1234 545-1747 545-449 0-1058-48-1539-400-208-160-480-433-625-882h-1106zm3318-1667c-593 0-1298-240-1779-737-785-818-865-2116-865-2885 0-641 64-1907 817-2693 385-400 929-673 1683-673 785 0 1426 289 1843 721 609 625 818 1715 818 2693 0 225-17 2068-930 2933-369 353-978 641-1587 641zm-79482 5482v4263c-256-481-609-833-945-1042-433-272-1010-464-1763-464-1219 0-1988 448-2485 945-545 545-1138 1587-1138 3398 0 1651 481 2853 1202 3558 786 770 1715 882 2404 882 465 0 1187-64 1780-433 352-224 721-577 961-1090h32v1202h1058v-11219h-1106zm-5161 7084c0-1234 337-2356 978-2949 273-241 769-577 1587-577 705 0 1234 224 1651 625 657 625 1009 1699 1009 2965 0 1074-288 2244-977 2933-481 481-1042 657-1667 657-705 0-1250-224-1715-737-753-817-866-1955-866-2917zm14762 1779c-32 176-176 785-689 1266-321 289-834 609-1683 609-898 0-1539-304-1988-801-464-497-817-1298-865-2581h6379c-48-1474-176-2724-1058-3638-817-849-1891-961-2596-961-754 0-1876 128-2757 1025-1010 1026-1122 2468-1122 3334 0 1186 208 2516 1202 3478 898 866 1907 946 2757 946 881 0 1811-129 2596-946 401-417 738-1026 882-1731h-1058zm-5225-2308c0-801 304-1699 753-2212 385-432 1042-785 1956-785 833 0 1394 321 1715 657 544 561 785 1683 785 2340h-5209zm10899 3542l-2468-7020h-1202l3029 8142h1282l3029-8142h-1218l-2452 7020zm10899-1234c-33 176-177 785-690 1266-320 289-833 609-1682 609-898 0-1539-304-1988-801-465-497-817-1298-865-2581h6379c-48-1474-177-2724-1058-3638-818-849-1891-961-2597-961-753 0-1875 128-2756 1025-1010 1026-1122 2468-1122 3334 0 1186 208 2516 1202 3478 897 866 1907 946 2756 946 882 0 1811-129 2597-946 401-417 737-1026 882-1731h-1058zm-5225-2308c0-801 304-1699 753-2212 385-432 1042-785 1955-785 834 0 1395 321 1715 657 545 561 786 1683 786 2340h-5209zm8494-6555v11219h1106v-11219h-1106zm3222 7148c0 1891 705 2965 1282 3494 786 737 1747 898 2629 898 881 0 1779-161 2580-898 1074-978 1298-2468 1298-3494 0-1138-304-2548-1234-3446-833-801-1827-945-2660-945-818 0-1827 144-2661 945-513 497-1234 1523-1234 3446zm1154-16c0-1539 433-2436 929-2917 369-353 962-673 1812-673 978 0 1554 417 1875 753 641 705 849 1843 849 2837 0 1475-416 2468-993 2997-529 497-1186 609-1731 609s-1186-112-1747-625c-561-529-994-1442-994-2981zm8751-4055v11107h1106v-4215c240 433 609 849 1042 1122 481 288 1106 449 1811 449 2228 0 3462-1828 3462-4472 0-1907-657-2917-1186-3430-417-401-1186-881-2404-881-609 0-1186 128-1731 480-241 160-657 481-1010 1042h-32v-1202h-1058zm1042 4103c0-849 96-2164 978-2981 416-385 993-641 1651-641 801 0 1330 336 1634 625 449 417 962 1250 962 2917 0 1346-353 2388-914 2981-432 449-961 657-1570 657-850 0-1443-368-1811-753-802-833-930-2019-930-2805zm8495-4103v8142h1106v-4904c0-1106 416-1779 833-2180 384-369 833-577 1426-577 353 0 770 64 1122 433 545 577 577 1634 577 1987v5241h1106v-4952c0-642 80-1491 706-2116 368-369 897-593 1490-593 481 0 881 160 1170 417 561 513 593 1330 593 1987v5257h1106v-5481c0-673-32-1587-753-2292-337-337-930-689-1859-689-706 0-1299 192-1779 560-545 417-850 962-930 1139-161-658-545-1042-786-1235-480-368-1025-464-1522-464-641 0-1138 144-1587 464-369 257-689 609-913 1026v-1170h-1106zm19730 5786c-33 176-177 785-690 1266-320 289-833 609-1682 609-898 0-1539-304-1988-801-465-497-817-1298-865-2581h6379c-48-1474-177-2724-1058-3638-818-849-1891-961-2597-961-753 0-1875 128-2756 1025-1010 1026-1122 2468-1122 3334 0 1186 208 2516 1202 3478 897 866 1907 946 2756 946 882 0 1811-129 2597-946 401-417 737-1026 882-1731h-1058zm-5225-2308c0-801 304-1699 753-2212 385-432 1042-785 1955-785 834 0 1395 321 1715 657 545 561 786 1683 786 2340h-5209zm8494-3478v8142h1106v-4552c0-609 48-1699 834-2452 416-401 1025-657 1667-657 432 0 929 144 1250 417 609 529 593 1394 593 1907v5337h1106v-5497c0-738-49-1587-738-2260-432-417-1122-705-1987-705-577 0-1074 128-1603 432-433 257-817 577-1122 1074v-1186h-1106zm7918 0v802h1523v5914c0 336 32 897 352 1250 145 160 497 400 1218 400 385 0 834-64 1283-224v-801c-369 128-625 176-946 176-192 0-481-16-641-208-144-161-161-433-161-609v-5898h1748v-802h-1748v-2436h-1105v2436h-1523zm15066-3077h-1106v3077h-2933v-962c0-352 32-769 337-1041 336-289 993-305 1170-305 192 0 416 16 529 32v-801c-273-32-593-48-850-48-673 0-1346 64-1811 529-401 416-481 945-481 1586v1010h-1506v802h1506v7340h1106v-7340h2933v7340h1106v-11219zm2116 7148c0 1891 705 2965 1282 3494 785 737 1747 898 2629 898 881 0 1779-161 2580-898 1074-978 1298-2468 1298-3494 0-1138-304-2548-1234-3446-833-801-1827-945-2661-945-817 0-1827 144-2660 945-513 497-1234 1523-1234 3446zm1154-16c0-1539 432-2436 929-2917 369-353 962-673 1811-673 978 0 1555 417 1876 753 641 705 849 1843 849 2837 0 1475-417 2468-994 2997-528 497-1185 609-1731 609-545 0-1185-112-1747-625-561-529-993-1442-993-2981zm13175-2773l1859 6860h1234l2516-8142h-1154l-2019 6860-1859-6860h-1138l-1859 6860-2020-6860h-1154l2516 8142h1235l1843-6860z"/><g fill="none" stroke="#20AD65" stroke-width="1001.8" stroke-linecap="round" stroke-linejoin="round"><path d="M306933 94423h-39016M267917 94423c-1717 0-3122-1405-3122-3122M264795 91301V52284M264795 52284c0-1717 1405-3121 3122-3121M267917 49163h39016M306933 49163c1717 0 3121 1404 3121 3121M310054 52284v39017M310054 91301c0 1717-1404 3122-3121 3122M273444 71007l8583 7023-8583 7023M283523 85053h9364"/></g><path fill="#6E716D" fill-rule="nonzero" d="M509749 100844v11219h1186v-11219h-1186zm2757 3077v802h1522v5914c0 337 33 897 353 1250 144 160 497 401 1218 401 385 0 833-64 1282-225v-801c-368 128-625 176-945 176-193 0-481-16-641-208-145-160-161-433-161-609v-5898h1747v-802h-1747v-2436h-1106v2436h-1522zm10081-160h-176c-577 0-1250 64-1907 513-337 224-753 625-1010 1266h-32v-1619h-1106v8142h1106v-4199c0-946 128-1747 801-2436 529-545 1154-769 2164-769h160v-898zm1651 2500c16-465 177-1025 513-1362 449-449 1170-497 1667-497 513 0 1106 64 1539 449 481 433 497 978 497 1394 0 241-16 593-193 786-80 80-240 176-641 240-368 64-801 96-1090 128l-529 65c-769 96-1923 240-2580 881-256 256-593 753-593 1539 0 689 240 1314 673 1715 577 561 1378 657 2004 657 384 0 1202-48 1907-449 320-176 737-513 1058-1042-16 353 96 801 352 1058 289 288 690 305 946 305 224 0 449-33 593-65v-801c-289 80-577 0-737-192-161-193-161-497-161-754l97-4055c15-577-48-1298-658-1907-689-673-1715-753-2388-753-561 0-1570 64-2292 561-833 577-1042 1506-1057 2099h1073zm4151 2324c-31 898-336 1795-961 2308-337 273-866 561-1747 561-401 0-898-48-1282-465-225-240-417-641-417-1089 0-577 208-930 385-1106 272-257 753-465 1650-561l321-32c497-48 705-32 1443-177 256-48 432-80 640-272l-32 833zm3879-4664v8142h1106v-4551c0-610 48-1699 834-2453 416-400 1025-657 1666-657 433 0 930 144 1251 417 609 529 593 1394 593 1907v5337h1106v-5497c0-737-49-1587-738-2260-433-417-1122-705-1987-705-577 0-1074 128-1603 433-433 256-817 577-1122 1073v-1186h-1106zm8463 5770c64 593 321 1347 785 1827 417 433 1202 866 2613 866 481 0 1555-32 2292-577 545-401 961-1138 961-2020 0-737-304-1234-721-1554-497-385-1234-545-1907-706l-849-192c-449-96-946-224-1299-529-304-272-417-577-417-929 0-497 193-818 369-994 417-417 1074-481 1491-481 689 0 1250 160 1587 481 256 256 448 689 448 1154h1074c-16-769-353-1314-689-1635-721-705-1795-801-2404-801-481 0-1363 48-2020 481-625 416-1010 1137-1010 1907 0 561 209 1074 545 1410 449 449 1251 657 1988 818l897 192c802 176 1154 369 1347 529 304 257 432 593 432 946 0 513-208 993-545 1266-256 208-705 433-1522 433-914 0-1459-257-1763-545-257-241-561-690-561-1347h-1122zm8527-5770v8142h1106v-8142h-1106zm-16-1731h1138v-1346h-1138v1346zm2452 1731v802h1522v5914c0 337 32 897 353 1250 144 160 497 401 1218 401 385 0 833-64 1282-225v-801c-368 128-625 176-945 176-193 0-481-16-641-208-145-160-161-433-161-609v-5898h1747v-802h-1747v-2436h-1106v2436h-1522zm5818 0v8142h1106v-8142h-1106zm-16-1731h1138v-1346h-1138v1346zm3205 5802c0 1892 706 2965 1283 3494 785 738 1746 898 2628 898s1779-160 2580-898c1074-977 1299-2468 1299-3494 0-1138-305-2548-1234-3446-834-801-1827-945-2661-945-817 0-1827 144-2660 945-513 497-1235 1523-1235 3446zm1154-16c0-1538 433-2436 930-2917 368-352 962-673 1811-673 978 0 1555 417 1875 753 641 706 850 1844 850 2837 0 1475-417 2469-994 2998-529 496-1186 609-1731 609s-1186-113-1747-626c-561-528-994-1442-994-2981zm8752-4055v8142h1106v-4551c0-610 48-1699 833-2453 417-400 1026-657 1667-657 433 0 929 144 1250 417 609 529 593 1394 593 1907v5337h1106v-5497c0-737-48-1587-737-2260-433-417-1122-705-1988-705-577 0-1074 128-1603 433-432 256-817 577-1121 1073v-1186h-1106zm-45455 16028v802h1523v5914c0 336 32 897 352 1250 144 160 497 400 1218 400 385 0 834-64 1282-224v-801c-368 128-625 176-945 176-193 0-481-16-641-208-145-161-161-433-161-609v-5898h1747v-802h-1747v-2436h-1105v2436h-1523zm11812 5786c-32 176-176 785-689 1266-320 289-833 609-1683 609-897 0-1538-304-1987-801-465-497-818-1298-866-2581h6379c-48-1474-176-2724-1057-3638-818-849-1892-961-2597-961-753 0-1875 128-2757 1025-1009 1026-1122 2468-1122 3334 0 1186 209 2516 1202 3478 898 866 1908 946 2757 946 882 0 1811-129 2597-946 400-417 737-1026 881-1731h-1058zm-5225-2308c0-801 305-1699 754-2212 384-432 1041-785 1955-785 834 0 1394 321 1715 657 545 561 785 1683 785 2340h-5209zm9376-1138c17-465 177-1026 514-1362 448-449 1170-497 1666-497 513 0 1106 64 1539 449 481 432 497 977 497 1394 0 240-16 593-192 786-80 80-241 176-642 240-368 64-801 96-1089 128l-529 64c-770 96-1924 241-2581 882-256 256-593 753-593 1538 0 690 241 1315 673 1715 577 561 1379 657 2004 657 384 0 1202-48 1907-448 321-177 737-513 1058-1042-16 353 96 801 352 1058 289 288 690 304 946 304 225 0 449-32 593-64v-801c-288 80-577 0-737-193-160-192-160-496-160-753l96-4055c16-577-48-1298-657-1907-689-673-1715-753-2388-753-561 0-1571 63-2292 560-834 577-1042 1507-1058 2100h1073zm4152 2324c-32 898-337 1795-962 2308-336 273-865 561-1747 561-401 0-897-48-1282-465-224-240-417-641-417-1090 0-577 209-929 385-1106 272-256 753-464 1651-560l320-33c497-48 705-32 1443-176 256-48 433-80 641-272l-32 833zm3879-4664v8142h1106v-4904c0-1106 416-1779 833-2180 384-369 833-577 1426-577 353 0 770 64 1122 433 545 577 577 1634 577 1987v5241h1106v-4952c0-642 80-1491 705-2116 369-369 898-593 1491-593 481 0 881 160 1170 417 561 513 593 1330 593 1987v5257h1106v-5481c0-673-32-1587-754-2292-336-337-929-689-1859-689-705 0-1298 192-1779 560-545 417-849 962-929 1139-161-658-545-1042-786-1235-481-368-1026-464-1522-464-642 0-1139 144-1587 464-369 257-689 609-913 1026v-1170h-1106z"/><g fill="none" stroke="#433C39" stroke-width="1001.8" stroke-linecap="round" stroke-linejoin="round"><path d="M554921 90520v-1850c0-4821-12562-5234-14053-9244-13-1488 6-3023 6-4382 673-354 2091-2338 2295-4241 530-44 1403-836 1647-2877 132-1096-644-2157-644-2157s3678-10600-4563-12426c-769-171-1636-279-2619-279-2740 0-2239 694-2660 1227-8241 1826-4598 11531-4598 11531s-775 1061-643 2157c244 2040 1117 2833 1646 2877 204 1904 1649 3867 2323 4220 0 1359 19 2895 6 4383-1491 4009-14047 4390-14047 9211v1850M519017 90520h35904M559548 90520h4729"/><path d="M564277 90520v-1693c0-4414-11501-4793-12866-8463-12-1362 6-2767 6-4012 616-323 1915-2139 2101-3883 485-39 1284-765 1507-2633 121-1002-589-1974-589-1974s3367-9704-4178-11376c-481-107-1004-187-1575-227"/></g><path fill="#D6D5D5" fill-rule="nonzero" d="M366573 2640h-1002v-501h1002v501zm-1003 73651l1-73651h1002l-1 73651h-1002zm3141-416l-2640 4798-2639-4798h5279zm-3141 416h1002v501h-1002v-501zM209506 158706h1002v501h-1002v-501zm1000-73651l2 73651h-1002l-2-73651h1002zm-3140 416l2639-4798 2640 4798h-5279zm3140-416h-1002v-501h1002v501zM366072 159206v-1002h501v1002h-501zm-73651-1001l73651-1v1002l-73651 1v-1002zm416 3141l-4798-2640 4798-2639v5279zm-416-3141v1002h-501v-1002h501zM210005 2137v1002h-501V2137h501zm73651 1004l-73651-2V2137l73651 2v1002zM283240 0l4799 2640-4799 2639V0zm416 3141V2139h501v1002h-501z"/><path fill="none" stroke="#D6D5D5" stroke-width="1001.8" stroke-linecap="square" d="M210005 2640h156067M210005 158705h156067M210005 158706V2640M366072 158706V2640"/><path fill="#D6D5D5" fill-rule="nonzero" d="M272933 170079h-1002v-501h1002v501zm-1003 44388l1-44388h1002l-1 44388h-1002zm3141-416l-2640 4799-2639-4799h5279zm-3141 416h1002v501h-1002v-501zM303145 218850h1002v501h-1002v-501zm1000-44388l2 44388h-1002l-2-44388h1002zm-3140 416l2639-4799 2640 4799h-5279zm3140-416h-1002v-501h1002v501zM119292 80172v1002h-501v-1002h501zm44388 1002h-44388v-1002l44388 1v1001zm-416-3140l4798 2640-4798 2639v-5279zm416 3140v-1001h501v1001h-501zM456786 81174v-1002h501v1002h-501zm-44389-1002h44389v1002h-44389v-1002zm416 3140l-4798-2639 4798-2639v5278zm-416-3140v1002h-501v-1002h501z"/></svg>