<svg xmlns="http://www.w3.org/2000/svg" width="575" height="290" shape-rendering="geometricPrecision" text-rendering="geometricPrecision" image-rendering="optimizeQuality" fill-rule="evenodd" clip-rule="evenodd" viewBox="0 0 575000 290000"><path fill="none" d="M0 1h575000v290000H0z"/><path fill="none" stroke="#D6D5D5" stroke-width="1000.06" stroke-linecap="square" d="M45000 96251h485000"/><path fill="#D6D5D5" fill-rule="nonzero" d="M287000 123126V55001h1000l-1 68125h-999zm3135-415l-2636 4790-2634-4790h5270zM45500 96251h-1000v-500h1000v500zm-1001 26875l1-26875h1000l-1 26875h-1000zm3136-415l-2636 4790-2634-4790h5270zm-3136 415h1000v500h-1000v-500zM530500 96251h-1000v-500h1000v500zm-1001 26875l1-26875h1000l-1 26875h-1000zm3136-415l-2636 4790-2634-4790h5270zm-3136 415h1000v500h-1000v-500zM469875 96251h-1000v-500h1000v500zm-1001 26875l1-26875h1000l-1 26875h-1000zm3135-415l-2635 4790-2635-4790h5270zm-3135 415h1000v500h-1000v-500zM409250 96251h-1000v-500h1000v500zm-1001 26875l1-26875h1000l-1 26875h-1000zm3135-415l-2635 4790-2635-4790h5270zm-3135 415h1000v500h-1000v-500zM348625 96251h-1000v-500h1000v500zm-1001 26875l1-26875h1000l-1 26875h-1000zm3135-415l-2635 4790-2635-4790h5270zm-3135 415h1000v500h-1000v-500zM227375 96251h-1000v-500h1000v500zm-1000 26875V96251h1000v26875h-1000zm3135-415l-2635 4790-2635-4790h5270zm-3135 415h1000v500h-1000v-500zM166750 96251h-1000v-500h1000v500zm-1000 26875V96251h1000v26875h-1000zm3135-415l-2635 4790-2635-4790h5270zm-3135 415h1000v500h-1000v-500zM106125 96251h-1000v-500h1000v500zm-1000 26875V96251h1000v26875h-1000zm3135-415l-2635 4790-2635-4790h5270zm-3135 415h1000v500h-1000v-500z"/><g fill="none" stroke="#20AD65" stroke-width="1000.06" stroke-linecap="round"><path d="M302000 27501c0 8008-6492 14500-14500 14500s-14500-6492-14500-14500c0-8009 6492-14500 14500-14500s14500 6491 14500 14500"/><path stroke-linejoin="round" d="M297613 37886c-2349-1442-6906-2084-7610-3977-9-953 4-1937 4-2808 431-226 1340-1497 1471-2717 339-28 899-536 1055-1843 85-702-412-1382-412-1382s2357-6791-2925-7961c-493-109-1048-179-1678-179-1757 0-1435 445-1705 786-5282 1170-2947 7388-2947 7388s-497 681-413 1382c157 1308 717 1815 1056 1843 130 1220 1057 2478 1488 2704 0 871 13 1855 4 2808-704 1894-5264 2524-7611 3963"/></g><g fill="none" stroke="#20AD65" stroke-width="1000.06"><g stroke-linecap="round" stroke-linejoin="round"><path d="M56457 166501H32457v-22000M32457 144501c0-550 450-1000 1000-1000M33457 143501h22000M55457 143501c550 0 1000 450 1000 1000M56457 144501v22000M30500 166501h28000M30500 147500h28000M56457 147536v975M56457 148511c0 1100-900 2000-2000 2000M54457 150511c-1100 0-2000-900-2000-2000M52457 148511v-1011zM52457 148511c0 1100-900 2000-2000 2000M50457 150511c-1100 0-2000-900-2000-2000M48457 148511v-1011zM48457 148511c0 1100-900 2000-2000 2000M46457 150511c-1100 0-2000-900-2000-2000M44457 148511v-1011zM44457 148511c0 1100-900 2000-2000 2000M42457 150511c-1100 0-2000-900-2000-2000M40457 148511v-1011zM40457 148511c0 1100-900 2000-2000 2000M38457 150511c-1100 0-2000-900-2000-2000M36457 148511v-1011zM36457 148511c0 1100-900 2000-2000 2000M34457 150511c-1100 0-2000-900-2000-2000M32457 148511v-997"/><path d="M42457 166501v-10000h4000v10000M39469 160501h-4000v-4000h4000zM53457 160501h-4000v-4000h4000z"/></g><path d="M72500 155001c0 15188-12312 27500-27500 27500s-27500-12312-27500-27500 12312-27500 27500-27500 27500 12312 27500 27500"/></g><g fill="none" stroke="#20AD65" stroke-width="1000.06"><path stroke-linecap="round" stroke-linejoin="round" d="M285999 142496h3000M279999 144496h15000M279999 163496h15000"/><path d="M287499 165500c553 0 1000 448 1000 1000s-447 1000-1000 1000c-552 0-1000-448-1000-1000s448-1000 1000-1000"/><path stroke-linecap="round" stroke-linejoin="round" d="M292999 169501h-11000M281999 169501c-1100 0-2000-900-2000-2000M279999 167501v-25000M279999 142501c0-1100 900-2000 2000-2000M281999 140501h11000M292999 140501c1100 0 2000 900 2000 2000M294999 142501v25000M294999 167501c0 1100-900 2000-2000 2000"/><path d="M314999 155001c0 15188-12312 27500-27500 27500s-27500-12312-27500-27500 12312-27500 27500-27500 27500 12312 27500 27500"/></g><path fill="none" stroke="#20AD65" stroke-width="1000.06" stroke-linecap="round" stroke-linejoin="round" d="M346624 142496h3000M357624 169501h-19000M338624 169501c-1100 0-2000-900-2000-2000M336624 167501v-25000M336624 142501c0-1100 900-2000 2000-2000M338624 140501h19000M357624 140501c1100 0 2000 900 2000 2000M359624 142501v25000M359624 167501c0 1100-900 2000-2000 2000M356622 165498h-17000v-21000h17000z"/><path fill="#25A65C" fill-rule="nonzero" d="M348624 167496c0 276-224 500-500 500s-500-224-500-500 224-500 500-500 500 224 500 500z"/><path fill="none" stroke="#20AD65" stroke-width="1000.06" d="M375624 155001c0 15188-12312 27500-27500 27500s-27500-12312-27500-27500 12312-27500 27500-27500 27500 12312 27500 27500"/><g fill="none" stroke="#20AD65" stroke-width="1000.06"><g stroke-linecap="round" stroke-linejoin="round"><path d="M118127 161496H93127M93127 161496c-550 0-1000-450-1000-1000M92127 160496v-15995M92127 144501c0-550 450-1000 1000-1000M93127 143501h25000M118127 143501c550 0 1000 450 1000 1000M119127 144501v15995M119127 160496c0 550-450 1000-1000 1000M118625 166501H92624M92624 166501c-824 0-1499-675-1499-1500M91125 165001c0-825 675-1499 1499-1499M92624 163502h26001M118625 163502c825 0 1500 674 1500 1499M120125 165001c0 825-675 1500-1500 1500M104101 165022h3000z"/></g><path d="M133125 155001c0 15188-12312 27500-27500 27500s-27500-12312-27500-27500 12312-27500 27500-27500 27500 12312 27500 27500"/></g><g fill="none" stroke="#20AD65" stroke-width="1000.06"><g stroke-linecap="round" stroke-linejoin="round"><path d="M179957 163501h-27415M152542 163501c-436 0-792-357-792-793M151750 162708v-19415M151750 143293c0-436 356-792 792-792M152542 142501h27415M179957 142501c436 0 793 356 793 792M180750 143293v19415M180750 162708c0 436-357 793-793 793M151750 159501h29000M163750 164001v5000M168750 163501v6000M171749 169501h-10999"/></g><path d="M193750 155001c0 15188-12313 27500-27500 27500-15188 0-27500-12312-27500-27500s12312-27500 27500-27500c15187 0 27500 12312 27500 27500"/></g><g fill="none" stroke="#20AD65" stroke-width="1000.06"><path d="M457913 164985v-12992M457913 151993c0-6871 5617-12492 12482-12492M470395 139501c6865 0 12482 5621 12482 12492M482877 151993v12992M457913 154996c0-6870 5617-12492 12482-12492M470395 142504c6865 0 12482 5622 12482 12492M460907 168501c-1647 0-2995-1348-2995-2996M457912 165505v-4002M457912 161503c0-1648 1348-2996 2995-2996M460907 158507c1648 0 2996 1348 2996 2996M463903 161503v4002M463903 165505c0 1648-1348 2996-2996 2996M479828 168486c-1647 0-2995-1348-2995-2995M476833 165491v-4003M476833 161488c0-1647 1348-2995 2995-2995M479828 158493c1648 0 2996 1348 2996 2995M482824 161488v4003M482824 165491c0 1647-1348 2995-2996 2995M457871 165503c-1103 0-1997-895-1997-1999s894-1999 1997-1999M482877 165503c1103 0 1997-895 1997-1999s-894-1999-1997-1999"/><path d="M496874 155001c0 15188-12312 27500-27500 27500s-27500-12312-27500-27500 12312-27500 27500-27500 27500 12312 27500 27500"/></g><g fill="none" stroke="#20AD65" stroke-width="1000.06"><path d="M531000 150501c1983 0 3500 1517 3500 3500s-1517 3500-3500 3500-3500-1517-3500-3500 1517-3500 3500-3500M539500 141501c1680 0 3000 1320 3000 3000s-1320 3000-3000 3000-3000-1320-3000-3000 1320-3000 3000-3000M539500 159501c1100 0 2000 900 2000 2000s-900 2000-2000 2000-2000-900-2000-2000 900-2000 2000-2000M531000 164501c1607 0 3000 1286 3000 3000 0 1607-1286 3000-3000 3000-1607 0-3000-1286-3000-3000 107-1714 1393-3000 3000-3000M519500 158501c1680 0 3000 1320 3000 3000s-1320 3000-3000 3000-3000-1320-3000-3000 1320-3000 3000-3000M523000 143501c1375 0 2500 1125 2500 2500s-1125 2500-2500 2500-2500-1125-2500-2500 1125-2500 2500-2500M533000 151001l4427-4427M533572 156024l4855 3953M531000 157501v7000M522000 159501l5843-3950M524819 147745l3846 3614"/><path d="M557500 155001c0 15188-12312 27500-27500 27500s-27500-12312-27500-27500 12312-27500 27500-27500 27500 12312 27500 27500"/></g><g fill="none" stroke="#20AD65" stroke-width="1000.06"><path stroke-linecap="round" stroke-linejoin="round" d="M223375 169501h7000"/><path d="M239375 167500h-25000M214375 167500c-1100 0-2000-900-2000-2000M212375 165500v-16007M212375 149493c0-1100 900-2000 2000-2000M214375 147493h25000M239375 147493c1100 0 1999 900 1999 2000M241374 149493v16007M241374 165500c0 1100-899 2000-1999 2000"/><path stroke-linecap="round" stroke-linejoin="round" d="M238374 164501h-23000v-14000h23000z"/><path d="M222375 141501c0 552-448 1000-1000 1000-553 0-1001-448-1001-1000s448-1000 1001-1000c552 0 1000 448 1000 1000M233374 141501c0 552-447 1000-999 1000-553 0-1000-448-1000-1000s447-1000 1000-1000c552 0 999 448 999 1000"/><path stroke-linecap="round" stroke-linejoin="round" d="M226845 146943l-4788-4708M226843 146945l4789-4710"/><path d="M254375 155001c0 15188-12313 27500-27500 27500-15188 0-27500-12312-27500-27500s12312-27500 27500-27500c15187 0 27500 12312 27500 27500"/></g><g fill="none" stroke="#20AD65" stroke-width="1000.06"><g stroke-linecap="round" stroke-linejoin="round"><path d="M408749 168501s-3353-2032-6534-3120c-3403-1165-5104-1461-5104-1461M397111 163920l-1862-17408M395249 146512s5007-113 7019 384c2752 680 6481 2364 6481 2364M408749 168501s3353-2032 6534-3120c3403-1165 5104-1461 5104-1461M420387 163920l1862-17408M422249 146512s-5007-113-7018 384c-2753 680-6482 2364-6482 2364M408749 149260v19241"/></g><path stroke-linecap="round" stroke-linejoin="round" d="M420749 143522s-1397-21-1693-21c-5692 0-10307 4571-10307 6000"/><path d="M436249 155001c0 15188-12312 27500-27500 27500s-27500-12312-27500-27500 12312-27500 27500-27500 27500 12312 27500 27500"/><path stroke-linecap="round" stroke-linejoin="round" d="M396749 143522s1397-21 1693-21c5693 0 10307 4571 10307 6000"/></g><g><path fill="#332F2E" d="M267332 274377v-12451h2773v4813h4917v-4813h2773v12451h-2773v-5336h-4917v5336h-2773zm11562 3139l575-2092c262 52 890 261 1727 261 575 0 941-209 1151-784l157-419-3453-8998h2825l1988 5807h52l1988-5807h2616l-3767 9940c-628 1569-1412 2511-3243 2511-1413-105-2145-314-2616-419zm13497-4185v1046h-2720v-12451h2720v4865c576-837 1413-1569 2773-1569 2041 0 3453 1569 3453 4656s-1412 4604-3505 4604c-1203 52-2040-419-2721-1151zm3506-3453c0-1517-523-2459-1727-2459-680 0-1308 419-1779 890v3295c576 576 1099 838 1832 838 1098 52 1674-890 1674-2564zm4447 4499v-8998h2720v1517c471-785 1361-1674 3035-1674h104l-52 2407c-105 0-523-53-733-53-1098 0-1883 576-2406 1256v5598h-2668v-53zm7219-10201v-2198h2721v2198h-2721zm0 10201v-8998h2721v8998h-2721zm4081-1203l1099-1517c784 680 2040 1151 3139 1151 837 0 1412-314 1412-889 0-628-470-838-1726-1099-1726-314-3505-733-3505-2825 0-1779 1464-2825 3505-2825 1831 0 2930 471 3924 1255l-1047 1517c-889-627-1831-993-2668-993-785 0-1203 313-1203 784 0 523 471 733 1622 942 1778 314 3662 680 3662 2720 0 2198-1884 3035-3976 3035-1988 156-3296-471-4238-1256zm-83131-1622l2093-1255c680 1360 1935 2145 3400 2145 1256 0 2197-471 2197-1413s-889-1360-2563-1831c-2250-628-4552-1203-4552-3819 0-2354 1831-3715 4500-3715 2563 0 4080 1256 4970 2564l-1936 1465c-680-1046-1884-1779-3087-1779-1151 0-1831 523-1831 1256 0 994 942 1360 2564 1831 2197 575 4551 1308 4551 3871 0 1988-1517 3819-5022 3819-2668-52-4343-1360-5284-3139zm10829 2825l4447-12556h2616l4447 12556h-2773l-942-2773h-4237l-942 2773h-2616zm4186-4760h2929l-1465-4238h-52l-1412 4238zm8684 4760v-12503h4552c2668 0 5127 732 5127 4028 0 3348-2668 4028-5127 4028h-1779v4447h-2773zm2773-6592h1884c1726 0 2354-680 2354-1883 0-1151-628-1831-2354-1831h-1884v3714z"/><path fill="#20AD65" d="M333303 279452l-5284-105-314-837c-52-157-1779-4394-1779-10358 0-5965 1675-10202 1779-10359l314-785 5284-261v2720l-3348 105c-471 1412-1308 4551-1308 8580 0 3976 837 7115 1256 8527l3400 52v2721zm6854-15852l-2825-105c-262 785-733 2093-1256 3401-523-1308-941-2616-1203-3401l-2825 157c157 576 942 3192 2040 5546 680 1569 1570 3244 2197 4342l3087-52c0-52-837-1517-1726-3244 156-366 366-732 523-1098 941-2459 1831-5075 1988-5546zm4499-5807l-314-785-5284-261v2720l3401 157c471 1413 1308 4552 1308 8580 0 3976-837 7115-1256 8527l-3401 53v2720l5284-104 314-837c53-157 1779-4395 1779-10359-105-6017-1779-10254-1831-10411z"/></g><path fill="none" stroke="#332F2E" stroke-width="999.78" d="M17500 202501h540000M17500 246251h540000"/><path fill="none" stroke="#20AD65" stroke-width="1000.06" d="M315000 28000c0 15188-12312 27500-27500 27500s-27500-12312-27500-27500S272312 500 287500 500s27500 12312 27500 27500"/><path fill="#6E716D" fill-rule="nonzero" d="M46206 79947v-3888h6543v-1008h-7727v11200h7920v-1008h-6736v-4288h5984v-1008h-5984zm8383-1824v8128h1104v-4896c0-1104 416-1776 832-2176 384-368 832-576 1424-576 352 0 768 64 1120 432 544 576 576 1632 576 1984v5232h1104v-4944c0-640 80-1488 704-2112 368-368 896-592 1488-592 480 0 880 160 1168 416 560 512 592 1328 592 1984v5248h1104v-5472c0-672-32-1584-752-2288-336-336-928-688-1856-688-704 0-1296 192-1776 560-544 416-848 960-928 1136-160-656-544-1040-784-1232-480-368-1024-464-1520-464-640 0-1136 144-1584 464-368 256-688 608-912 1024v-1168h-1104zm19696 5776c-32 176-176 784-688 1264-320 288-832 608-1680 608-896 0-1536-304-1984-800-464-496-816-1296-864-2576h6368c-48-1472-176-2720-1056-3632-816-848-1888-960-2592-960-752 0-1872 128-2752 1024-1008 1024-1120 2464-1120 3328 0 1184 208 2512 1200 3472 896 864 1904 944 2752 944 880 0 1808-128 2592-944 400-416 736-1024 880-1728h-1056zm-5216-2304c0-800 304-1696 752-2208 384-432 1040-784 1952-784 832 0 1392 320 1712 656 544 560 784 1680 784 2336h-5200zm12704-3632h-176c-576 0-1248 64-1904 512-336 224-752 624-1008 1264h-32v-1616h-1104v8128h1104v-4192c0-944 128-1744 800-2432 528-544 1152-768 2160-768h160v-896zm1344 9280c112 544 384 976 672 1264 768 768 1968 832 2688 832 784 0 1840-128 2608-880s896-1712 896-2592v-7744h-1040v1200h-32c-272-528-656-864-992-1072-560-352-1152-448-1728-448-816 0-1728 144-2496 944-1024 1072-1072 2592-1072 3344 0 912 176 2272 1072 3264 784 880 1712 1024 2576 1024 512 0 1072-64 1568-368 400-240 800-688 1040-1184v944c0 704-64 1600-752 2208-528 480-1232 544-1744 544-448 0-1056-48-1536-400-208-160-480-432-624-880h-1104zm3312-1664c-592 0-1296-240-1776-736-784-816-864-2112-864-2880 0-640 64-1904 816-2688 384-400 928-672 1680-672 784 0 1424 288 1840 720 608 624 816 1712 816 2688 0 224-16 2064-928 2928-368 352-976 640-1584 640zm6048-7456v8128h1104v-8128h-1104zm-16-1728h1136v-1344h-1136v1344zm3616 1728v8128h1104v-4544c0-608 48-1696 832-2448 416-400 1024-656 1664-656 432 0 928 144 1248 416 608 528 592 1392 592 1904v5328h1104v-5488c0-736-48-1584-736-2256-432-416-1120-704-1984-704-576 0-1072 128-1600 432-432 256-816 576-1120 1072v-1184h-1104zm9152 9120c112 544 384 976 672 1264 768 768 1968 832 2688 832 784 0 1840-128 2608-880s896-1712 896-2592v-7744h-1040v1200h-32c-272-528-656-864-992-1072-560-352-1152-448-1728-448-816 0-1728 144-2496 944-1024 1072-1072 2592-1072 3344 0 912 176 2272 1072 3264 784 880 1712 1024 2576 1024 512 0 1072-64 1568-368 400-240 800-688 1040-1184v944c0 704-64 1600-752 2208-528 480-1232 544-1744 544-448 0-1056-48-1536-400-208-160-480-432-624-880h-1104zm3312-1664c-592 0-1296-240-1776-736-784-816-864-2112-864-2880 0-640 64-1904 816-2688 384-400 928-672 1680-672 784 0 1424 288 1840 720 608 624 816 1712 816 2688 0 224-16 2064-928 2928-368 352-976 640-1584 640zm8640-7456v800h1520v5904c0 336 32 896 352 1248 144 160 496 400 1216 400 384 0 832-64 1280-224v-800c-368 128-624 176-944 176-192 0-480-16-640-208-144-160-160-432-160-608v-5888h1744v-800h-1744v-2432h-1104v2432h-1520zm5424 4064c0 1888 704 2960 1280 3488 784 736 1744 896 2624 896s1776-160 2576-896c1072-976 1296-2464 1296-3488 0-1136-304-2544-1232-3440-832-800-1824-944-2656-944-816 0-1824 144-2656 944-512 496-1232 1520-1232 3440zm1152-16c0-1536 432-2432 928-2912 368-352 960-672 1808-672 976 0 1552 416 1872 752 640 704 848 1840 848 2832 0 1472-416 2464-992 2992-528 496-1184 608-1728 608s-1184-112-1744-624c-560-528-992-1440-992-2976zm15280 4080v-8128h-1104v4544c0 816-64 1632-720 2336-608 640-1312 768-1808 768-656 0-1056-256-1280-480-496-496-528-1248-528-2112v-5056h-1104v5488c0 944 128 1712 704 2272 336 336 912 688 1888 688 576 0 1264-128 1760-416 384-208 768-592 1056-1072h32v1168h1104zm8320-2848c-48 624-320 1344-720 1760-256 272-752 608-1616 608-784 0-1344-304-1728-688-464-464-976-1360-976-3008 0-1248 304-2192 848-2752 304-304 880-720 1856-720 624 0 1232 160 1696 688 128 144 480 576 560 1280h1056c-96-848-480-1504-912-1920-448-416-1200-848-2480-848-1408 0-2256 512-2752 1056-656 704-1040 1856-1040 3248 0 1616 480 2848 1232 3568 848 816 1776 896 2624 896 832 0 1632-80 2352-800 624-608 976-1552 1056-2368h-1056zm2960-8352v11200h1104v-4544c0-688 32-1600 752-2368 432-448 1072-736 1776-736 592 0 1056 240 1328 528 544 576 464 1472 464 2064v5056h1104v-5488c0-736-16-1584-688-2256-384-384-1008-704-2000-704-704 0-1216 144-1744 480-400 256-736 560-992 1024v-4256h-1104zm9056 3072v11088h1104v-4208c239 432 608 848 1040 1120 480 288 1104 448 1808 448 2223 0 3456-1824 3456-4464 0-1904-657-2912-1184-3424-417-400-1184-880-2400-880-609 0-1185 128-1728 480-240 160-656 480-1008 1040h-33v-1200h-1055zm1040 4096c0-848 96-2160 976-2976 416-384 992-640 1648-640 800 0 1328 336 1632 624 447 416 960 1248 960 2912 0 1344-352 2384-913 2976-432 448-959 656-1567 656-849 0-1440-368-1808-752-801-832-928-2016-928-2800zm8064-32c0 1888 703 2960 1279 3488 785 736 1744 896 2624 896s1776-160 2576-896c1072-976 1296-2464 1296-3488 0-1136-304-2544-1232-3440-832-800-1823-944-2656-944-815 0-1823 144-2655 944-512 496-1232 1520-1232 3440zm1152-16c0-1536 431-2432 927-2912 368-352 960-672 1808-672 977 0 1552 416 1872 752 640 704 848 1840 848 2832 0 1472-416 2464-992 2992-527 496-1183 608-1728 608-544 0-1183-112-1744-624-560-528-991-1440-991-2976zm8703-4048v8128h1104v-8128h-1104zm-15-1728h1135v-1344h-1135v1344zm3615 1728v8128h1104v-4544c0-608 48-1696 832-2448 416-400 1024-656 1664-656 432 0 928 144 1248 416 608 528 592 1392 592 1904v5328h1104v-5488c0-736-48-1584-736-2256-432-416-1120-704-1984-704-576 0-1072 128-1600 432-432 256-816 576-1120 1072v-1184h-1104zm7905 0v800h1519v5904c0 336 32 896 353 1248 144 160 495 400 1215 400 384 0 832-64 1280-224v-800c-368 128-623 176-944 176-192 0-480-16-640-208-144-160-160-432-160-608v-5888h1744v-800h-1744v-2432h-1104v2432h-1519zm5216 5760c64 592 320 1344 784 1824 415 432 1200 864 2607 864 480 0 1552-32 2288-576 544-400 960-1136 960-2016 0-736-303-1232-720-1552-496-384-1232-544-1904-704l-847-192c-449-96-945-224-1296-528-305-272-417-576-417-928 0-496 192-816 368-992 416-416 1072-480 1489-480 688 0 1247 160 1584 480 256 256 447 688 447 1152h1072c-16-768-352-1312-687-1632-720-704-1793-800-2401-800-479 0-1360 48-2016 480-623 416-1008 1136-1008 1904 0 560 208 1072 544 1408 449 448 1248 656 1984 816l896 192c800 176 1152 368 1345 528 303 256 431 592 431 944 0 512-207 992-544 1264-256 208-704 432-1520 432-912 0-1455-256-1760-544-256-240-559-688-559-1344h-1120zM203981 229924h1184v-4929h3536c416 0 1104 33 1600 449 544 464 528 1071 560 1840l48 1184c32 895 256 1279 368 1456h1280c-416-624-416-1168-432-1552l-32-1264c-16-720-16-1488-624-2080-128-128-448-416-976-544v-32c368-97 848-321 1280-800 512-592 672-1264 672-1984 0-1040-400-1696-768-2080-736-768-1712-864-2944-864h-4752v11200zm1184-10192h3392c528 0 1472 0 2048 511 288 241 576 705 576 1489 0 688-256 1312-624 1664-432 400-1200 591-1936 591h-3456v-4255zm11104 3888v-3888h6544v-1008h-7728v11200h7920v-1008h-6736v-4288h5984v-1008h-5984zm7968 2768c0 1279 559 2192 1039 2672 1025 1023 2465 1167 3617 1167 847 0 2239-112 3168-959 591-544 959-1393 959-2416 0-1025-400-1664-815-2065-673-639-1728-927-2945-1167l-1055-209c-769-144-1537-351-1984-815-193-208-432-560-432-1120 0-672 336-1296 927-1665 657-399 1633-432 1872-432 816 0 1680 177 2209 657 368 336 671 895 735 1552h1184c-111-1312-831-2048-975-2192-497-480-1425-1025-3057-1025-447 0-1807 33-2800 673-767 496-1343 1343-1343 2512 0 864 335 1423 655 1776 705 767 1872 1023 2816 1199l1120 209c464 79 1616 335 2144 896 272 303 497 799 497 1328 0 608-256 1152-625 1504-527 512-1456 751-2367 751-896 0-1969-256-2609-912-335-335-752-991-735-1919h-1200zm13440-6656v10192h1184v-10192h3712v-1008h-8608v1008h3712zm8943 2063h-1744v-1135c0-176 16-608 224-849 224-239 624-303 1040-303 160 0 320 0 480 15v-799c-256-32-496-48-768-48-432 0-1184 48-1648 512-400 416-432 928-432 1455v1152h-1504v801h1504v7328h1104v-7328h1744v-801zm7904 8129v-8129h-1104v4545c0 815-64 1632-720 2335-608 640-1312 769-1808 769-656 0-1056-256-1280-481-496-495-528-1247-528-2111v-5057h-1104v5489c0 944 128 1711 704 2272 336 335 912 688 1888 688 576 0 1264-129 1760-417 384-207 768-591 1056-1071h32v1168h1104zm2528-11200v11200h1104v-11200h-1104zm15824 7552c-80 1120-656 1791-976 2096-432 400-1200 879-2416 879-1296 0-2144-512-2640-1008-1008-976-1376-2639-1376-4112 0-1567 416-2895 1312-3759 832-800 1776-976 2672-976 1280 0 2048 432 2496 896 400 416 736 1040 800 1791h1200c-64-1055-528-1967-1088-2511-880-864-2320-1184-3504-1184-1728 0-2848 640-3584 1360-1216 1200-1568 3008-1568 4560 0 1600 416 3376 1552 4560 1152 1200 2496 1391 3648 1391 1104 0 2336-144 3376-1184 704-703 1168-1727 1296-2799h-1200zm2848-417c0 1889 704 2960 1280 3489 784 735 1744 896 2624 896s1776-161 2576-896c1072-976 1296-2464 1296-3489 0-1135-304-2543-1232-3439-832-800-1824-944-2656-944-816 0-1824 144-2656 944-512 496-1232 1520-1232 3439zm1152-15c0-1536 432-2433 928-2912 368-352 960-673 1808-673 976 0 1552 417 1872 753 640 704 848 1839 848 2832 0 1472-416 2463-992 2992-528 496-1184 608-1728 608s-1184-112-1744-625c-560-527-992-1440-992-2975zm8736-4049v8129h1104v-4896c0-1105 416-1776 832-2176 384-368 832-576 1424-576 352 0 768 64 1120 432 544 576 576 1632 576 1984v5232h1104v-4944c0-640 80-1488 704-2112 368-368 896-592 1488-592 480 0 880 160 1168 415 560 513 592 1329 592 1984v5249h1104v-5472c0-672-32-1584-752-2288-336-337-928-688-1856-688-704 0-1296 192-1776 560-544 416-848 960-928 1136-160-657-544-1040-784-1233-480-367-1024-463-1520-463-640 0-1136 144-1584 463-368 257-688 608-912 1025v-1169h-1104zm13744 0v8129h1104v-4896c0-1105 416-1776 832-2176 383-368 832-576 1424-576 352 0 768 64 1119 432 544 576 576 1632 576 1984v5232h1105v-4944c0-640 80-1488 704-2112 368-368 895-592 1488-592 480 0 879 160 1167 415 561 513 593 1329 593 1984v5249h1103v-5472c0-672-32-1584-752-2288-335-337-927-688-1855-688-705 0-1296 192-1776 560-544 416-848 960-928 1136-161-657-544-1040-784-1233-480-367-1024-463-1520-463-640 0-1137 144-1584 463-368 257-688 608-912 1025v-1169h-1104zm19695 5777c-32 176-176 783-688 1264-320 288-832 608-1679 608-897 0-1537-305-1985-801-463-495-816-1295-863-2575h6367c-48-1472-176-2720-1056-3632-816-848-1887-960-2592-960-752 0-1872 128-2751 1024-1008 1023-1120 2463-1120 3327 0 1184 207 2513 1199 3473 896 864 1904 944 2752 944 880 0 1808-129 2592-944 400-417 736-1025 880-1728h-1056zm-5215-2304c0-800 303-1696 751-2208 384-432 1040-784 1953-784 831 0 1391 320 1711 656 544 560 784 1680 784 2336h-5199zm12703-3632h-176c-576 0-1248 64-1903 512-337 223-752 624-1008 1263h-33v-1616h-1104v8129h1104v-4192c0-945 128-1745 800-2432 529-544 1152-768 2160-768h160v-896zm7056 5440c-48 623-320 1343-720 1760-256 271-752 608-1616 608-784 0-1344-305-1728-688-464-464-976-1360-976-3008 0-1249 304-2193 848-2752 304-305 880-720 1856-720 624 0 1232 160 1696 688 128 144 480 576 560 1279h1056c-96-847-480-1503-912-1919-448-416-1200-848-2480-848-1408 0-2256 512-2752 1056-656 703-1040 1855-1040 3248 0 1616 480 2848 1232 3568 848 816 1776 896 2624 896 832 0 1632-80 2352-800 624-608 976-1552 1056-2368h-1056zm8912 496c-32 176-176 783-688 1264-320 288-832 608-1680 608-896 0-1536-305-1984-801-464-495-816-1295-864-2575h6368c-48-1472-176-2720-1056-3632-816-848-1888-960-2592-960-752 0-1872 128-2752 1024-1008 1023-1120 2463-1120 3327 0 1184 208 2513 1200 3473 896 864 1904 944 2752 944 880 0 1808-129 2592-944 400-417 736-1025 880-1728h-1056zm-5216-2304c0-800 304-1696 752-2208 384-432 1040-784 1952-784 832 0 1392 320 1712 656 544 560 784 1680 784 2336h-5200zm13472 1440h4880l1184 3216h1296l-4256-11200h-1328l-4256 11200h1280l1200-3216zm336-1008l2096-5840 2096 5840h-4192zm8544-6976v11200h1184v-4673h3008c848 0 2144-32 3056-976 416-432 832-1167 832-2399 0-1201-432-1888-848-2288-864-832-2064-864-2880-864h-4352zm1184 1008h2928c608 0 1552 48 2160 623 272 273 592 769 592 1584 0 864-304 1393-640 1697-608 560-1456 607-2112 607h-2928v-4511zm9008-1008v11200h1184v-11200h-1184z"/></svg>