<?xml version="1.0" encoding="utf-8"?>
<!-- Generator: Adobe Illustrator 17.1.0, SVG Export Plug-In . SVG Version: 6.00 Build 0)  -->
<!DOCTYPE svg PUBLIC "-//W3C//DTD SVG 1.1//EN" "http://www.w3.org/Graphics/SVG/1.1/DTD/svg11.dtd">
<svg version="1.1" id="Layer_1" xmlns="http://www.w3.org/2000/svg" xmlns:xlink="http://www.w3.org/1999/xlink" x="0px" y="0px"
	 viewBox="580.1 123.2 1180.8 241.7" enable-background="new 580.1 123.2 1180.8 241.7" xml:space="preserve">
<path fill="#989898" d="M595.1,301.3v1.3h-5.9v3.9h6.6v1.3h-8.1v-11.2h8v1.3h-6.5v3.5H595.1z"/>
<path fill="#989898" d="M604.6,296.5v11.2h-1.3v-1.1h0c-0.1,0.1-0.2,0.3-0.3,0.4c-0.1,0.2-0.3,0.3-0.5,0.5c-0.2,0.1-0.5,0.3-0.8,0.4
	s-0.7,0.2-1.1,0.2c-0.6,0-1.1-0.1-1.6-0.3c-0.5-0.2-0.8-0.5-1.2-0.9c-0.3-0.4-0.5-0.9-0.7-1.4c-0.2-0.5-0.2-1.1-0.2-1.8
	c0-0.4,0-0.9,0.1-1.4c0.1-0.5,0.3-1,0.5-1.4c0.3-0.4,0.6-0.8,1.1-1.1s1.1-0.4,1.9-0.4c0.5,0,1,0.1,1.5,0.3c0.5,0.2,0.8,0.5,1.2,1.1
	v-4.1H604.6z M598.3,303.6c0,0.8,0.1,1.4,0.3,1.8c0.2,0.5,0.4,0.8,0.7,1c0.3,0.2,0.5,0.4,0.8,0.4c0.3,0.1,0.5,0.1,0.7,0.1
	c0.3,0,0.6-0.1,0.9-0.2c0.3-0.1,0.6-0.3,0.8-0.6c0.2-0.3,0.4-0.6,0.5-1.1c0.1-0.4,0.2-1,0.2-1.6c0-0.6-0.1-1.1-0.2-1.5
	c-0.1-0.4-0.3-0.8-0.6-1c-0.2-0.3-0.5-0.5-0.8-0.6c-0.3-0.1-0.6-0.2-1-0.2c-0.3,0-0.7,0.1-1,0.2c-0.3,0.1-0.5,0.3-0.8,0.6
	c-0.2,0.3-0.4,0.6-0.5,1C598.4,302.5,598.3,303,598.3,303.6z"/>
<path fill="#989898" d="M606.9,296.5h1.4v1.5h-1.4V296.5z M608.3,299.5v8.1h-1.4v-8.1H608.3z"/>
<path fill="#989898" d="M611,299.5v-2.4h1.4v2.4h1.7v1h-1.7v5.2c0,0.1,0,0.3,0,0.4c0,0.1,0,0.3,0.1,0.4c0,0.1,0.1,0.2,0.2,0.2
	c0.1,0.1,0.3,0.1,0.5,0.1c0.1,0,0.3,0,0.4,0c0.1,0,0.3-0.1,0.4-0.1v1c-0.2,0.1-0.5,0.2-0.7,0.2c-0.3,0.1-0.5,0.1-0.8,0.1
	c-0.4,0-0.7-0.1-1-0.2c-0.2-0.1-0.4-0.3-0.5-0.5c-0.1-0.2-0.2-0.4-0.2-0.6c0-0.2,0-0.5,0-0.7v-5.4h-1.5v-1H611z"/>
<path fill="#989898" d="M629,304c-0.1,0.4-0.2,0.8-0.3,1.3c-0.2,0.5-0.4,0.9-0.8,1.3c-0.4,0.4-0.8,0.7-1.4,1
	c-0.6,0.3-1.3,0.4-2.2,0.4c-0.8,0-1.6-0.1-2.2-0.4c-0.7-0.3-1.2-0.6-1.7-1.1c-0.5-0.5-0.8-1.1-1-1.8c-0.2-0.7-0.4-1.5-0.4-2.4
	c0-1,0.1-1.8,0.3-2.5c0.2-0.7,0.5-1.3,0.8-1.7c0.3-0.5,0.7-0.8,1.1-1.1c0.4-0.3,0.8-0.4,1.2-0.6c0.4-0.1,0.7-0.2,1.1-0.2
	c0.3,0,0.6,0,0.7,0c0.9,0,1.6,0.1,2.2,0.4c0.6,0.2,1,0.5,1.4,0.9s0.6,0.8,0.8,1.2c0.2,0.4,0.3,0.9,0.3,1.3h-1.5
	c0-0.2-0.1-0.4-0.2-0.7c-0.1-0.3-0.2-0.6-0.5-0.8c-0.2-0.3-0.5-0.5-0.9-0.7c-0.4-0.2-0.9-0.3-1.6-0.3c-0.7,0-1.3,0.1-1.8,0.4
	c-0.5,0.3-0.8,0.6-1.1,1.1c-0.3,0.4-0.5,1-0.6,1.5c-0.1,0.6-0.2,1.2-0.2,1.8c0,0.6,0.1,1.3,0.3,1.8c0.2,0.6,0.4,1,0.8,1.4
	c0.3,0.4,0.7,0.7,1.2,1c0.5,0.2,1,0.3,1.6,0.3c0.4,0,0.9-0.1,1.2-0.2c0.4-0.1,0.7-0.3,1-0.6c0.3-0.3,0.5-0.5,0.7-0.9
	c0.2-0.3,0.3-0.7,0.3-1.1H629z"/>
<path fill="#989898" d="M630.3,303.6c0-0.5,0.1-1.1,0.2-1.6c0.1-0.5,0.4-1,0.7-1.4c0.3-0.4,0.7-0.7,1.2-1c0.5-0.3,1.1-0.4,1.9-0.4
	s1.4,0.1,1.9,0.4c0.5,0.3,0.9,0.6,1.2,1c0.3,0.4,0.5,0.9,0.7,1.4c0.1,0.5,0.2,1.1,0.2,1.6c0,0.5-0.1,1.1-0.2,1.6
	c-0.1,0.5-0.4,1-0.7,1.4c-0.3,0.4-0.7,0.7-1.2,1c-0.5,0.3-1.1,0.4-1.9,0.4s-1.4-0.1-1.9-0.4c-0.5-0.3-0.9-0.6-1.2-1
	c-0.3-0.4-0.5-0.9-0.7-1.4C630.4,304.7,630.3,304.1,630.3,303.6z M631.8,303.6c0,0.8,0.1,1.4,0.3,1.9c0.2,0.5,0.4,0.8,0.7,1
	c0.3,0.2,0.6,0.4,0.8,0.4c0.3,0,0.5,0.1,0.7,0.1c0.2,0,0.4,0,0.7-0.1c0.3,0,0.6-0.2,0.8-0.4c0.3-0.2,0.5-0.6,0.7-1
	c0.2-0.5,0.3-1.1,0.3-1.9c0-0.8-0.1-1.4-0.3-1.9c-0.2-0.5-0.4-0.8-0.7-1c-0.3-0.2-0.6-0.4-0.8-0.4c-0.3,0-0.5-0.1-0.7-0.1
	c-0.2,0-0.4,0-0.7,0.1c-0.3,0-0.6,0.2-0.8,0.4c-0.3,0.2-0.5,0.6-0.7,1C631.9,302.2,631.8,302.8,631.8,303.6z"/>
<path fill="#989898" d="M647.4,296.5v11.2h-1.3v-1.1h0c-0.1,0.1-0.2,0.3-0.3,0.4c-0.1,0.2-0.3,0.3-0.5,0.5c-0.2,0.1-0.5,0.3-0.8,0.4
	s-0.7,0.2-1.1,0.2c-0.6,0-1.1-0.1-1.6-0.3c-0.5-0.2-0.8-0.5-1.2-0.9c-0.3-0.4-0.5-0.9-0.7-1.4c-0.2-0.5-0.2-1.1-0.2-1.8
	c0-0.4,0-0.9,0.1-1.4c0.1-0.5,0.3-1,0.5-1.4c0.3-0.4,0.6-0.8,1.1-1.1c0.5-0.3,1.1-0.4,1.9-0.4c0.5,0,1,0.1,1.5,0.3
	c0.5,0.2,0.8,0.5,1.2,1.1v-4.1H647.4z M641.1,303.6c0,0.8,0.1,1.4,0.3,1.8c0.2,0.5,0.4,0.8,0.7,1c0.3,0.2,0.5,0.4,0.8,0.4
	c0.3,0.1,0.5,0.1,0.7,0.1c0.3,0,0.6-0.1,0.9-0.2c0.3-0.1,0.6-0.3,0.8-0.6c0.2-0.3,0.4-0.6,0.5-1.1c0.1-0.4,0.2-1,0.2-1.6
	c0-0.6-0.1-1.1-0.2-1.5c-0.1-0.4-0.3-0.8-0.6-1c-0.2-0.3-0.5-0.5-0.8-0.6c-0.3-0.1-0.6-0.2-1-0.2c-0.3,0-0.7,0.1-1,0.2
	c-0.3,0.1-0.5,0.3-0.8,0.6c-0.2,0.3-0.4,0.6-0.5,1C641.2,302.5,641.1,303,641.1,303.6z"/>
<path fill="#989898" d="M656.9,305.3c-0.1,0.3-0.2,0.6-0.3,0.9c-0.1,0.3-0.4,0.6-0.6,0.9c-0.3,0.3-0.6,0.5-1,0.6
	c-0.4,0.2-1,0.3-1.6,0.3c-0.7,0-1.2-0.1-1.7-0.3c-0.5-0.2-0.8-0.4-1.2-0.7s-0.5-0.6-0.7-0.9c-0.2-0.3-0.3-0.7-0.4-1
	c-0.1-0.3-0.1-0.6-0.1-0.9c0-0.3,0-0.5,0-0.6c0-0.2,0-0.4,0-0.7c0-0.3,0.1-0.6,0.2-0.9c0.1-0.3,0.2-0.7,0.4-1
	c0.2-0.3,0.4-0.6,0.7-0.9c0.3-0.3,0.7-0.5,1.1-0.6c0.4-0.2,1-0.2,1.6-0.2c0.8,0,1.5,0.1,1.9,0.4s0.9,0.6,1.1,1.1
	c0.3,0.4,0.4,0.9,0.5,1.4c0.1,0.5,0.1,1,0.2,1.4c0,0.1,0,0.1,0,0.2c0,0.1,0,0.1,0,0.2h-6.2c0,0.4,0,0.7,0.1,1.1
	c0.1,0.4,0.2,0.7,0.4,1c0.2,0.3,0.5,0.5,0.8,0.7c0.3,0.2,0.7,0.3,1.2,0.3c0.3,0,0.6,0,0.9-0.1c0.3-0.1,0.5-0.2,0.7-0.4
	c0.2-0.2,0.3-0.3,0.4-0.5c0.1-0.2,0.2-0.4,0.2-0.6H656.9z M655.5,302.9c0-0.3,0-0.6-0.1-0.9c-0.1-0.3-0.2-0.6-0.3-0.9
	c-0.2-0.3-0.4-0.5-0.7-0.7c-0.3-0.2-0.7-0.3-1.1-0.3c-0.5,0-0.9,0.1-1.3,0.3c-0.3,0.2-0.6,0.4-0.8,0.7c-0.2,0.3-0.3,0.6-0.4,0.9
	c-0.1,0.3-0.1,0.6-0.1,0.9H655.5z"/>
<g enable-background="new    ">
	<path fill="#989898" d="M755.3,292.8c-0.1,0.4-0.2,0.8-0.3,1.3c-0.2,0.5-0.4,0.9-0.8,1.3c-0.4,0.4-0.8,0.7-1.4,1
		c-0.6,0.3-1.3,0.4-2.2,0.4c-0.8,0-1.6-0.1-2.2-0.4c-0.7-0.3-1.2-0.6-1.7-1.1c-0.5-0.5-0.8-1.1-1-1.8c-0.2-0.7-0.4-1.5-0.4-2.4
		c0-1,0.1-1.8,0.3-2.5c0.2-0.7,0.5-1.3,0.8-1.7c0.3-0.5,0.7-0.8,1.1-1.1c0.4-0.3,0.8-0.4,1.2-0.6c0.4-0.1,0.7-0.2,1.1-0.2
		c0.3,0,0.6,0,0.7,0c0.9,0,1.6,0.1,2.2,0.4c0.6,0.2,1,0.5,1.4,0.9c0.3,0.4,0.6,0.8,0.8,1.2c0.2,0.4,0.3,0.9,0.3,1.3h-1.5
		c0-0.2-0.1-0.4-0.2-0.7s-0.2-0.6-0.5-0.8c-0.2-0.3-0.5-0.5-0.9-0.7c-0.4-0.2-0.9-0.3-1.6-0.3c-0.7,0-1.3,0.1-1.8,0.4
		c-0.5,0.3-0.8,0.6-1.1,1.1c-0.3,0.4-0.5,1-0.6,1.5c-0.1,0.6-0.2,1.2-0.2,1.8c0,0.6,0.1,1.3,0.3,1.8c0.2,0.6,0.4,1,0.8,1.4
		c0.3,0.4,0.7,0.7,1.2,1c0.5,0.2,1,0.3,1.6,0.3c0.4,0,0.9-0.1,1.2-0.2c0.4-0.1,0.7-0.3,1-0.6c0.3-0.3,0.5-0.5,0.7-0.9
		c0.2-0.3,0.3-0.7,0.3-1.1H755.3z"/>
	<path fill="#989898" d="M756.5,292.4c0-0.5,0.1-1.1,0.2-1.6c0.1-0.5,0.4-1,0.7-1.4c0.3-0.4,0.7-0.7,1.2-1c0.5-0.3,1.1-0.4,1.9-0.4
		s1.4,0.1,1.9,0.4c0.5,0.3,0.9,0.6,1.2,1c0.3,0.4,0.5,0.9,0.7,1.4c0.1,0.5,0.2,1.1,0.2,1.6c0,0.5-0.1,1.1-0.2,1.6
		c-0.1,0.5-0.4,1-0.7,1.4c-0.3,0.4-0.7,0.7-1.2,1c-0.5,0.3-1.1,0.4-1.9,0.4s-1.4-0.1-1.9-0.4s-0.9-0.6-1.2-1
		c-0.3-0.4-0.5-0.9-0.7-1.4C756.6,293.5,756.5,293,756.5,292.4z M758,292.4c0,0.8,0.1,1.4,0.3,1.9c0.2,0.5,0.4,0.8,0.7,1
		c0.3,0.2,0.6,0.4,0.8,0.4c0.3,0,0.5,0.1,0.7,0.1c0.2,0,0.4,0,0.7-0.1s0.6-0.2,0.8-0.4c0.3-0.2,0.5-0.6,0.7-1
		c0.2-0.5,0.3-1.1,0.3-1.9s-0.1-1.4-0.3-1.9c-0.2-0.5-0.4-0.8-0.7-1c-0.3-0.2-0.6-0.4-0.8-0.4c-0.3,0-0.5-0.1-0.7-0.1
		c-0.2,0-0.4,0-0.7,0.1c-0.3,0-0.6,0.2-0.8,0.4c-0.3,0.2-0.5,0.6-0.7,1C758.1,291,758,291.6,758,292.4z"/>
	<path fill="#989898" d="M767.8,288.4v1.1l0,0.1c0.1-0.2,0.3-0.4,0.4-0.6c0.2-0.2,0.4-0.3,0.6-0.5c0.2-0.1,0.5-0.2,0.7-0.3
		c0.3-0.1,0.5-0.1,0.8-0.1c0.4,0,0.7,0.1,0.9,0.2c0.3,0.1,0.5,0.2,0.7,0.4c0.2,0.2,0.3,0.4,0.5,0.6c0.1,0.2,0.2,0.4,0.3,0.6
		c0.1-0.2,0.2-0.3,0.3-0.5c0.1-0.2,0.3-0.4,0.6-0.6c0.2-0.2,0.5-0.3,0.8-0.5c0.3-0.1,0.7-0.2,1.1-0.2c0.6,0,1.1,0.1,1.5,0.4
		c0.4,0.3,0.6,0.5,0.8,0.9c0.2,0.3,0.3,0.7,0.3,1.1c0,0.4,0.1,0.7,0.1,0.9v5.2h-1.4v-5.1c0-0.2,0-0.5,0-0.7c0-0.3-0.1-0.5-0.2-0.8
		c-0.1-0.2-0.3-0.4-0.5-0.6c-0.2-0.2-0.5-0.2-0.9-0.2c-0.2,0-0.5,0-0.7,0.1c-0.3,0.1-0.5,0.2-0.7,0.4s-0.4,0.5-0.5,0.8
		c-0.1,0.3-0.2,0.8-0.2,1.3v4.8h-1.4v-5.1c0-0.3,0-0.6-0.1-0.9c0-0.3-0.1-0.5-0.2-0.7c-0.1-0.2-0.3-0.4-0.5-0.5
		c-0.2-0.1-0.5-0.2-0.8-0.2c-0.3,0-0.6,0.1-0.8,0.2c-0.3,0.1-0.5,0.3-0.7,0.5c-0.2,0.2-0.4,0.5-0.5,0.8c-0.1,0.3-0.2,0.7-0.2,1.1
		v4.8h-1.4v-8.1H767.8z"/>
	<path fill="#989898" d="M781.7,288.4v1.1l0,0.1c0.1-0.2,0.3-0.4,0.4-0.6c0.2-0.2,0.4-0.3,0.6-0.5c0.2-0.1,0.5-0.2,0.7-0.3
		c0.3-0.1,0.5-0.1,0.8-0.1c0.4,0,0.7,0.1,0.9,0.2c0.3,0.1,0.5,0.2,0.7,0.4c0.2,0.2,0.3,0.4,0.5,0.6c0.1,0.2,0.2,0.4,0.3,0.6
		c0.1-0.2,0.2-0.3,0.3-0.5c0.1-0.2,0.3-0.4,0.6-0.6c0.2-0.2,0.5-0.3,0.8-0.5c0.3-0.1,0.7-0.2,1.1-0.2c0.6,0,1.1,0.1,1.5,0.4
		c0.4,0.3,0.6,0.5,0.8,0.9c0.2,0.3,0.3,0.7,0.3,1.1c0,0.4,0.1,0.7,0.1,0.9v5.2h-1.4v-5.1c0-0.2,0-0.5,0-0.7c0-0.3-0.1-0.5-0.2-0.8
		c-0.1-0.2-0.3-0.4-0.5-0.6c-0.2-0.2-0.5-0.2-0.9-0.2c-0.2,0-0.5,0-0.7,0.1c-0.3,0.1-0.5,0.2-0.7,0.4c-0.2,0.2-0.4,0.5-0.5,0.8
		c-0.1,0.3-0.2,0.8-0.2,1.3v4.8h-1.4v-5.1c0-0.3,0-0.6-0.1-0.9c0-0.3-0.1-0.5-0.2-0.7c-0.1-0.2-0.3-0.4-0.5-0.5
		c-0.2-0.1-0.5-0.2-0.8-0.2c-0.3,0-0.6,0.1-0.8,0.2c-0.3,0.1-0.5,0.3-0.7,0.5c-0.2,0.2-0.4,0.5-0.5,0.8c-0.1,0.3-0.2,0.7-0.2,1.1
		v4.8h-1.4v-8.1H781.7z"/>
	<path fill="#989898" d="M794.2,285.3h1.4v1.5h-1.4V285.3z M795.6,288.4v8.1h-1.4v-8.1H795.6z"/>
	<path fill="#989898" d="M798.4,288.4v-2.4h1.4v2.4h1.7v1h-1.7v5.2c0,0.1,0,0.3,0,0.4c0,0.1,0,0.3,0.1,0.4c0,0.1,0.1,0.2,0.2,0.2
		c0.1,0.1,0.3,0.1,0.5,0.1c0.1,0,0.3,0,0.4,0c0.1,0,0.3-0.1,0.4-0.1v1c-0.2,0.1-0.5,0.2-0.7,0.2c-0.3,0.1-0.5,0.1-0.8,0.1
		c-0.4,0-0.7-0.1-1-0.2c-0.2-0.1-0.4-0.3-0.5-0.5c-0.1-0.2-0.2-0.4-0.2-0.6c0-0.2,0-0.5,0-0.7v-5.4h-1.5v-1H798.4z"/>
	<path fill="#989898" d="M807.6,285.3h1l-5.7,14.1h-1L807.6,285.3z"/>
	<path fill="#989898" d="M811,288.4v1.1h0c0.2-0.3,0.4-0.6,0.7-0.7c0.2-0.2,0.5-0.3,0.7-0.4c0.2-0.1,0.5-0.2,0.7-0.2
		c0.2,0,0.4,0,0.6,0c0.5,0,1,0.1,1.4,0.3c0.4,0.2,0.8,0.4,1.2,0.8c0.3,0.4,0.6,0.8,0.8,1.4c0.2,0.6,0.3,1.2,0.3,2
		c0,0.8-0.1,1.5-0.3,2c-0.2,0.6-0.5,1-0.8,1.4c-0.3,0.4-0.7,0.6-1.2,0.8c-0.4,0.2-0.9,0.2-1.3,0.2c-0.1,0-0.2,0-0.5,0
		c-0.2,0-0.5-0.1-0.7-0.2c-0.3-0.1-0.5-0.3-0.8-0.4c-0.3-0.2-0.5-0.5-0.7-0.8v4.1h-1.4v-11.1H811z M811,292.4c0,0.6,0.1,1.2,0.2,1.6
		c0.2,0.4,0.4,0.8,0.6,1c0.3,0.3,0.5,0.5,0.8,0.6c0.3,0.1,0.6,0.2,0.8,0.2c0.3,0,0.6-0.1,0.9-0.2c0.3-0.1,0.5-0.3,0.8-0.6
		c0.2-0.3,0.4-0.6,0.6-1c0.1-0.4,0.2-1,0.2-1.6c0-1-0.2-1.9-0.6-2.5c-0.4-0.6-1-0.9-1.8-0.9c-0.2,0-0.4,0-0.7,0.1
		c-0.3,0.1-0.5,0.2-0.8,0.5c-0.3,0.2-0.5,0.6-0.7,1C811.1,291.1,811,291.7,811,292.4z"/>
	<path fill="#989898" d="M824.7,296.5v-1.2h0c-0.2,0.4-0.4,0.6-0.7,0.8c-0.3,0.2-0.6,0.3-0.8,0.4c-0.3,0.1-0.5,0.2-0.7,0.2
		c-0.2,0-0.4,0-0.4,0c-0.6,0-1.1-0.1-1.4-0.3c-0.4-0.2-0.6-0.5-0.8-0.8c-0.2-0.3-0.3-0.6-0.4-1c-0.1-0.4-0.1-0.7-0.1-1v-5.4h1.4v5
		c0,0.5,0,0.9,0.1,1.2c0.1,0.3,0.2,0.6,0.4,0.8c0.1,0.2,0.3,0.3,0.5,0.4s0.4,0.1,0.7,0.1c0.6,0,1-0.1,1.4-0.4
		c0.3-0.3,0.6-0.6,0.7-0.9c0.1-0.3,0.2-0.7,0.2-1c0-0.3,0-0.6,0-0.7v-4.4h1.4v8.1H824.7z"/>
	<path fill="#989898" d="M829.2,294.1c0,0.3,0.1,0.6,0.2,0.8c0.1,0.2,0.3,0.4,0.5,0.5c0.2,0.1,0.4,0.2,0.7,0.3
		c0.3,0.1,0.5,0.1,0.8,0.1c0.5,0,0.8-0.1,1.1-0.2c0.3-0.1,0.4-0.3,0.6-0.4c0.1-0.2,0.2-0.3,0.2-0.5c0-0.2,0-0.3,0-0.4
		c0-0.1,0-0.3,0-0.4c0-0.1-0.1-0.2-0.2-0.4c-0.1-0.1-0.3-0.2-0.5-0.3c-0.2-0.1-0.5-0.2-0.9-0.3l-0.9-0.2c-0.3-0.1-0.7-0.2-1-0.3
		c-0.3-0.1-0.6-0.2-0.8-0.4c-0.2-0.2-0.4-0.4-0.6-0.7s-0.2-0.6-0.2-1c0-0.4,0.1-0.8,0.3-1.1c0.2-0.3,0.4-0.5,0.7-0.7
		c0.3-0.2,0.6-0.3,1-0.4c0.4-0.1,0.7-0.1,1.1-0.1c0.7,0,1.2,0.1,1.7,0.3c0.4,0.2,0.7,0.4,1,0.6c0.2,0.3,0.4,0.5,0.5,0.8
		c0.1,0.3,0.1,0.5,0.2,0.8h-1.3c0-0.1,0-0.3-0.1-0.4c0-0.2-0.1-0.3-0.3-0.5c-0.1-0.2-0.3-0.3-0.6-0.4c-0.2-0.1-0.6-0.2-1-0.2
		c0,0-0.2,0-0.3,0c-0.2,0-0.4,0.1-0.6,0.1c-0.2,0.1-0.4,0.2-0.5,0.4c-0.2,0.2-0.2,0.4-0.2,0.7c0,0.3,0.1,0.5,0.2,0.7
		c0.1,0.2,0.3,0.3,0.5,0.4s0.4,0.2,0.7,0.2c0.3,0.1,0.6,0.1,0.8,0.2c0.4,0.1,0.8,0.2,1.2,0.3c0.4,0.1,0.7,0.2,0.9,0.4
		c0.3,0.2,0.5,0.4,0.6,0.6c0.1,0.3,0.2,0.6,0.2,1c0,0.4-0.1,0.8-0.2,1.1c-0.1,0.3-0.3,0.5-0.6,0.7c-0.2,0.2-0.5,0.3-0.7,0.5
		c-0.3,0.1-0.5,0.2-0.8,0.2c-0.3,0.1-0.5,0.1-0.7,0.1c-0.2,0-0.3,0-0.4,0c-0.6,0-1.1-0.1-1.6-0.2c-0.4-0.1-0.8-0.3-1.1-0.6
		c-0.3-0.3-0.5-0.5-0.7-0.9c-0.1-0.3-0.2-0.7-0.2-1.1H829.2z"/>
	<path fill="#989898" d="M837.9,285.3v4.2c0.4-0.5,0.8-0.9,1.2-1.1c0.5-0.2,1-0.3,1.5-0.3c0.4,0,0.8,0.1,1.1,0.2
		c0.3,0.1,0.6,0.3,0.8,0.5c0.2,0.2,0.3,0.4,0.4,0.6c0.1,0.2,0.2,0.5,0.2,0.7c0,0.2,0.1,0.4,0.1,0.6c0,0.2,0,0.3,0,0.5v5.4h-1.4v-5
		c0-0.2,0-0.5,0-0.8c0-0.3-0.1-0.6-0.2-0.8c-0.1-0.3-0.3-0.5-0.5-0.6c-0.2-0.2-0.6-0.3-1-0.3c-0.2,0-0.4,0-0.7,0.1
		c-0.3,0.1-0.5,0.2-0.8,0.4c-0.2,0.2-0.5,0.5-0.6,0.9c-0.2,0.4-0.3,0.9-0.3,1.6v4.4h-1.4v-11.2H837.9z"/>
	<path fill="#989898" d="M849.9,288.4v-2.4h1.4v2.4h1.7v1h-1.7v5.2c0,0.1,0,0.3,0,0.4c0,0.1,0,0.3,0.1,0.4c0,0.1,0.1,0.2,0.2,0.2
		c0.1,0.1,0.3,0.1,0.5,0.1c0.1,0,0.3,0,0.4,0c0.1,0,0.3-0.1,0.4-0.1v1c-0.2,0.1-0.5,0.2-0.7,0.2c-0.3,0.1-0.5,0.1-0.8,0.1
		c-0.4,0-0.7-0.1-1-0.2c-0.2-0.1-0.4-0.3-0.5-0.5c-0.1-0.2-0.2-0.4-0.2-0.6c0-0.2,0-0.5,0-0.7v-5.4h-1.5v-1H849.9z"/>
	<path fill="#989898" d="M854,292.4c0-0.5,0.1-1.1,0.2-1.6c0.1-0.5,0.4-1,0.7-1.4c0.3-0.4,0.7-0.7,1.2-1c0.5-0.3,1.1-0.4,1.9-0.4
		c0.7,0,1.4,0.1,1.9,0.4c0.5,0.3,0.9,0.6,1.2,1c0.3,0.4,0.5,0.9,0.7,1.4c0.1,0.5,0.2,1.1,0.2,1.6c0,0.5-0.1,1.1-0.2,1.6
		c-0.1,0.5-0.4,1-0.7,1.4c-0.3,0.4-0.7,0.7-1.2,1c-0.5,0.3-1.1,0.4-1.9,0.4c-0.7,0-1.4-0.1-1.9-0.4c-0.5-0.3-0.9-0.6-1.2-1
		c-0.3-0.4-0.5-0.9-0.7-1.4C854.1,293.5,854,293,854,292.4z M855.5,292.4c0,0.8,0.1,1.4,0.3,1.9c0.2,0.5,0.4,0.8,0.7,1
		c0.3,0.2,0.6,0.4,0.8,0.4c0.3,0,0.5,0.1,0.7,0.1c0.2,0,0.4,0,0.7-0.1c0.3,0,0.6-0.2,0.8-0.4c0.3-0.2,0.5-0.6,0.7-1
		c0.2-0.5,0.3-1.1,0.3-1.9s-0.1-1.4-0.3-1.9c-0.2-0.5-0.4-0.8-0.7-1c-0.3-0.2-0.6-0.4-0.8-0.4c-0.3,0-0.5-0.1-0.7-0.1
		c-0.2,0-0.4,0-0.7,0.1c-0.3,0-0.6,0.2-0.8,0.4c-0.3,0.2-0.5,0.6-0.7,1C855.6,291,855.5,291.6,855.5,292.4z"/>
	<path fill="#989898" d="M868.4,294.1c0,0.3,0.1,0.6,0.2,0.8c0.1,0.2,0.3,0.4,0.5,0.5c0.2,0.1,0.4,0.2,0.7,0.3
		c0.3,0.1,0.5,0.1,0.8,0.1c0.5,0,0.8-0.1,1.1-0.2c0.3-0.1,0.4-0.3,0.6-0.4c0.1-0.2,0.2-0.3,0.2-0.5c0-0.2,0-0.3,0-0.4
		c0-0.1,0-0.3,0-0.4c0-0.1-0.1-0.2-0.2-0.4c-0.1-0.1-0.3-0.2-0.5-0.3c-0.2-0.1-0.5-0.2-0.9-0.3l-0.9-0.2c-0.3-0.1-0.7-0.2-1-0.3
		c-0.3-0.1-0.6-0.2-0.8-0.4c-0.2-0.2-0.4-0.4-0.6-0.7s-0.2-0.6-0.2-1c0-0.4,0.1-0.8,0.3-1.1c0.2-0.3,0.4-0.5,0.7-0.7
		c0.3-0.2,0.6-0.3,1-0.4c0.4-0.1,0.7-0.1,1.1-0.1c0.7,0,1.2,0.1,1.7,0.3c0.4,0.2,0.7,0.4,1,0.6c0.2,0.3,0.4,0.5,0.5,0.8
		c0.1,0.3,0.1,0.5,0.2,0.8h-1.3c0-0.1,0-0.3-0.1-0.4c0-0.2-0.1-0.3-0.3-0.5c-0.1-0.2-0.3-0.3-0.6-0.4c-0.2-0.1-0.6-0.2-1-0.2
		c0,0-0.2,0-0.3,0c-0.2,0-0.4,0.1-0.6,0.1c-0.2,0.1-0.4,0.2-0.5,0.4c-0.2,0.2-0.2,0.4-0.2,0.7c0,0.3,0.1,0.5,0.2,0.7
		c0.1,0.2,0.3,0.3,0.5,0.4s0.4,0.2,0.7,0.2c0.3,0.1,0.6,0.1,0.8,0.2c0.4,0.1,0.8,0.2,1.2,0.3c0.4,0.1,0.7,0.2,0.9,0.4
		c0.3,0.2,0.5,0.4,0.6,0.6c0.1,0.3,0.2,0.6,0.2,1c0,0.4-0.1,0.8-0.2,1.1c-0.1,0.3-0.3,0.5-0.6,0.7c-0.2,0.2-0.5,0.3-0.7,0.5
		c-0.3,0.1-0.5,0.2-0.8,0.2c-0.3,0.1-0.5,0.1-0.7,0.1c-0.2,0-0.3,0-0.4,0c-0.6,0-1.1-0.1-1.6-0.2c-0.4-0.1-0.8-0.3-1.1-0.6
		c-0.3-0.3-0.5-0.5-0.7-0.9c-0.1-0.3-0.2-0.7-0.2-1.1H868.4z"/>
	<path fill="#989898" d="M875.2,292.4c0-0.5,0.1-1.1,0.2-1.6c0.1-0.5,0.4-1,0.7-1.4c0.3-0.4,0.7-0.7,1.2-1c0.5-0.3,1.1-0.4,1.9-0.4
		c0.7,0,1.4,0.1,1.9,0.4c0.5,0.3,0.9,0.6,1.2,1c0.3,0.4,0.5,0.9,0.7,1.4c0.1,0.5,0.2,1.1,0.2,1.6c0,0.5-0.1,1.1-0.2,1.6
		c-0.1,0.5-0.4,1-0.7,1.4c-0.3,0.4-0.7,0.7-1.2,1c-0.5,0.3-1.1,0.4-1.9,0.4c-0.7,0-1.4-0.1-1.9-0.4c-0.5-0.3-0.9-0.6-1.2-1
		c-0.3-0.4-0.5-0.9-0.7-1.4C875.2,293.5,875.2,293,875.2,292.4z M876.7,292.4c0,0.8,0.1,1.4,0.3,1.9c0.2,0.5,0.4,0.8,0.7,1
		c0.3,0.2,0.6,0.4,0.8,0.4c0.3,0,0.5,0.1,0.7,0.1c0.2,0,0.4,0,0.7-0.1c0.3,0,0.6-0.2,0.8-0.4c0.3-0.2,0.5-0.6,0.7-1
		c0.2-0.5,0.3-1.1,0.3-1.9s-0.1-1.4-0.3-1.9c-0.2-0.5-0.4-0.8-0.7-1c-0.3-0.2-0.6-0.4-0.8-0.4c-0.3,0-0.5-0.1-0.7-0.1
		c-0.2,0-0.4,0-0.7,0.1c-0.3,0-0.6,0.2-0.8,0.4c-0.3,0.2-0.5,0.6-0.7,1C876.8,291,876.7,291.6,876.7,292.4z"/>
	<path fill="#989898" d="M890.4,296.5v-1.2h0c-0.2,0.4-0.4,0.6-0.7,0.8c-0.3,0.2-0.6,0.3-0.8,0.4c-0.3,0.1-0.5,0.2-0.7,0.2
		c-0.2,0-0.4,0-0.4,0c-0.6,0-1.1-0.1-1.4-0.3c-0.4-0.2-0.6-0.5-0.8-0.8c-0.2-0.3-0.3-0.6-0.4-1c-0.1-0.4-0.1-0.7-0.1-1v-5.4h1.4v5
		c0,0.5,0,0.9,0.1,1.2c0.1,0.3,0.2,0.6,0.4,0.8c0.1,0.2,0.3,0.3,0.5,0.4c0.2,0.1,0.4,0.1,0.7,0.1c0.6,0,1-0.1,1.4-0.4
		c0.3-0.3,0.6-0.6,0.7-0.9c0.1-0.3,0.2-0.7,0.2-1c0-0.3,0-0.6,0-0.7v-4.4h1.4v8.1H890.4z"/>
	<path fill="#989898" d="M898.7,289c-0.5,0-0.9,0.1-1.3,0.2c-0.4,0.1-0.7,0.3-0.9,0.5c-0.3,0.2-0.5,0.5-0.6,0.9
		c-0.2,0.4-0.2,0.8-0.3,1.3c0,0.1,0,0.3,0,0.4c0,0.1,0,0.3,0,0.4v3.7h-1.4v-8.1h1.4v1.6h0c0.1-0.3,0.2-0.6,0.4-0.8
		c0.2-0.2,0.4-0.4,0.6-0.6c0.2-0.2,0.5-0.3,0.8-0.4c0.3-0.1,0.6-0.1,0.8-0.1l0.4,0V289z"/>
	<path fill="#989898" d="M906.6,293.6c0,0.2-0.1,0.5-0.2,0.9c-0.1,0.4-0.3,0.7-0.5,1.1c-0.3,0.3-0.6,0.6-1.1,0.9
		c-0.5,0.2-1,0.4-1.8,0.4c-0.1,0-0.3,0-0.6,0c-0.2,0-0.5-0.1-0.8-0.2c-0.3-0.1-0.6-0.2-0.9-0.4c-0.3-0.2-0.6-0.4-0.8-0.8
		c-0.2-0.3-0.4-0.7-0.6-1.2c-0.2-0.5-0.2-1.1-0.2-1.8c0-0.5,0.1-1,0.2-1.5c0.1-0.5,0.3-1,0.6-1.4c0.3-0.4,0.7-0.8,1.2-1
		c0.5-0.3,1.1-0.4,1.9-0.4c0.6,0,1.1,0.1,1.5,0.2c0.4,0.2,0.8,0.4,1.1,0.6c0.3,0.3,0.5,0.6,0.7,0.9c0.2,0.3,0.3,0.7,0.3,1.1h-1.3
		c-0.1-0.4-0.2-0.8-0.4-1.1c-0.2-0.3-0.4-0.4-0.6-0.6c-0.2-0.1-0.4-0.2-0.7-0.2c-0.2,0-0.4,0-0.5,0c-0.4,0-0.8,0.1-1.1,0.3
		c-0.3,0.2-0.6,0.4-0.8,0.7c-0.2,0.3-0.3,0.6-0.4,1.1c-0.1,0.4-0.1,0.8-0.1,1.3c0,0.5,0,0.9,0.1,1.3c0.1,0.4,0.2,0.8,0.4,1.1
		c0.2,0.3,0.5,0.6,0.8,0.8c0.3,0.2,0.7,0.3,1.2,0.3c0.4,0,0.7-0.1,1-0.2c0.3-0.1,0.5-0.3,0.7-0.6c0.2-0.2,0.3-0.5,0.4-0.7
		c0.1-0.3,0.1-0.5,0.1-0.7H906.6z"/>
	<path fill="#989898" d="M915.5,294.1c-0.1,0.3-0.2,0.6-0.3,0.9c-0.1,0.3-0.4,0.6-0.6,0.9s-0.6,0.5-1,0.6s-1,0.3-1.6,0.3
		c-0.7,0-1.2-0.1-1.7-0.3c-0.5-0.2-0.8-0.4-1.2-0.7c-0.3-0.3-0.5-0.6-0.7-0.9c-0.2-0.3-0.3-0.7-0.4-1c-0.1-0.3-0.1-0.6-0.1-0.9
		c0-0.3,0-0.5,0-0.6c0-0.2,0-0.4,0-0.7c0-0.3,0.1-0.6,0.2-0.9c0.1-0.3,0.2-0.7,0.4-1c0.2-0.3,0.4-0.6,0.7-0.9s0.7-0.5,1.1-0.6
		c0.4-0.2,1-0.2,1.6-0.2c0.8,0,1.5,0.1,1.9,0.4c0.5,0.3,0.9,0.6,1.1,1.1c0.3,0.4,0.4,0.9,0.5,1.4c0.1,0.5,0.1,1,0.2,1.4
		c0,0.1,0,0.1,0,0.2c0,0.1,0,0.1,0,0.2h-6.2c0,0.4,0,0.7,0.1,1.1c0.1,0.4,0.2,0.7,0.4,1c0.2,0.3,0.5,0.5,0.8,0.7
		c0.3,0.2,0.7,0.3,1.2,0.3c0.3,0,0.6,0,0.9-0.1c0.3-0.1,0.5-0.2,0.7-0.4c0.2-0.2,0.3-0.3,0.4-0.5c0.1-0.2,0.2-0.4,0.2-0.6H915.5z
		 M914.1,291.7c0-0.3,0-0.6-0.1-0.9c-0.1-0.3-0.2-0.6-0.3-0.9c-0.2-0.3-0.4-0.5-0.7-0.7c-0.3-0.2-0.7-0.3-1.1-0.3
		c-0.5,0-0.9,0.1-1.3,0.3c-0.3,0.2-0.6,0.4-0.8,0.7c-0.2,0.3-0.3,0.6-0.4,0.9c-0.1,0.3-0.1,0.6-0.1,0.9H914.1z"/>
	<path fill="#989898" d="M801,308.2c-0.5,0-0.9,0.1-1.3,0.2c-0.4,0.1-0.7,0.3-0.9,0.5c-0.3,0.2-0.5,0.5-0.6,0.9
		c-0.2,0.4-0.2,0.8-0.3,1.3c0,0.1,0,0.3,0,0.4c0,0.1,0,0.3,0,0.4v3.7h-1.4v-8.1h1.4v1.6h0c0.1-0.3,0.2-0.6,0.4-0.8
		c0.2-0.2,0.4-0.4,0.6-0.6c0.2-0.2,0.5-0.3,0.8-0.4c0.3-0.1,0.6-0.1,0.8-0.1l0.4,0V308.2z"/>
	<path fill="#989898" d="M809,313.3c-0.1,0.3-0.2,0.6-0.3,0.9c-0.1,0.3-0.4,0.6-0.6,0.9c-0.3,0.3-0.6,0.5-1,0.6
		c-0.4,0.2-1,0.3-1.6,0.3c-0.7,0-1.2-0.1-1.7-0.3c-0.5-0.2-0.8-0.4-1.2-0.7s-0.5-0.6-0.7-0.9c-0.2-0.3-0.3-0.7-0.4-1
		c-0.1-0.3-0.1-0.6-0.1-0.9c0-0.3,0-0.5,0-0.6c0-0.2,0-0.4,0-0.7c0-0.3,0.1-0.6,0.2-0.9c0.1-0.3,0.2-0.7,0.4-1
		c0.2-0.3,0.4-0.6,0.7-0.9c0.3-0.3,0.7-0.5,1.1-0.6c0.4-0.2,1-0.2,1.6-0.2c0.8,0,1.5,0.1,1.9,0.4s0.9,0.6,1.1,1.1
		c0.3,0.4,0.4,0.9,0.5,1.4c0.1,0.5,0.1,1,0.2,1.4c0,0.1,0,0.1,0,0.2c0,0.1,0,0.1,0,0.2h-6.2c0,0.4,0,0.7,0.1,1.1
		c0.1,0.4,0.2,0.7,0.4,1c0.2,0.3,0.5,0.5,0.8,0.7c0.3,0.2,0.7,0.3,1.2,0.3c0.3,0,0.6,0,0.9-0.1c0.3-0.1,0.5-0.2,0.7-0.4
		c0.2-0.2,0.3-0.3,0.4-0.5c0.1-0.2,0.2-0.4,0.2-0.6H809z M807.6,310.9c0-0.3,0-0.6-0.1-0.9c-0.1-0.3-0.2-0.6-0.3-0.9
		c-0.2-0.3-0.4-0.5-0.7-0.7c-0.3-0.2-0.7-0.3-1.1-0.3c-0.5,0-0.9,0.1-1.3,0.3c-0.3,0.2-0.6,0.4-0.8,0.7c-0.2,0.3-0.3,0.6-0.4,0.9
		c-0.1,0.3-0.1,0.6-0.1,0.9H807.6z"/>
	<path fill="#989898" d="M812.2,307.5v1.1h0c0.2-0.3,0.4-0.6,0.7-0.7c0.2-0.2,0.5-0.3,0.7-0.4c0.2-0.1,0.5-0.2,0.7-0.2
		c0.2,0,0.4,0,0.6,0c0.5,0,1,0.1,1.4,0.3c0.4,0.2,0.8,0.4,1.2,0.8c0.3,0.4,0.6,0.8,0.8,1.4c0.2,0.6,0.3,1.2,0.3,2
		c0,0.8-0.1,1.5-0.3,2c-0.2,0.6-0.5,1-0.8,1.4c-0.3,0.4-0.7,0.6-1.2,0.8c-0.4,0.2-0.9,0.2-1.3,0.2c-0.1,0-0.2,0-0.5,0
		c-0.2,0-0.5-0.1-0.7-0.2c-0.3-0.1-0.5-0.3-0.8-0.4c-0.3-0.2-0.5-0.5-0.7-0.8v4.1h-1.4v-11.1H812.2z M812.2,311.6
		c0,0.6,0.1,1.2,0.2,1.6c0.2,0.4,0.4,0.8,0.6,1c0.3,0.3,0.5,0.5,0.8,0.6c0.3,0.1,0.6,0.2,0.8,0.2c0.3,0,0.6-0.1,0.9-0.2
		c0.3-0.1,0.5-0.3,0.8-0.6c0.2-0.3,0.4-0.6,0.6-1s0.2-1,0.2-1.6c0-1-0.2-1.9-0.6-2.5c-0.4-0.6-1-0.9-1.8-0.9c-0.2,0-0.4,0-0.7,0.1
		c-0.3,0.1-0.5,0.2-0.8,0.5c-0.3,0.2-0.5,0.6-0.7,1C812.3,310.2,812.2,310.9,812.2,311.6z"/>
	<path fill="#989898" d="M820,311.6c0-0.5,0.1-1.1,0.2-1.6c0.1-0.5,0.4-1,0.7-1.4c0.3-0.4,0.7-0.7,1.2-1c0.5-0.3,1.1-0.4,1.9-0.4
		s1.4,0.1,1.9,0.4c0.5,0.3,0.9,0.6,1.2,1c0.3,0.4,0.5,0.9,0.7,1.4c0.1,0.5,0.2,1.1,0.2,1.6c0,0.5-0.1,1.1-0.2,1.6
		c-0.1,0.5-0.4,1-0.7,1.4c-0.3,0.4-0.7,0.7-1.2,1c-0.5,0.3-1.1,0.4-1.9,0.4s-1.4-0.1-1.9-0.4c-0.5-0.3-0.9-0.6-1.2-1
		c-0.3-0.4-0.5-0.9-0.7-1.4C820,312.7,820,312.1,820,311.6z M821.5,311.6c0,0.8,0.1,1.4,0.3,1.9c0.2,0.5,0.4,0.8,0.7,1
		c0.3,0.2,0.6,0.4,0.8,0.4c0.3,0,0.5,0.1,0.7,0.1c0.2,0,0.4,0,0.7-0.1c0.3,0,0.6-0.2,0.8-0.4c0.3-0.2,0.5-0.6,0.7-1
		c0.2-0.5,0.3-1.1,0.3-1.9c0-0.8-0.1-1.4-0.3-1.9c-0.2-0.5-0.4-0.8-0.7-1c-0.3-0.2-0.6-0.4-0.8-0.4c-0.3,0-0.5-0.1-0.7-0.1
		c-0.2,0-0.4,0-0.7,0.1c-0.3,0-0.6,0.2-0.8,0.4c-0.3,0.2-0.5,0.6-0.7,1C821.6,310.2,821.5,310.8,821.5,311.6z"/>
	<path fill="#989898" d="M830.6,313.2c0,0.3,0.1,0.6,0.2,0.8c0.1,0.2,0.3,0.4,0.5,0.5c0.2,0.1,0.4,0.2,0.7,0.3
		c0.3,0.1,0.5,0.1,0.8,0.1c0.5,0,0.8-0.1,1.1-0.2c0.3-0.1,0.4-0.3,0.6-0.4c0.1-0.2,0.2-0.3,0.2-0.5c0-0.2,0-0.3,0-0.4
		c0-0.1,0-0.3,0-0.4c0-0.1-0.1-0.2-0.2-0.4c-0.1-0.1-0.3-0.2-0.5-0.3c-0.2-0.1-0.5-0.2-0.9-0.3l-0.9-0.2c-0.3-0.1-0.7-0.2-1-0.3
		c-0.3-0.1-0.6-0.2-0.8-0.4c-0.2-0.2-0.4-0.4-0.6-0.7c-0.1-0.3-0.2-0.6-0.2-1c0-0.4,0.1-0.8,0.3-1.1c0.2-0.3,0.4-0.5,0.7-0.7
		c0.3-0.2,0.6-0.3,1-0.4c0.4-0.1,0.7-0.1,1.1-0.1c0.7,0,1.2,0.1,1.7,0.3c0.4,0.2,0.7,0.4,1,0.6c0.2,0.3,0.4,0.5,0.5,0.8
		c0.1,0.3,0.1,0.5,0.2,0.8h-1.3c0-0.1,0-0.3-0.1-0.4c0-0.2-0.1-0.3-0.3-0.5c-0.1-0.2-0.3-0.3-0.6-0.4c-0.2-0.1-0.6-0.2-1-0.2
		c0,0-0.2,0-0.3,0c-0.2,0-0.4,0.1-0.6,0.1c-0.2,0.1-0.4,0.2-0.5,0.4c-0.2,0.2-0.2,0.4-0.2,0.7c0,0.3,0.1,0.5,0.2,0.7
		c0.1,0.2,0.3,0.3,0.5,0.4c0.2,0.1,0.4,0.2,0.7,0.2c0.3,0.1,0.6,0.1,0.8,0.2c0.4,0.1,0.8,0.2,1.2,0.3c0.4,0.1,0.7,0.2,0.9,0.4
		c0.3,0.2,0.5,0.4,0.6,0.6c0.1,0.3,0.2,0.6,0.2,1c0,0.4-0.1,0.8-0.2,1.1c-0.1,0.3-0.3,0.5-0.6,0.7c-0.2,0.2-0.5,0.3-0.7,0.5
		c-0.3,0.1-0.5,0.2-0.8,0.2c-0.3,0.1-0.5,0.1-0.7,0.1c-0.2,0-0.3,0-0.4,0c-0.6,0-1.1-0.1-1.6-0.2c-0.4-0.1-0.8-0.3-1.1-0.6
		c-0.3-0.3-0.5-0.5-0.7-0.9c-0.1-0.3-0.2-0.7-0.2-1.1H830.6z"/>
	<path fill="#989898" d="M837.8,304.5h1.4v1.5h-1.4V304.5z M839.3,307.5v8.1h-1.4v-8.1H839.3z"/>
	<path fill="#989898" d="M842,307.5v-2.4h1.4v2.4h1.7v1h-1.7v5.2c0,0.1,0,0.3,0,0.4c0,0.1,0,0.3,0.1,0.4c0,0.1,0.1,0.2,0.2,0.2
		c0.1,0.1,0.3,0.1,0.5,0.1c0.1,0,0.3,0,0.4,0c0.1,0,0.3-0.1,0.4-0.1v1c-0.2,0.1-0.5,0.2-0.7,0.2c-0.3,0.1-0.5,0.1-0.8,0.1
		c-0.4,0-0.7-0.1-1-0.2c-0.2-0.1-0.4-0.3-0.5-0.5c-0.1-0.2-0.2-0.4-0.2-0.6c0-0.2,0-0.5,0-0.7v-5.4h-1.5v-1H842z"/>
	<path fill="#989898" d="M846.2,311.6c0-0.5,0.1-1.1,0.2-1.6c0.1-0.5,0.4-1,0.7-1.4c0.3-0.4,0.7-0.7,1.2-1c0.5-0.3,1.1-0.4,1.9-0.4
		s1.4,0.1,1.9,0.4c0.5,0.3,0.9,0.6,1.2,1c0.3,0.4,0.5,0.9,0.7,1.4c0.1,0.5,0.2,1.1,0.2,1.6c0,0.5-0.1,1.1-0.2,1.6
		c-0.1,0.5-0.4,1-0.7,1.4c-0.3,0.4-0.7,0.7-1.2,1c-0.5,0.3-1.1,0.4-1.9,0.4s-1.4-0.1-1.9-0.4c-0.5-0.3-0.9-0.6-1.2-1
		c-0.3-0.4-0.5-0.9-0.7-1.4C846.2,312.7,846.2,312.1,846.2,311.6z M847.7,311.6c0,0.8,0.1,1.4,0.3,1.9c0.2,0.5,0.4,0.8,0.7,1
		c0.3,0.2,0.6,0.4,0.8,0.4c0.3,0,0.5,0.1,0.7,0.1c0.2,0,0.4,0,0.7-0.1c0.3,0,0.6-0.2,0.8-0.4c0.3-0.2,0.5-0.6,0.7-1
		c0.2-0.5,0.3-1.1,0.3-1.9c0-0.8-0.1-1.4-0.3-1.9c-0.2-0.5-0.4-0.8-0.7-1c-0.3-0.2-0.6-0.4-0.8-0.4c-0.3,0-0.5-0.1-0.7-0.1
		c-0.2,0-0.4,0-0.7,0.1c-0.3,0-0.6,0.2-0.8,0.4c-0.3,0.2-0.5,0.6-0.7,1C847.8,310.2,847.7,310.8,847.7,311.6z"/>
	<path fill="#989898" d="M860.5,308.2c-0.5,0-0.9,0.1-1.3,0.2c-0.4,0.1-0.7,0.3-0.9,0.5c-0.3,0.2-0.5,0.5-0.6,0.9
		c-0.2,0.4-0.2,0.8-0.3,1.3c0,0.1,0,0.3,0,0.4c0,0.1,0,0.3,0,0.4v3.7H856v-8.1h1.4v1.6h0c0.1-0.3,0.2-0.6,0.4-0.8
		c0.2-0.2,0.4-0.4,0.6-0.6c0.2-0.2,0.5-0.3,0.8-0.4c0.3-0.1,0.6-0.1,0.8-0.1l0.4,0V308.2z"/>
	<path fill="#989898" d="M862.6,317.6c0.2,0,0.4,0.1,0.5,0.1c0.1,0,0.2,0,0.2,0c0.2,0,0.4,0,0.5-0.1c0.1-0.1,0.3-0.2,0.3-0.3
		c0.1-0.1,0.2-0.3,0.2-0.4c0.1-0.2,0.1-0.3,0.2-0.5l0.2-0.6l-3.5-8.1h1.7l2.6,6.6l2.2-6.6h1.4l-3.2,9.1c-0.1,0.2-0.1,0.4-0.2,0.6
		c-0.1,0.2-0.2,0.5-0.4,0.7c-0.2,0.2-0.4,0.4-0.6,0.5c-0.2,0.1-0.6,0.2-0.9,0.2c-0.2,0-0.4,0-0.6,0c-0.2,0-0.4,0-0.5-0.1V317.6z"/>
</g>
<path opacity="0.302" fill="none" stroke="#332F2E" stroke-width="2" stroke-linecap="round" stroke-dasharray="0.1,8" enable-background="new    " d="
	M977.7,124.2h597.2c0.8,0,1.5,0.7,1.5,1.5v236.7c0,0.8-0.7,1.5-1.5,1.5H977.7c-0.8,0-1.5-0.7-1.5-1.5V125.7
	C976.2,124.8,976.9,124.2,977.7,124.2z"/>
<g enable-background="new    ">
	<path fill="#332F2E" d="M1211.3,146.9h5.6c0.2,0,0.5,0,0.8,0c0.3,0,0.6,0.1,0.9,0.1c0.3,0.1,0.6,0.2,0.9,0.3
		c0.3,0.1,0.6,0.3,0.8,0.6c0.2,0.2,0.4,0.6,0.6,0.9c0.1,0.4,0.2,0.8,0.2,1.4c0,0.4,0,0.7-0.1,1.1c-0.1,0.3-0.2,0.7-0.4,0.9
		c-0.2,0.3-0.4,0.5-0.7,0.7s-0.6,0.3-0.9,0.4v0.1c0.4,0.2,0.8,0.3,1,0.6s0.4,0.5,0.5,0.7c0.1,0.3,0.2,0.5,0.2,0.8
		c0,0.3,0.1,0.6,0.1,0.9c0,0.4,0,0.8,0,1.1c0,0.3,0,0.6,0,0.8c0,0.2,0.1,0.4,0.1,0.6c0.1,0.2,0.2,0.4,0.3,0.5h-1.8
		c-0.1-0.1-0.2-0.3-0.3-0.4c-0.1-0.1-0.1-0.3-0.1-0.5c0-0.2,0-0.4-0.1-0.7c0-0.3,0-0.6,0-1c0-0.3,0-0.6-0.1-1c0-0.3-0.1-0.6-0.3-0.9
		c-0.2-0.3-0.4-0.5-0.7-0.6c-0.3-0.2-0.8-0.2-1.3-0.2h-3.6v5.3h-1.7V146.9z M1213,152.8h3.8c0.2,0,0.4,0,0.7-0.1
		c0.3-0.1,0.6-0.2,0.8-0.3c0.3-0.2,0.5-0.4,0.7-0.7c0.2-0.3,0.3-0.7,0.3-1.2c0-0.4-0.1-0.7-0.2-1c-0.1-0.3-0.3-0.5-0.6-0.7
		c-0.2-0.2-0.5-0.3-0.9-0.4c-0.3-0.1-0.7-0.1-1.1-0.1h-3.5V152.8z"/>
	<path fill="#332F2E" d="M1231.4,156.9c-0.1,0.3-0.2,0.7-0.3,1c-0.2,0.4-0.4,0.7-0.7,1c-0.3,0.3-0.7,0.5-1.2,0.7
		c-0.5,0.2-1.1,0.3-1.8,0.3c-0.8,0-1.4-0.1-1.9-0.3c-0.5-0.2-1-0.5-1.3-0.8c-0.3-0.3-0.6-0.7-0.8-1.1c-0.2-0.4-0.3-0.8-0.4-1.1
		c-0.1-0.4-0.1-0.7-0.2-1c0-0.3,0-0.5,0-0.7c0-0.2,0-0.5,0-0.8c0-0.3,0.1-0.7,0.2-1c0.1-0.4,0.2-0.7,0.4-1.1c0.2-0.4,0.5-0.7,0.8-1
		c0.3-0.3,0.7-0.5,1.2-0.7c0.5-0.2,1.1-0.3,1.8-0.3c0.9,0,1.6,0.2,2.2,0.5c0.5,0.3,1,0.7,1.3,1.2c0.3,0.5,0.5,1,0.6,1.6
		c0.1,0.6,0.2,1.1,0.2,1.6c0,0.1,0,0.1,0,0.2c0,0.1,0,0.2,0,0.2h-7c0,0.4,0.1,0.8,0.2,1.2c0.1,0.4,0.3,0.8,0.5,1.1
		c0.2,0.3,0.5,0.6,0.9,0.8c0.4,0.2,0.8,0.3,1.3,0.3c0.4,0,0.7-0.1,1-0.2c0.3-0.1,0.6-0.2,0.8-0.4c0.2-0.2,0.4-0.4,0.5-0.6
		c0.1-0.2,0.2-0.5,0.3-0.7H1231.4z M1229.8,154.2c0-0.3-0.1-0.6-0.1-1c-0.1-0.4-0.2-0.7-0.4-1c-0.2-0.3-0.4-0.6-0.8-0.8
		c-0.3-0.2-0.7-0.3-1.3-0.3c-0.6,0-1,0.1-1.4,0.3c-0.4,0.2-0.7,0.5-0.9,0.8c-0.2,0.3-0.4,0.6-0.4,1c-0.1,0.4-0.1,0.7-0.1,1H1229.8z"
		/>
	<path fill="#332F2E" d="M1235.2,146.9v12.6h-1.6v-12.6H1235.2z"/>
	<path fill="#332F2E" d="M1245.8,156.9c-0.1,0.3-0.2,0.7-0.3,1c-0.2,0.4-0.4,0.7-0.7,1c-0.3,0.3-0.7,0.5-1.2,0.7
		c-0.5,0.2-1.1,0.3-1.8,0.3c-0.8,0-1.4-0.1-1.9-0.3c-0.5-0.2-1-0.5-1.3-0.8c-0.3-0.3-0.6-0.7-0.8-1.1c-0.2-0.4-0.3-0.8-0.4-1.1
		c-0.1-0.4-0.1-0.7-0.2-1c0-0.3,0-0.5,0-0.7c0-0.2,0-0.5,0-0.8c0-0.3,0.1-0.7,0.2-1c0.1-0.4,0.2-0.7,0.4-1.1c0.2-0.4,0.5-0.7,0.8-1
		c0.3-0.3,0.7-0.5,1.2-0.7c0.5-0.2,1.1-0.3,1.8-0.3c0.9,0,1.6,0.2,2.2,0.5c0.5,0.3,1,0.7,1.3,1.2c0.3,0.5,0.5,1,0.6,1.6
		c0.1,0.6,0.2,1.1,0.2,1.6c0,0.1,0,0.1,0,0.2c0,0.1,0,0.2,0,0.2h-7c0,0.4,0.1,0.8,0.2,1.2c0.1,0.4,0.3,0.8,0.5,1.1
		c0.2,0.3,0.5,0.6,0.9,0.8c0.4,0.2,0.8,0.3,1.3,0.3c0.4,0,0.7-0.1,1-0.2c0.3-0.1,0.6-0.2,0.8-0.4c0.2-0.2,0.4-0.4,0.5-0.6
		c0.1-0.2,0.2-0.5,0.3-0.7H1245.8z M1244.3,154.2c0-0.3-0.1-0.6-0.1-1c-0.1-0.4-0.2-0.7-0.4-1c-0.2-0.3-0.4-0.6-0.8-0.8
		c-0.3-0.2-0.7-0.3-1.3-0.3c-0.6,0-1,0.1-1.4,0.3c-0.4,0.2-0.7,0.5-0.9,0.8c-0.2,0.3-0.4,0.6-0.4,1c-0.1,0.4-0.1,0.7-0.1,1H1244.3z"
		/>
	<path fill="#332F2E" d="M1247.7,153.1c0-0.3,0.1-0.6,0.2-1c0.1-0.4,0.3-0.7,0.6-1c0.3-0.3,0.7-0.6,1.2-0.8c0.5-0.2,1.2-0.3,2-0.3
		c0.4,0,0.8,0,1.2,0.1c0.4,0.1,0.8,0.2,1.2,0.4c0.4,0.2,0.7,0.5,0.9,0.9c0.2,0.4,0.4,0.9,0.3,1.6l-0.1,4.2c0,0.2,0,0.3,0,0.5
		c0,0.1,0,0.3,0.1,0.3c0.1,0.1,0.2,0.2,0.3,0.2c0.1,0,0.3,0.1,0.6,0.1v1.1c-0.1,0-0.2,0-0.3,0.1c-0.1,0-0.2,0-0.4,0
		c-0.2,0-0.4,0-0.6,0c-0.2,0-0.3-0.1-0.5-0.2c-0.1-0.1-0.3-0.2-0.3-0.4c-0.1-0.2-0.2-0.4-0.2-0.7c-0.2,0.3-0.3,0.5-0.6,0.7
		c-0.2,0.2-0.5,0.4-0.8,0.5c-0.3,0.1-0.6,0.2-0.9,0.3c-0.3,0.1-0.6,0.1-0.9,0.1c-1,0-1.7-0.2-2.3-0.7c-0.6-0.4-0.9-1.1-0.9-2.1
		c0-0.4,0.1-0.8,0.2-1.1c0.1-0.3,0.3-0.6,0.7-0.8c0.3-0.2,0.8-0.4,1.4-0.6c0.6-0.2,1.3-0.3,2.2-0.4c0.3,0,0.6,0,0.8-0.1
		c0.2,0,0.4-0.1,0.5-0.2c0.1-0.1,0.2-0.2,0.3-0.4c0.1-0.2,0.1-0.4,0.1-0.7c0-0.1,0-0.3,0-0.5c0-0.2-0.1-0.4-0.2-0.6
		c-0.1-0.2-0.3-0.4-0.6-0.5c-0.3-0.1-0.7-0.2-1.2-0.2c-0.1,0-0.4,0-0.6,0c-0.3,0-0.5,0.1-0.8,0.2c-0.3,0.1-0.5,0.3-0.7,0.6
		c-0.2,0.3-0.3,0.6-0.3,1.1H1247.7z M1253.6,154.8c-0.1,0.1-0.2,0.2-0.4,0.2c-0.1,0-0.3,0.1-0.4,0.1c-0.2,0-0.3,0-0.5,0.1
		c-0.2,0-0.4,0-0.7,0.1c-0.3,0.1-0.7,0.1-1,0.2c-0.3,0.1-0.6,0.1-0.8,0.3c-0.2,0.1-0.4,0.3-0.6,0.5c-0.1,0.2-0.2,0.5-0.2,0.9
		c0,0.5,0.2,1,0.5,1.2c0.3,0.3,0.7,0.4,1.3,0.4c0.3,0,0.6,0,0.9-0.1c0.3-0.1,0.6-0.3,0.9-0.5c0.3-0.2,0.5-0.6,0.7-1
		c0.2-0.4,0.3-0.9,0.3-1.6L1253.6,154.8z"/>
	<path fill="#332F2E" d="M1258.9,156.8c0,0.4,0.1,0.7,0.2,0.9c0.1,0.3,0.3,0.5,0.6,0.6c0.2,0.2,0.5,0.3,0.8,0.3
		c0.3,0.1,0.6,0.1,0.9,0.1c0.5,0,0.9-0.1,1.2-0.2c0.3-0.1,0.5-0.3,0.6-0.5c0.1-0.2,0.2-0.4,0.2-0.6c0-0.2,0-0.3,0-0.4
		c0-0.1,0-0.3,0-0.4c0-0.1-0.1-0.3-0.2-0.4c-0.1-0.1-0.3-0.2-0.6-0.4c-0.3-0.1-0.6-0.2-1-0.3l-1-0.2c-0.4-0.1-0.7-0.2-1.1-0.3
		c-0.3-0.1-0.6-0.3-0.9-0.4c-0.3-0.2-0.5-0.4-0.6-0.7s-0.2-0.7-0.2-1.2c0-0.5,0.1-0.9,0.3-1.3c0.2-0.3,0.5-0.6,0.8-0.8
		s0.7-0.3,1.1-0.4c0.4-0.1,0.8-0.1,1.2-0.1c0.8,0,1.4,0.1,1.9,0.3c0.5,0.2,0.8,0.4,1.1,0.7c0.3,0.3,0.4,0.6,0.5,0.9
		c0.1,0.3,0.2,0.6,0.2,0.9h-1.5c0-0.1,0-0.3-0.1-0.5c-0.1-0.2-0.2-0.4-0.3-0.5c-0.2-0.2-0.4-0.3-0.6-0.4c-0.3-0.1-0.6-0.2-1.1-0.2
		c0,0-0.2,0-0.4,0c-0.2,0-0.4,0.1-0.6,0.2c-0.2,0.1-0.4,0.2-0.6,0.4c-0.2,0.2-0.3,0.5-0.3,0.8c0,0.3,0.1,0.6,0.2,0.8
		c0.1,0.2,0.3,0.3,0.6,0.4c0.2,0.1,0.5,0.2,0.8,0.3c0.3,0.1,0.6,0.1,0.9,0.2c0.5,0.1,0.9,0.2,1.3,0.3c0.4,0.1,0.7,0.3,1,0.4
		c0.3,0.2,0.5,0.4,0.7,0.7c0.2,0.3,0.2,0.7,0.2,1.2c0,0.5-0.1,0.9-0.3,1.2c-0.2,0.3-0.4,0.6-0.6,0.8c-0.3,0.2-0.5,0.4-0.8,0.5
		c-0.3,0.1-0.6,0.2-0.9,0.3c-0.3,0.1-0.5,0.1-0.7,0.1c-0.2,0-0.4,0-0.4,0c-0.7,0-1.3-0.1-1.8-0.2c-0.5-0.2-0.9-0.4-1.2-0.7
		c-0.3-0.3-0.6-0.6-0.8-1c-0.2-0.4-0.3-0.8-0.3-1.2H1258.9z"/>
	<path fill="#332F2E" d="M1275.1,156.9c-0.1,0.3-0.2,0.7-0.3,1c-0.2,0.4-0.4,0.7-0.7,1c-0.3,0.3-0.7,0.5-1.2,0.7
		c-0.5,0.2-1.1,0.3-1.8,0.3c-0.8,0-1.4-0.1-1.9-0.3c-0.5-0.2-1-0.5-1.3-0.8c-0.3-0.3-0.6-0.7-0.8-1.1c-0.2-0.4-0.3-0.8-0.4-1.1
		c-0.1-0.4-0.1-0.7-0.2-1c0-0.3,0-0.5,0-0.7c0-0.2,0-0.5,0-0.8c0-0.3,0.1-0.7,0.2-1c0.1-0.4,0.2-0.7,0.4-1.1c0.2-0.4,0.5-0.7,0.8-1
		c0.3-0.3,0.7-0.5,1.2-0.7c0.5-0.2,1.1-0.3,1.8-0.3c0.9,0,1.6,0.2,2.2,0.5c0.5,0.3,1,0.7,1.3,1.2c0.3,0.5,0.5,1,0.6,1.6
		c0.1,0.6,0.2,1.1,0.2,1.6c0,0.1,0,0.1,0,0.2c0,0.1,0,0.2,0,0.2h-7c0,0.4,0.1,0.8,0.2,1.2c0.1,0.4,0.3,0.8,0.5,1.1
		c0.2,0.3,0.5,0.6,0.9,0.8c0.4,0.2,0.8,0.3,1.3,0.3c0.4,0,0.7-0.1,1-0.2c0.3-0.1,0.6-0.2,0.8-0.4c0.2-0.2,0.4-0.4,0.5-0.6
		c0.1-0.2,0.2-0.5,0.3-0.7H1275.1z M1273.5,154.2c0-0.3-0.1-0.6-0.1-1c-0.1-0.4-0.2-0.7-0.4-1c-0.2-0.3-0.4-0.6-0.8-0.8
		c-0.3-0.2-0.7-0.3-1.3-0.3c-0.6,0-1,0.1-1.4,0.3c-0.4,0.2-0.7,0.5-0.9,0.8c-0.2,0.3-0.4,0.6-0.4,1c-0.1,0.4-0.1,0.7-0.1,1H1273.5z"
		/>
	<path fill="#332F2E" d="M1286.8,146.9c0.6,0,1.2,0.1,1.7,0.2c0.5,0.1,1,0.3,1.3,0.6c0.4,0.3,0.7,0.7,0.9,1.1c0.2,0.5,0.3,1,0.3,1.7
		c0,0.6-0.1,1.1-0.2,1.6c-0.2,0.5-0.4,0.9-0.8,1.2c-0.3,0.3-0.8,0.6-1.4,0.8c-0.6,0.2-1.2,0.3-2.1,0.3h-3.3v5h-1.7v-12.6H1286.8z
		 M1283.4,153.1h3.1c1,0,1.7-0.2,2.2-0.6c0.5-0.4,0.7-1,0.7-1.9c0-0.8-0.2-1.3-0.7-1.7c-0.5-0.4-1.2-0.5-2.2-0.5h-3.1V153.1z"/>
	<path fill="#332F2E" d="M1292.9,146.9h1.6v1.7h-1.6V146.9z M1294.5,150.4v9.1h-1.6v-9.1H1294.5z"/>
	<path fill="#332F2E" d="M1298.5,150.4v1.3h0.1c0.2-0.3,0.5-0.6,0.7-0.8c0.3-0.2,0.5-0.4,0.8-0.5c0.3-0.1,0.5-0.2,0.8-0.2
		c0.3,0,0.5-0.1,0.7-0.1c0.6,0,1.1,0.1,1.6,0.3c0.5,0.2,0.9,0.5,1.3,0.9c0.4,0.4,0.7,0.9,0.9,1.5c0.2,0.6,0.3,1.4,0.3,2.2
		c0,0.9-0.1,1.6-0.3,2.3c-0.2,0.6-0.5,1.1-0.9,1.5c-0.4,0.4-0.8,0.7-1.3,0.9c-0.5,0.2-1,0.3-1.5,0.3c-0.1,0-0.3,0-0.5,0
		c-0.2,0-0.5-0.1-0.8-0.2c-0.3-0.1-0.6-0.3-0.9-0.5c-0.3-0.2-0.6-0.5-0.8-0.9v4.6h-1.6v-12.5H1298.5z M1298.5,155
		c0,0.7,0.1,1.3,0.3,1.8c0.2,0.5,0.4,0.9,0.7,1.2c0.3,0.3,0.6,0.5,0.9,0.6c0.3,0.1,0.6,0.2,0.9,0.2c0.3,0,0.6-0.1,1-0.2
		c0.3-0.1,0.6-0.3,0.9-0.6c0.3-0.3,0.5-0.7,0.6-1.2c0.2-0.5,0.2-1.1,0.2-1.8c0-1.2-0.2-2.1-0.7-2.8c-0.5-0.7-1.2-1-2.1-1
		c-0.2,0-0.5,0-0.8,0.1c-0.3,0.1-0.6,0.2-0.9,0.5c-0.3,0.3-0.5,0.7-0.7,1.2C1298.6,153.4,1298.5,154.1,1298.5,155z"/>
	<path fill="#332F2E" d="M1315.9,156.9c-0.1,0.3-0.2,0.7-0.3,1c-0.2,0.4-0.4,0.7-0.7,1c-0.3,0.3-0.7,0.5-1.2,0.7
		c-0.5,0.2-1.1,0.3-1.8,0.3c-0.8,0-1.4-0.1-1.9-0.3c-0.5-0.2-1-0.5-1.3-0.8c-0.3-0.3-0.6-0.7-0.8-1.1c-0.2-0.4-0.3-0.8-0.4-1.1
		c-0.1-0.4-0.1-0.7-0.2-1c0-0.3,0-0.5,0-0.7c0-0.2,0-0.5,0-0.8c0-0.3,0.1-0.7,0.2-1c0.1-0.4,0.2-0.7,0.4-1.1c0.2-0.4,0.5-0.7,0.8-1
		c0.3-0.3,0.7-0.5,1.2-0.7c0.5-0.2,1.1-0.3,1.8-0.3c0.9,0,1.6,0.2,2.2,0.5c0.5,0.3,1,0.7,1.3,1.2c0.3,0.5,0.5,1,0.6,1.6
		c0.1,0.6,0.2,1.1,0.2,1.6c0,0.1,0,0.1,0,0.2c0,0.1,0,0.2,0,0.2h-7c0,0.4,0.1,0.8,0.2,1.2c0.1,0.4,0.3,0.8,0.5,1.1
		c0.2,0.3,0.5,0.6,0.9,0.8c0.4,0.2,0.8,0.3,1.3,0.3c0.4,0,0.7-0.1,1-0.2c0.3-0.1,0.6-0.2,0.8-0.4c0.2-0.2,0.4-0.4,0.5-0.6
		c0.1-0.2,0.2-0.5,0.3-0.7H1315.9z M1314.3,154.2c0-0.3-0.1-0.6-0.1-1c-0.1-0.4-0.2-0.7-0.4-1c-0.2-0.3-0.4-0.6-0.8-0.8
		c-0.3-0.2-0.7-0.3-1.3-0.3c-0.6,0-1,0.1-1.4,0.3c-0.4,0.2-0.7,0.5-0.9,0.8c-0.2,0.3-0.4,0.6-0.4,1c-0.1,0.4-0.1,0.7-0.1,1H1314.3z"
		/>
	<path fill="#332F2E" d="M1319.6,146.9v12.6h-1.6v-12.6H1319.6z"/>
	<path fill="#332F2E" d="M1322.1,146.9h1.6v1.7h-1.6V146.9z M1323.7,150.4v9.1h-1.6v-9.1H1323.7z"/>
	<path fill="#332F2E" d="M1327.9,150.4v1.3c0.3-0.5,0.7-0.8,1.3-1.2c0.5-0.3,1.2-0.5,1.9-0.5c0.6,0,1.1,0.1,1.5,0.3
		c0.4,0.2,0.7,0.4,0.9,0.7c0.2,0.3,0.4,0.7,0.5,1.1c0.1,0.4,0.1,0.8,0.1,1.3v6.1h-1.6v-5.6c0-0.2,0-0.5,0-0.8c0-0.3-0.1-0.6-0.2-0.9
		c-0.1-0.3-0.3-0.5-0.6-0.7c-0.3-0.2-0.6-0.3-1.1-0.3c-0.2,0-0.5,0-0.8,0.1c-0.3,0.1-0.6,0.2-0.9,0.5c-0.3,0.2-0.5,0.6-0.7,1
		c-0.2,0.4-0.3,1.1-0.3,1.8v5h-1.6v-9.1H1327.9z"/>
	<path fill="#332F2E" d="M1344.7,156.9c-0.1,0.3-0.2,0.7-0.3,1c-0.2,0.4-0.4,0.7-0.7,1c-0.3,0.3-0.7,0.5-1.2,0.7
		c-0.5,0.2-1.1,0.3-1.8,0.3c-0.8,0-1.4-0.1-1.9-0.3c-0.5-0.2-1-0.5-1.3-0.8c-0.3-0.3-0.6-0.7-0.8-1.1c-0.2-0.4-0.3-0.8-0.4-1.1
		c-0.1-0.4-0.1-0.7-0.2-1c0-0.3,0-0.5,0-0.7c0-0.2,0-0.5,0-0.8c0-0.3,0.1-0.7,0.2-1c0.1-0.4,0.2-0.7,0.4-1.1c0.2-0.4,0.5-0.7,0.8-1
		c0.3-0.3,0.7-0.5,1.2-0.7c0.5-0.2,1.1-0.3,1.8-0.3c0.9,0,1.6,0.2,2.2,0.5c0.5,0.3,1,0.7,1.3,1.2c0.3,0.5,0.5,1,0.6,1.6
		c0.1,0.6,0.2,1.1,0.2,1.6c0,0.1,0,0.1,0,0.2c0,0.1,0,0.2,0,0.2h-7c0,0.4,0.1,0.8,0.2,1.2c0.1,0.4,0.3,0.8,0.5,1.1
		c0.2,0.3,0.5,0.6,0.9,0.8c0.4,0.2,0.8,0.3,1.3,0.3c0.4,0,0.7-0.1,1-0.2c0.3-0.1,0.6-0.2,0.8-0.4c0.2-0.2,0.4-0.4,0.5-0.6
		c0.1-0.2,0.2-0.5,0.3-0.7H1344.7z M1343.1,154.2c0-0.3-0.1-0.6-0.1-1c-0.1-0.4-0.2-0.7-0.4-1c-0.2-0.3-0.4-0.6-0.8-0.8
		c-0.3-0.2-0.7-0.3-1.3-0.3c-0.6,0-1,0.1-1.4,0.3c-0.4,0.2-0.7,0.5-0.9,0.8c-0.2,0.3-0.4,0.6-0.4,1c-0.1,0.4-0.1,0.7-0.1,1H1343.1z"
		/>
</g>
<g enable-background="new    ">
	<path fill="#989898" d="M1363.5,303.7c-0.1,0.4-0.2,0.8-0.3,1.3c-0.2,0.5-0.4,0.9-0.8,1.3c-0.4,0.4-0.8,0.7-1.4,1
		c-0.6,0.3-1.3,0.4-2.2,0.4c-0.8,0-1.6-0.1-2.2-0.4s-1.2-0.6-1.7-1.1c-0.5-0.5-0.8-1.1-1-1.8c-0.2-0.7-0.4-1.5-0.4-2.4
		c0-1,0.1-1.8,0.3-2.5c0.2-0.7,0.5-1.3,0.8-1.7c0.3-0.5,0.7-0.8,1.1-1.1c0.4-0.3,0.8-0.4,1.2-0.6c0.4-0.1,0.7-0.2,1.1-0.2
		c0.3,0,0.6,0,0.7,0c0.9,0,1.6,0.1,2.2,0.4c0.6,0.2,1,0.5,1.4,0.9c0.3,0.4,0.6,0.8,0.8,1.2c0.2,0.4,0.3,0.9,0.3,1.3h-1.5
		c0-0.2-0.1-0.4-0.2-0.7c-0.1-0.3-0.2-0.6-0.5-0.8c-0.2-0.3-0.5-0.5-0.9-0.7c-0.4-0.2-0.9-0.3-1.6-0.3c-0.7,0-1.3,0.1-1.8,0.4
		c-0.5,0.3-0.8,0.6-1.1,1.1c-0.3,0.4-0.5,1-0.6,1.5c-0.1,0.6-0.2,1.2-0.2,1.8c0,0.6,0.1,1.3,0.3,1.8c0.2,0.6,0.4,1,0.8,1.4
		c0.3,0.4,0.7,0.7,1.2,1c0.5,0.2,1,0.3,1.6,0.3c0.4,0,0.9-0.1,1.2-0.2c0.4-0.1,0.7-0.3,1-0.6c0.3-0.3,0.5-0.5,0.7-0.9
		c0.2-0.3,0.3-0.7,0.3-1.1H1363.5z"/>
	<path fill="#989898" d="M1364.8,303.4c0-0.5,0.1-1.1,0.2-1.6c0.1-0.5,0.4-1,0.7-1.4c0.3-0.4,0.7-0.7,1.2-1c0.5-0.3,1.1-0.4,1.9-0.4
		c0.7,0,1.4,0.1,1.9,0.4c0.5,0.3,0.9,0.6,1.2,1c0.3,0.4,0.5,0.9,0.7,1.4c0.1,0.5,0.2,1.1,0.2,1.6c0,0.5-0.1,1.1-0.2,1.6
		c-0.1,0.5-0.4,1-0.7,1.4c-0.3,0.4-0.7,0.7-1.2,1c-0.5,0.3-1.1,0.4-1.9,0.4c-0.7,0-1.4-0.1-1.9-0.4c-0.5-0.3-0.9-0.6-1.2-1
		c-0.3-0.4-0.5-0.9-0.7-1.4C1364.9,304.4,1364.8,303.9,1364.8,303.4z M1366.3,303.4c0,0.8,0.1,1.4,0.3,1.9s0.4,0.8,0.7,1
		c0.3,0.2,0.6,0.4,0.8,0.4s0.5,0.1,0.7,0.1c0.2,0,0.4,0,0.7-0.1s0.6-0.2,0.8-0.4c0.3-0.2,0.5-0.6,0.7-1c0.2-0.5,0.3-1.1,0.3-1.9
		s-0.1-1.4-0.3-1.9c-0.2-0.5-0.4-0.8-0.7-1c-0.3-0.2-0.6-0.4-0.8-0.4c-0.3,0-0.5-0.1-0.7-0.1c-0.2,0-0.4,0-0.7,0.1
		c-0.3,0-0.6,0.2-0.8,0.4c-0.3,0.2-0.5,0.6-0.7,1S1366.3,302.5,1366.3,303.4z"/>
	<path fill="#989898" d="M1376,299.3v1.1c0.3-0.4,0.6-0.7,1.1-1s1-0.4,1.7-0.4c0.5,0,1,0.1,1.3,0.2c0.3,0.2,0.6,0.4,0.8,0.7
		c0.2,0.3,0.3,0.6,0.4,1c0.1,0.4,0.1,0.8,0.1,1.2v5.4h-1.4v-5c0-0.2,0-0.5,0-0.8s-0.1-0.6-0.2-0.8c-0.1-0.3-0.3-0.5-0.5-0.6
		c-0.2-0.2-0.6-0.3-1-0.3c-0.2,0-0.4,0-0.7,0.1c-0.3,0.1-0.5,0.2-0.8,0.4c-0.2,0.2-0.5,0.5-0.6,0.9c-0.2,0.4-0.3,0.9-0.3,1.6v4.4
		h-1.4v-8.1H1376z"/>
	<path fill="#989898" d="M1384.3,299.3v-2.4h1.4v2.4h1.7v1h-1.7v5.2c0,0.1,0,0.3,0,0.4c0,0.1,0,0.3,0.1,0.4s0.1,0.2,0.2,0.2
		c0.1,0.1,0.3,0.1,0.5,0.1c0.1,0,0.3,0,0.4,0c0.1,0,0.3-0.1,0.4-0.1v1c-0.2,0.1-0.5,0.2-0.7,0.2c-0.3,0.1-0.5,0.1-0.8,0.1
		c-0.4,0-0.7-0.1-1-0.2c-0.2-0.1-0.4-0.3-0.5-0.5c-0.1-0.2-0.2-0.4-0.2-0.6c0-0.2,0-0.5,0-0.7v-5.4h-1.5v-1H1384.3z"/>
	<path fill="#989898" d="M1388.9,296.2h1.4v1.5h-1.4V296.2z M1390.3,299.3v8.1h-1.4v-8.1H1390.3z"/>
	<path fill="#989898" d="M1393.9,299.3v1.1c0.3-0.4,0.6-0.7,1.1-1c0.5-0.3,1-0.4,1.7-0.4c0.5,0,1,0.1,1.3,0.2
		c0.3,0.2,0.6,0.4,0.8,0.7c0.2,0.3,0.3,0.6,0.4,1c0.1,0.4,0.1,0.8,0.1,1.2v5.4h-1.4v-5c0-0.2,0-0.5,0-0.8c0-0.3-0.1-0.6-0.2-0.8
		c-0.1-0.3-0.3-0.5-0.5-0.6c-0.2-0.2-0.6-0.3-1-0.3c-0.2,0-0.4,0-0.7,0.1c-0.3,0.1-0.5,0.2-0.8,0.4c-0.2,0.2-0.5,0.5-0.6,0.9
		c-0.2,0.4-0.3,0.9-0.3,1.6v4.4h-1.4v-8.1H1393.9z"/>
	<path fill="#989898" d="M1407.1,307.4v-1.2h0c-0.2,0.4-0.4,0.6-0.7,0.8c-0.3,0.2-0.6,0.3-0.8,0.4c-0.3,0.1-0.5,0.2-0.7,0.2
		c-0.2,0-0.4,0-0.4,0c-0.6,0-1.1-0.1-1.4-0.3c-0.4-0.2-0.6-0.5-0.8-0.8c-0.2-0.3-0.3-0.6-0.4-1c-0.1-0.4-0.1-0.7-0.1-1v-5.4h1.4v5
		c0,0.5,0,0.9,0.1,1.2c0.1,0.3,0.2,0.6,0.4,0.8c0.1,0.2,0.3,0.3,0.5,0.4s0.4,0.1,0.7,0.1c0.6,0,1-0.1,1.4-0.4
		c0.3-0.3,0.6-0.6,0.7-0.9c0.1-0.3,0.2-0.7,0.2-1c0-0.3,0-0.6,0-0.7v-4.4h1.4v8.1H1407.1z"/>
	<path fill="#989898" d="M1410.4,303.4c0-0.5,0.1-1.1,0.2-1.6c0.1-0.5,0.4-1,0.7-1.4c0.3-0.4,0.7-0.7,1.2-1c0.5-0.3,1.1-0.4,1.9-0.4
		c0.7,0,1.4,0.1,1.9,0.4c0.5,0.3,0.9,0.6,1.2,1c0.3,0.4,0.5,0.9,0.7,1.4c0.1,0.5,0.2,1.1,0.2,1.6c0,0.5-0.1,1.1-0.2,1.6
		c-0.1,0.5-0.4,1-0.7,1.4c-0.3,0.4-0.7,0.7-1.2,1c-0.5,0.3-1.1,0.4-1.9,0.4c-0.7,0-1.4-0.1-1.9-0.4c-0.5-0.3-0.9-0.6-1.2-1
		c-0.3-0.4-0.5-0.9-0.7-1.4C1410.5,304.4,1410.4,303.9,1410.4,303.4z M1411.9,303.4c0,0.8,0.1,1.4,0.3,1.9c0.2,0.5,0.4,0.8,0.7,1
		c0.3,0.2,0.6,0.4,0.8,0.4s0.5,0.1,0.7,0.1c0.2,0,0.4,0,0.7-0.1s0.6-0.2,0.8-0.4c0.3-0.2,0.5-0.6,0.7-1c0.2-0.5,0.3-1.1,0.3-1.9
		s-0.1-1.4-0.3-1.9c-0.2-0.5-0.4-0.8-0.7-1c-0.3-0.2-0.6-0.4-0.8-0.4c-0.3,0-0.5-0.1-0.7-0.1c-0.2,0-0.4,0-0.7,0.1
		c-0.3,0-0.6,0.2-0.8,0.4c-0.3,0.2-0.5,0.6-0.7,1C1412,301.9,1411.9,302.5,1411.9,303.4z"/>
	<path fill="#989898" d="M1425.7,307.4v-1.2h0c-0.2,0.4-0.4,0.6-0.7,0.8c-0.3,0.2-0.6,0.3-0.8,0.4c-0.3,0.1-0.5,0.2-0.7,0.2
		c-0.2,0-0.4,0-0.4,0c-0.6,0-1.1-0.1-1.4-0.3c-0.4-0.2-0.6-0.5-0.8-0.8c-0.2-0.3-0.3-0.6-0.4-1c-0.1-0.4-0.1-0.7-0.1-1v-5.4h1.4v5
		c0,0.5,0,0.9,0.1,1.2c0.1,0.3,0.2,0.6,0.4,0.8c0.1,0.2,0.3,0.3,0.5,0.4s0.4,0.1,0.7,0.1c0.6,0,1-0.1,1.4-0.4
		c0.3-0.3,0.6-0.6,0.7-0.9c0.1-0.3,0.2-0.7,0.2-1c0-0.3,0-0.6,0-0.7v-4.4h1.4v8.1H1425.7z"/>
	<path fill="#989898" d="M1430.2,305c0,0.3,0.1,0.6,0.2,0.8c0.1,0.2,0.3,0.4,0.5,0.5c0.2,0.1,0.4,0.2,0.7,0.3
		c0.3,0.1,0.5,0.1,0.8,0.1c0.5,0,0.8-0.1,1.1-0.2c0.3-0.1,0.4-0.3,0.6-0.4c0.1-0.2,0.2-0.3,0.2-0.5c0-0.2,0-0.3,0-0.4
		c0-0.1,0-0.3,0-0.4c0-0.1-0.1-0.2-0.2-0.4s-0.3-0.2-0.5-0.3c-0.2-0.1-0.5-0.2-0.9-0.3l-0.9-0.2c-0.3-0.1-0.7-0.2-1-0.3
		c-0.3-0.1-0.6-0.2-0.8-0.4c-0.2-0.2-0.4-0.4-0.6-0.7c-0.1-0.3-0.2-0.6-0.2-1c0-0.4,0.1-0.8,0.3-1.1c0.2-0.3,0.4-0.5,0.7-0.7
		c0.3-0.2,0.6-0.3,1-0.4c0.4-0.1,0.7-0.1,1.1-0.1c0.7,0,1.2,0.1,1.7,0.3c0.4,0.2,0.7,0.4,1,0.6c0.2,0.3,0.4,0.5,0.5,0.8
		c0.1,0.3,0.1,0.5,0.2,0.8h-1.3c0-0.1,0-0.3-0.1-0.4c0-0.2-0.1-0.3-0.3-0.5c-0.1-0.2-0.3-0.3-0.6-0.4c-0.2-0.1-0.6-0.2-1-0.2
		c0,0-0.2,0-0.3,0c-0.2,0-0.4,0.1-0.6,0.1c-0.2,0.1-0.4,0.2-0.5,0.4c-0.2,0.2-0.2,0.4-0.2,0.7c0,0.3,0.1,0.5,0.2,0.7
		c0.1,0.2,0.3,0.3,0.5,0.4c0.2,0.1,0.4,0.2,0.7,0.2c0.3,0.1,0.6,0.1,0.8,0.2c0.4,0.1,0.8,0.2,1.2,0.3c0.4,0.1,0.7,0.2,0.9,0.4
		s0.5,0.4,0.6,0.6c0.1,0.3,0.2,0.6,0.2,1c0,0.4-0.1,0.8-0.2,1.1c-0.1,0.3-0.3,0.5-0.6,0.7c-0.2,0.2-0.5,0.3-0.7,0.5
		c-0.3,0.1-0.5,0.2-0.8,0.2c-0.3,0.1-0.5,0.1-0.7,0.1c-0.2,0-0.3,0-0.4,0c-0.6,0-1.1-0.1-1.6-0.2c-0.4-0.1-0.8-0.3-1.1-0.6
		c-0.3-0.3-0.5-0.5-0.7-0.9c-0.1-0.3-0.2-0.7-0.2-1.1H1430.2z"/>
	<path fill="#989898" d="M1445.5,296.2c0.2,0,0.5,0,0.8,0c0.3,0,0.7,0.1,1.1,0.2c0.4,0.1,0.8,0.3,1.2,0.5c0.4,0.2,0.8,0.5,1.1,1
		c0.3,0.4,0.6,0.9,0.8,1.6c0.2,0.6,0.3,1.4,0.3,2.3c0,0.9-0.1,1.7-0.3,2.3c-0.2,0.6-0.5,1.2-0.8,1.6c-0.3,0.4-0.7,0.7-1.1,1
		c-0.4,0.2-0.8,0.4-1.3,0.5c-0.4,0.1-0.9,0.2-1.3,0.2c-0.4,0-0.8,0-1.1,0h-3.5v-11.2H1445.5z M1442.9,306.1h2.1c1.4,0,2.5-0.3,3.2-1
		c0.7-0.7,1-1.8,1-3.3c0-0.8-0.1-1.5-0.3-2.1c-0.2-0.6-0.5-1-0.9-1.3s-0.8-0.6-1.2-0.7c-0.5-0.1-0.9-0.2-1.4-0.2h-2.5V306.1z"/>
	<path fill="#989898" d="M1459.9,305.1c-0.1,0.3-0.2,0.6-0.3,0.9c-0.1,0.3-0.4,0.6-0.6,0.9s-0.6,0.5-1,0.6s-1,0.3-1.6,0.3
		c-0.7,0-1.2-0.1-1.7-0.3c-0.5-0.2-0.8-0.4-1.2-0.7c-0.3-0.3-0.5-0.6-0.7-0.9c-0.2-0.3-0.3-0.7-0.4-1c-0.1-0.3-0.1-0.6-0.1-0.9
		c0-0.3,0-0.5,0-0.6c0-0.2,0-0.4,0-0.7c0-0.3,0.1-0.6,0.2-0.9c0.1-0.3,0.2-0.7,0.4-1c0.2-0.3,0.4-0.6,0.7-0.9
		c0.3-0.3,0.7-0.5,1.1-0.6c0.4-0.2,1-0.2,1.6-0.2c0.8,0,1.5,0.1,1.9,0.4c0.5,0.3,0.9,0.6,1.1,1.1c0.3,0.4,0.4,0.9,0.5,1.4
		c0.1,0.5,0.1,1,0.2,1.4c0,0.1,0,0.1,0,0.2c0,0.1,0,0.1,0,0.2h-6.2c0,0.4,0,0.7,0.1,1.1c0.1,0.4,0.2,0.7,0.4,1
		c0.2,0.3,0.5,0.5,0.8,0.7c0.3,0.2,0.7,0.3,1.2,0.3c0.3,0,0.6,0,0.9-0.1c0.3-0.1,0.5-0.2,0.7-0.4c0.2-0.2,0.3-0.3,0.4-0.5
		c0.1-0.2,0.2-0.4,0.2-0.6H1459.9z M1458.5,302.7c0-0.3,0-0.6-0.1-0.9c-0.1-0.3-0.2-0.6-0.3-0.9c-0.2-0.3-0.4-0.5-0.7-0.7
		c-0.3-0.2-0.7-0.3-1.1-0.3c-0.5,0-0.9,0.1-1.3,0.3c-0.3,0.2-0.6,0.4-0.8,0.7c-0.2,0.3-0.3,0.6-0.4,0.9c-0.1,0.3-0.1,0.6-0.1,0.9
		H1458.5z"/>
	<path fill="#989898" d="M1463.1,299.3v1.1h0c0.2-0.3,0.4-0.6,0.7-0.7c0.2-0.2,0.5-0.3,0.7-0.4c0.2-0.1,0.5-0.2,0.7-0.2
		c0.2,0,0.4,0,0.6,0c0.5,0,1,0.1,1.4,0.3c0.4,0.2,0.8,0.4,1.2,0.8c0.3,0.4,0.6,0.8,0.8,1.4c0.2,0.6,0.3,1.2,0.3,2
		c0,0.8-0.1,1.5-0.3,2c-0.2,0.6-0.5,1-0.8,1.4c-0.3,0.4-0.7,0.6-1.2,0.8c-0.4,0.2-0.9,0.2-1.3,0.2c-0.1,0-0.2,0-0.5,0
		c-0.2,0-0.5-0.1-0.7-0.2c-0.3-0.1-0.5-0.3-0.8-0.4c-0.3-0.2-0.5-0.5-0.7-0.8v4.1h-1.4v-11.1H1463.1z M1463.1,303.4
		c0,0.6,0.1,1.2,0.2,1.6s0.4,0.8,0.6,1c0.3,0.3,0.5,0.5,0.8,0.6c0.3,0.1,0.6,0.2,0.8,0.2c0.3,0,0.6-0.1,0.9-0.2
		c0.3-0.1,0.5-0.3,0.8-0.6c0.2-0.3,0.4-0.6,0.6-1c0.1-0.4,0.2-1,0.2-1.6c0-1-0.2-1.9-0.6-2.5c-0.4-0.6-1-0.9-1.8-0.9
		c-0.2,0-0.4,0-0.7,0.1c-0.3,0.1-0.5,0.2-0.8,0.5c-0.3,0.2-0.5,0.6-0.7,1C1463.2,302,1463.1,302.6,1463.1,303.4z"/>
	<path fill="#989898" d="M1472.7,296.2v11.2h-1.4v-11.2H1472.7z"/>
	<path fill="#989898" d="M1474.6,303.4c0-0.5,0.1-1.1,0.2-1.6c0.1-0.5,0.4-1,0.7-1.4c0.3-0.4,0.7-0.7,1.2-1c0.5-0.3,1.1-0.4,1.9-0.4
		c0.7,0,1.4,0.1,1.9,0.4c0.5,0.3,0.9,0.6,1.2,1c0.3,0.4,0.5,0.9,0.7,1.4c0.1,0.5,0.2,1.1,0.2,1.6c0,0.5-0.1,1.1-0.2,1.6
		c-0.1,0.5-0.4,1-0.7,1.4c-0.3,0.4-0.7,0.7-1.2,1c-0.5,0.3-1.1,0.4-1.9,0.4c-0.7,0-1.4-0.1-1.9-0.4c-0.5-0.3-0.9-0.6-1.2-1
		c-0.3-0.4-0.5-0.9-0.7-1.4C1474.6,304.4,1474.6,303.9,1474.6,303.4z M1476,303.4c0,0.8,0.1,1.4,0.3,1.9c0.2,0.5,0.4,0.8,0.7,1
		c0.3,0.2,0.6,0.4,0.8,0.4s0.5,0.1,0.7,0.1c0.2,0,0.4,0,0.7-0.1s0.6-0.2,0.8-0.4c0.3-0.2,0.5-0.6,0.7-1s0.3-1.1,0.3-1.9
		s-0.1-1.4-0.3-1.9s-0.4-0.8-0.7-1c-0.3-0.2-0.6-0.4-0.8-0.4c-0.3,0-0.5-0.1-0.7-0.1c-0.2,0-0.4,0-0.7,0.1c-0.3,0-0.6,0.2-0.8,0.4
		c-0.3,0.2-0.5,0.6-0.7,1C1476.1,301.9,1476,302.5,1476,303.4z"/>
	<path fill="#989898" d="M1484.7,309.3c0.2,0,0.4,0.1,0.5,0.1c0.1,0,0.2,0,0.2,0c0.2,0,0.4,0,0.5-0.1c0.1-0.1,0.3-0.2,0.3-0.3
		s0.2-0.3,0.2-0.4c0.1-0.2,0.1-0.3,0.2-0.5l0.2-0.6l-3.5-8.1h1.7l2.6,6.6l2.2-6.6h1.4l-3.2,9.1c-0.1,0.2-0.1,0.4-0.2,0.6
		c-0.1,0.2-0.2,0.5-0.4,0.7c-0.2,0.2-0.4,0.4-0.6,0.5c-0.2,0.1-0.6,0.2-0.9,0.2c-0.2,0-0.4,0-0.6,0c-0.2,0-0.4,0-0.5-0.1V309.3z"/>
	<path fill="#989898" d="M1493.7,299.3v1.1l0,0.1c0.1-0.2,0.3-0.4,0.4-0.6c0.2-0.2,0.4-0.3,0.6-0.5c0.2-0.1,0.5-0.2,0.7-0.3
		c0.3-0.1,0.5-0.1,0.8-0.1c0.4,0,0.7,0.1,0.9,0.2c0.3,0.1,0.5,0.2,0.7,0.4c0.2,0.2,0.3,0.4,0.5,0.6c0.1,0.2,0.2,0.4,0.3,0.6
		c0.1-0.2,0.2-0.3,0.3-0.5c0.1-0.2,0.3-0.4,0.6-0.6c0.2-0.2,0.5-0.3,0.8-0.5c0.3-0.1,0.7-0.2,1.1-0.2c0.6,0,1.1,0.1,1.5,0.4
		c0.4,0.3,0.6,0.5,0.8,0.9c0.2,0.3,0.3,0.7,0.3,1.1c0,0.4,0.1,0.7,0.1,0.9v5.2h-1.4v-5.1c0-0.2,0-0.5,0-0.7c0-0.3-0.1-0.5-0.2-0.8
		c-0.1-0.2-0.3-0.4-0.5-0.6c-0.2-0.2-0.5-0.2-0.9-0.2c-0.2,0-0.5,0-0.7,0.1c-0.3,0.1-0.5,0.2-0.7,0.4c-0.2,0.2-0.4,0.5-0.5,0.8
		c-0.1,0.3-0.2,0.8-0.2,1.3v4.8h-1.4v-5.1c0-0.3,0-0.6-0.1-0.9c0-0.3-0.1-0.5-0.2-0.7c-0.1-0.2-0.3-0.4-0.5-0.5
		c-0.2-0.1-0.5-0.2-0.8-0.2c-0.3,0-0.6,0.1-0.8,0.2c-0.3,0.1-0.5,0.3-0.7,0.5c-0.2,0.2-0.4,0.5-0.5,0.8c-0.1,0.3-0.2,0.7-0.2,1.1
		v4.8h-1.4v-8.1H1493.7z"/>
	<path fill="#989898" d="M1513.5,305.1c-0.1,0.3-0.2,0.6-0.3,0.9c-0.1,0.3-0.4,0.6-0.6,0.9s-0.6,0.5-1,0.6s-1,0.3-1.6,0.3
		c-0.7,0-1.2-0.1-1.7-0.3c-0.5-0.2-0.8-0.4-1.2-0.7c-0.3-0.3-0.5-0.6-0.7-0.9c-0.2-0.3-0.3-0.7-0.4-1c-0.1-0.3-0.1-0.6-0.1-0.9
		c0-0.3,0-0.5,0-0.6c0-0.2,0-0.4,0-0.7c0-0.3,0.1-0.6,0.2-0.9c0.1-0.3,0.2-0.7,0.4-1c0.2-0.3,0.4-0.6,0.7-0.9
		c0.3-0.3,0.7-0.5,1.1-0.6c0.4-0.2,1-0.2,1.6-0.2c0.8,0,1.5,0.1,1.9,0.4c0.5,0.3,0.9,0.6,1.1,1.1c0.3,0.4,0.4,0.9,0.5,1.4
		c0.1,0.5,0.1,1,0.2,1.4c0,0.1,0,0.1,0,0.2c0,0.1,0,0.1,0,0.2h-6.2c0,0.4,0,0.7,0.1,1.1c0.1,0.4,0.2,0.7,0.4,1
		c0.2,0.3,0.5,0.5,0.8,0.7c0.3,0.2,0.7,0.3,1.2,0.3c0.3,0,0.6,0,0.9-0.1c0.3-0.1,0.5-0.2,0.7-0.4c0.2-0.2,0.3-0.3,0.4-0.5
		c0.1-0.2,0.2-0.4,0.2-0.6H1513.5z M1512.1,302.7c0-0.3,0-0.6-0.1-0.9c-0.1-0.3-0.2-0.6-0.3-0.9c-0.2-0.3-0.4-0.5-0.7-0.7
		c-0.3-0.2-0.7-0.3-1.1-0.3c-0.5,0-0.9,0.1-1.3,0.3c-0.3,0.2-0.6,0.4-0.8,0.7c-0.2,0.3-0.3,0.6-0.4,0.9c-0.1,0.3-0.1,0.6-0.1,0.9
		H1512.1z"/>
	<path fill="#989898" d="M1516.8,299.3v1.1c0.3-0.4,0.7-0.7,1.1-1c0.5-0.3,1-0.4,1.7-0.4c0.5,0,1,0.1,1.3,0.2
		c0.3,0.2,0.6,0.4,0.8,0.7s0.3,0.6,0.4,1c0.1,0.4,0.1,0.8,0.1,1.2v5.4h-1.4v-5c0-0.2,0-0.5,0-0.8c0-0.3-0.1-0.6-0.2-0.8
		c-0.1-0.3-0.3-0.5-0.5-0.6c-0.2-0.2-0.6-0.3-1-0.3c-0.2,0-0.4,0-0.7,0.1c-0.3,0.1-0.5,0.2-0.8,0.4c-0.2,0.2-0.5,0.5-0.6,0.9
		c-0.2,0.4-0.3,0.9-0.3,1.6v4.4h-1.4v-8.1H1516.8z"/>
	<path fill="#989898" d="M1525,299.3v-2.4h1.4v2.4h1.7v1h-1.7v5.2c0,0.1,0,0.3,0,0.4c0,0.1,0,0.3,0.1,0.4c0,0.1,0.1,0.2,0.2,0.2
		c0.1,0.1,0.3,0.1,0.5,0.1c0.1,0,0.3,0,0.4,0c0.1,0,0.3-0.1,0.4-0.1v1c-0.2,0.1-0.5,0.2-0.7,0.2c-0.3,0.1-0.5,0.1-0.8,0.1
		c-0.4,0-0.7-0.1-1-0.2c-0.2-0.1-0.4-0.3-0.5-0.5c-0.1-0.2-0.2-0.4-0.2-0.6c0-0.2,0-0.5,0-0.7v-5.4h-1.5v-1H1525z"/>
</g>
<path fill="#20AD65" d="M1333.2,209h220.7c0.8,0,1.5,0.7,1.5,1.5v56.9c0,0.8-0.7,1.5-1.5,1.5h-220.7c-0.8,0-1.5-0.7-1.5-1.5v-56.9
	C1331.7,209.7,1332.4,209,1333.2,209z"/>
<g enable-background="new    ">
	<path fill="#FFFFFF" d="M1366.1,232.1h5c0.2,0,0.4,0,0.7,0c0.3,0,0.5,0.1,0.8,0.1c0.3,0.1,0.5,0.2,0.8,0.3c0.3,0.1,0.5,0.3,0.7,0.5
		c0.2,0.2,0.4,0.5,0.5,0.8c0.1,0.3,0.2,0.7,0.2,1.2c0,0.3,0,0.6-0.1,0.9c-0.1,0.3-0.2,0.6-0.4,0.8c-0.2,0.3-0.4,0.5-0.6,0.6
		c-0.2,0.2-0.5,0.3-0.8,0.4v0c0.4,0.1,0.7,0.3,0.9,0.5c0.2,0.2,0.4,0.4,0.5,0.6c0.1,0.2,0.2,0.5,0.2,0.7c0,0.3,0,0.5,0.1,0.8
		c0,0.4,0,0.7,0,1c0,0.3,0,0.5,0,0.7c0,0.2,0.1,0.4,0.1,0.5c0.1,0.2,0.1,0.3,0.3,0.5h-1.6c-0.1-0.1-0.2-0.3-0.2-0.4
		c-0.1-0.1-0.1-0.3-0.1-0.4c0-0.2,0-0.4,0-0.6c0-0.2,0-0.5,0-0.9c0-0.3,0-0.6,0-0.9c0-0.3-0.1-0.5-0.3-0.8c-0.1-0.2-0.3-0.4-0.6-0.6
		c-0.3-0.1-0.7-0.2-1.2-0.2h-3.2v4.7h-1.5V232.1z M1367.6,237.2h3.4c0.2,0,0.4,0,0.6-0.1c0.3,0,0.5-0.1,0.7-0.3
		c0.2-0.1,0.4-0.3,0.6-0.6c0.2-0.3,0.2-0.6,0.2-1c0-0.4-0.1-0.7-0.2-0.9c-0.1-0.2-0.3-0.4-0.5-0.6c-0.2-0.1-0.5-0.3-0.8-0.3
		c-0.3-0.1-0.6-0.1-1-0.1h-3.1V237.2z"/>
	<path fill="#FFFFFF" d="M1384,240.9c-0.1,0.3-0.2,0.6-0.3,0.9c-0.1,0.3-0.4,0.6-0.6,0.9s-0.6,0.5-1,0.6c-0.4,0.2-1,0.3-1.6,0.3
		c-0.7,0-1.2-0.1-1.7-0.3c-0.5-0.2-0.8-0.4-1.2-0.7c-0.3-0.3-0.5-0.6-0.7-0.9c-0.2-0.3-0.3-0.7-0.4-1c-0.1-0.3-0.1-0.6-0.1-0.9
		c0-0.3,0-0.5,0-0.6c0-0.2,0-0.4,0-0.7c0-0.3,0.1-0.6,0.2-0.9c0.1-0.3,0.2-0.7,0.4-1c0.2-0.3,0.4-0.6,0.7-0.9
		c0.3-0.3,0.7-0.5,1.1-0.6s1-0.2,1.6-0.2c0.8,0,1.5,0.1,1.9,0.4c0.5,0.3,0.9,0.6,1.1,1.1c0.3,0.4,0.4,0.9,0.5,1.4
		c0.1,0.5,0.1,1,0.2,1.4c0,0.1,0,0.1,0,0.2c0,0.1,0,0.1,0,0.2h-6.2c0,0.4,0,0.7,0.1,1.1c0.1,0.4,0.2,0.7,0.4,1
		c0.2,0.3,0.5,0.5,0.8,0.7c0.3,0.2,0.7,0.3,1.2,0.3c0.3,0,0.6,0,0.9-0.1c0.3-0.1,0.5-0.2,0.7-0.4c0.2-0.2,0.3-0.3,0.4-0.5
		c0.1-0.2,0.2-0.4,0.2-0.6H1384z M1382.6,238.5c0-0.3,0-0.6-0.1-0.9c-0.1-0.3-0.2-0.6-0.3-0.9c-0.2-0.3-0.4-0.5-0.7-0.7
		c-0.3-0.2-0.7-0.3-1.1-0.3c-0.5,0-0.9,0.1-1.3,0.3c-0.3,0.2-0.6,0.4-0.8,0.7c-0.2,0.3-0.3,0.6-0.4,0.9c-0.1,0.3-0.1,0.6-0.1,0.9
		H1382.6z"/>
	<path fill="#FFFFFF" d="M1387.3,232.1v11.2h-1.4v-11.2H1387.3z"/>
	<path fill="#FFFFFF" d="M1396.8,240.9c-0.1,0.3-0.2,0.6-0.3,0.9c-0.1,0.3-0.4,0.6-0.6,0.9c-0.3,0.3-0.6,0.5-1,0.6
		c-0.4,0.2-1,0.3-1.6,0.3c-0.7,0-1.2-0.1-1.7-0.3c-0.5-0.2-0.8-0.4-1.2-0.7c-0.3-0.3-0.5-0.6-0.7-0.9c-0.2-0.3-0.3-0.7-0.4-1
		c-0.1-0.3-0.1-0.6-0.1-0.9c0-0.3,0-0.5,0-0.6c0-0.2,0-0.4,0-0.7c0-0.3,0.1-0.6,0.2-0.9c0.1-0.3,0.2-0.7,0.4-1
		c0.2-0.3,0.4-0.6,0.7-0.9c0.3-0.3,0.7-0.5,1.1-0.6s1-0.2,1.6-0.2c0.8,0,1.5,0.1,1.9,0.4c0.5,0.3,0.9,0.6,1.1,1.1
		c0.3,0.4,0.4,0.9,0.5,1.4c0.1,0.5,0.1,1,0.2,1.4c0,0.1,0,0.1,0,0.2c0,0.1,0,0.1,0,0.2h-6.2c0,0.4,0,0.7,0.1,1.1
		c0.1,0.4,0.2,0.7,0.4,1c0.2,0.3,0.5,0.5,0.8,0.7c0.3,0.2,0.7,0.3,1.2,0.3c0.3,0,0.6,0,0.9-0.1c0.3-0.1,0.5-0.2,0.7-0.4
		c0.2-0.2,0.3-0.3,0.4-0.5c0.1-0.2,0.2-0.4,0.2-0.6H1396.8z M1395.4,238.5c0-0.3,0-0.6-0.1-0.9c-0.1-0.3-0.2-0.6-0.3-0.9
		c-0.2-0.3-0.4-0.5-0.7-0.7c-0.3-0.2-0.7-0.3-1.1-0.3c-0.5,0-0.9,0.1-1.3,0.3c-0.3,0.2-0.6,0.4-0.8,0.7c-0.2,0.3-0.3,0.6-0.4,0.9
		c-0.1,0.3-0.1,0.6-0.1,0.9H1395.4z"/>
	<path fill="#FFFFFF" d="M1398.4,237.5c0-0.3,0-0.6,0.1-0.9c0.1-0.3,0.3-0.6,0.5-0.9c0.3-0.3,0.6-0.5,1.1-0.7c0.5-0.2,1-0.3,1.8-0.3
		c0.3,0,0.7,0,1.1,0.1c0.4,0.1,0.7,0.2,1.1,0.4c0.3,0.2,0.6,0.5,0.8,0.8c0.2,0.4,0.3,0.8,0.3,1.4l-0.1,3.8c0,0.2,0,0.3,0,0.4
		c0,0.1,0,0.2,0.1,0.3c0.1,0.1,0.1,0.1,0.3,0.2c0.1,0,0.3,0.1,0.5,0v1c-0.1,0-0.2,0-0.3,0c-0.1,0-0.2,0-0.4,0c-0.2,0-0.4,0-0.5,0
		c-0.2,0-0.3-0.1-0.4-0.2c-0.1-0.1-0.2-0.2-0.3-0.4c-0.1-0.2-0.1-0.4-0.2-0.6c-0.1,0.3-0.3,0.5-0.5,0.7c-0.2,0.2-0.4,0.3-0.7,0.4
		c-0.2,0.1-0.5,0.2-0.8,0.3c-0.3,0.1-0.5,0.1-0.8,0.1c-0.9,0-1.5-0.2-2.1-0.6c-0.5-0.4-0.8-1-0.8-1.9c0-0.4,0.1-0.7,0.2-1
		c0.1-0.3,0.3-0.5,0.6-0.8c0.3-0.2,0.7-0.4,1.2-0.5s1.2-0.3,2-0.3c0.3,0,0.5,0,0.8-0.1c0.2,0,0.4-0.1,0.5-0.1
		c0.1-0.1,0.2-0.2,0.3-0.3c0.1-0.1,0.1-0.3,0.1-0.6c0-0.1,0-0.2,0-0.4c0-0.2-0.1-0.4-0.2-0.5c-0.1-0.2-0.3-0.3-0.5-0.5
		c-0.2-0.1-0.6-0.2-1-0.2c-0.1,0-0.3,0-0.6,0c-0.2,0-0.5,0.1-0.7,0.2c-0.2,0.1-0.4,0.3-0.6,0.5c-0.2,0.2-0.3,0.6-0.2,1H1398.4z
		 M1403.7,239.1c-0.1,0.1-0.2,0.1-0.3,0.2c-0.1,0-0.2,0.1-0.4,0.1c-0.1,0-0.3,0-0.5,0.1c-0.2,0-0.4,0-0.6,0.1
		c-0.3,0.1-0.6,0.1-0.9,0.2c-0.3,0-0.5,0.1-0.7,0.2c-0.2,0.1-0.4,0.2-0.5,0.4c-0.1,0.2-0.2,0.4-0.2,0.8c0,0.5,0.1,0.8,0.4,1.1
		c0.3,0.3,0.7,0.4,1.1,0.4c0.3,0,0.6,0,0.8-0.1c0.3-0.1,0.5-0.2,0.8-0.4c0.2-0.2,0.4-0.5,0.6-0.9c0.2-0.4,0.3-0.8,0.3-1.4
		L1403.7,239.1z"/>
	<path fill="#FFFFFF" d="M1408.4,240.8c0,0.3,0.1,0.6,0.2,0.8c0.1,0.2,0.3,0.4,0.5,0.5c0.2,0.1,0.4,0.2,0.7,0.3
		c0.3,0.1,0.5,0.1,0.8,0.1c0.5,0,0.8-0.1,1.1-0.2c0.3-0.1,0.4-0.3,0.6-0.4c0.1-0.2,0.2-0.3,0.2-0.5c0-0.2,0-0.3,0-0.4
		c0-0.1,0-0.3,0-0.4c0-0.1-0.1-0.2-0.2-0.4c-0.1-0.1-0.3-0.2-0.5-0.3c-0.2-0.1-0.5-0.2-0.9-0.3l-0.9-0.2c-0.3-0.1-0.7-0.2-1-0.3
		c-0.3-0.1-0.6-0.2-0.8-0.4c-0.2-0.2-0.4-0.4-0.6-0.7c-0.1-0.3-0.2-0.6-0.2-1c0-0.4,0.1-0.8,0.3-1.1c0.2-0.3,0.4-0.5,0.7-0.7
		c0.3-0.2,0.6-0.3,1-0.4c0.4-0.1,0.7-0.1,1.1-0.1c0.7,0,1.2,0.1,1.7,0.3c0.4,0.2,0.7,0.4,1,0.6c0.2,0.3,0.4,0.5,0.5,0.8
		c0.1,0.3,0.1,0.5,0.2,0.8h-1.3c0-0.1,0-0.3-0.1-0.4c0-0.2-0.1-0.3-0.3-0.5c-0.1-0.2-0.3-0.3-0.6-0.4c-0.2-0.1-0.6-0.2-1-0.2
		c0,0-0.2,0-0.3,0c-0.2,0-0.4,0.1-0.6,0.1c-0.2,0.1-0.4,0.2-0.5,0.4c-0.2,0.2-0.2,0.4-0.2,0.7c0,0.3,0.1,0.5,0.2,0.7
		c0.1,0.2,0.3,0.3,0.5,0.4s0.4,0.2,0.7,0.2c0.3,0.1,0.6,0.1,0.8,0.2c0.4,0.1,0.8,0.2,1.2,0.3c0.4,0.1,0.7,0.2,0.9,0.4
		c0.3,0.2,0.5,0.4,0.6,0.6c0.1,0.3,0.2,0.6,0.2,1c0,0.4-0.1,0.8-0.2,1.1c-0.1,0.3-0.3,0.5-0.6,0.7c-0.2,0.2-0.5,0.3-0.7,0.5
		c-0.3,0.1-0.5,0.2-0.8,0.2c-0.3,0.1-0.5,0.1-0.7,0.1c-0.2,0-0.3,0-0.4,0c-0.6,0-1.1-0.1-1.6-0.2c-0.4-0.1-0.8-0.3-1.1-0.6
		c-0.3-0.3-0.5-0.5-0.7-0.9c-0.1-0.3-0.2-0.7-0.2-1.1H1408.4z"/>
	<path fill="#FFFFFF" d="M1422.8,240.9c-0.1,0.3-0.2,0.6-0.3,0.9c-0.1,0.3-0.4,0.6-0.6,0.9s-0.6,0.5-1,0.6c-0.4,0.2-1,0.3-1.6,0.3
		c-0.7,0-1.2-0.1-1.7-0.3c-0.5-0.2-0.8-0.4-1.2-0.7c-0.3-0.3-0.5-0.6-0.7-0.9c-0.2-0.3-0.3-0.7-0.4-1c-0.1-0.3-0.1-0.6-0.1-0.9
		c0-0.3,0-0.5,0-0.6c0-0.2,0-0.4,0-0.7c0-0.3,0.1-0.6,0.2-0.9c0.1-0.3,0.2-0.7,0.4-1c0.2-0.3,0.4-0.6,0.7-0.9
		c0.3-0.3,0.7-0.5,1.1-0.6s1-0.2,1.6-0.2c0.8,0,1.5,0.1,1.9,0.4c0.5,0.3,0.9,0.6,1.1,1.1c0.3,0.4,0.4,0.9,0.5,1.4
		c0.1,0.5,0.1,1,0.2,1.4c0,0.1,0,0.1,0,0.2c0,0.1,0,0.1,0,0.2h-6.2c0,0.4,0,0.7,0.1,1.1c0.1,0.4,0.2,0.7,0.4,1
		c0.2,0.3,0.5,0.5,0.8,0.7c0.3,0.2,0.7,0.3,1.2,0.3c0.3,0,0.6,0,0.9-0.1c0.3-0.1,0.5-0.2,0.7-0.4c0.2-0.2,0.3-0.3,0.4-0.5
		c0.1-0.2,0.2-0.4,0.2-0.6H1422.8z M1421.4,238.5c0-0.3,0-0.6-0.1-0.9c-0.1-0.3-0.2-0.6-0.3-0.9c-0.2-0.3-0.4-0.5-0.7-0.7
		c-0.3-0.2-0.7-0.3-1.1-0.3c-0.5,0-0.9,0.1-1.3,0.3c-0.3,0.2-0.6,0.4-0.8,0.7c-0.2,0.3-0.3,0.6-0.4,0.9c-0.1,0.3-0.1,0.6-0.1,0.9
		H1421.4z"/>
	<path fill="#FFFFFF" d="M1430.2,233.9L1430.2,233.9v0.4v9h-1.5v-11.2h2.3l3.5,9.2l3.5-9.2h2.3v11.2h-1.5v-9l0-0.4h0l-3.6,9.4h-1.2
		L1430.2,233.9z"/>
	<path fill="#FFFFFF" d="M1442.4,237.5c0-0.3,0-0.6,0.1-0.9c0.1-0.3,0.3-0.6,0.5-0.9c0.3-0.3,0.6-0.5,1.1-0.7c0.5-0.2,1-0.3,1.8-0.3
		c0.3,0,0.7,0,1.1,0.1c0.4,0.1,0.7,0.2,1.1,0.4c0.3,0.2,0.6,0.5,0.8,0.8c0.2,0.4,0.3,0.8,0.3,1.4l-0.1,3.8c0,0.2,0,0.3,0,0.4
		c0,0.1,0,0.2,0.1,0.3c0.1,0.1,0.1,0.1,0.3,0.2c0.1,0,0.3,0.1,0.5,0v1c-0.1,0-0.2,0-0.3,0c-0.1,0-0.2,0-0.4,0c-0.2,0-0.4,0-0.5,0
		c-0.2,0-0.3-0.1-0.4-0.2c-0.1-0.1-0.2-0.2-0.3-0.4c-0.1-0.2-0.1-0.4-0.2-0.6c-0.1,0.3-0.3,0.5-0.5,0.7c-0.2,0.2-0.4,0.3-0.7,0.4
		c-0.2,0.1-0.5,0.2-0.8,0.3c-0.3,0.1-0.5,0.1-0.8,0.1c-0.9,0-1.5-0.2-2.1-0.6c-0.5-0.4-0.8-1-0.8-1.9c0-0.4,0.1-0.7,0.2-1
		c0.1-0.3,0.3-0.5,0.6-0.8c0.3-0.2,0.7-0.4,1.2-0.5s1.2-0.3,2-0.3c0.3,0,0.5,0,0.8-0.1c0.2,0,0.4-0.1,0.5-0.1
		c0.1-0.1,0.2-0.2,0.3-0.3c0.1-0.1,0.1-0.3,0.1-0.6c0-0.1,0-0.2,0-0.4c0-0.2-0.1-0.4-0.2-0.5c-0.1-0.2-0.3-0.3-0.5-0.5
		c-0.2-0.1-0.6-0.2-1-0.2c-0.1,0-0.3,0-0.6,0c-0.2,0-0.5,0.1-0.7,0.2c-0.2,0.1-0.4,0.3-0.6,0.5c-0.2,0.2-0.3,0.6-0.2,1H1442.4z
		 M1447.7,239.1c-0.1,0.1-0.2,0.1-0.3,0.2c-0.1,0-0.2,0.1-0.4,0.1c-0.1,0-0.3,0-0.5,0.1c-0.2,0-0.4,0-0.6,0.1
		c-0.3,0.1-0.6,0.1-0.9,0.2c-0.3,0-0.5,0.1-0.7,0.2c-0.2,0.1-0.4,0.2-0.5,0.4c-0.1,0.2-0.2,0.4-0.2,0.8c0,0.5,0.1,0.8,0.4,1.1
		c0.3,0.3,0.7,0.4,1.1,0.4c0.3,0,0.6,0,0.8-0.1c0.3-0.1,0.5-0.2,0.8-0.4c0.2-0.2,0.4-0.5,0.6-0.9c0.2-0.4,0.3-0.8,0.3-1.4
		L1447.7,239.1z"/>
	<path fill="#FFFFFF" d="M1452.9,235.1v1.1c0.3-0.4,0.6-0.7,1.1-1s1-0.4,1.7-0.4c0.5,0,1,0.1,1.3,0.2c0.3,0.2,0.6,0.4,0.8,0.7
		c0.2,0.3,0.3,0.6,0.4,1c0.1,0.4,0.1,0.8,0.1,1.2v5.4h-1.4v-5c0-0.2,0-0.5,0-0.8c0-0.3-0.1-0.6-0.2-0.8c-0.1-0.3-0.3-0.5-0.5-0.6
		c-0.2-0.2-0.6-0.3-1-0.3c-0.2,0-0.4,0-0.7,0.1c-0.3,0.1-0.5,0.2-0.8,0.4c-0.2,0.2-0.5,0.5-0.6,0.9c-0.2,0.4-0.3,0.9-0.3,1.6v4.4
		h-1.4v-8.1H1452.9z"/>
	<path fill="#FFFFFF" d="M1460.4,237.5c0-0.3,0-0.6,0.1-0.9c0.1-0.3,0.3-0.6,0.5-0.9c0.3-0.3,0.6-0.5,1.1-0.7c0.5-0.2,1-0.3,1.8-0.3
		c0.3,0,0.7,0,1.1,0.1c0.4,0.1,0.7,0.2,1.1,0.4c0.3,0.2,0.6,0.5,0.8,0.8c0.2,0.4,0.3,0.8,0.3,1.4l-0.1,3.8c0,0.2,0,0.3,0,0.4
		c0,0.1,0,0.2,0.1,0.3c0.1,0.1,0.1,0.1,0.3,0.2c0.1,0,0.3,0.1,0.5,0v1c-0.1,0-0.2,0-0.3,0c-0.1,0-0.2,0-0.4,0c-0.2,0-0.4,0-0.5,0
		c-0.2,0-0.3-0.1-0.4-0.2c-0.1-0.1-0.2-0.2-0.3-0.4c-0.1-0.2-0.1-0.4-0.2-0.6c-0.1,0.3-0.3,0.5-0.5,0.7c-0.2,0.2-0.4,0.3-0.7,0.4
		c-0.2,0.1-0.5,0.2-0.8,0.3c-0.3,0.1-0.5,0.1-0.8,0.1c-0.9,0-1.5-0.2-2.1-0.6c-0.5-0.4-0.8-1-0.8-1.9c0-0.4,0.1-0.7,0.2-1
		c0.1-0.3,0.3-0.5,0.6-0.8c0.3-0.2,0.7-0.4,1.2-0.5s1.2-0.3,2-0.3c0.3,0,0.5,0,0.8-0.1c0.2,0,0.4-0.1,0.5-0.1
		c0.1-0.1,0.2-0.2,0.3-0.3c0.1-0.1,0.1-0.3,0.1-0.6c0-0.1,0-0.2,0-0.4c0-0.2-0.1-0.4-0.2-0.5c-0.1-0.2-0.3-0.3-0.5-0.5
		c-0.2-0.1-0.6-0.2-1-0.2c-0.1,0-0.3,0-0.6,0c-0.2,0-0.5,0.1-0.7,0.2c-0.2,0.1-0.4,0.3-0.6,0.5c-0.2,0.2-0.3,0.6-0.2,1H1460.4z
		 M1465.7,239.1c-0.1,0.1-0.2,0.1-0.3,0.2c-0.1,0-0.2,0.1-0.4,0.1c-0.1,0-0.3,0-0.5,0.1c-0.2,0-0.4,0-0.6,0.1
		c-0.3,0.1-0.6,0.1-0.9,0.2c-0.3,0-0.5,0.1-0.7,0.2c-0.2,0.1-0.4,0.2-0.5,0.4c-0.1,0.2-0.2,0.4-0.2,0.8c0,0.5,0.1,0.8,0.4,1.1
		c0.3,0.3,0.7,0.4,1.1,0.4c0.3,0,0.6,0,0.8-0.1c0.3-0.1,0.5-0.2,0.8-0.4c0.2-0.2,0.4-0.5,0.6-0.9c0.2-0.4,0.3-0.8,0.3-1.4
		L1465.7,239.1z"/>
	<path fill="#FFFFFF" d="M1471,244.2c0.1,0.2,0.2,0.4,0.3,0.6c0.1,0.2,0.3,0.3,0.5,0.4s0.4,0.2,0.6,0.2c0.2,0,0.5,0,0.7,0
		c0.6,0,1-0.1,1.3-0.3c0.3-0.2,0.5-0.5,0.7-0.8c0.1-0.3,0.2-0.6,0.3-0.9c0-0.3,0-0.5,0-0.6v-0.9c-0.2,0.3-0.4,0.6-0.6,0.8
		c-0.2,0.2-0.4,0.4-0.6,0.5c-0.2,0.1-0.4,0.2-0.7,0.3c-0.2,0.1-0.5,0.1-0.8,0.1c-0.5,0-0.9-0.1-1.4-0.3c-0.4-0.2-0.8-0.4-1.2-0.8
		s-0.6-0.8-0.8-1.4s-0.3-1.2-0.3-2c0-0.1,0-0.3,0-0.6c0-0.3,0-0.6,0.1-0.9c0.1-0.3,0.2-0.6,0.3-1c0.1-0.3,0.3-0.6,0.6-0.9
		c0.3-0.3,0.6-0.5,1-0.7c0.4-0.2,0.9-0.3,1.5-0.3c0.7,0,1.2,0.1,1.7,0.4c0.5,0.2,0.8,0.6,1.1,1.1h0v-1.1h1.3v7.9
		c0,0.5-0.1,1-0.2,1.3s-0.3,0.7-0.6,0.9c-0.2,0.2-0.5,0.4-0.8,0.6s-0.6,0.2-0.8,0.3c-0.3,0.1-0.5,0.1-0.8,0.1c-0.2,0-0.4,0-0.5,0
		c-0.2,0-0.5,0-0.8,0c-0.3,0-0.7-0.1-1-0.2s-0.7-0.3-1-0.6c-0.3-0.3-0.5-0.7-0.6-1.3H1471z M1473.1,242.6c0.1,0,0.3,0,0.6-0.1
		c0.3-0.1,0.5-0.2,0.8-0.5s0.5-0.6,0.7-1c0.2-0.5,0.3-1.1,0.3-1.9c0-1-0.2-1.8-0.6-2.4c-0.4-0.6-1.1-0.9-1.9-0.9
		c-0.4,0-0.7,0.1-1,0.2c-0.3,0.1-0.5,0.3-0.7,0.5c-0.2,0.2-0.3,0.4-0.4,0.7c-0.1,0.3-0.2,0.5-0.2,0.7c0,0.2-0.1,0.5-0.1,0.7
		s0,0.4,0,0.5c0,0.8,0.1,1.5,0.3,1.9c0.2,0.5,0.4,0.8,0.7,1c0.3,0.2,0.5,0.4,0.8,0.4C1472.7,242.6,1472.9,242.6,1473.1,242.6z"/>
	<path fill="#FFFFFF" d="M1486.3,240.9c-0.1,0.3-0.2,0.6-0.3,0.9c-0.1,0.3-0.4,0.6-0.6,0.9s-0.6,0.5-1,0.6c-0.4,0.2-1,0.3-1.6,0.3
		c-0.7,0-1.2-0.1-1.7-0.3c-0.5-0.2-0.8-0.4-1.2-0.7c-0.3-0.3-0.5-0.6-0.7-0.9c-0.2-0.3-0.3-0.7-0.4-1c-0.1-0.3-0.1-0.6-0.1-0.9
		c0-0.3,0-0.5,0-0.6c0-0.2,0-0.4,0-0.7c0-0.3,0.1-0.6,0.2-0.9c0.1-0.3,0.2-0.7,0.4-1c0.2-0.3,0.4-0.6,0.7-0.9
		c0.3-0.3,0.7-0.5,1.1-0.6s1-0.2,1.6-0.2c0.8,0,1.5,0.1,1.9,0.4c0.5,0.3,0.9,0.6,1.1,1.1c0.3,0.4,0.4,0.9,0.5,1.4
		c0.1,0.5,0.1,1,0.2,1.4c0,0.1,0,0.1,0,0.2c0,0.1,0,0.1,0,0.2h-6.2c0,0.4,0,0.7,0.1,1.1c0.1,0.4,0.2,0.7,0.4,1
		c0.2,0.3,0.5,0.5,0.8,0.7c0.3,0.2,0.7,0.3,1.2,0.3c0.3,0,0.6,0,0.9-0.1c0.3-0.1,0.5-0.2,0.7-0.4c0.2-0.2,0.3-0.3,0.4-0.5
		c0.1-0.2,0.2-0.4,0.2-0.6H1486.3z M1484.9,238.5c0-0.3,0-0.6-0.1-0.9c-0.1-0.3-0.2-0.6-0.3-0.9c-0.2-0.3-0.4-0.5-0.7-0.7
		c-0.3-0.2-0.7-0.3-1.1-0.3c-0.5,0-0.9,0.1-1.3,0.3c-0.3,0.2-0.6,0.4-0.8,0.7c-0.2,0.3-0.3,0.6-0.4,0.9c-0.1,0.3-0.1,0.6-0.1,0.9
		H1484.9z"/>
	<path fill="#FFFFFF" d="M1489.6,235.1v1.1l0,0.1c0.1-0.2,0.3-0.4,0.4-0.6c0.2-0.2,0.4-0.3,0.6-0.5c0.2-0.1,0.5-0.2,0.7-0.3
		c0.3-0.1,0.5-0.1,0.8-0.1c0.4,0,0.7,0.1,0.9,0.2c0.3,0.1,0.5,0.2,0.7,0.4c0.2,0.2,0.3,0.4,0.5,0.6c0.1,0.2,0.2,0.4,0.3,0.6
		c0.1-0.2,0.2-0.3,0.3-0.5c0.1-0.2,0.3-0.4,0.6-0.6c0.2-0.2,0.5-0.3,0.8-0.5c0.3-0.1,0.7-0.2,1.1-0.2c0.6,0,1.1,0.1,1.5,0.4
		s0.6,0.5,0.8,0.9c0.2,0.3,0.3,0.7,0.3,1.1c0,0.4,0.1,0.7,0.1,0.9v5.2h-1.4v-5.1c0-0.2,0-0.5,0-0.7c0-0.3-0.1-0.5-0.2-0.8
		c-0.1-0.2-0.3-0.4-0.5-0.6c-0.2-0.2-0.5-0.2-0.9-0.2c-0.2,0-0.5,0-0.7,0.1c-0.3,0.1-0.5,0.2-0.7,0.4s-0.4,0.5-0.5,0.8
		c-0.1,0.3-0.2,0.8-0.2,1.3v4.8h-1.4v-5.1c0-0.3,0-0.6-0.1-0.9c0-0.3-0.1-0.5-0.2-0.7c-0.1-0.2-0.3-0.4-0.5-0.5
		c-0.2-0.1-0.5-0.2-0.8-0.2c-0.3,0-0.6,0.1-0.8,0.2c-0.3,0.1-0.5,0.3-0.7,0.5c-0.2,0.2-0.4,0.5-0.5,0.8c-0.1,0.3-0.2,0.7-0.2,1.1
		v4.8h-1.4v-8.1H1489.6z"/>
	<path fill="#FFFFFF" d="M1509.3,240.9c-0.1,0.3-0.2,0.6-0.3,0.9c-0.1,0.3-0.4,0.6-0.6,0.9s-0.6,0.5-1,0.6c-0.4,0.2-1,0.3-1.6,0.3
		c-0.7,0-1.2-0.1-1.7-0.3c-0.5-0.2-0.8-0.4-1.2-0.7c-0.3-0.3-0.5-0.6-0.7-0.9c-0.2-0.3-0.3-0.7-0.4-1c-0.1-0.3-0.1-0.6-0.1-0.9
		c0-0.3,0-0.5,0-0.6c0-0.2,0-0.4,0-0.7c0-0.3,0.1-0.6,0.2-0.9c0.1-0.3,0.2-0.7,0.4-1c0.2-0.3,0.4-0.6,0.7-0.9
		c0.3-0.3,0.7-0.5,1.1-0.6s1-0.2,1.6-0.2c0.8,0,1.5,0.1,1.9,0.4c0.5,0.3,0.9,0.6,1.1,1.1c0.3,0.4,0.4,0.9,0.5,1.4
		c0.1,0.5,0.1,1,0.2,1.4c0,0.1,0,0.1,0,0.2c0,0.1,0,0.1,0,0.2h-6.2c0,0.4,0,0.7,0.1,1.1c0.1,0.4,0.2,0.7,0.4,1
		c0.2,0.3,0.5,0.5,0.8,0.7c0.3,0.2,0.7,0.3,1.2,0.3c0.3,0,0.6,0,0.9-0.1c0.3-0.1,0.5-0.2,0.7-0.4c0.2-0.2,0.3-0.3,0.4-0.5
		c0.1-0.2,0.2-0.4,0.2-0.6H1509.3z M1507.9,238.5c0-0.3,0-0.6-0.1-0.9c-0.1-0.3-0.2-0.6-0.3-0.9c-0.2-0.3-0.4-0.5-0.7-0.7
		c-0.3-0.2-0.7-0.3-1.1-0.3c-0.5,0-0.9,0.1-1.3,0.3c-0.3,0.2-0.6,0.4-0.8,0.7c-0.2,0.3-0.3,0.6-0.4,0.9c-0.1,0.3-0.1,0.6-0.1,0.9
		H1507.9z"/>
	<path fill="#FFFFFF" d="M1512.7,235.1v1.1c0.3-0.4,0.6-0.7,1.1-1s1-0.4,1.7-0.4c0.5,0,1,0.1,1.3,0.2c0.3,0.2,0.6,0.4,0.8,0.7
		c0.2,0.3,0.3,0.6,0.4,1c0.1,0.4,0.1,0.8,0.1,1.2v5.4h-1.4v-5c0-0.2,0-0.5,0-0.8c0-0.3-0.1-0.6-0.2-0.8c-0.1-0.3-0.3-0.5-0.5-0.6
		c-0.2-0.2-0.6-0.3-1-0.3c-0.2,0-0.4,0-0.7,0.1c-0.3,0.1-0.5,0.2-0.8,0.4c-0.2,0.2-0.5,0.5-0.6,0.9c-0.2,0.4-0.3,0.9-0.3,1.6v4.4
		h-1.4v-8.1H1512.7z"/>
	<path fill="#FFFFFF" d="M1520.9,235.1v-2.4h1.4v2.4h1.7v1h-1.7v5.2c0,0.1,0,0.3,0,0.4c0,0.1,0,0.3,0.1,0.4s0.1,0.2,0.2,0.2
		c0.1,0.1,0.3,0.1,0.5,0.1c0.1,0,0.3,0,0.4,0c0.1,0,0.3-0.1,0.4-0.1v1c-0.2,0.1-0.5,0.2-0.7,0.2c-0.3,0.1-0.5,0.1-0.8,0.1
		c-0.4,0-0.7-0.1-1-0.2c-0.2-0.1-0.4-0.3-0.5-0.5c-0.1-0.2-0.2-0.4-0.2-0.6c0-0.2,0-0.5,0-0.7v-5.4h-1.5v-1H1520.9z"/>
</g>
<path fill="#989898" d="M1041.2,304c-0.1,0.4-0.2,0.8-0.3,1.3c-0.2,0.5-0.4,0.9-0.8,1.3c-0.4,0.4-0.8,0.7-1.4,1
	c-0.6,0.3-1.3,0.4-2.2,0.4c-0.8,0-1.6-0.1-2.2-0.4c-0.7-0.3-1.2-0.6-1.7-1.1c-0.5-0.5-0.8-1.1-1-1.8c-0.2-0.7-0.4-1.5-0.4-2.4
	c0-1,0.1-1.8,0.3-2.5c0.2-0.7,0.5-1.3,0.8-1.7c0.3-0.5,0.7-0.8,1.1-1.1c0.4-0.3,0.8-0.4,1.2-0.6c0.4-0.1,0.7-0.2,1.1-0.2
	c0.3,0,0.6,0,0.7,0c0.9,0,1.6,0.1,2.2,0.4c0.6,0.2,1,0.5,1.4,0.9c0.3,0.4,0.6,0.8,0.8,1.2c0.2,0.4,0.3,0.9,0.3,1.3h-1.5
	c0-0.2-0.1-0.4-0.2-0.7c-0.1-0.3-0.2-0.6-0.5-0.8c-0.2-0.3-0.5-0.5-0.9-0.7c-0.4-0.2-0.9-0.3-1.6-0.3c-0.7,0-1.3,0.1-1.8,0.4
	c-0.5,0.3-0.8,0.6-1.1,1.1c-0.3,0.4-0.5,1-0.6,1.5c-0.1,0.6-0.2,1.2-0.2,1.8c0,0.6,0.1,1.3,0.3,1.8c0.2,0.6,0.4,1,0.8,1.4
	c0.3,0.4,0.7,0.7,1.2,1c0.5,0.2,1,0.3,1.6,0.3c0.4,0,0.9-0.1,1.2-0.2c0.4-0.1,0.7-0.3,1-0.6c0.3-0.3,0.5-0.5,0.7-0.9
	c0.2-0.3,0.3-0.7,0.3-1.1H1041.2z"/>
<path fill="#989898" d="M1042.5,303.6c0-0.5,0.1-1.1,0.2-1.6c0.1-0.5,0.4-1,0.7-1.4c0.3-0.4,0.7-0.7,1.2-1c0.5-0.3,1.1-0.4,1.9-0.4
	c0.7,0,1.4,0.1,1.9,0.4c0.5,0.3,0.9,0.6,1.2,1c0.3,0.4,0.5,0.9,0.7,1.4c0.1,0.5,0.2,1.1,0.2,1.6c0,0.5-0.1,1.1-0.2,1.6
	c-0.1,0.5-0.4,1-0.7,1.4c-0.3,0.4-0.7,0.7-1.2,1c-0.5,0.3-1.1,0.4-1.9,0.4c-0.7,0-1.4-0.1-1.9-0.4c-0.5-0.3-0.9-0.6-1.2-1
	c-0.3-0.4-0.5-0.9-0.7-1.4C1042.5,304.7,1042.5,304.1,1042.5,303.6z M1043.9,303.6c0,0.8,0.1,1.4,0.3,1.9c0.2,0.5,0.4,0.8,0.7,1
	s0.6,0.4,0.8,0.4c0.3,0,0.5,0.1,0.7,0.1c0.2,0,0.4,0,0.7-0.1c0.3,0,0.6-0.2,0.8-0.4s0.5-0.6,0.7-1c0.2-0.5,0.3-1.1,0.3-1.9
	c0-0.8-0.1-1.4-0.3-1.9c-0.2-0.5-0.4-0.8-0.7-1s-0.6-0.4-0.8-0.4c-0.3,0-0.5-0.1-0.7-0.1c-0.2,0-0.4,0-0.7,0.1
	c-0.3,0-0.6,0.2-0.8,0.4s-0.5,0.6-0.7,1C1044,302.2,1043.9,302.8,1043.9,303.6z"/>
<path fill="#989898" d="M1053.7,299.5v1.1c0.3-0.4,0.7-0.7,1.1-1c0.5-0.3,1-0.4,1.7-0.4c0.5,0,1,0.1,1.3,0.2
	c0.3,0.2,0.6,0.4,0.8,0.7c0.2,0.3,0.3,0.6,0.4,1c0.1,0.4,0.1,0.8,0.1,1.2v5.4h-1.4v-5c0-0.2,0-0.5,0-0.8s-0.1-0.6-0.2-0.8
	c-0.1-0.3-0.3-0.5-0.5-0.6c-0.2-0.2-0.6-0.3-1-0.3c-0.2,0-0.4,0-0.7,0.1c-0.3,0.1-0.5,0.2-0.8,0.4c-0.2,0.2-0.5,0.5-0.6,0.9
	c-0.2,0.4-0.3,0.9-0.3,1.6v4.4h-1.4v-8.1H1053.7z"/>
<path fill="#989898" d="M1061.9,299.5v-2.4h1.4v2.4h1.7v1h-1.7v5.2c0,0.1,0,0.3,0,0.4c0,0.1,0,0.3,0.1,0.4c0,0.1,0.1,0.2,0.2,0.2
	c0.1,0.1,0.3,0.1,0.5,0.1c0.1,0,0.3,0,0.4,0c0.1,0,0.3-0.1,0.4-0.1v1c-0.2,0.1-0.5,0.2-0.7,0.2c-0.3,0.1-0.5,0.1-0.8,0.1
	c-0.4,0-0.7-0.1-1-0.2c-0.2-0.1-0.4-0.3-0.5-0.5c-0.1-0.2-0.2-0.4-0.2-0.6c0-0.2,0-0.5,0-0.7v-5.4h-1.5v-1H1061.9z"/>
<path fill="#989898" d="M1066.5,296.5h1.4v1.5h-1.4V296.5z M1067.9,299.5v8.1h-1.4v-8.1H1067.9z"/>
<path fill="#989898" d="M1071.6,299.5v1.1c0.3-0.4,0.7-0.7,1.1-1c0.5-0.3,1-0.4,1.7-0.4c0.5,0,1,0.1,1.3,0.2
	c0.3,0.2,0.6,0.4,0.8,0.7c0.2,0.3,0.3,0.6,0.4,1c0.1,0.4,0.1,0.8,0.1,1.2v5.4h-1.4v-5c0-0.2,0-0.5,0-0.8s-0.1-0.6-0.2-0.8
	c-0.1-0.3-0.3-0.5-0.5-0.6c-0.2-0.2-0.6-0.3-1-0.3c-0.2,0-0.4,0-0.7,0.1c-0.3,0.1-0.5,0.2-0.8,0.4c-0.2,0.2-0.5,0.5-0.6,0.9
	c-0.2,0.4-0.3,0.9-0.3,1.6v4.4h-1.4v-8.1H1071.6z"/>
<path fill="#989898" d="M1084.8,307.7v-1.2h0c-0.2,0.4-0.4,0.6-0.7,0.8c-0.3,0.2-0.6,0.3-0.8,0.4c-0.3,0.1-0.5,0.2-0.7,0.2
	c-0.2,0-0.4,0-0.4,0c-0.6,0-1.1-0.1-1.4-0.3s-0.6-0.5-0.8-0.8s-0.3-0.6-0.4-1c-0.1-0.4-0.1-0.7-0.1-1v-5.4h1.4v5
	c0,0.5,0,0.9,0.1,1.2c0.1,0.3,0.2,0.6,0.4,0.8c0.1,0.2,0.3,0.3,0.5,0.4c0.2,0.1,0.4,0.1,0.7,0.1c0.6,0,1-0.1,1.4-0.4
	c0.3-0.3,0.6-0.6,0.7-0.9c0.1-0.3,0.2-0.7,0.2-1c0-0.3,0-0.6,0-0.7v-4.4h1.4v8.1H1084.8z"/>
<path fill="#989898" d="M1088,303.6c0-0.5,0.1-1.1,0.2-1.6c0.1-0.5,0.4-1,0.7-1.4c0.3-0.4,0.7-0.7,1.2-1c0.5-0.3,1.1-0.4,1.9-0.4
	c0.7,0,1.4,0.1,1.9,0.4c0.5,0.3,0.9,0.6,1.2,1c0.3,0.4,0.5,0.9,0.7,1.4c0.1,0.5,0.2,1.1,0.2,1.6c0,0.5-0.1,1.1-0.2,1.6
	c-0.1,0.5-0.4,1-0.7,1.4c-0.3,0.4-0.7,0.7-1.2,1c-0.5,0.3-1.1,0.4-1.9,0.4c-0.7,0-1.4-0.1-1.9-0.4c-0.5-0.3-0.9-0.6-1.2-1
	c-0.3-0.4-0.5-0.9-0.7-1.4C1088.1,304.7,1088,304.1,1088,303.6z M1089.5,303.6c0,0.8,0.1,1.4,0.3,1.9s0.4,0.8,0.7,1s0.6,0.4,0.8,0.4
	c0.3,0,0.5,0.1,0.7,0.1c0.2,0,0.4,0,0.7-0.1c0.3,0,0.6-0.2,0.8-0.4s0.5-0.6,0.7-1c0.2-0.5,0.3-1.1,0.3-1.9c0-0.8-0.1-1.4-0.3-1.9
	c-0.2-0.5-0.4-0.8-0.7-1s-0.6-0.4-0.8-0.4c-0.3,0-0.5-0.1-0.7-0.1c-0.2,0-0.4,0-0.7,0.1c-0.3,0-0.6,0.2-0.8,0.4s-0.5,0.6-0.7,1
	S1089.5,302.8,1089.5,303.6z"/>
<path fill="#989898" d="M1103.3,307.7v-1.2h0c-0.2,0.4-0.4,0.6-0.7,0.8c-0.3,0.2-0.6,0.3-0.8,0.4c-0.3,0.1-0.5,0.2-0.7,0.2
	c-0.2,0-0.4,0-0.4,0c-0.6,0-1.1-0.1-1.4-0.3s-0.6-0.5-0.8-0.8s-0.3-0.6-0.4-1c-0.1-0.4-0.1-0.7-0.1-1v-5.4h1.4v5
	c0,0.5,0,0.9,0.1,1.2c0.1,0.3,0.2,0.6,0.4,0.8c0.1,0.2,0.3,0.3,0.5,0.4c0.2,0.1,0.4,0.1,0.7,0.1c0.6,0,1-0.1,1.4-0.4
	c0.3-0.3,0.6-0.6,0.7-0.9c0.1-0.3,0.2-0.7,0.2-1c0-0.3,0-0.6,0-0.7v-4.4h1.4v8.1H1103.3z"/>
<path fill="#989898" d="M1107.9,305.2c0,0.3,0.1,0.6,0.2,0.8c0.1,0.2,0.3,0.4,0.5,0.5c0.2,0.1,0.4,0.2,0.7,0.3
	c0.3,0.1,0.5,0.1,0.8,0.1c0.5,0,0.8-0.1,1.1-0.2c0.3-0.1,0.4-0.3,0.6-0.4c0.1-0.2,0.2-0.3,0.2-0.5c0-0.2,0-0.3,0-0.4
	c0-0.1,0-0.3,0-0.4c0-0.1-0.1-0.2-0.2-0.4c-0.1-0.1-0.3-0.2-0.5-0.3c-0.2-0.1-0.5-0.2-0.9-0.3l-0.9-0.2c-0.3-0.1-0.7-0.2-1-0.3
	c-0.3-0.1-0.6-0.2-0.8-0.4c-0.2-0.2-0.4-0.4-0.6-0.7c-0.1-0.3-0.2-0.6-0.2-1c0-0.4,0.1-0.8,0.3-1.1c0.2-0.3,0.4-0.5,0.7-0.7
	c0.3-0.2,0.6-0.3,1-0.4s0.7-0.1,1.1-0.1c0.7,0,1.2,0.1,1.7,0.3c0.4,0.2,0.7,0.4,1,0.6c0.2,0.3,0.4,0.5,0.5,0.8
	c0.1,0.3,0.1,0.5,0.2,0.8h-1.3c0-0.1,0-0.3-0.1-0.4c0-0.2-0.1-0.3-0.3-0.5c-0.1-0.2-0.3-0.3-0.6-0.4c-0.2-0.1-0.6-0.2-1-0.2
	c0,0-0.2,0-0.3,0c-0.2,0-0.4,0.1-0.6,0.1c-0.2,0.1-0.4,0.2-0.5,0.4c-0.2,0.2-0.2,0.4-0.2,0.7c0,0.3,0.1,0.5,0.2,0.7
	c0.1,0.2,0.3,0.3,0.5,0.4c0.2,0.1,0.4,0.2,0.7,0.2c0.3,0.1,0.6,0.1,0.8,0.2c0.4,0.1,0.8,0.2,1.2,0.3c0.4,0.1,0.7,0.2,0.9,0.4
	c0.3,0.2,0.5,0.4,0.6,0.6c0.1,0.3,0.2,0.6,0.2,1c0,0.4-0.1,0.8-0.2,1.1c-0.1,0.3-0.3,0.5-0.6,0.7c-0.2,0.2-0.5,0.3-0.7,0.5
	c-0.3,0.1-0.5,0.2-0.8,0.2c-0.3,0.1-0.5,0.1-0.7,0.1c-0.2,0-0.3,0-0.4,0c-0.6,0-1.1-0.1-1.6-0.2c-0.4-0.1-0.8-0.3-1.1-0.6
	c-0.3-0.3-0.5-0.5-0.7-0.9c-0.1-0.3-0.2-0.7-0.2-1.1H1107.9z"/>
<path fill="#989898" d="M1120.5,296.5v11.2h-1.5v-11.2H1120.5z"/>
<path fill="#989898" d="M1124.5,299.5v1.1c0.3-0.4,0.6-0.7,1.1-1c0.5-0.3,1-0.4,1.7-0.4c0.5,0,1,0.1,1.3,0.2
	c0.3,0.2,0.6,0.4,0.8,0.7c0.2,0.3,0.3,0.6,0.4,1c0.1,0.4,0.1,0.8,0.1,1.2v5.4h-1.4v-5c0-0.2,0-0.5,0-0.8c0-0.3-0.1-0.6-0.2-0.8
	c-0.1-0.3-0.3-0.5-0.5-0.6c-0.2-0.2-0.6-0.3-1-0.3c-0.2,0-0.4,0-0.7,0.1c-0.3,0.1-0.5,0.2-0.8,0.4c-0.2,0.2-0.5,0.5-0.6,0.9
	c-0.2,0.4-0.3,0.9-0.3,1.6v4.4h-1.4v-8.1H1124.5z"/>
<path fill="#989898" d="M1132.7,299.5v-2.4h1.4v2.4h1.7v1h-1.7v5.2c0,0.1,0,0.3,0,0.4c0,0.1,0,0.3,0.1,0.4c0,0.1,0.1,0.2,0.2,0.2
	c0.1,0.1,0.3,0.1,0.5,0.1c0.1,0,0.3,0,0.4,0c0.1,0,0.3-0.1,0.4-0.1v1c-0.2,0.1-0.5,0.2-0.7,0.2c-0.3,0.1-0.5,0.1-0.8,0.1
	c-0.4,0-0.7-0.1-1-0.2c-0.2-0.1-0.4-0.3-0.5-0.5c-0.1-0.2-0.2-0.4-0.2-0.6c0-0.2,0-0.5,0-0.7v-5.4h-1.5v-1H1132.7z"/>
<path fill="#989898" d="M1144.5,305.3c-0.1,0.3-0.2,0.6-0.3,0.9c-0.1,0.3-0.4,0.6-0.6,0.9s-0.6,0.5-1,0.6c-0.4,0.2-1,0.3-1.6,0.3
	c-0.7,0-1.2-0.1-1.7-0.3c-0.5-0.2-0.8-0.4-1.2-0.7c-0.3-0.3-0.5-0.6-0.7-0.9c-0.2-0.3-0.3-0.7-0.4-1c-0.1-0.3-0.1-0.6-0.1-0.9
	c0-0.3,0-0.5,0-0.6c0-0.2,0-0.4,0-0.7c0-0.3,0.1-0.6,0.2-0.9c0.1-0.3,0.2-0.7,0.4-1c0.2-0.3,0.4-0.6,0.7-0.9s0.7-0.5,1.1-0.6
	c0.4-0.2,1-0.2,1.6-0.2c0.8,0,1.5,0.1,1.9,0.4c0.5,0.3,0.9,0.6,1.1,1.1c0.3,0.4,0.4,0.9,0.5,1.4c0.1,0.5,0.1,1,0.2,1.4
	c0,0.1,0,0.1,0,0.2c0,0.1,0,0.1,0,0.2h-6.2c0,0.4,0,0.7,0.1,1.1c0.1,0.4,0.2,0.7,0.4,1c0.2,0.3,0.5,0.5,0.8,0.7
	c0.3,0.2,0.7,0.3,1.2,0.3c0.3,0,0.6,0,0.9-0.1c0.3-0.1,0.5-0.2,0.7-0.4c0.2-0.2,0.3-0.3,0.4-0.5c0.1-0.2,0.2-0.4,0.2-0.6H1144.5z
	 M1143.1,302.9c0-0.3,0-0.6-0.1-0.9c-0.1-0.3-0.2-0.6-0.3-0.9c-0.2-0.3-0.4-0.5-0.7-0.7c-0.3-0.2-0.7-0.3-1.1-0.3
	c-0.5,0-0.9,0.1-1.3,0.3c-0.3,0.2-0.6,0.4-0.8,0.7s-0.3,0.6-0.4,0.9c-0.1,0.3-0.1,0.6-0.1,0.9H1143.1z"/>
<path fill="#989898" d="M1147.9,308.6c0.1,0.2,0.2,0.4,0.3,0.6c0.1,0.2,0.3,0.3,0.5,0.4c0.2,0.1,0.4,0.2,0.6,0.2c0.2,0,0.5,0,0.7,0
	c0.6,0,1-0.1,1.3-0.3c0.3-0.2,0.5-0.5,0.7-0.8c0.1-0.3,0.2-0.6,0.3-0.9c0-0.3,0-0.5,0-0.6v-0.9c-0.2,0.3-0.4,0.6-0.6,0.8
	c-0.2,0.2-0.4,0.4-0.6,0.5c-0.2,0.1-0.4,0.2-0.7,0.3c-0.2,0.1-0.5,0.1-0.8,0.1c-0.5,0-0.9-0.1-1.4-0.3c-0.4-0.2-0.8-0.4-1.2-0.8
	s-0.6-0.8-0.8-1.4c-0.2-0.6-0.3-1.2-0.3-2c0-0.1,0-0.3,0-0.6c0-0.3,0-0.6,0.1-0.9c0.1-0.3,0.2-0.6,0.3-1c0.1-0.3,0.3-0.6,0.6-0.9
	c0.3-0.3,0.6-0.5,1-0.7c0.4-0.2,0.9-0.3,1.5-0.3c0.7,0,1.2,0.1,1.7,0.4c0.5,0.2,0.8,0.6,1.1,1.1h0v-1.1h1.3v7.9c0,0.5-0.1,1-0.2,1.3
	c-0.1,0.4-0.3,0.7-0.6,0.9c-0.2,0.2-0.5,0.4-0.8,0.6c-0.3,0.1-0.6,0.2-0.8,0.3c-0.3,0.1-0.5,0.1-0.8,0.1c-0.2,0-0.4,0-0.5,0
	c-0.2,0-0.5,0-0.8,0c-0.3,0-0.7-0.1-1-0.2s-0.7-0.3-1-0.6c-0.3-0.3-0.5-0.7-0.6-1.3H1147.9z M1150,307c0.1,0,0.3,0,0.6-0.1
	c0.3-0.1,0.5-0.2,0.8-0.5s0.5-0.6,0.7-1c0.2-0.5,0.3-1.1,0.3-1.9c0-1-0.2-1.8-0.6-2.4c-0.4-0.6-1.1-0.9-1.9-0.9
	c-0.4,0-0.7,0.1-1,0.2c-0.3,0.1-0.5,0.3-0.7,0.5c-0.2,0.2-0.3,0.4-0.4,0.7c-0.1,0.3-0.2,0.5-0.2,0.7c0,0.2-0.1,0.5-0.1,0.7
	c0,0.2,0,0.4,0,0.5c0,0.8,0.1,1.5,0.3,1.9c0.2,0.5,0.4,0.8,0.7,1c0.3,0.2,0.5,0.4,0.8,0.4C1149.6,307,1149.8,307,1150,307z"/>
<path fill="#989898" d="M1160.6,300.2c-0.5,0-0.9,0.1-1.3,0.2c-0.4,0.1-0.7,0.3-0.9,0.5c-0.3,0.2-0.5,0.5-0.6,0.9
	c-0.2,0.4-0.2,0.8-0.3,1.3c0,0.1,0,0.3,0,0.4c0,0.1,0,0.3,0,0.4v3.7h-1.4v-8.1h1.4v1.6h0c0.1-0.3,0.2-0.6,0.4-0.8
	c0.2-0.2,0.4-0.4,0.6-0.6c0.2-0.2,0.5-0.3,0.8-0.4c0.3-0.1,0.6-0.1,0.8-0.1l0.4,0V300.2z"/>
<path fill="#989898" d="M1161.1,301.9c0-0.3,0-0.6,0.1-0.9c0.1-0.3,0.3-0.6,0.5-0.9c0.3-0.3,0.6-0.5,1.1-0.7c0.5-0.2,1-0.3,1.7-0.3
	c0.3,0,0.7,0,1.1,0.1c0.4,0.1,0.7,0.2,1.1,0.4c0.3,0.2,0.6,0.5,0.8,0.8c0.2,0.4,0.3,0.8,0.3,1.4l-0.1,3.8c0,0.2,0,0.3,0,0.4
	c0,0.1,0,0.2,0.1,0.3c0.1,0.1,0.1,0.1,0.3,0.2c0.1,0,0.3,0.1,0.5,0v1c-0.1,0-0.2,0-0.3,0c-0.1,0-0.2,0-0.4,0c-0.2,0-0.4,0-0.5,0
	c-0.2,0-0.3-0.1-0.4-0.2c-0.1-0.1-0.2-0.2-0.3-0.4c-0.1-0.2-0.1-0.4-0.2-0.6c-0.1,0.3-0.3,0.5-0.5,0.7c-0.2,0.2-0.4,0.3-0.7,0.4
	c-0.2,0.1-0.5,0.2-0.8,0.3c-0.3,0.1-0.5,0.1-0.8,0.1c-0.9,0-1.5-0.2-2.1-0.6c-0.5-0.4-0.8-1-0.8-1.9c0-0.4,0.1-0.7,0.2-1
	c0.1-0.3,0.3-0.5,0.6-0.8c0.3-0.2,0.7-0.4,1.2-0.5c0.5-0.1,1.2-0.3,2-0.3c0.3,0,0.5,0,0.8-0.1c0.2,0,0.4-0.1,0.5-0.1
	c0.1-0.1,0.2-0.2,0.3-0.3c0.1-0.1,0.1-0.3,0.1-0.6c0-0.1,0-0.2,0-0.4c0-0.2-0.1-0.4-0.2-0.5c-0.1-0.2-0.3-0.3-0.5-0.5
	c-0.2-0.1-0.6-0.2-1-0.2c-0.1,0-0.3,0-0.6,0c-0.2,0-0.5,0.1-0.7,0.2c-0.2,0.1-0.4,0.3-0.6,0.5c-0.2,0.2-0.3,0.6-0.2,1H1161.1z
	 M1166.4,303.5c-0.1,0.1-0.2,0.1-0.3,0.2c-0.1,0-0.2,0.1-0.4,0.1c-0.1,0-0.3,0-0.5,0.1c-0.2,0-0.4,0-0.6,0.1
	c-0.3,0.1-0.6,0.1-0.9,0.2c-0.3,0-0.5,0.1-0.7,0.2c-0.2,0.1-0.4,0.2-0.5,0.4c-0.1,0.2-0.2,0.4-0.2,0.8c0,0.5,0.1,0.8,0.4,1.1
	c0.3,0.3,0.7,0.4,1.1,0.4c0.3,0,0.6,0,0.8-0.1c0.3-0.1,0.5-0.2,0.8-0.4c0.2-0.2,0.4-0.5,0.6-0.9c0.2-0.4,0.3-0.8,0.3-1.4
	L1166.4,303.5z"/>
<path fill="#989898" d="M1170.7,299.5v-2.4h1.4v2.4h1.7v1h-1.7v5.2c0,0.1,0,0.3,0,0.4c0,0.1,0,0.3,0.1,0.4c0,0.1,0.1,0.2,0.2,0.2
	c0.1,0.1,0.3,0.1,0.5,0.1c0.1,0,0.3,0,0.4,0c0.1,0,0.3-0.1,0.4-0.1v1c-0.2,0.1-0.5,0.2-0.7,0.2c-0.3,0.1-0.5,0.1-0.8,0.1
	c-0.4,0-0.7-0.1-1-0.2c-0.2-0.1-0.4-0.3-0.5-0.5c-0.1-0.2-0.2-0.4-0.2-0.6c0-0.2,0-0.5,0-0.7v-5.4h-1.5v-1H1170.7z"/>
<path fill="#989898" d="M1175.3,296.5h1.4v1.5h-1.4V296.5z M1176.7,299.5v8.1h-1.4v-8.1H1176.7z"/>
<path fill="#989898" d="M1178.5,303.6c0-0.5,0.1-1.1,0.2-1.6c0.1-0.5,0.4-1,0.7-1.4c0.3-0.4,0.7-0.7,1.2-1c0.5-0.3,1.1-0.4,1.9-0.4
	c0.7,0,1.4,0.1,1.9,0.4c0.5,0.3,0.9,0.6,1.2,1c0.3,0.4,0.5,0.9,0.7,1.4c0.1,0.5,0.2,1.1,0.2,1.6c0,0.5-0.1,1.1-0.2,1.6
	c-0.1,0.5-0.4,1-0.7,1.4c-0.3,0.4-0.7,0.7-1.2,1c-0.5,0.3-1.1,0.4-1.9,0.4c-0.7,0-1.4-0.1-1.9-0.4c-0.5-0.3-0.9-0.6-1.2-1
	c-0.3-0.4-0.5-0.9-0.7-1.4C1178.5,304.7,1178.5,304.1,1178.5,303.6z M1180,303.6c0,0.8,0.1,1.4,0.3,1.9c0.2,0.5,0.4,0.8,0.7,1
	s0.6,0.4,0.8,0.4c0.3,0,0.5,0.1,0.7,0.1c0.2,0,0.4,0,0.7-0.1c0.3,0,0.6-0.2,0.8-0.4s0.5-0.6,0.7-1c0.2-0.5,0.3-1.1,0.3-1.9
	c0-0.8-0.1-1.4-0.3-1.9c-0.2-0.5-0.4-0.8-0.7-1s-0.6-0.4-0.8-0.4c-0.3,0-0.5-0.1-0.7-0.1c-0.2,0-0.4,0-0.7,0.1
	c-0.3,0-0.6,0.2-0.8,0.4s-0.5,0.6-0.7,1C1180.1,302.2,1180,302.8,1180,303.6z"/>
<path fill="#989898" d="M1189.7,299.5v1.1c0.3-0.4,0.7-0.7,1.1-1c0.5-0.3,1-0.4,1.7-0.4c0.5,0,1,0.1,1.3,0.2
	c0.3,0.2,0.6,0.4,0.8,0.7c0.2,0.3,0.3,0.6,0.4,1c0.1,0.4,0.1,0.8,0.1,1.2v5.4h-1.4v-5c0-0.2,0-0.5,0-0.8s-0.1-0.6-0.2-0.8
	c-0.1-0.3-0.3-0.5-0.5-0.6c-0.2-0.2-0.6-0.3-1-0.3c-0.2,0-0.4,0-0.7,0.1c-0.3,0.1-0.5,0.2-0.8,0.4c-0.2,0.2-0.5,0.5-0.6,0.9
	c-0.2,0.4-0.3,0.9-0.3,1.6v4.4h-1.4v-8.1H1189.7z"/>
<path fill="#20AD65" d="M998.7,209h220.7c0.8,0,1.5,0.7,1.5,1.5v56.9c0,0.8-0.7,1.5-1.5,1.5H998.7c-0.8,0-1.5-0.7-1.5-1.5v-56.9
	C997.2,209.7,997.8,209,998.7,209z"/>
<g enable-background="new    ">
	<path fill="#FFFFFF" d="M1072.9,231.8c0.7,0,1.2,0.1,1.7,0.3c0.4,0.2,0.8,0.4,1,0.7s0.4,0.6,0.5,0.9c0.1,0.3,0.1,0.7,0.1,1
		c0,0.3,0,0.6-0.1,0.9c-0.1,0.3-0.2,0.5-0.4,0.7c-0.2,0.2-0.4,0.4-0.6,0.5c-0.2,0.1-0.5,0.2-0.7,0.3v0c0.2,0,0.5,0.1,0.7,0.2
		c0.3,0.1,0.5,0.3,0.7,0.5c0.2,0.2,0.4,0.5,0.6,0.8c0.2,0.3,0.2,0.8,0.2,1.3c0,0.4-0.1,0.8-0.2,1.2c-0.1,0.4-0.3,0.7-0.6,1
		c-0.3,0.3-0.7,0.5-1.2,0.7c-0.5,0.2-1.2,0.3-2,0.3h-4.7v-11.2H1072.9z M1069.5,236.6h3c0.4,0,0.8,0,1-0.1c0.3-0.1,0.5-0.2,0.7-0.4
		c0.2-0.2,0.3-0.3,0.4-0.6c0.1-0.2,0.1-0.4,0.1-0.7c0-0.2,0-0.3-0.1-0.5c0-0.2-0.1-0.4-0.3-0.6c-0.2-0.2-0.4-0.3-0.7-0.4
		c-0.3-0.1-0.7-0.2-1.1-0.2h-3.1V236.6z M1069.5,241.7h3.1c0.3,0,0.5,0,0.8-0.1c0.3,0,0.6-0.1,0.8-0.3c0.3-0.1,0.5-0.3,0.6-0.6
		c0.2-0.3,0.3-0.6,0.3-1.1c0-0.4-0.1-0.7-0.2-0.9c-0.1-0.2-0.3-0.4-0.5-0.6c-0.2-0.1-0.5-0.3-0.8-0.3c-0.3-0.1-0.7-0.1-1.1-0.1h-3.1
		V241.7z"/>
	<path fill="#FFFFFF" d="M1084.3,243v-1.2h0c-0.2,0.4-0.4,0.6-0.7,0.8c-0.3,0.2-0.6,0.3-0.8,0.4c-0.3,0.1-0.5,0.2-0.7,0.2
		c-0.2,0-0.4,0-0.4,0c-0.6,0-1.1-0.1-1.4-0.3s-0.6-0.5-0.8-0.8c-0.2-0.3-0.3-0.6-0.4-1c-0.1-0.4-0.1-0.7-0.1-1v-5.4h1.4v5
		c0,0.5,0,0.9,0.1,1.2c0.1,0.3,0.2,0.6,0.4,0.8c0.1,0.2,0.3,0.3,0.5,0.4c0.2,0.1,0.4,0.1,0.7,0.1c0.6,0,1-0.1,1.4-0.4
		c0.3-0.3,0.6-0.6,0.7-0.9c0.1-0.3,0.2-0.7,0.2-1c0-0.3,0-0.6,0-0.7v-4.4h1.4v8.1H1084.3z"/>
	<path fill="#FFFFFF" d="M1087.9,231.8h1.4v1.5h-1.4V231.8z M1089.4,234.9v8.1h-1.4v-8.1H1089.4z"/>
	<path fill="#FFFFFF" d="M1093,231.8V243h-1.4v-11.2H1093z"/>
	<path fill="#FFFFFF" d="M1102.6,231.8V243h-1.3v-1.1h0c-0.1,0.1-0.2,0.3-0.3,0.4c-0.1,0.2-0.3,0.3-0.5,0.5
		c-0.2,0.1-0.5,0.3-0.8,0.4c-0.3,0.1-0.7,0.2-1.1,0.2c-0.6,0-1.1-0.1-1.6-0.3c-0.5-0.2-0.8-0.5-1.2-0.9c-0.3-0.4-0.5-0.9-0.7-1.4
		c-0.2-0.5-0.2-1.1-0.2-1.8c0-0.4,0-0.9,0.1-1.4c0.1-0.5,0.3-1,0.5-1.4c0.3-0.4,0.6-0.8,1.1-1.1c0.5-0.3,1.1-0.4,1.9-0.4
		c0.5,0,1,0.1,1.5,0.3c0.5,0.2,0.8,0.5,1.2,1.1v-4.1H1102.6z M1096.3,238.9c0,0.8,0.1,1.4,0.3,1.8c0.2,0.5,0.4,0.8,0.7,1
		c0.3,0.2,0.5,0.4,0.8,0.4c0.3,0.1,0.5,0.1,0.7,0.1c0.3,0,0.6-0.1,0.9-0.2c0.3-0.1,0.6-0.3,0.8-0.6c0.2-0.3,0.4-0.6,0.5-1.1
		c0.1-0.4,0.2-1,0.2-1.6c0-0.6-0.1-1.1-0.2-1.5c-0.1-0.4-0.3-0.8-0.6-1c-0.2-0.3-0.5-0.5-0.8-0.6c-0.3-0.1-0.6-0.2-1-0.2
		c-0.3,0-0.7,0.1-1,0.2c-0.3,0.1-0.5,0.3-0.8,0.6c-0.2,0.3-0.4,0.6-0.5,1C1096.4,237.8,1096.3,238.3,1096.3,238.9z"/>
	<path fill="#FFFFFF" d="M1112,231.8c-0.7,1.4-1.2,2.7-1.5,3.9c-0.3,1.2-0.4,2.2-0.4,3.2c0,0.6,0.1,1.2,0.2,1.8
		c0.1,0.6,0.2,1.2,0.4,1.8c0.2,0.6,0.4,1.2,0.6,1.8c0.2,0.6,0.5,1.1,0.8,1.6h-1.1c-0.5-0.8-0.9-1.6-1.2-2.2
		c-0.3-0.6-0.5-1.2-0.7-1.8s-0.3-1.1-0.3-1.6s-0.1-1-0.1-1.5c0-0.5,0-1,0.1-1.5s0.2-1,0.3-1.6c0.2-0.5,0.4-1.1,0.7-1.8
		c0.3-0.6,0.7-1.4,1.2-2.2H1112z"/>
	<path fill="#FFFFFF" d="M1117.6,236.8v-3.5h1v3.5h3.5v1h-3.5v3.5h-1v-3.5h-3.5v-1H1117.6z"/>
	<path fill="#FFFFFF" d="M1124.6,234.9v-2.4h1.4v2.4h1.7v1h-1.7v5.2c0,0.1,0,0.3,0,0.4c0,0.1,0,0.3,0.1,0.4c0,0.1,0.1,0.2,0.2,0.2
		c0.1,0.1,0.3,0.1,0.5,0.1c0.1,0,0.3,0,0.4,0c0.1,0,0.3-0.1,0.4-0.1v1c-0.2,0.1-0.5,0.2-0.7,0.2c-0.3,0.1-0.5,0.1-0.8,0.1
		c-0.4,0-0.7-0.1-1-0.2c-0.2-0.1-0.4-0.3-0.5-0.5c-0.1-0.2-0.2-0.4-0.2-0.6c0-0.2,0-0.5,0-0.7v-5.4h-1.5v-1H1124.6z"/>
	<path fill="#FFFFFF" d="M1136.3,240.7c-0.1,0.3-0.2,0.6-0.3,0.9c-0.1,0.3-0.4,0.6-0.6,0.9s-0.6,0.5-1,0.6c-0.4,0.2-1,0.3-1.6,0.3
		c-0.7,0-1.2-0.1-1.7-0.3c-0.5-0.2-0.8-0.4-1.2-0.7c-0.3-0.3-0.5-0.6-0.7-0.9c-0.2-0.3-0.3-0.7-0.4-1c-0.1-0.3-0.1-0.6-0.1-0.9
		c0-0.3,0-0.5,0-0.6c0-0.2,0-0.4,0-0.7c0-0.3,0.1-0.6,0.2-0.9c0.1-0.3,0.2-0.7,0.4-1c0.2-0.3,0.4-0.6,0.7-0.9
		c0.3-0.3,0.7-0.5,1.1-0.6s1-0.2,1.6-0.2c0.8,0,1.5,0.1,1.9,0.4c0.5,0.3,0.9,0.6,1.1,1.1c0.3,0.4,0.4,0.9,0.5,1.4
		c0.1,0.5,0.1,1,0.2,1.4c0,0.1,0,0.1,0,0.2c0,0.1,0,0.1,0,0.2h-6.2c0,0.4,0,0.7,0.1,1.1c0.1,0.4,0.2,0.7,0.4,1
		c0.2,0.3,0.5,0.5,0.8,0.7c0.3,0.2,0.7,0.3,1.2,0.3c0.3,0,0.6,0,0.9-0.1c0.3-0.1,0.5-0.2,0.7-0.4c0.2-0.2,0.3-0.3,0.4-0.5
		c0.1-0.2,0.2-0.4,0.2-0.6H1136.3z M1134.9,238.3c0-0.3,0-0.6-0.1-0.9c-0.1-0.3-0.2-0.6-0.3-0.9c-0.2-0.3-0.4-0.5-0.7-0.7
		c-0.3-0.2-0.7-0.3-1.1-0.3c-0.5,0-0.9,0.1-1.3,0.3c-0.3,0.2-0.6,0.4-0.8,0.7c-0.2,0.3-0.3,0.6-0.4,0.9c-0.1,0.3-0.1,0.6-0.1,0.9
		H1134.9z"/>
	<path fill="#FFFFFF" d="M1139.1,240.6c0,0.3,0.1,0.6,0.2,0.8c0.1,0.2,0.3,0.4,0.5,0.5c0.2,0.1,0.4,0.2,0.7,0.3
		c0.3,0.1,0.5,0.1,0.8,0.1c0.5,0,0.8-0.1,1.1-0.2c0.3-0.1,0.4-0.3,0.6-0.4c0.1-0.2,0.2-0.3,0.2-0.5c0-0.2,0-0.3,0-0.4
		c0-0.1,0-0.3,0-0.4c0-0.1-0.1-0.2-0.2-0.4c-0.1-0.1-0.3-0.2-0.5-0.3c-0.2-0.1-0.5-0.2-0.9-0.3l-0.9-0.2c-0.3-0.1-0.7-0.2-1-0.3
		c-0.3-0.1-0.6-0.2-0.8-0.4c-0.2-0.2-0.4-0.4-0.6-0.7c-0.1-0.3-0.2-0.6-0.2-1c0-0.4,0.1-0.8,0.3-1.1c0.2-0.3,0.4-0.5,0.7-0.7
		c0.3-0.2,0.6-0.3,1-0.4c0.4-0.1,0.7-0.1,1.1-0.1c0.7,0,1.2,0.1,1.7,0.3c0.4,0.2,0.7,0.4,1,0.6c0.2,0.3,0.4,0.5,0.5,0.8
		c0.1,0.3,0.1,0.5,0.2,0.8h-1.3c0-0.1,0-0.3-0.1-0.4c0-0.2-0.1-0.3-0.3-0.5c-0.1-0.2-0.3-0.3-0.6-0.4c-0.2-0.1-0.6-0.2-1-0.2
		c0,0-0.2,0-0.3,0c-0.2,0-0.4,0.1-0.6,0.1c-0.2,0.1-0.4,0.2-0.5,0.4c-0.2,0.2-0.2,0.4-0.2,0.7c0,0.3,0.1,0.5,0.2,0.7
		c0.1,0.2,0.3,0.3,0.5,0.4c0.2,0.1,0.4,0.2,0.7,0.2c0.3,0.1,0.6,0.1,0.8,0.2c0.4,0.1,0.8,0.2,1.2,0.3c0.4,0.1,0.7,0.2,0.9,0.4
		s0.5,0.4,0.6,0.6c0.1,0.3,0.2,0.6,0.2,1c0,0.4-0.1,0.8-0.2,1.1c-0.1,0.3-0.3,0.5-0.6,0.7c-0.2,0.2-0.5,0.3-0.7,0.5
		c-0.3,0.1-0.5,0.2-0.8,0.2c-0.3,0.1-0.5,0.1-0.7,0.1c-0.2,0-0.3,0-0.4,0c-0.6,0-1.1-0.1-1.6-0.2c-0.4-0.1-0.8-0.3-1.1-0.6
		c-0.3-0.3-0.5-0.5-0.7-0.9c-0.1-0.3-0.2-0.7-0.2-1.1H1139.1z"/>
	<path fill="#FFFFFF" d="M1146.9,234.9v-2.4h1.4v2.4h1.7v1h-1.7v5.2c0,0.1,0,0.3,0,0.4c0,0.1,0,0.3,0.1,0.4c0,0.1,0.1,0.2,0.2,0.2
		c0.1,0.1,0.3,0.1,0.5,0.1c0.1,0,0.3,0,0.4,0c0.1,0,0.3-0.1,0.4-0.1v1c-0.2,0.1-0.5,0.2-0.7,0.2c-0.3,0.1-0.5,0.1-0.8,0.1
		c-0.4,0-0.7-0.1-1-0.2c-0.2-0.1-0.4-0.3-0.5-0.5c-0.1-0.2-0.2-0.4-0.2-0.6c0-0.2,0-0.5,0-0.7v-5.4h-1.5v-1H1146.9z"/>
	<path fill="#FFFFFF" d="M1151.6,245.9c0.5-0.9,0.8-1.7,1.1-2.5c0.3-0.7,0.5-1.4,0.6-2c0.1-0.6,0.2-1.1,0.2-1.5c0-0.4,0-0.8,0-1
		c0-0.2,0-0.6,0-1c0-0.4-0.1-0.9-0.2-1.5c-0.1-0.6-0.3-1.3-0.6-2c-0.3-0.8-0.6-1.6-1.1-2.5h1.1c0.5,0.8,0.9,1.6,1.2,2.3
		c0.3,0.7,0.5,1.3,0.7,1.9s0.3,1.1,0.3,1.6c0,0.5,0.1,0.9,0.1,1.3c0,0.4,0,0.8-0.1,1.3c0,0.5-0.2,1-0.3,1.6s-0.4,1.2-0.7,1.9
		c-0.3,0.7-0.7,1.4-1.2,2.3H1151.6z"/>
</g>
<g enable-background="new    ">
	<path fill="#989898" d="M1678.5,290.1v1.3h-5.9v3.9h6.6v1.3h-8.1v-11.2h8v1.3h-6.5v3.5H1678.5z"/>
	<path fill="#989898" d="M1682.1,288.4v1.1c0.3-0.4,0.6-0.7,1.1-1c0.5-0.3,1-0.4,1.7-0.4c0.5,0,1,0.1,1.3,0.2
		c0.3,0.2,0.6,0.4,0.8,0.7c0.2,0.3,0.3,0.6,0.4,1c0.1,0.4,0.1,0.8,0.1,1.2v5.4h-1.4v-5c0-0.2,0-0.5,0-0.8c0-0.3-0.1-0.6-0.2-0.8
		c-0.1-0.3-0.3-0.5-0.5-0.6c-0.2-0.2-0.6-0.3-1-0.3c-0.2,0-0.4,0-0.7,0.1c-0.3,0.1-0.5,0.2-0.8,0.4c-0.2,0.2-0.5,0.5-0.6,0.9
		c-0.2,0.4-0.3,0.9-0.3,1.6v4.4h-1.4v-8.1H1682.1z"/>
	<path fill="#989898" d="M1694.8,288.4h1.5l-3,8.1h-1.6l-3-8.1h1.5l2.3,6.7L1694.8,288.4z"/>
	<path fill="#989898" d="M1697.3,285.3h1.4v1.5h-1.4V285.3z M1698.7,288.4v8.1h-1.4v-8.1H1698.7z"/>
	<path fill="#989898" d="M1705.6,289c-0.5,0-0.9,0.1-1.3,0.2c-0.4,0.1-0.7,0.3-0.9,0.5c-0.3,0.2-0.5,0.5-0.6,0.9
		c-0.2,0.4-0.2,0.8-0.3,1.3c0,0.1,0,0.3,0,0.4c0,0.1,0,0.3,0,0.4v3.7h-1.4v-8.1h1.4v1.6h0c0.1-0.3,0.2-0.6,0.4-0.8
		c0.2-0.2,0.4-0.4,0.6-0.6c0.2-0.2,0.5-0.3,0.8-0.4c0.3-0.1,0.6-0.1,0.8-0.1l0.4,0V289z"/>
	<path fill="#989898" d="M1706,292.4c0-0.5,0.1-1.1,0.2-1.6c0.1-0.5,0.4-1,0.7-1.4c0.3-0.4,0.7-0.7,1.2-1c0.5-0.3,1.1-0.4,1.9-0.4
		c0.7,0,1.4,0.1,1.9,0.4c0.5,0.3,0.9,0.6,1.2,1c0.3,0.4,0.5,0.9,0.7,1.4c0.1,0.5,0.2,1.1,0.2,1.6c0,0.5-0.1,1.1-0.2,1.6
		c-0.1,0.5-0.4,1-0.7,1.4c-0.3,0.4-0.7,0.7-1.2,1c-0.5,0.3-1.1,0.4-1.9,0.4c-0.7,0-1.4-0.1-1.9-0.4c-0.5-0.3-0.9-0.6-1.2-1
		c-0.3-0.4-0.5-0.9-0.7-1.4C1706.1,293.5,1706,293,1706,292.4z M1707.5,292.4c0,0.8,0.1,1.4,0.3,1.9s0.4,0.8,0.7,1s0.6,0.4,0.8,0.4
		s0.5,0.1,0.7,0.1c0.2,0,0.4,0,0.7-0.1s0.6-0.2,0.8-0.4s0.5-0.6,0.7-1c0.2-0.5,0.3-1.1,0.3-1.9s-0.1-1.4-0.3-1.9
		c-0.2-0.5-0.4-0.8-0.7-1c-0.3-0.2-0.6-0.4-0.8-0.4c-0.3,0-0.5-0.1-0.7-0.1c-0.2,0-0.4,0-0.7,0.1c-0.3,0-0.6,0.2-0.8,0.4
		c-0.3,0.2-0.5,0.6-0.7,1S1707.5,291.6,1707.5,292.4z"/>
	<path fill="#989898" d="M1717.3,288.4v1.1c0.3-0.4,0.6-0.7,1.1-1s1-0.4,1.7-0.4c0.5,0,1,0.1,1.3,0.2c0.3,0.2,0.6,0.4,0.8,0.7
		c0.2,0.3,0.3,0.6,0.4,1c0.1,0.4,0.1,0.8,0.1,1.2v5.4h-1.4v-5c0-0.2,0-0.5,0-0.8s-0.1-0.6-0.2-0.8c-0.1-0.3-0.3-0.5-0.5-0.6
		c-0.2-0.2-0.6-0.3-1-0.3c-0.2,0-0.4,0-0.7,0.1c-0.3,0.1-0.5,0.2-0.8,0.4c-0.2,0.2-0.5,0.5-0.6,0.9c-0.2,0.4-0.3,0.9-0.3,1.6v4.4
		h-1.4v-8.1H1717.3z"/>
	<path fill="#989898" d="M1726.4,288.4v1.1l0,0.1c0.1-0.2,0.3-0.4,0.4-0.6c0.2-0.2,0.4-0.3,0.6-0.5c0.2-0.1,0.5-0.2,0.7-0.3
		c0.3-0.1,0.5-0.1,0.8-0.1c0.4,0,0.7,0.1,0.9,0.2c0.3,0.1,0.5,0.2,0.7,0.4c0.2,0.2,0.3,0.4,0.5,0.6c0.1,0.2,0.2,0.4,0.3,0.6
		c0.1-0.2,0.2-0.3,0.3-0.5c0.1-0.2,0.3-0.4,0.6-0.6c0.2-0.2,0.5-0.3,0.8-0.5c0.3-0.1,0.7-0.2,1.1-0.2c0.6,0,1.1,0.1,1.5,0.4
		c0.4,0.3,0.6,0.5,0.8,0.9c0.2,0.3,0.3,0.7,0.3,1.1c0,0.4,0.1,0.7,0.1,0.9v5.2h-1.4v-5.1c0-0.2,0-0.5,0-0.7c0-0.3-0.1-0.5-0.2-0.8
		c-0.1-0.2-0.3-0.4-0.5-0.6c-0.2-0.2-0.5-0.2-0.9-0.2c-0.2,0-0.5,0-0.7,0.1c-0.3,0.1-0.5,0.2-0.7,0.4c-0.2,0.2-0.4,0.5-0.5,0.8
		c-0.1,0.3-0.2,0.8-0.2,1.3v4.8h-1.4v-5.1c0-0.3,0-0.6-0.1-0.9c0-0.3-0.1-0.5-0.2-0.7c-0.1-0.2-0.3-0.4-0.5-0.5
		c-0.2-0.1-0.5-0.2-0.8-0.2c-0.3,0-0.6,0.1-0.8,0.2c-0.3,0.1-0.5,0.3-0.7,0.5c-0.2,0.2-0.4,0.5-0.5,0.8c-0.1,0.3-0.2,0.7-0.2,1.1
		v4.8h-1.4v-8.1H1726.4z"/>
	<path fill="#989898" d="M1746.2,294.1c-0.1,0.3-0.2,0.6-0.3,0.9c-0.1,0.3-0.4,0.6-0.6,0.9c-0.3,0.3-0.6,0.5-1,0.6
		c-0.4,0.2-1,0.3-1.6,0.3c-0.7,0-1.2-0.1-1.7-0.3c-0.5-0.2-0.8-0.4-1.2-0.7c-0.3-0.3-0.5-0.6-0.7-0.9c-0.2-0.3-0.3-0.7-0.4-1
		c-0.1-0.3-0.1-0.6-0.1-0.9c0-0.3,0-0.5,0-0.6c0-0.2,0-0.4,0-0.7c0-0.3,0.1-0.6,0.2-0.9c0.1-0.3,0.2-0.7,0.4-1
		c0.2-0.3,0.4-0.6,0.7-0.9c0.3-0.3,0.7-0.5,1.1-0.6c0.4-0.2,1-0.2,1.6-0.2c0.8,0,1.5,0.1,1.9,0.4c0.5,0.3,0.9,0.6,1.1,1.1
		c0.3,0.4,0.4,0.9,0.5,1.4c0.1,0.5,0.1,1,0.2,1.4c0,0.1,0,0.1,0,0.2c0,0.1,0,0.1,0,0.2h-6.2c0,0.4,0,0.7,0.1,1.1
		c0.1,0.4,0.2,0.7,0.4,1c0.2,0.3,0.5,0.5,0.8,0.7c0.3,0.2,0.7,0.3,1.2,0.3c0.3,0,0.6,0,0.9-0.1c0.3-0.1,0.5-0.2,0.7-0.4
		c0.2-0.2,0.3-0.3,0.4-0.5c0.1-0.2,0.2-0.4,0.2-0.6H1746.2z M1744.7,291.7c0-0.3,0-0.6-0.1-0.9c-0.1-0.3-0.2-0.6-0.3-0.9
		c-0.2-0.3-0.4-0.5-0.7-0.7c-0.3-0.2-0.7-0.3-1.1-0.3c-0.5,0-0.9,0.1-1.3,0.3c-0.3,0.2-0.6,0.4-0.8,0.7c-0.2,0.3-0.3,0.6-0.4,0.9
		c-0.1,0.3-0.1,0.6-0.1,0.9H1744.7z"/>
	<path fill="#989898" d="M1749.5,288.4v1.1c0.3-0.4,0.7-0.7,1.1-1c0.5-0.3,1-0.4,1.7-0.4c0.5,0,1,0.1,1.3,0.2
		c0.3,0.2,0.6,0.4,0.8,0.7c0.2,0.3,0.3,0.6,0.4,1c0.1,0.4,0.1,0.8,0.1,1.2v5.4h-1.4v-5c0-0.2,0-0.5,0-0.8s-0.1-0.6-0.2-0.8
		c-0.1-0.3-0.3-0.5-0.5-0.6c-0.2-0.2-0.6-0.3-1-0.3c-0.2,0-0.4,0-0.7,0.1c-0.3,0.1-0.5,0.2-0.8,0.4c-0.2,0.2-0.5,0.5-0.6,0.9
		c-0.2,0.4-0.3,0.9-0.3,1.6v4.4h-1.4v-8.1H1749.5z"/>
	<path fill="#989898" d="M1757.7,288.4v-2.4h1.4v2.4h1.7v1h-1.7v5.2c0,0.1,0,0.3,0,0.4c0,0.1,0,0.3,0.1,0.4c0,0.1,0.1,0.2,0.2,0.2
		c0.1,0.1,0.3,0.1,0.5,0.1c0.1,0,0.3,0,0.4,0c0.1,0,0.3-0.1,0.4-0.1v1c-0.2,0.1-0.5,0.2-0.7,0.2c-0.3,0.1-0.5,0.1-0.8,0.1
		c-0.4,0-0.7-0.1-1-0.2c-0.2-0.1-0.4-0.3-0.5-0.5c-0.1-0.2-0.2-0.4-0.2-0.6c0-0.2,0-0.5,0-0.7v-5.4h-1.5v-1H1757.7z"/>
</g>
<path fill="#20AD65" d="M955.2,239l-7,4.5V240h-61.9v-2h61.9v-3.5L955.2,239z"/>
<path fill="#20AD65" d="M1310.7,239l-7,4.5V240h-61.9v-2h61.9v-3.5L1310.7,239z"/>
<path fill="#20AD65" d="M1666.7,239l-7,4.5V240h-61.9v-2h61.9v-3.5L1666.7,239z"/>
<path fill="#20AD65" d="M768,239l-7,4.5V240h-61.9v-2H761v-3.5L768,239z"/>
<g>
	<g>
		
			<path fill="none" stroke="#343231" stroke-width="1.5" stroke-linecap="round" stroke-linejoin="round" stroke-miterlimit="10" d="
			M657,247.4v18.7c0,1.4-1.2,2.6-2.6,2.6h-70.9c-1.4,0-2.6-1.2-2.6-2.6v-54.7c0-1.4,1.2-2.6,2.6-2.6h70.9c1.4,0,2.6,1.2,2.6,2.6
			v21.9"/>
		
			<line fill="none" stroke="#343231" stroke-width="1.5" stroke-linecap="round" stroke-linejoin="round" stroke-miterlimit="10" x1="580.9" y1="219.3" x2="657" y2="219.3"/>
		<ellipse fill="#343231" cx="651.8" cy="214.1" rx="1.3" ry="1.3"/>
		
			<line fill="none" stroke="#343231" stroke-width="1.5" stroke-linecap="round" stroke-linejoin="round" stroke-miterlimit="10" x1="588.7" y1="214.1" x2="633.4" y2="214.1"/>
		<ellipse fill="#343231" cx="646.5" cy="214.1" rx="1.3" ry="1.3"/>
		<ellipse fill="#343231" cx="641.3" cy="214.1" rx="1.3" ry="1.3"/>
		
			<line fill="none" stroke="#343231" stroke-width="1.5" stroke-linecap="round" stroke-linejoin="round" x1="609.6" y1="258.3" x2="625.4" y2="232.3"/>
		<polyline fill="none" stroke="#343231" stroke-width="1.5" stroke-linecap="round" stroke-linejoin="round" points="633.4,238.8 
			638.6,244 633.4,249.2 		"/>
		<polyline fill="none" stroke="#343231" stroke-width="1.5" stroke-linecap="round" stroke-linejoin="round" points="604.5,249.2 
			599.3,244 604.5,238.8 		"/>
	</g>
	<g>
		
			<path fill="none" stroke="#343231" stroke-width="1.5" stroke-linecap="round" stroke-linejoin="round" stroke-miterlimit="10" d="
			M640.3,256.9l0.9-4.6l0.8-4.1l25.3-25.1l0.9-0.9c1.9-1.9,5.1-1.9,7,0l0,0c1.9,1.9,1.9,5,0,6.9l-26.2,26L640.3,256.9z"/>
		<line fill="none" stroke="#343231" stroke-width="1.5" stroke-miterlimit="10" x1="674.5" y1="229.8" x2="667.6" y2="223"/>
		
			<polyline fill="none" stroke="#343231" stroke-width="1.5" stroke-linecap="round" stroke-linejoin="round" stroke-miterlimit="10" points="
			642.4,248.2 649.1,248.2 649.1,254.9 		"/>
	</g>
</g>
<line fill="none" stroke="#343231" stroke-width="1.2" stroke-linecap="round" stroke-linejoin="round" stroke-miterlimit="10" x1="644.1" y1="255.7" x2="641.3" y2="252.9"/>
<g>
	<path fill="none" stroke="#343231" stroke-width="1.5" stroke-linecap="round" stroke-linejoin="round" d="M867.2,221.1
		c0,6.6-17.1,11.9-38.2,11.9c-21.1,0-38.2-5.3-38.2-11.9c0-6.6,17.1-11.9,38.2-11.9C850.1,209.2,867.2,214.5,867.2,221.1z"/>
	<path fill="none" stroke="#343231" stroke-width="1.5" stroke-linecap="round" stroke-linejoin="round" d="M867.2,221.4
		c0,0,0,34,0,36.6c0,6.7-17.1,12.1-38.2,12.1c-21.1,0-38.2-5.4-38.2-12.1c0-3.1,0-36.6,0-36.6"/>
	<path fill="none" stroke="#343231" stroke-width="1.5" stroke-linecap="round" stroke-linejoin="round" d="M867.2,238.3
		c0,6.6-17.1,11.9-38.2,11.9c-21.1,0-38.2-5.3-38.2-11.9"/>
</g>
<g>
	<g>
		<g>
			
				<rect x="1692" y="211.3" fill="none" stroke="#343231" stroke-width="1.5" stroke-linecap="round" stroke-linejoin="round" stroke-miterlimit="10" width="40.2" height="60.9"/>
			<g>
				
					<line fill="none" stroke="#343231" stroke-width="1.5" stroke-linecap="round" stroke-linejoin="round" stroke-miterlimit="10" x1="1692.1" y1="223.7" x2="1732.1" y2="223.7"/>
				
					<line fill="none" stroke="#343231" stroke-width="1.5" stroke-linecap="round" stroke-linejoin="round" stroke-miterlimit="10" x1="1692.1" y1="236.3" x2="1732.1" y2="236.3"/>
				
					<line fill="none" stroke="#343231" stroke-width="1.5" stroke-linecap="round" stroke-linejoin="round" stroke-miterlimit="10" x1="1692.1" y1="248.9" x2="1732.1" y2="248.9"/>
			</g>
		</g>
		<ellipse fill="#343231" cx="1727.9" cy="215.4" rx="1.1" ry="1"/>
		<ellipse fill="#343231" cx="1727.9" cy="219.5" rx="1.1" ry="1"/>
		
			<line fill="none" stroke="#343231" stroke-width="1.5" stroke-linecap="round" stroke-linejoin="round" x1="1723.7" y1="219.5" x2="1696.2" y2="219.5"/>
		<ellipse fill="#343231" cx="1727.9" cy="227.9" rx="1.1" ry="1"/>
		<ellipse fill="#343231" cx="1727.9" cy="232.1" rx="1.1" ry="1"/>
		
			<line fill="none" stroke="#343231" stroke-width="1.5" stroke-linecap="round" stroke-linejoin="round" x1="1723.7" y1="232.1" x2="1696.2" y2="232.1"/>
		<ellipse fill="#343231" cx="1727.9" cy="240.5" rx="1.1" ry="1"/>
		<ellipse fill="#343231" cx="1727.9" cy="244.7" rx="1.1" ry="1"/>
		
			<line fill="none" stroke="#343231" stroke-width="1.5" stroke-linecap="round" stroke-linejoin="round" x1="1723.7" y1="244.7" x2="1696.2" y2="244.7"/>
	</g>
	<g>
		
			<polyline fill="none" stroke="#343231" stroke-width="1.5" stroke-linecap="round" stroke-linejoin="round" stroke-miterlimit="10" points="
			1732.2,269.2 1744.4,269.2 1744.4,208.3 1704.2,208.3 1704.2,211.3 		"/>
		<g>
			
				<line fill="none" stroke="#343231" stroke-width="1.5" stroke-linecap="round" stroke-linejoin="round" stroke-miterlimit="10" x1="1732.2" y1="220.7" x2="1744.4" y2="220.7"/>
			
				<line fill="none" stroke="#343231" stroke-width="1.5" stroke-linecap="round" stroke-linejoin="round" stroke-miterlimit="10" x1="1732.3" y1="233.3" x2="1744.4" y2="233.3"/>
			
				<line fill="none" stroke="#343231" stroke-width="1.5" stroke-linecap="round" stroke-linejoin="round" stroke-miterlimit="10" x1="1732.3" y1="245.9" x2="1744.4" y2="245.9"/>
		</g>
	</g>
	<g>
		<ellipse fill="#343231" cx="1740.2" cy="212.3" rx="1.1" ry="1"/>
		<ellipse fill="#343231" cx="1740.2" cy="216.5" rx="1.1" ry="1"/>
		
			<line fill="none" stroke="#343231" stroke-width="1.5" stroke-linecap="round" stroke-linejoin="round" x1="1736" y1="216.5" x2="1732.3" y2="216.5"/>
		<ellipse fill="#343231" cx="1740.2" cy="224.9" rx="1.1" ry="1"/>
		<ellipse fill="#343231" cx="1740.2" cy="229.1" rx="1.1" ry="1"/>
		
			<line fill="none" stroke="#343231" stroke-width="1.5" stroke-linecap="round" stroke-linejoin="round" x1="1736" y1="229.1" x2="1732.2" y2="229.1"/>
		<ellipse fill="#343231" cx="1740.2" cy="237.5" rx="1.1" ry="1"/>
		<ellipse fill="#343231" cx="1740.2" cy="241.7" rx="1.1" ry="1"/>
		
			<line fill="none" stroke="#343231" stroke-width="1.5" stroke-linecap="round" stroke-linejoin="round" x1="1736" y1="241.7" x2="1732.3" y2="241.7"/>
	</g>
</g>
</svg>
