<?xml version="1.0" encoding="utf-8"?>
<!-- Generator: Adobe Illustrator 17.1.0, SVG Export Plug-In . SVG Version: 6.00 Build 0)  -->
<!DOCTYPE svg PUBLIC "-//W3C//DTD SVG 1.1//EN" "http://www.w3.org/Graphics/SVG/1.1/DTD/svg11.dtd">
<svg version="1.1" id="Layer_1" xmlns="http://www.w3.org/2000/svg" xmlns:xlink="http://www.w3.org/1999/xlink" x="0px" y="0px"
	 viewBox="0 0 240 195" enable-background="new 0 0 240 195" xml:space="preserve">
<g>
	<path fill="#332E2D" d="M11.3,23.7l3-1.4c1.5,4.1,4.5,6.1,8.6,6.1c4.3,0,7.1-1.8,7.1-5c0-3-1.6-4.5-7.6-6.4
		c-6.3-1.9-10.1-3.7-10.1-9c0-4.7,4-8.1,9.8-8.1c5.8,0,9.2,3,10.7,6.9L30,8.5c-1.6-3.7-4.3-5.2-7.9-5.2c-3.9,0-6.2,1.9-6.2,4.5
		c0,3.3,2.1,4.3,8,6.2c6.1,1.9,9.7,4,9.7,9.2c0,5-4.4,8.5-10.8,8.5C17,31.7,12.9,28.6,11.3,23.7z"/>
	<path fill="#332E2D" d="M37.7,15.9C37.7,6,43.4,0,50.9,0s13.1,6,13.1,15.9c0,9.8-5.5,15.9-13.1,15.9S37.7,25.7,37.7,15.9z
		 M60.3,15.9c0-8-3.9-12.6-9.4-12.6c-5.6,0-9.5,4.6-9.5,12.6s3.9,12.6,9.5,12.6C56.4,28.4,60.3,23.8,60.3,15.9z"/>
	<path fill="#332E2D" d="M69.8,0.6H88v3.3H73.4v9.8h10.8V17H73.4v14.1h-3.6V0.6z"/>
	<path fill="#332E2D" d="M100.2,3.9h-9.7V0.6h23v3.3h-9.7v27.2h-3.6V3.9z"/>
	<path fill="#332E2D" d="M116.1,0.6h3.7l4.5,17.7c0.7,2.7,1.4,5.3,1.8,7.5h0.1c0.4-2.1,1-4.8,1.7-7.4L132,0.6h3.7l4.4,17.9
		c0.7,2.7,1.3,5,1.7,7.3h0.1c0.5-2.5,1-4.5,1.7-7.2l4.4-18h3.4l-8.1,30.6H140l-6.1-25.6h-0.1l-6.3,25.6h-3.3L116.1,0.6z"/>
	<path fill="#332E2D" d="M162.7,0.5h3.8l10.8,30.7h-3.7l-3-8.8h-12.1l-3,8.8h-3.5L162.7,0.5z M169.4,19.2l-4.8-14.3h-0.1l-4.9,14.3
		H169.4z"/>
	<path fill="#332E2D" d="M182.1,0.6h10.4c6.9,0,10.8,2.9,10.8,8.5c0,4.9-2.8,7.5-7.1,8.4l7.5,13.6h-3.9L192.5,18h-6.9v13.2h-3.6V0.6
		z M192.3,14.7c4.8,0,7.4-1.3,7.4-5.5c0-4-2.6-5.4-7.5-5.4h-6.6v10.9H192.3z"/>
	<path fill="#332E2D" d="M209.7,0.6h18.7v3.3h-15v9.5h11.2v3.3h-11.2v11.1h15.9v3.3h-19.5V0.6z"/>
</g>
<g>
	<path fill="#332E2D" d="M3.3,179c0-9.5,5.3-15.7,12.9-15.7c6.4,0,9.9,3.8,11.3,9.4l-3.5,1c-1.3-4.6-3.4-7-7.8-7
		c-5.7,0-9.2,4.8-9.2,12.3c0,8.1,3.6,12.7,9.3,12.7c4.3,0,7-2.4,8.3-7.4l3.4,0.8c-1.5,6-5.3,9.9-11.7,9.9C8.5,195,3.3,189,3.3,179z"
		/>
	<path fill="#332E2D" d="M30.8,179.1c0-9.8,5.6-15.9,13.1-15.9s13.1,6,13.1,15.9C57,189,51.5,195,44,195S30.8,189,30.8,179.1z
		 M53.4,179.1c0-8-3.9-12.6-9.4-12.6c-5.6,0-9.5,4.6-9.5,12.6c0,8,3.9,12.6,9.5,12.6C49.5,191.7,53.4,187.1,53.4,179.1z"/>
	<path fill="#332E2D" d="M62.1,163.9h4.7l9.6,26h0.1l9.4-26h4.8v30.6h-3.6v-24.7H87c-0.4,1.6-1.1,3.6-1.8,5.6l-7.3,19.1h-3.2
		l-7.3-19.1c-0.7-2-1.2-3.3-1.9-5.7h-0.1v24.9h-3.3V163.9z"/>
	<path fill="#332E2D" d="M97.1,163.9h10.3c6.6,0,11,2.6,11,8.7c0,6.5-4.8,9-11.2,9h-6.5v12.9h-3.6V163.9z M107.4,178.3
		c4.8,0,7.4-1.5,7.4-5.6c0-3.9-2.5-5.5-7.5-5.5h-6.6v11.1H107.4z"/>
	<path fill="#332E2D" d="M127.8,163.7h3.8l10.8,30.7h-3.7l-3-8.8h-12.1l-3,8.8H117L127.8,163.7z M134.5,182.5l-4.8-14.3h-0.1
		l-4.9,14.3H134.5z"/>
	<path fill="#332E2D" d="M146.4,163.9h3.8l16,24.2h0.1v-24.2h3.4v30.6h-3.2l-16.6-24.8h-0.1v24.8h-3.4V163.9z"/>
	<path fill="#332E2D" d="M176.5,163.9h3.6v30.6h-3.6V163.9z"/>
	<path fill="#332E2D" d="M187,163.9h18.7v3.3h-15v9.5h11.2v3.3h-11.2v11.1h15.9v3.3H187V163.9z"/>
	<path fill="#332E2D" d="M208.8,187l3-1.4c1.5,4.1,4.5,6.1,8.6,6.1c4.3,0,7.1-1.8,7.1-5c0-3-1.6-4.5-7.6-6.4
		c-6.3-1.9-10.1-3.7-10.1-9c0-4.7,4-8.1,9.8-8.1s9.2,3,10.7,6.9l-2.9,1.6c-1.6-3.7-4.3-5.2-7.9-5.2c-3.9,0-6.2,1.9-6.2,4.5
		c0,3.3,2.1,4.3,8,6.2c6.1,1.9,9.7,4,9.7,9.2c0,5-4.4,8.5-10.8,8.5C214.5,195,210.4,191.9,208.8,187z"/>
</g>
<g>
	<path fill="#20AD65" d="M20.5,116.1L0,119c0,0,1.1,28.5,33.9,28.5s38.2-22.4,38.2-39.1S59.7,76.7,40,76.7
		c-13.1,0-18.4,4.8-18.4,4.8l2.3-21h39.5V43.3H6.7L2.9,95.4l16.8,4.4c0,0,7-9.3,13.6-9.3c13.6,0,13.6,12.9,13.6,21
		c0,3.2,0.7,18.6-12.3,18.6S20.5,116.1,20.5,116.1z"/>
	<path fill="#20AD65" d="M118.7,40.9c-28.1,0-37.4,23.9-37.4,53.3s9.8,53.3,37.4,53.3c27.5,0,37.4-23.9,37.4-53.3
		S146.8,40.9,118.7,40.9z M130.1,93.9c0,20.2,0,36.6-11.4,36.6c-11.4,0-11.4-16.4-11.4-36.6s-1.3-36.6,11.4-36.6
		S130.1,73.6,130.1,93.9z"/>
	<path fill="#20AD65" d="M202.6,40.9c-28.1,0-37.4,23.9-37.4,53.3s9.8,53.3,37.4,53.3c27.5,0,37.4-23.9,37.4-53.3
		S230.8,40.9,202.6,40.9z M214.1,93.9c0,20.2,0,36.6-11.4,36.6c-11.4,0-11.4-16.4-11.4-36.6s-1.3-36.6,11.4-36.6
		C215.4,57.2,214.1,73.6,214.1,93.9z"/>
</g>
</svg>
