<svg viewBox="0 0 45 45" width="45" height="45" xmlns="http://www.w3.org/2000/svg"><defs><linearGradient y2="-0.02429" x2="0.5014" y1="0.96387" x1="0.5014" id="SVGID_1_"><stop stop-color="#000000" stop-opacity="0.15" offset="0"/><stop stop-color="#000000" stop-opacity="0.06" offset="0.3"/><stop stop-color="#000000" stop-opacity="0.03" offset="1"/></linearGradient><linearGradient y2="0.78805" x2="-0.06865" y1="0.08766" x1="1.06145" id="SVGID_2_"><stop stop-color="#000000" stop-opacity="0.15" offset="0"/><stop stop-color="#000000" stop-opacity="0.06" offset="0.3"/><stop stop-color="#000000" stop-opacity="0.03" offset="1"/></linearGradient><linearGradient y2="1.32919" x2="0.47377" y1="5.51518" x1="0.39633" id="SVGID_3_"><stop stop-color="#000000" stop-opacity="0.15" offset="0"/><stop stop-color="#000000" stop-opacity="0.06" offset="0.3"/><stop stop-color="#000000" stop-opacity="0.03" offset="1"/></linearGradient></defs><g><ellipse ry="22.1" rx="22.2" cy="22.6" cx="22.6" fill="#FFFFFF"/><path d="m36.7,26.6c0,-7.8 -6.3,-14.1 -14.1,-14.1c-7.8,0 -14.1,6.3 -14.1,14.1l4,0c0,-5.6 4.5,-10.1 10.1,-10.1s10.1,4.5 10.1,10.1" fill-opacity="0.1" fill="#EEEEEE"/><circle r="7.7" cy="25.4" cx="23.6" fill-opacity="0.1" fill="#EEEEEE"/><circle r="8.3" cy="22.6" cx="22.6" fill="#B9B9B9"/><path d="m42.7,12.5c-5.6,-11.1 -19.1,-15.7 -30.2,-10.1c-3.5,1.7 -6.5,4.3 -8.7,7.5l9.1,15.7c-1.7,-5.3 1.3,-11 6.6,-12.6c0.9,-0.3 1.9,-0.4 2.9,-0.5" fill="#BBBBBB"/><path d="m3.8,9.9c-6.9,10.3 -4.1,24.4 6.2,31.3c3.2,2.1 6.9,3.4 10.7,3.7l9.5,-16.1c-3.5,4.3 -9.9,4.9 -14.2,1.4c-1.5,-1.2 -2.5,-2.8 -3.1,-4.6" fill="#A4A4A4"/><path d="m20.7,44.9c12.4,0.9 23.3,-8.4 24.2,-20.8c0.3,-4 -0.5,-8 -2.2,-11.6l-20.3,0c5.6,0 10,4.6 10,10.1c0,2.2 -0.8,4.4 -2.2,6.2" fill="#C6C6C6"/><path d="m3.8,9.9l9.1,15.7c-0.7,-2.3 -0.5,-4.7 0.4,-6.8l-9.1,-9.5" fill="url(#SVGID_1_)"/><path d="m20.7,44.9l9.5,-16.1c-1.5,1.8 -3.6,3 -5.8,3.4l-4,12.7" fill="url(#SVGID_2_)"/><path d="m42.7,12.5l-20.3,0c3.1,0 6,1.4 7.9,3.8l12.9,-3.2" fill="url(#SVGID_3_)"/></g></svg>