<?xml version="1.0" encoding="utf-8"?>
<!-- Generator: Adobe Illustrator 17.1.0, SVG Export Plug-In . SVG Version: 6.00 Build 0)  -->
<!DOCTYPE svg PUBLIC "-//W3C//DTD SVG 1.1//EN" "http://www.w3.org/Graphics/SVG/1.1/DTD/svg11.dtd">
<svg version="1.1" id="Layer_1" xmlns="http://www.w3.org/2000/svg" xmlns:xlink="http://www.w3.org/1999/xlink" x="0px" y="0px"
	 viewBox="0 0 45 45" width="45" height="45" enable-background="new 0 0 45 45" xml:space="preserve">
<g>
	<path fill="#929292" d="M45,23.6c0-3.6-0.9-7-2.5-10C49.3-2.3,35.1,0,34.3,0.2c-3,0.6-5.8,1.6-8.4,2.8c-0.4,0-0.8,0-1.1,0
		c-9.6,0-17.7,6.8-19.7,16c5.1-5.8,8.6-8.1,10.7-9.1c-0.3,0.3-0.7,0.6-1,0.9c-0.1,0.1-0.2,0.2-0.3,0.3c-0.2,0.2-0.4,0.4-0.6,0.6
		c-0.1,0.1-0.2,0.3-0.4,0.4c-0.2,0.2-0.4,0.4-0.6,0.6c-0.1,0.1-0.3,0.3-0.4,0.4c-0.2,0.2-0.3,0.4-0.5,0.6c-0.1,0.1-0.3,0.3-0.4,0.4
		c-0.2,0.2-0.3,0.4-0.5,0.5c-0.1,0.1-0.3,0.3-0.4,0.4c-0.1,0.2-0.3,0.3-0.4,0.5c-0.1,0.2-0.3,0.3-0.4,0.5c-0.1,0.2-0.3,0.3-0.4,0.5
		c-0.1,0.2-0.3,0.3-0.4,0.5c-0.1,0.2-0.2,0.3-0.3,0.5c-0.1,0.2-0.3,0.3-0.4,0.5c-0.1,0.1-0.2,0.2-0.3,0.4c-0.8,1.1-1.5,2.2-2.2,3.2
		c0,0,0,0,0,0c-0.2,0.3-0.3,0.5-0.5,0.8c0,0,0,0,0,0c-0.2,0.3-0.3,0.5-0.5,0.8c0,0,0,0,0,0c-0.4,0.7-0.8,1.4-1.1,2
		c-1.8,3.4-2.7,5.7-2.7,5.8C-4.6,52.2,13.3,43.3,15.8,42c2.7,1.4,5.7,2.1,8.9,2.1c8.8,0,16.3-5.7,19.1-13.7H33.2
		c-1.6,2.7-4.6,4.5-8.1,4.5c-5.1,0-9.2-3.9-9.2-8.8h28.9C44.9,25.3,45,24.5,45,23.6L45,23.6z M41.2,3.3c1.7,1.2,3.1,3.1,0.7,9.4
		c-2.3-3.8-5.8-6.7-9.9-8.3C34,3.4,38.6,1.5,41.2,3.3 M4.2,42c-1.4-1.5-1.7-5.1,1.5-11.7c1.6,4.6,4.7,8.5,8.8,11
		C12.5,42.4,7.1,45,4.2,42 M15.9,20.6c0.2-4.7,4.2-8.5,9.1-8.5c4.9,0,9,3.8,9.1,8.5H15.9z"/>
</g>
</svg>
