<svg xmlns="http://www.w3.org/2000/svg" width="45" height="45" viewBox="0 0 45 45"><linearGradient id="a" x1="23.9731" x2="24.4209" y1="63.9155" y2="63.9155" gradientUnits="userSpaceOnUse" gradientTransform="matrix(0 97.3966 97.3966 0 -6206.4 -2334.164)"><stop offset="0" stop-color="#616161"/><stop offset=".3" stop-color="#616161"/><stop offset=".61" stop-color="#616161"/><stop offset="1" stop-color="#343434"/></linearGradient><path fill="url(#a)" d="M22.5 0C10.1 0 0 10.1 0 22.5 0 34.6 9.5 44.4 21.4 45h1.1c5.8 0 11-2.2 15-5.7-2.6 1.8-5.7 2.8-9 2.8-5.4 0-10.2-2.7-13.4-6.9-2.5-2.9-4.1-7.3-4.2-12.1V22c.1-4.9 1.7-9.2 4.2-12.1 3.2-4.2 8-6.8 13.4-6.8 3.3 0 6.4 1 9 2.8-4-3.7-9.2-5.9-15-5.9.1 0 0 0 0 0z" opacity=".5"/><linearGradient id="b" x1="23.9468" x2="24.3946" y1="63.677" y2="63.677" gradientUnits="userSpaceOnUse" gradientTransform="matrix(0 86.1425 86.1425 0 -5455.254 -2059.534)"><stop offset="0" stop-color="#2F2F2F"/><stop offset=".7" stop-color="#818181"/><stop offset="1" stop-color="#818181"/></linearGradient><path fill="url(#b)" d="M15.1 9.8c2.1-2.4 4.7-3.9 7.6-3.9 6.6 0 11.9 7.4 11.9 16.6 0 9.2-5.3 16.6-11.9 16.6-2.9 0-5.6-1.5-7.6-3.9 3.2 4.2 8 6.9 13.4 6.9 3.3 0 6.4-1 9-2.8 4.6-4.1 7.5-10.1 7.5-16.8 0-6.7-2.9-12.7-7.5-16.8C34.9 4 31.8 3 28.5 3c-5.4 0-10.2 2.6-13.4 6.8" opacity=".5"/></svg>