<svg width="45" height="45" xmlns="http://www.w3.org/2000/svg" xmlns:xlink="http://www.w3.org/1999/xlink" viewBox="0 0 45 45" enable-background="new 0 0 45 45"><g opacity=".5"><defs><circle id="a" cx="22.5" cy="22.5" r="22.5"/></defs><clipPath id="b"><use xlink:href="#a" overflow="visible"/></clipPath><linearGradient id="c" x1="-101.0907" x2="-100.9093" y1="146.5" y2="146.5" gradientUnits="userSpaceOnUse" gradientTransform="rotate(-90 -30667.5 5642) scale(248)"><stop offset="0" stop-color="#DBDBDB"/><stop offset=".25" stop-color="#DBDBDB"/><stop offset="1" stop-color="#FFF"/></linearGradient><path fill="url(#c)" d="M0 0h45v45H0z" clip-path="url(#b)"/><g><defs><path id="d" d="M1.7 22.5C1.7 34 11 43.3 22.5 43.3S43.3 34 43.3 22.5 34 1.7 22.5 1.7 1.7 11 1.7 22.5"/></defs><clipPath id="e"><use xlink:href="#d" overflow="visible"/></clipPath><radialGradient id="f" cx="-101.5942" cy="146.6473" r=".1815" gradientTransform="translate(14249.267 -20513.635) scale(140.0064)" gradientUnits="userSpaceOnUse"><stop offset="0" stop-color="#949494"/><stop offset=".1136" stop-color="#949494"/><stop offset="1" stop-color="#707070"/></radialGradient><path fill="url(#f)" d="M1.7 1.7h41.6v41.6H1.7z" clip-path="url(#e)"/></g><g><defs><path id="g" d="M0 0h45v45H0z"/></defs><clipPath id="h"><use xlink:href="#g" overflow="visible"/></clipPath><path fill="#F3F3F3" d="M22.5 6.8c-.1 0-.3-.1-.3-.2V2.8c0-.1.1-.2.3-.2.1 0 .3.1.3.2v3.7c0 .1-.1.3-.3.3" clip-path="url(#h)"/><path fill="#FFF" d="M22.5 6.8c-.2 0-.3-.1-.3-.3V2.8c0-.1.1-.3.3-.3.2 0 .3.1.3.3v3.7c0 .1-.1.3-.3.3m0-4.2c-.1 0-.2.1-.2.2v3.7c0 .1.1.2.2.2s.2-.1.2-.2V2.8c.1-.1 0-.2-.2-.2" clip-path="url(#h)"/><path fill="#F3F3F3" d="M24.3 4.8c-.1 0-.2-.1-.2-.3l.1-1.6c0-.1.1-.2.3-.2.1 0 .2.1.2.3l-.1 1.6c0 .1-.2.2-.3.2" clip-path="url(#h)"/><path fill="#FFF" d="M24.3 4.8c-.2 0-.3-.1-.3-.3l.1-1.6c0-.1.1-.3.3-.2.2 0 .3.1.3.3l-.1 1.6c0 .1-.1.2-.3.2m.2-2.1c-.1 0-.2.1-.2.2l-.1 1.6c0 .1.1.2.2.2s.2-.1.2-.2l.1-1.6c0-.1-.1-.2-.2-.2" clip-path="url(#h)"/><path fill="#F3F3F3" d="M25.6 7.1c-.1 0-.2-.2-.2-.3l.7-3.6c0-.1.2-.2.3-.2.1 0 .2.2.2.3l-.7 3.6c0 .1-.1.2-.3.2" clip-path="url(#h)"/><path fill="#FFF" d="M25.6 7.1c-.2 0-.2-.2-.2-.3l.7-3.6c0-.1.2-.2.3-.2.2 0 .2.2.2.3l-.7 3.6c0 .1-.1.2-.3.2m.8-4.1c-.1 0-.2.1-.3.2l-.7 3.6c0 .1.1.2.2.3.1 0 .2-.1.3-.2l.7-3.6c0-.2 0-.3-.2-.3" clip-path="url(#h)"/><path fill="#F3F3F3" d="M27.7 5.5c-.1 0-.2-.2-.2-.3l.5-1.6c0-.1.2-.2.3-.2.1 0 .2.2.2.3L28 5.3c0 .1-.1.2-.3.2" clip-path="url(#h)"/><path fill="#FFF" d="M27.7 5.5c-.1 0-.2-.2-.2-.3l.5-1.6c0-.1.2-.2.3-.2.1 0 .2.2.2.3l-.4 1.6c-.1.1-.2.2-.4.2m.6-2.1c-.1 0-.3 0-.3.2l-.4 1.6c0 .1 0 .2.2.3.1 0 .3 0 .3-.2l.4-1.6c0-.1-.1-.2-.2-.3" clip-path="url(#h)"/><path fill="#F3F3F3" d="M28.6 8c-.1-.1-.2-.2-.1-.3l1.4-3.4c.1-.1.2-.2.3-.1.1.1.2.2.1.3l-1.4 3.4c0 .1-.2.1-.3.1" clip-path="url(#h)"/><path fill="#FFF" d="M28.6 8c-.1-.1-.2-.2-.2-.4l1.4-3.4c.1-.1.2-.2.4-.1.1.1.2.2.2.4L29 7.8c-.1.2-.3.3-.4.2m1.6-3.9c-.1-.1-.3 0-.3.1l-1.4 3.4c-.1.1 0 .2.1.3.1.1.3 0 .3-.1l1.4-3.4c.1-.1 0-.2-.1-.3" clip-path="url(#h)"/><path fill="#F3F3F3" d="M31 6.8c-.1-.1-.2-.2-.1-.3l.7-1.5c.1-.1.2-.2.4-.1 0 .1.1.3 0 .4l-.7 1.5c-.1.1-.2.1-.3 0" clip-path="url(#h)"/><path fill="#FFF" d="M31 6.9c-.1-.1-.2-.2-.1-.4l.7-1.5c.1-.1.2-.2.4-.1.1.1.2.2.1.4l-.7 1.5c-.1.1-.3.1-.4.1m.9-2c-.1-.1-.3 0-.3.1l-.7 1.5c-.1.1 0 .2.1.3.1.1.3 0 .3-.1l.7-1.4c.1-.1 0-.3-.1-.4" clip-path="url(#h)"/><path fill="#F3F3F3" d="M31.3 9.4c-.1-.1-.2-.2-.1-.4l2-3c.1-.1.2-.1.4-.1.1.1.2.2.1.4l-2 3c-.1.2-.3.2-.4.1" clip-path="url(#h)"/><path fill="#FFF" d="M31.3 9.5c-.1-.1-.2-.3-.1-.4l2-3c.1-.1.2-.2.4-.1.1.1.2.3.1.4l-2 3c-.1.1-.3.1-.4.1M33.6 6c-.1-.1-.3-.1-.3.1l-2 3c-.1.1 0 .2.1.3.1.1.3.1.3-.1l2-3c.1-.1 0-.2-.1-.3" clip-path="url(#h)"/><path fill="#F3F3F3" d="M33.9 8.8c-.1-.1-.1-.2-.1-.4l1-1.3c.1-.1.2-.1.4 0 .1.1.1.2.1.4l-1 1.3c-.2.1-.3.1-.4 0" clip-path="url(#h)"/><path fill="#FFF" d="M33.9 8.8c-.1-.1-.1-.3-.1-.4l1-1.3c.1-.1.3-.1.4 0 .1.1.1.3.1.4l-1 1.3c-.1.1-.3.1-.4 0m1.3-1.7c-.1-.1-.2-.1-.3 0l-1 1.3c-.1.1-.1.2.1.3.1.1.2.1.3 0l1-1.3s0-.2-.1-.3" clip-path="url(#h)"/><path fill="#F3F3F3" d="M33.7 11.4c-.1-.1-.1-.3 0-.4l2.6-2.6c.1-.1.3-.1.4 0 .1.1.1.3 0 .4l-2.6 2.6c-.1.1-.3.1-.4 0" clip-path="url(#h)"/><path fill="#FFF" d="M33.7 11.4c-.1-.1-.1-.3 0-.4l2.6-2.6c.1-.1.3-.1.4 0 .1.1.1.3 0 .4l-2.6 2.6c-.1.1-.3.1-.4 0m3-2.9c-.1-.1-.2-.1-.3 0l-2.6 2.6c-.1.1-.1.2 0 .3.1.1.2.1.3 0l2.6-2.6v-.3" clip-path="url(#h)"/><path fill="#F3F3F3" d="M36.3 11.3c-.1-.1-.1-.3 0-.4l1.2-1.1c.1-.1.3-.1.4 0 .1.1.1.3 0 .4l-1.2 1.1c-.1.1-.3.1-.4 0" clip-path="url(#h)"/><path fill="#FFF" d="M36.3 11.3c-.1-.1-.1-.3 0-.4l1.2-1.1c.1-.1.3-.1.4 0 .1.1.1.3 0 .4l-1.2 1.1c-.1.1-.3.1-.4 0m1.6-1.4c-.1-.1-.2-.1-.3 0L36.4 11c-.1.1-.1.2 0 .3.1.1.2.1.3 0l1.2-1.1c.1 0 .1-.2 0-.3" clip-path="url(#h)"/><path fill="#F3F3F3" d="M35.6 13.8c-.1-.1-.1-.3.1-.4l3.1-2c.1-.1.3 0 .4.1.1.1.1.3-.1.4l-3.1 2c-.1.1-.3 0-.4-.1" clip-path="url(#h)"/><path fill="#FFF" d="M35.6 13.8c-.1-.1-.1-.3.1-.4l3.1-2c.1-.1.3-.1.4.1.1.1.1.3-.1.4l-3.1 2c-.1.1-.3.1-.4-.1m3.5-2.3c-.1-.1-.2-.1-.3-.1l-3.1 2c-.1.1-.1.2-.1.3.1.1.2.1.3.1l3.1-2c.1 0 .2-.2.1-.3" clip-path="url(#h)"/><path fill="#F3F3F3" d="M38.2 14.2c-.1-.1 0-.3.1-.4l1.4-.8c.1-.1.3 0 .4.1.1.1 0 .3-.1.4l-1.4.8c-.1.1-.3 0-.4-.1" clip-path="url(#h)"/><path fill="#FFF" d="M38.2 14.2c-.1-.1 0-.3.1-.4l1.4-.8c.1-.1.3 0 .4.1.1.1 0 .3-.1.4l-1.4.8c-.1.1-.3 0-.4-.1m1.9-1.1c-.1-.1-.2-.1-.3 0l-1.4.8c-.1.1-.1.2-.1.3.1.1.2.2.3.1l1.4-.8c.1-.1.1-.2.1-.4" clip-path="url(#h)"/><path fill="#F3F3F3" d="M37.1 16.5c-.1-.1 0-.3.1-.3l3.4-1.4c.1-.1.3 0 .3.1.1.1 0 .3-.1.3l-3.4 1.4c-.1.1-.3.1-.3-.1" clip-path="url(#h)"/><path fill="#FFF" d="M37.1 16.5c-.1-.1 0-.3.1-.4l3.4-1.4c.1-.1.3 0 .4.2.1.1 0 .3-.1.4l-3.4 1.4c-.2.1-.4 0-.4-.2m3.8-1.6c-.1-.1-.2-.2-.3-.1l-3.4 1.4c-.1.1-.2.2-.1.3.1.1.2.2.3.1l3.4-1.4c.1 0 .2-.1.1-.3" clip-path="url(#h)"/><path fill="#F3F3F3" d="M39.6 17.4c-.1-.1 0-.3.2-.3l1.5-.5c.1-.1.3 0 .3.2.1.1 0 .3-.2.3l-1.5.5c-.2 0-.3-.1-.3-.2" clip-path="url(#h)"/><path fill="#FFF" d="M39.5 17.4c-.1-.1 0-.3.2-.4l1.5-.5c.1-.1.3 0 .4.2.1.1 0 .3-.2.4l-1.5.5c-.2 0-.3 0-.4-.2m2.1-.6c0-.1-.2-.2-.3-.2l-1.5.5c-.1 0-.2.2-.1.3 0 .1.2.2.3.2l1.5-.5c.1-.1.1-.2.1-.3" clip-path="url(#h)"/><path fill="#F3F3F3" d="M38 19.5c0-.1.1-.3.2-.3l3.6-.7c.1 0 .3.1.3.2s-.1.3-.2.3l-3.6.7c-.2 0-.3-.1-.3-.2" clip-path="url(#h)"/><path fill="#FFF" d="M37.9 19.5c0-.2.1-.3.2-.3l3.6-.7c.1 0 .3.1.3.2 0 .2-.1.3-.2.3l-3.6.7c-.1.1-.2 0-.3-.2m4.1-.8c0-.1-.1-.2-.3-.2l-3.6.7c-.1 0-.2.2-.2.3 0 .1.1.2.3.2l3.6-.7c.2-.1.3-.2.2-.3" clip-path="url(#h)"/><path fill="#F3F3F3" d="M40.2 20.8c0-.1.1-.3.2-.3l1.6-.2c.1 0 .3.1.3.2s-.1.3-.2.3l-1.6.2c-.1.1-.3 0-.3-.2" clip-path="url(#h)"/><path fill="#FFF" d="M40.2 20.8c0-.2.1-.3.2-.3l1.6-.2c.1 0 .3.1.3.2 0 .2-.1.3-.2.3l-1.6.2c-.1.1-.3 0-.3-.2m2.1-.2c0-.1-.1-.2-.3-.2l-1.6.2c-.1 0-.2.1-.2.3 0 .1.1.2.3.2l1.6-.2c.2-.1.2-.2.2-.3" clip-path="url(#h)"/><path fill="#F3F3F3" d="M38.2 22.6c0-.1.1-.3.2-.3h3.7c.1 0 .2.1.2.3s-.1.3-.2.3h-3.7c0-.1-.2-.2-.2-.3" clip-path="url(#h)"/><path fill="#FFF" d="M38.2 22.6c0-.2.1-.3.3-.3h3.7c.1 0 .3.1.3.3 0 .2-.1.3-.3.3h-3.7c-.1-.1-.3-.2-.3-.3m4.2 0c0-.1-.1-.2-.2-.2h-3.7c-.1 0-.2.1-.2.2s.1.2.2.2h3.7c.1 0 .2-.1.2-.2" clip-path="url(#h)"/><path fill="#F3F3F3" d="M40.2 24.3c0-.1.1-.2.3-.2l1.6.1c.1 0 .2.1.2.3 0 .1-.1.2-.3.2l-1.6-.1c-.1 0-.2-.1-.2-.3" clip-path="url(#h)"/><path fill="#FFF" d="M40.2 24.3c0-.2.1-.3.3-.3l1.6.1c.1 0 .3.1.2.3 0 .2-.1.3-.3.3l-1.6-.1c-.1 0-.2-.1-.2-.3m2.1.2c0-.1-.1-.2-.2-.2l-1.6-.1c-.1 0-.2.1-.2.2s.1.2.2.2l1.6.1c.1 0 .2-.1.2-.2" clip-path="url(#h)"/><path fill="#F3F3F3" d="M37.9 25.6c0-.1.2-.2.3-.2l3.6.7c.1 0 .2.2.2.3 0 .1-.2.2-.3.2l-3.6-.7c-.1 0-.2-.1-.2-.3" clip-path="url(#h)"/><path fill="#FFF" d="M37.9 25.6c0-.2.2-.2.3-.2l3.6.7c.1 0 .2.2.2.3 0 .2-.2.2-.3.2l-3.6-.7c-.1 0-.2-.1-.2-.3m4.1.8c0-.1-.1-.2-.2-.3l-3.6-.7c-.1 0-.2.1-.3.2 0 .1.1.2.2.3l3.6.7c.2 0 .3 0 .3-.2" clip-path="url(#h)"/><path fill="#F3F3F3" d="M39.5 27.7c0-.1.2-.2.3-.2l1.6.4c.1 0 .2.2.2.3 0 .1-.2.2-.3.2l-1.6-.4c-.1 0-.2-.1-.2-.3" clip-path="url(#h)"/><path fill="#FFF" d="M39.5 27.7c0-.1.2-.2.3-.2l1.6.4c.1 0 .2.2.2.3 0 .1-.2.2-.3.2l-1.6-.4c-.1 0-.2-.1-.2-.3m2.1.6c0-.1 0-.3-.2-.3l-1.6-.4c-.1 0-.2 0-.3.2 0 .1 0 .3.2.3l1.6.4c.1 0 .2-.1.3-.2" clip-path="url(#h)"/><path fill="#F3F3F3" d="M37 28.6c.1-.1.2-.2.3-.1l3.4 1.4c.1.1.2.2.1.3-.1.1-.2.2-.3.1l-3.4-1.4c-.1-.1-.1-.2-.1-.3" clip-path="url(#h)"/><path fill="#FFF" d="M37 28.5c.1-.1.2-.2.4-.2l3.4 1.4c.1.1.2.2.1.4-.1.1-.2.2-.4.2l-3.4-1.4c-.1-.1-.1-.2-.1-.4m3.9 1.6c.1-.1 0-.3-.1-.3l-3.4-1.4c-.1-.1-.2 0-.3.1-.1.1 0 .3.1.3l3.4 1.4c.1.1.2.1.3-.1" clip-path="url(#h)"/><path fill="#F3F3F3" d="M38.2 30.9c.1-.1.2-.2.3-.1l1.5.7c.1.1.2.2.1.4-.1.1-.2.2-.4.1l-1.5-.7c0-.1-.1-.2 0-.4" clip-path="url(#h)"/><path fill="#FFF" d="M38.2 30.9c.1-.1.2-.2.4-.1l1.5.7c.1.1.2.2.1.4-.2.1-.3.2-.5.1l-1.5-.7c-.1-.1-.1-.2 0-.4m1.9 1c.1-.1 0-.3-.1-.3l-1.5-.7c-.1-.1-.2 0-.3.1-.1.1 0 .3.1.3l1.5.7c.1 0 .2 0 .3-.1" clip-path="url(#h)"/><path fill="#F3F3F3" d="M35.6 31.3c.1-.1.2-.2.4-.1l3.1 2c.1.1.1.2.1.4-.1.1-.2.2-.4.1l-3.1-2c-.2-.2-.2-.3-.1-.4" clip-path="url(#h)"/><path fill="#FFF" d="M35.6 31.3c.1-.1.3-.2.4-.1l3.1 2c.1.1.2.2.1.4-.1.1-.3.2-.4.1l-3.1-2c-.2-.1-.2-.3-.1-.4m3.4 2.3c.1-.1.1-.3-.1-.3l-3.1-2c-.1-.1-.2 0-.3.1-.1.1-.1.3.1.3l3.1 2c.1 0 .3 0 .3-.1" clip-path="url(#h)"/><path fill="#F3F3F3" d="M36.2 33.8c.1-.1.2-.1.4-.1l1.3 1c.1.1.1.2 0 .4-.1.1-.2.1-.4.1l-1.3-1v-.4" clip-path="url(#h)"/><path fill="#FFF" d="M36.2 33.8c.1-.1.3-.1.4-.1l1.3 1c.1.1.1.3.1.4-.1.1-.3.1-.4.1l-1.3-1c-.1-.1-.2-.3-.1-.4m1.7 1.3c.1-.1.1-.2 0-.3l-1.3-1c-.1-.1-.2-.1-.3.1-.1.1-.1.2 0 .3l1.3 1c.1 0 .2 0 .3-.1" clip-path="url(#h)"/><path fill="#F3F3F3" d="M33.6 33.6c.1-.1.3-.1.4 0l2.6 2.6c.1.1.1.3 0 .4-.1.1-.3.1-.4 0L33.6 34c-.1-.1-.1-.3 0-.4" clip-path="url(#h)"/><path fill="#FFF" d="M33.6 33.6c.1-.1.3-.1.4 0l2.6 2.6c.1.1.1.3 0 .4-.1.1-.3.1-.4 0L33.6 34c-.1-.1-.1-.3 0-.4m3 3c.1-.1.1-.2 0-.3L34 33.6c-.1-.1-.2-.1-.3 0-.1.1-.1.2 0 .3l2.6 2.6c0 .2.2.2.3.1" clip-path="url(#h)"/><path fill="#F3F3F3" d="M33.8 36.3c.1-.1.3-.1.4 0l1.1 1.2c.1.1.1.3 0 .4-.1.1-.3.1-.4 0l-1.1-1.2c-.1-.2-.1-.3 0-.4" clip-path="url(#h)"/><path fill="#FFF" d="M33.8 36.3c.1-.1.3-.1.4 0l1.1 1.2c.1.1.1.3 0 .4-.1.1-.3.1-.4 0l-1.1-1.2c-.2-.2-.2-.3 0-.4m1.4 1.6c.1-.1.1-.2 0-.3l-1.1-1.2c-.1-.1-.2-.1-.3 0-.1.1-.1.2 0 .3l1.1 1.2c0 .1.2.1.3 0" clip-path="url(#h)"/><path fill="#F3F3F3" d="M31.3 35.6c.1-.1.3-.1.4.1l2 3c.1.1 0 .3-.1.4-.1.1-.3.1-.4-.1l-2-3c-.1-.2-.1-.3.1-.4" clip-path="url(#h)"/><path fill="#FFF" d="M31.3 35.6c.1-.1.3-.1.4.1l2 3c.1.1.1.3-.1.4-.1.1-.3.1-.4-.1l-2-3c-.1-.2-.1-.3.1-.4m2.3 3.4c.1-.1.1-.2.1-.3l-2-3c-.1-.1-.2-.1-.3-.1-.1.1-.1.2-.1.3l2 3c0 .2.2.2.3.1" clip-path="url(#h)"/><path fill="#F3F3F3" d="M30.9 38.2c.1-.1.3 0 .4.1l.8 1.4c.1.1 0 .3-.1.4-.1.1-.3 0-.4-.1l-.8-1.4c-.1-.2 0-.3.1-.4" clip-path="url(#h)"/><path fill="#FFF" d="M30.9 38.2c.1-.1.3 0 .4.1l.8 1.4c.1.1 0 .3-.1.4-.1.1-.3 0-.4-.1l-.8-1.4c-.1-.2-.1-.3.1-.4m1 1.8c.1-.1.2-.2.1-.3l-.8-1.4c-.1-.1-.2-.1-.3-.1-.1.1-.2.2-.1.3l.8 1.4c.1.2.2.2.3.1" clip-path="url(#h)"/><path fill="#F3F3F3" d="M28.5 37c.1-.1.3 0 .3.1l1.4 3.4c.1.1 0 .3-.1.3-.1.1-.3 0-.3-.1l-1.4-3.4c0-.1 0-.2.1-.3" clip-path="url(#h)"/><path fill="#FFF" d="M28.5 37c.1-.1.3 0 .4.1l1.4 3.4c.1.1 0 .3-.2.4-.1.1-.3 0-.4-.1l-1.4-3.4c0-.2.1-.3.2-.4m1.6 3.9c.1-.1.2-.2.1-.3l-1.4-3.4c-.1-.1-.2-.2-.3-.1-.1.1-.2.2-.1.3l1.4 3.4c.1.1.2.1.3.1" clip-path="url(#h)"/><path fill="#F3F3F3" d="M27.7 39.5c.1-.1.3 0 .3.2l.5 1.5c.1.1 0 .3-.2.3-.1.1-.3 0-.3-.2l-.5-1.5c0-.1 0-.2.2-.3" clip-path="url(#h)"/><path fill="#FFF" d="M27.7 39.5c.1-.1.3 0 .4.2l.5 1.5c.1.1 0 .3-.2.4-.1.1-.3 0-.4-.2l-.5-1.5c0-.2 0-.3.2-.4m.7 2c.1 0 .2-.2.2-.3l-.6-1.5c0-.1-.2-.2-.3-.1-.1 0-.2.2-.2.3l.5 1.5c.1.1.2.2.4.1" clip-path="url(#h)"/><path fill="#F3F3F3" d="M25.6 37.9c.1 0 .3.1.3.2l.7 3.6c0 .1-.1.3-.2.3s-.3-.1-.3-.2l-.7-3.6c0-.1.1-.2.2-.3" clip-path="url(#h)"/><path fill="#FFF" d="M25.6 37.9c.2 0 .3.1.3.2l.7 3.6c0 .1-.1.3-.2.3-.2 0-.3-.1-.3-.2l-.7-3.6c0-.1.1-.2.2-.3m.8 4.1c.1 0 .2-.1.2-.3l-.7-3.6c0-.1-.2-.2-.3-.2-.1 0-.2.1-.2.3l.7 3.6c.1.2.2.2.3.2" clip-path="url(#h)"/><path fill="#F3F3F3" d="M24.3 40.2c.1 0 .3.1.3.2l.2 1.6c0 .1-.1.3-.2.3s-.3-.1-.3-.2l-.3-1.6c0-.1.1-.3.3-.3" clip-path="url(#h)"/><path fill="#FFF" d="M24.3 40.2c.2 0 .3.1.3.2l.2 1.6c0 .1-.1.3-.2.3-.2 0-.3-.1-.3-.2l-.3-1.6c0-.1.1-.3.3-.3m.2 2.1c.1 0 .2-.1.2-.3l-.2-1.6c0-.1-.1-.2-.3-.2-.1 0-.2.1-.2.3l.2 1.6c.1.1.2.2.3.2" clip-path="url(#h)"/><path fill="#F3F3F3" d="M22.5 38.2c.1 0 .3.1.3.2v3.7c0 .1-.1.2-.3.2-.1 0-.3-.1-.3-.2v-3.7s.1-.2.3-.2" clip-path="url(#h)"/><path fill="#FFF" d="M22.5 38.2c.2 0 .3.1.3.3v3.7c0 .1-.1.3-.3.3-.2 0-.3-.1-.3-.3v-3.7c0-.1.1-.3.3-.3m0 4.2c.1 0 .2-.1.2-.2v-3.7c0-.1-.1-.2-.2-.2s-.2.1-.2.2v3.7c-.1.1 0 .2.2.2" clip-path="url(#h)"/><path fill="#F3F3F3" d="M20.7 40.2c.1 0 .2.1.2.3l-.1 1.6c0 .1-.1.2-.3.2-.1 0-.2-.1-.2-.3l.1-1.6c0-.1.2-.2.3-.2" clip-path="url(#h)"/><path fill="#FFF" d="M20.7 40.2c.2 0 .3.1.3.3l-.1 1.6c0 .1-.1.3-.3.2-.2 0-.3-.1-.3-.3l.1-1.6c0-.1.1-.2.3-.2m-.2 2.1c.1 0 .2-.1.2-.2l.1-1.6c0-.1-.1-.2-.2-.2s-.2.1-.2.2l-.1 1.6c0 .1.1.2.2.2" clip-path="url(#h)"/><path fill="#F3F3F3" d="M19.4 37.9c.1 0 .2.2.2.3l-.7 3.6c0 .1-.2.2-.3.2-.1 0-.2-.2-.2-.3l.7-3.6c0-.1.1-.2.3-.2" clip-path="url(#h)"/><path fill="#FFF" d="M19.4 37.9c.2 0 .2.2.2.3l-.7 3.6c0 .1-.2.2-.3.2-.2 0-.2-.2-.2-.3l.7-3.6c0-.1.1-.2.3-.2m-.8 4.1c.1 0 .2-.1.3-.2l.7-3.6c0-.1-.1-.2-.2-.3-.1 0-.2.1-.3.2l-.7 3.6c0 .2 0 .3.2.3" clip-path="url(#h)"/><path fill="#F3F3F3" d="M17.3 39.5c.1 0 .2.2.2.3l-.5 1.6c0 .1-.2.2-.3.2-.1 0-.2-.2-.2-.3l.4-1.6c.1-.1.2-.2.4-.2" clip-path="url(#h)"/><path fill="#FFF" d="M17.3 39.5c.1 0 .2.2.2.3l-.5 1.6c0 .1-.2.2-.3.2-.1 0-.2-.2-.2-.3l.4-1.6c.1-.1.2-.2.4-.2m-.6 2.1c.1 0 .3 0 .3-.2l.4-1.6c0-.1 0-.2-.2-.3-.1 0-.3 0-.3.2l-.4 1.6c0 .1.1.2.2.3" clip-path="url(#h)"/><path fill="#F3F3F3" d="M16.4 37c.1.1.2.2.1.3l-1.4 3.4c-.1.1-.2.2-.3.1-.1-.1-.2-.2-.1-.3l1.4-3.4c0-.1.2-.1.3-.1" clip-path="url(#h)"/><path fill="#FFF" d="M16.4 37c.1.1.2.2.2.4l-1.4 3.4c-.1.1-.2.2-.4.1-.1-.1-.2-.2-.2-.4l1.4-3.4c.1-.1.3-.2.4-.1m-1.6 3.9c.1.1.3 0 .3-.1l1.4-3.4c.1-.1 0-.2-.1-.3-.1-.1-.3 0-.3.1l-1.4 3.4c-.1.1 0 .2.1.3" clip-path="url(#h)"/><path fill="#F3F3F3" d="M14 38.2c.1.1.2.2.1.3l-.7 1.5c-.1.1-.2.2-.4.1 0-.1-.1-.3 0-.4l.7-1.5c.1-.1.2-.1.3 0" clip-path="url(#h)"/><path fill="#FFF" d="M14 38.1c.1.1.2.2.1.4l-.7 1.5c-.1.1-.2.2-.4.1-.1-.1-.2-.2-.1-.4l.7-1.5c.1-.1.3-.1.4-.1m-.9 2c.1.1.3 0 .3-.1l.7-1.5c.1-.1 0-.2-.1-.3-.1-.1-.3 0-.3.1l-.7 1.4c-.1.1 0 .3.1.4" clip-path="url(#h)"/><path fill="#F3F3F3" d="M13.7 35.6c.1.1.2.2.1.4l-2 3c-.1.1-.2.1-.4.1-.1-.1-.2-.2-.1-.4l2-3c.1-.2.3-.2.4-.1" clip-path="url(#h)"/><path fill="#FFF" d="M13.7 35.5c.1.1.2.3.1.4l-2 3c-.1.1-.2.2-.4.1-.1-.1-.2-.3-.1-.4l2-3c.1-.1.3-.1.4-.1M11.4 39c.1.1.3.1.3-.1l2-3c.1-.1 0-.2-.1-.3-.1-.1-.3-.1-.3.1l-2 3c-.1.1 0 .2.1.3" clip-path="url(#h)"/><path fill="#F3F3F3" d="M11.1 36.2c.1.1.1.2.1.4l-1 1.3c-.1.1-.2.1-.4 0-.1-.1-.1-.2-.1-.4l1-1.3c.2-.1.3-.1.4 0" clip-path="url(#h)"/><path fill="#FFF" d="M11.1 36.2c.1.1.1.3.1.4l-1 1.3c-.1.1-.3.1-.4 0-.1-.1-.1-.3-.1-.4l1-1.3c.1-.1.3-.1.4 0m-1.3 1.7c.1.1.2.1.3 0l1-1.3c.1-.1.1-.2-.1-.3-.1-.1-.2-.1-.3 0l-1 1.3s0 .2.1.3" clip-path="url(#h)"/><path fill="#F3F3F3" d="M11.3 33.6c.1.1.1.3 0 .4l-2.6 2.6c-.1.1-.3.1-.4 0-.1-.1-.1-.3 0-.4l2.6-2.6c.1-.1.3-.1.4 0" clip-path="url(#h)"/><path fill="#FFF" d="M11.3 33.6c.1.1.1.3 0 .4l-2.6 2.6c-.1.1-.3.1-.4 0-.1-.1-.1-.3 0-.4l2.6-2.6c.1-.1.3-.1.4 0m-3 2.9c.1.1.2.1.3 0l2.6-2.6c.1-.1.1-.2 0-.3-.1-.1-.2-.1-.3 0l-2.6 2.6v.3" clip-path="url(#h)"/><path fill="#F3F3F3" d="M8.7 33.7c.1.1.1.3 0 .4l-1.2 1.1c-.1.1-.3.1-.4 0-.1-.2-.1-.4 0-.5l1.2-1.1c.1 0 .3 0 .4.1" clip-path="url(#h)"/><path fill="#FFF" d="M8.7 33.7c.1.1.1.3 0 .4l-1.2 1.1c-.1.1-.3.1-.4 0-.1-.1-.1-.3 0-.4l1.2-1.1c.1-.1.3-.1.4 0m-1.6 1.4c.1.1.2.1.3 0L8.6 34c.1-.1.1-.2 0-.3-.1-.1-.2-.1-.3 0l-1.2 1.1c-.1 0-.1.2 0 .3" clip-path="url(#h)"/><path fill="#F3F3F3" d="M9.4 31.2c.1.1.1.3-.1.4l-3.1 2c-.1.1-.3 0-.4-.1-.1-.1-.1-.3.1-.4l3.1-2c.1-.1.3 0 .4.1" clip-path="url(#h)"/><path fill="#FFF" d="M9.4 31.2c.1.1.1.3-.1.4l-3.1 2c-.1.1-.3.1-.4-.1-.1-.1-.1-.3.1-.4l3.1-2c.1-.1.3-.1.4.1m-3.5 2.3c.1.1.2.1.3.1l3.1-2c.1-.1.1-.2.1-.3-.1-.2-.3-.3-.4-.2l-3.1 2c0 .1-.1.3 0 .4" clip-path="url(#h)"/><path fill="#F3F3F3" d="M6.8 30.8c.1.1 0 .3-.1.4l-1.5.8c-.1 0-.2 0-.3-.1-.1-.1 0-.3.1-.4l1.4-.8c.1-.1.3 0 .4.1" clip-path="url(#h)"/><path fill="#FFF" d="M6.8 30.8c.1.1 0 .3-.1.4l-1.4.8c-.2 0-.3 0-.4-.1-.1-.1 0-.3.1-.4l1.4-.8c.1-.1.3 0 .4.1m-1.9 1.1c.1.1.2.1.3 0l1.4-.8c.1-.1.1-.2.1-.3-.1-.1-.2-.2-.3-.1l-1.4.8c-.1.1-.1.2-.1.4" clip-path="url(#h)"/><path fill="#F3F3F3" d="M7.9 28.5c.1.1 0 .3-.1.3l-3.4 1.4c-.1.1-.3 0-.3-.1-.1-.1 0-.3.1-.3l3.4-1.4c.1-.1.3-.1.3.1" clip-path="url(#h)"/><path fill="#FFF" d="M7.9 28.5c.1.1 0 .3-.1.4l-3.4 1.4c-.1.1-.3 0-.4-.2-.1-.1 0-.3.1-.4l3.4-1.4c.2-.1.4 0 .4.2m-3.8 1.6c.1.1.2.2.3.1l3.4-1.4c.1-.1.2-.2.1-.3-.1-.1-.2-.2-.3-.1l-3.4 1.4c-.1 0-.2.1-.1.3" clip-path="url(#h)"/><path fill="#F3F3F3" d="M5.4 27.6c.1.1 0 .3-.2.3l-1.5.5c-.1.1-.3 0-.3-.2-.1-.1 0-.3.2-.3l1.5-.5c.2 0 .3.1.3.2" clip-path="url(#h)"/><path fill="#FFF" d="M5.5 27.6c.1.1 0 .3-.2.4l-1.5.5c-.1.1-.3 0-.4-.2-.1-.1 0-.3.2-.4l1.5-.5c.2 0 .3 0 .4.2m-2.1.6c0 .1.2.2.3.2l1.5-.5c.1 0 .2-.2.1-.3s-.2-.2-.3-.2l-1.5.5c-.1.1-.1.2-.1.3" clip-path="url(#h)"/><path fill="#F3F3F3" d="M7 25.5c0 .1-.1.3-.2.3l-3.6.7c-.1 0-.3-.1-.3-.2s.1-.3.2-.3l3.6-.7c.2 0 .3.1.3.2" clip-path="url(#h)"/><path fill="#FFF" d="M7.1 25.5c0 .2-.1.3-.2.3l-3.6.7c-.1 0-.3-.1-.3-.2-.1-.1 0-.3.1-.3l3.6-.7c.2-.1.3 0 .4.2m-4.1.8c0 .1.1.2.3.2l3.6-.7c.1 0 .1-.2.1-.3 0-.1-.1-.2-.3-.2l-3.6.7c-.1.1-.2.2-.1.3" clip-path="url(#h)"/><path fill="#F3F3F3" d="M4.8 24.2c0 .1-.1.3-.2.3l-1.6.1c-.1 0-.3-.1-.3-.2s.1-.3.2-.3l1.6-.2c.1 0 .3.1.3.3" clip-path="url(#h)"/><path fill="#FFF" d="M4.8 24.2c0 .2-.1.3-.2.3l-1.6.2c-.1 0-.3-.1-.3-.2 0-.2.1-.3.2-.3l1.6-.2c.1-.1.3 0 .3.2m-2.1.2c0 .1.1.2.3.2l1.6-.2c.1 0 .2-.1.2-.3 0-.1-.1-.2-.3-.2l-1.6.2c-.2.1-.2.2-.2.3" clip-path="url(#h)"/><path fill="#F3F3F3" d="M6.8 22.4c0 .1-.1.3-.2.3H2.8c-.1 0-.2-.1-.2-.3 0-.1.1-.3.2-.3h3.7c.1.1.3.2.3.3" clip-path="url(#h)"/><path fill="#FFF" d="M6.8 22.4c0 .2-.1.3-.3.3H2.8c-.1 0-.3-.1-.3-.3s.1-.3.3-.3h3.7c.1.1.3.2.3.3m-4.2 0c0 .1.1.2.2.2h3.7c.1 0 .2-.1.2-.2s-.1-.2-.2-.2H2.8c-.1 0-.2.1-.2.2" clip-path="url(#h)"/><path fill="#E2E2E2" d="M4.8 20.7c0 .1-.1.2-.3.2l-1.6-.1c-.1 0-.2-.1-.2-.3 0-.1.1-.2.3-.2l1.6.1c.1 0 .2.1.2.3" clip-path="url(#h)"/><path fill="#FFF" d="M4.8 20.7c0 .2-.1.3-.3.3l-1.6-.1c-.1 0-.3-.1-.2-.3 0-.2.1-.3.3-.3l1.6.1c.1 0 .2.1.2.3m-2.1-.2c0 .1.1.2.2.2l1.6.1c.1 0 .2-.1.2-.2s-.1-.2-.2-.2l-1.6-.1c-.1 0-.2.1-.2.2" clip-path="url(#h)"/><path fill="#F3F3F3" d="M7.1 19.4c0 .1-.2.2-.3.2l-3.6-.7c-.1 0-.2-.2-.2-.3 0-.1.2-.2.3-.2l3.6.7c.1 0 .2.1.2.3" clip-path="url(#h)"/><path fill="#FFF" d="M7.1 19.4c0 .2-.2.2-.3.2l-3.6-.7c-.1 0-.2-.2-.2-.3 0-.2.2-.2.3-.2l3.6.7c.1 0 .2.1.2.3M3 18.6c0 .1.1.2.2.3l3.6.7c.1 0 .2-.1.3-.2 0-.1-.1-.2-.2-.3l-3.6-.7c-.2 0-.3 0-.3.2" clip-path="url(#h)"/><path fill="#F3F3F3" d="M5.5 17.3c0 .1-.2.2-.3.2L3.6 17c-.1 0-.2-.2-.2-.3 0-.1.2-.2.3-.2l1.6.5c.1 0 .2.1.2.3" clip-path="url(#h)"/><path fill="#FFF" d="M5.5 17.3c0 .1-.2.2-.3.2L3.6 17c-.1 0-.2-.2-.2-.3 0-.1.2-.2.3-.2l1.6.4c.1.1.2.2.2.4m-2.1-.6c0 .1 0 .3.2.3l1.6.4c.1 0 .2 0 .3-.2 0-.1 0-.3-.2-.3l-1.6-.4c-.1 0-.2.1-.3.2" clip-path="url(#h)"/><path fill="#F3F3F3" d="M8 16.4c-.1.1-.2.2-.3.1l-3.4-1.4c-.2 0-.3-.1-.2-.3.1-.1.2-.2.3-.1l3.4 1.4c.2.1.2.2.2.3" clip-path="url(#h)"/><path fill="#FFF" d="M8 16.5c-.1.1-.2.2-.4.2l-3.4-1.4c-.1-.1-.2-.3-.1-.5.1-.1.2-.2.4-.2L7.9 16c.1.2.1.3.1.5m-3.9-1.6c-.1.1 0 .3.1.3l3.4 1.4c.1.1.2 0 .3-.1.1-.1 0-.3-.1-.3l-3.4-1.4c-.1-.1-.2-.1-.3.1" clip-path="url(#h)"/><path fill="#F3F3F3" d="M6.8 14.1c-.1.1-.2.2-.3.1L5 13.4c-.1-.1-.2-.2-.1-.4.1 0 .2-.1.4 0l1.5.7c0 .1.1.2 0 .4" clip-path="url(#h)"/><path fill="#FFF" d="M6.8 14.1c-.1.1-.2.2-.4.1L5 13.5c-.1-.1-.2-.2-.1-.4.1-.1.2-.2.4-.1l1.5.7c.1.1.1.2 0 .4m-1.9-1c-.1.1 0 .3.1.3l1.5.7c.1.1.2 0 .3-.1.1-.1 0-.3-.1-.3L5.2 13c-.1 0-.2 0-.3.1" clip-path="url(#h)"/><path fill="#F3F3F3" d="M9.4 13.7c-.1.1-.2.2-.4.1l-3-2c-.1-.1-.1-.2-.1-.4.1-.1.2-.2.4-.1l3.1 2c.1.2.1.3 0 .4" clip-path="url(#h)"/><path fill="#FFF" d="M9.4 13.7c-.1.1-.3.2-.4.1l-3-2c-.1-.1-.2-.2-.1-.4.1-.1.3-.2.4-.1l3 2c.2.1.2.3.1.4M6 11.4c-.1.1-.1.3.1.3l3.1 2c.1.1.2 0 .3-.1.1-.1.1-.3-.1-.3l-3.1-2c-.1 0-.3 0-.3.1" clip-path="url(#h)"/><path fill="#F3F3F3" d="M8.8 11.2c-.1.1-.2.1-.4.1l-1.3-1c-.1-.2-.1-.3 0-.4.1-.1.2-.1.4-.1l1.3 1v.4" clip-path="url(#h)"/><path fill="#FFF" d="M8.8 11.2c-.1.1-.3.1-.4.1l-1.3-1C7 10.2 7 10 7 9.9c.1-.1.3-.1.4-.1l1.3 1c.1.1.2.3.1.4M7.1 9.9c-.1.1-.1.2 0 .3l1.3 1c.1.1.2.1.3-.1.1-.1.1-.2 0-.3l-1.3-1c-.1 0-.2 0-.3.1" clip-path="url(#h)"/><path fill="#F3F3F3" d="M11.4 11.4c-.1.1-.3.1-.4 0L8.4 8.8c-.1-.1-.1-.3 0-.4.1-.1.3-.1.4 0l2.6 2.6c.1.1.1.3 0 .4" clip-path="url(#h)"/><path fill="#FFF" d="M11.4 11.4c-.1.1-.3.1-.4 0L8.4 8.8c-.1-.1-.1-.3 0-.4.1-.1.3-.1.4 0l2.6 2.6c.1.1.1.3 0 .4m-3-3c-.1.1-.1.2 0 .3l2.6 2.6c.1.1.2.1.3 0 .1-.1.1-.2 0-.3L8.8 8.4c-.1-.1-.3-.1-.4 0" clip-path="url(#h)"/><path fill="#F3F3F3" d="M11.2 8.7c-.1.1-.3.1-.4 0l-1-1.2c-.1-.1-.1-.3 0-.4.1-.1.3-.1.4 0l1.1 1.2c0 .2 0 .3-.1.4" clip-path="url(#h)"/><path fill="#FFF" d="M11.2 8.7c-.1.1-.3.1-.4 0l-1-1.2c-.1-.1-.1-.3 0-.4.1-.1.3-.1.4 0l1.1 1.2c.1.2.1.3-.1.4M9.8 7.1c-.1.1-.1.2 0 .3l1.1 1.2c.1.1.2.1.3 0 .1-.1.1-.2 0-.3l-1.1-1.2c0-.1-.2-.1-.3 0" clip-path="url(#h)"/><path fill="#F3F3F3" d="M13.7 9.4c-.1.1-.3.1-.4-.1l-2.1-3c-.1-.1 0-.3.1-.4.1-.1.3-.1.4.1l2 3c.2.2.2.3 0 .4" clip-path="url(#h)"/><path fill="#FFF" d="M13.7 9.4c-.1.1-.3.1-.4-.1l-2-3c-.1-.1-.1-.3.1-.4.1-.1.3-.1.4.1l2 3c.1.2.1.3-.1.4M11.4 6c-.1.1-.1.2-.1.3l2 3c.1.1.2.1.3.1.1-.1.1-.2.1-.3l-2-3c0-.2-.2-.2-.3-.1" clip-path="url(#h)"/><path fill="#F3F3F3" d="M14.1 6.8c-.1.1-.3 0-.4-.1L13 5.3c-.1-.1 0-.3.1-.4.1-.1.3 0 .4.1l.8 1.4c0 .2-.1.3-.2.4" clip-path="url(#h)"/><path fill="#FFF" d="M14.1 6.8c-.1.1-.3 0-.4-.1l-.8-1.4c-.1-.1 0-.3.1-.4.1-.1.3 0 .4.1l.8 1.4c.1.2.1.3-.1.4m-1-1.8c-.1 0-.2.2-.1.3l.8 1.4c.1.1.2.1.3.1.1-.1.2-.2.1-.3L13.4 5c-.1-.1-.2-.1-.3 0" clip-path="url(#h)"/><path fill="#F3F3F3" d="M16.5 8c-.1.1-.3 0-.3-.1l-1.4-3.4c-.1-.1 0-.3.1-.3.1-.1.3 0 .3.1l1.4 3.4c0 .1 0 .2-.1.3" clip-path="url(#h)"/><path fill="#FFF" d="M16.5 8c-.1.1-.3 0-.4-.1l-1.4-3.4c-.1-.1 0-.3.2-.4.1-.1.3 0 .4.1l1.4 3.4c0 .2-.1.3-.2.4m-1.6-3.9c-.1.1-.2.2-.1.3l1.4 3.4c.1.1.2.2.3.1.1-.1.2-.2.1-.3l-1.4-3.4c-.1-.1-.2-.1-.3-.1" clip-path="url(#h)"/><path fill="#F3F3F3" d="M17.3 5.5c-.1.1-.3 0-.3-.2l-.5-1.5c-.1-.1 0-.3.2-.3.1 0 .3 0 .3.2l.5 1.5c0 .1 0 .2-.2.3" clip-path="url(#h)"/><path fill="#FFF" d="M17.3 5.5c-.1.1-.3 0-.4-.2l-.5-1.5c-.1-.1 0-.3.2-.4.1-.1.3 0 .4.2l.5 1.5c0 .2 0 .3-.2.4m-.7-2c-.1 0-.2.2-.2.3l.6 1.5c0 .1.2.2.3.1.1 0 .2-.2.2-.3L17 3.6c-.1-.1-.2-.2-.4-.1" clip-path="url(#h)"/><path fill="#F3F3F3" d="M19.4 7.1c-.1 0-.3-.1-.3-.2l-.7-3.6c0-.1.1-.3.2-.3s.3.1.3.2l.7 3.6c0 .1-.1.2-.2.3" clip-path="url(#h)"/><path fill="#FFF" d="M19.4 7.1c-.2 0-.3-.1-.3-.2l-.7-3.6c0-.1.1-.3.2-.3.2 0 .3.1.3.2l.7 3.6c0 .1-.1.2-.2.3M18.6 3c-.1 0-.2.1-.2.3l.7 3.6c0 .1.2.2.3.2.1 0 .2-.1.2-.3l-.7-3.6c-.1-.2-.2-.2-.3-.2" clip-path="url(#h)"/><path fill="#F3F3F3" d="M20.7 4.8c-.1 0-.3-.1-.3-.2L20.2 3c0-.1.1-.3.2-.3s.3.1.3.2l.3 1.6c0 .1-.1.3-.3.3" clip-path="url(#h)"/><path fill="#FFF" d="M20.7 4.8c-.2 0-.3-.1-.3-.2L20.2 3c0-.1.1-.3.2-.3.2 0 .3.1.3.2l.3 1.6c0 .1-.1.3-.3.3m-.2-2.1c-.1 0-.2.1-.2.3l.2 1.6c0 .1.1.2.3.2.1 0 .2-.1.2-.3l-.2-1.6c-.1-.1-.2-.2-.3-.2" clip-path="url(#h)"/><g opacity=".2" clip-path="url(#h)"><defs><path id="i" d="M1.8 1.7h41.6v41.6H1.8z"/></defs><clipPath id="j"><use xlink:href="#i" overflow="visible"/></clipPath><g clip-path="url(#j)"><defs><path id="k" d="M22.6 1.7c11.5 0 20.8 9.3 20.8 20.8s-9.3 20.8-20.8 20.8S1.8 34 1.8 22.5 11.1 1.7 22.6 1.7"/></defs><clipPath id="m"><use xlink:href="#k" overflow="visible"/></clipPath><defs><filter id="l" width="77" height="77" x="-15.9" y="-16" filterUnits="userSpaceOnUse"><feColorMatrix values="1 0 0 0 0 0 1 0 0 0 0 0 1 0 0 0 0 0 1 0"/></filter></defs><mask id="o" width="77" height="77" x="-15.9" y="-16" maskUnits="userSpaceOnUse"><g filter="url(#l)"><linearGradient id="n" x1="-101.2916" x2="-101.1101" y1="146.5041" y2="146.5041" gradientUnits="userSpaceOnUse" gradientTransform="rotate(119.1 -829.946 11342.652) scale(109.959)"><stop offset="0"/><stop offset="1" stop-color="#FFF"/></linearGradient><path fill="url(#n)" d="M11.7-16l-27.6 49.4L33.6 61l27.5-49.5z" clip-path="url(#m)"/></g></mask><linearGradient id="p" x1="-101.2916" x2="-101.1101" y1="146.5041" y2="146.5041" gradientUnits="userSpaceOnUse" gradientTransform="rotate(119.1 -829.946 11342.652) scale(109.959)"><stop offset="0"/><stop offset="1"/></linearGradient><path fill="url(#p)" d="M11.7-16l-27.6 49.4L33.6 61l27.5-49.5" clip-path="url(#m)" mask="url(#o)"/></g></g><g opacity=".0500031" clip-path="url(#h)"><defs><path id="q" d="M9.7 9.3H37v28.1H9.7z"/></defs><clipPath id="r"><use xlink:href="#q" overflow="visible"/></clipPath><path d="M37 9.3L20.3 20h-.1v.1L9.7 37.4 25.1 25l.1-.1" clip-path="url(#r)"/></g><path fill="#4D4D4D" d="M36.7 8.3L20.1 20.1 25 25" clip-path="url(#h)"/><path fill="#848484" d="M20.1 20l2.5 2.5L36.7 8.3" clip-path="url(#h)"/><path fill="#ACACAC" d="M20.1 20l5 4.9L8.5 36.7" clip-path="url(#h)"/><path fill="#EEE" d="M8.5 36.7l14.1-14.2-2.5-2.5" clip-path="url(#h)"/></g></g></svg>