<svg xmlns="http://www.w3.org/2000/svg" viewBox="0 0 156 22"><path fill="#878787" d="M75.8,6.8c-1.4-0.9-3-1.4-4.7-1.4c-4.5,0-8.2,3.6-8.2,8.2c0,4.5,3.7,8.2,8.2,8.2c1.8,0,3.4-0.5,4.7-1.4v1h3.9 V5.6h-3.9V6.8z M71.2,18.1c-2.5,0-4.6-2-4.6-4.5c0-2.5,2.1-4.5,4.6-4.5c2.5,0,4.6,2.1,4.6,4.5C75.8,16,73.7,18.1,71.2,18.1z"/><path fill="#878787" d="M94,6.8c-1.4-0.9-2.9-1.4-4.7-1.4c-4.6,0-8.3,3.6-8.3,8.2c0,4.5,3.7,8.2,8.3,8.2c1.7,0,3.3-0.5,4.7-1.4v1h3.9 V0.2H94V6.8z M89.4,18.1c-2.5,0-4.6-2-4.6-4.5c0-2.5,2.1-4.5,4.6-4.5c2.5,0,4.6,2.1,4.6,4.5C94,16,91.9,18.1,89.4,18.1z"/><path fill="#878787" d="M152,12.1c-2.6-0.7-5.9-0.6-5.9-2.2c0.1-1.1,1.2-1.4,2.7-1.4c2.4,0,2.5,1.3,2.6,2.1h4c-0.3-3.1-2.8-5.2-6.8-5.2 c-4.1,0-6.5,2.2-6.5,5.1c0,1.7,0.9,3.1,2.2,3.8c1,0.5,2.5,0.8,4.1,1.1c1.7,0.3,3.2,0.4,3.3,1.6 c0,0.8-0.8,1.8-2.6,1.8c-2.7-0.1-3.3-1.5-3.3-2.5h-4.1c0.2,3.2,2.8,5.4,7.2,5.4c3.9,0,7.1-1.5,7.1-5.4C156,14.2,154.4,12.7,152,12.1z"/><path fill="#878787" d="M118.2,6.8c-1.4-0.9-2.9-1.4-4.7-1.4c-4.5,0-8.2,3.6-8.2,8.2c0,4.5,3.7,8.2,8.2,8.2c1.8,0,3.4-0.5,4.7-1.4v1 h3.9V0.2h-3.9V6.8z M113.6,18.1c-2.4,0-4.5-2-4.5-4.5c0-2.5,2.1-4.5,4.5-4.5c2.5,0,4.6,2.1,4.6,4.5C118.2,16,116.2,18.1,113.6,18.1z"/><path fill="#878787" d="M136.3,6.8c-1.3-0.9-2.9-1.4-4.7-1.4c-4.5,0-8.2,3.6-8.2,8.2c0,4.5,3.7,8.2,8.2,8.2c1.8,0,3.4-0.5,4.7-1.4v1	h3.9V5.6h-3.9V6.8z M131.8,18.1c-2.5,0-4.5-2-4.5-4.5c0-2.5,2.1-4.5,4.5-4.5c2.5,0,4.5,2.1,4.5,4.5C136.3,16,134.2,18.1,131.8,18.1z"/><polygon fill="#878787" points="99.8,0.2 99.8,0.2 99.8,4.1 103.8,4.1 103.8,0.2 "/><rect x="99.8" y="5.6" fill="#878787" width="3.9" height="15.8"/><path fill="#878787" d="M153.4,0.6c-1.1,0-2,0.9-2,2c0,1.1,0.9,2,2,2c1.1,0,2.1-0.9,2.1-2C155.5,1.5,154.6,0.6,153.4,0.6z M153.4,4.3 c-0.9,0-1.7-0.8-1.7-1.8c0-1,0.8-1.8,1.7-1.8c0.9,0,1.8,0.8,1.8,1.8C155.2,3.5,154.4,4.3,153.4,4.3z"/><path fill="#878787" d="M153.9,2.7c0.2-0.1,0.4-0.3,0.4-0.6c0-0.4-0.4-0.6-0.8-0.6h-0.8v2.2h0.4V2.8h0.5c0.3,0,0.3,0.2,0.3,0.6 c0,0.1,0,0.2,0.1,0.3h0.4c-0.1-0.1-0.1-0.3-0.1-0.6C154.3,2.7,154.1,2.7,153.9,2.7z M153.4,2.4h-0.3V1.8h0.5c0.2,0,0.3,0.1,0.3,0.3 C153.9,2.4,153.6,2.4,153.4,2.4z"/><rect x="0" y="18.4" fill="#878787" width="57.8" height="3.4"/><rect x="0" y="12" fill="#878787" width="57.8" height="3.4"/><rect x="0" y="5.6" fill="#878787" width="57.8" height="3.4"/></svg>
