<svg width="120" height="34.2" xmlns="http://www.w3.org/2000/svg">
 <style type="text/css">.st0{fill-rule:evenodd;clip-rule:evenodd;fill:#C1C1C1;}
	.st1{fill-rule:evenodd;clip-rule:evenodd;fill:#D9D9D9;}
	.st2{fill-rule:evenodd;clip-rule:evenodd;fill:#EBEBEB;}</style>

 <g>
  <title>background</title>
  <rect fill="none" id="canvas_background" height="402" width="582" y="-1" x="-1"/>
 </g>
 <g>
  <title>Layer 1</title>
  <g id="svg_1">
   <path id="svg_2" d="m53.5,22c0,0.3 -0.6,1.4 -0.9,1.8c-1.7,2.4 -4.2,3 -6.9,2.5c-2.4,-0.4 -4.3,-1.6 -5.1,-4.2c4.8,-2 9.5,-4 14.4,-6.1c-2.2,-4.9 -6.2,-7.1 -10.5,-5.9c-4.5,1.2 -7.2,5.7 -6.5,10.6c0.6,4.4 4.4,7.6 9,7.6c4.2,0 7.8,-2.8 8.3,-6.4l-1.8,0l0,0.1zm-13.2,-1.9c-0.8,-3.5 0.9,-6.6 4.1,-7.9c2.9,-1.2 5.9,-0.1 7.7,2.9c-3.9,1.7 -7.8,3.3 -11.8,5z" class="st0"/>
   <path id="svg_3" d="m81.1,19.2c0,-5.3 3.9,-9.4 8.8,-9.3c4.9,0 8.7,4.1 8.8,9.2c0.1,5.2 -3.9,9.3 -8.9,9.3c-4.9,-0.1 -8.7,-4 -8.7,-9.2zm15.6,-0.1c0,-4.1 -3.1,-7.3 -6.8,-7.3c-3.8,0 -6.8,3.3 -6.8,7.4c0,4.1 3,7.3 6.9,7.2c3.8,0 6.7,-3.2 6.7,-7.3z" class="st0"/>
   <path id="svg_4" d="m105,27.8l15,0l0,-1.8c0,0 -9.2,0 -12.8,0c2.3,-2.9 12.9,-15.6 12.9,-15.6c-4.5,0 -11,0 -15.1,0l0,1.6l11.6,0c-3.8,4.6 -11.4,13.5 -11.6,13.9l0,1.9z" class="st0"/>
   <path id="svg_5" d="m68.2,24.8c1.8,-4.8 5.7,-14.9 5.7,-14.9l2.2,0c-2.1,5.5 -4.5,11.7 -6.6,17.2c-0.1,0.3 -0.5,1.3 -0.5,1.3l-1.6,0c0,0 -0.3,-1 -0.5,-1.3c-2.1,-5.4 -4.5,-11.7 -6.5,-17.1l2.2,0c0,-0.1 3.8,10.1 5.6,14.8z" class="st0"/>
   <g id="svg_6">
    <circle id="svg_7" r="2.2" cy="32" cx="12.5" class="st0"/>
    <circle id="svg_8" r="2.2" cy="28.4" cx="26.3" class="st0"/>
    <circle id="svg_9" r="2.2" cy="19.4" cx="15.1" class="st1"/>
    <circle id="svg_10" r="2.2" cy="18.4" cx="24.1" class="st1"/>
    <circle id="svg_11" r="2.2" cy="11.2" cx="30.2" class="st2"/>
    <circle id="svg_12" r="2.2" cy="10.2" cx="15" class="st2"/>
    <circle id="svg_13" r="2.2" cy="16.6" cx="2.2" class="st2"/>
    <circle id="svg_14" r="2.2" cy="2.2" cx="18.6" class="st2"/>
   </g>
  </g>
 </g>
</svg>