<svg xmlns="http://www.w3.org/2000/svg" width="94" height="36" viewBox="0 0 94 36"><path fill-rule="evenodd" clip-rule="evenodd" fill="#B2B2B2" d="M57.2,9.1l-0.9,3.1h0.7l0.2-0.8h0.9l0.2,0.8H59l-1-3.1H57.2z M57.3,10.9l0.2-0.7c0.1-0.2,0.1-0.4,0.1-0.6h0			c0,0.2,0.1,0.4,0.2,0.6l0.2,0.7H57.3z M61.9,10.9H63v-0.6h-1.1V9.6h1.2V9.1h-1.9v3.1h2v-0.6h-1.3V10.9z M67,10.7L67,10.7			c0.3-0.1,0.5-0.4,0.5-0.8c0-0.3-0.1-0.5-0.3-0.6c-0.2-0.2-0.5-0.2-1-0.2c-0.4,0-0.7,0-0.9,0.1v3.1H66V11h0.2			c0.3,0,0.4,0.1,0.5,0.5c0.1,0.4,0.2,0.6,0.2,0.7h0.7c-0.1-0.1-0.2-0.5-0.3-0.9C67.3,11,67.2,10.8,67,10.7z M66.3,10.5H66V9.6			c0.1,0,0.1,0,0.3,0c0.3,0,0.5,0.1,0.5,0.4C66.8,10.3,66.6,10.5,66.3,10.5z M71.1,9c-0.9,0-1.5,0.7-1.5,1.6c0,0.9,0.5,1.6,1.5,1.6			c0.9,0,1.5-0.6,1.5-1.6C72.5,9.7,72,9,71.1,9z M71.1,11.7c-0.5,0-0.8-0.4-0.8-1c0-0.6,0.3-1.1,0.7-1.1c0.5,0,0.7,0.5,0.7,1			C71.8,11.2,71.5,11.7,71.1,11.7z M75.9,10.3c-0.4-0.2-0.6-0.2-0.6-0.4c0-0.2,0.1-0.3,0.4-0.3s0.5,0.1,0.6,0.1l0.2-0.6			C76.4,9.1,76.1,9,75.8,9c-0.7,0-1.2,0.4-1.2,0.9c0,0.5,0.3,0.7,0.8,0.9c0.4,0.1,0.5,0.2,0.5,0.4c0,0.2-0.2,0.3-0.5,0.3			c-0.3,0-0.6-0.1-0.8-0.2L74.6,12c0.2,0.1,0.5,0.2,0.9,0.2c0.8,0,1.2-0.4,1.2-1C76.7,10.8,76.4,10.5,75.9,10.3z M79.8,9.1			c-0.4,0-0.7,0-0.9,0.1v3.1h0.7v-1.1c0.1,0,0.1,0,0.2,0c0.4,0,0.8-0.1,1-0.3c0.2-0.2,0.3-0.4,0.3-0.7c0-0.3-0.1-0.6-0.3-0.7			C80.6,9.1,80.2,9.1,79.8,9.1z M79.8,10.5c-0.1,0-0.2,0-0.2,0V9.6c0.1,0,0.1,0,0.3,0c0.3,0,0.5,0.2,0.5,0.5			C80.4,10.4,80.2,10.5,79.8,10.5z M83.7,9.1l-0.9,3.1h0.7l0.2-0.8h0.9l0.2,0.8h0.8l-1-3.1H83.7z M83.8,10.9l0.2-0.7 c0.1-0.2,0.1-0.4,0.1-0.6h0c0,0.2,0.1,0.4,0.2,0.6l0.2,0.7H83.8z M89.1,9.6c0.2,0,0.4,0.1,0.6,0.1l0.1-0.6C89.7,9.1,89.5,9,89.1,9		c-0.9,0-1.7,0.6-1.7,1.7c0,0.9,0.6,1.6,1.6,1.6c0.4,0,0.7-0.1,0.8-0.1l-0.1-0.5c-0.1,0.1-0.4,0.1-0.6,0.1c-0.6,0-1-0.4-1-1 C88.1,9.9,88.6,9.6,89.1,9.6z M92.7,11.6v-0.7h1.1v-0.6h-1.1V9.6h1.2V9.1H92v3.1h2v-0.6H92.7z M35.4,20.5c-4-1.6-5.2-1.7-5.2-3.5			c0-3,5.8-1.3,8-0.3l1.7-3.1c0,0-1.4-2.1-6.6-2.1c-5.1,0-8.7,2.4-8.7,6.3c0,3.8,4.6,5.9,8,7c2.3,0.7,2.4,1.4,2.4,2.1	c0,0.7-0.9,1.8-3.1,1.7c-2.2-0.1-5.3-1.3-5.9-1.7c-0.6-0.4-2.1,3.5-2.1,3.5s2.5,2.8,8.7,2.8c6.1,0,7.6-5.1,7.6-6.3			C40.3,25.7,39.9,22.3,35.4,20.5z M47.7,0c-2,0-3.6,1.6-3.6,3.6c0,2,1.6,3.6,3.6,3.6c2,0,3.6-1.6,3.6-3.6C51.4,1.6,49.7,0,47.7,0z	 M16.2,7.3c2,0,3.6-1.6,3.6-3.6c0-2-1.6-3.6-3.6-3.6c-2,0-3.6,1.6-3.6,3.6C12.6,5.7,14.2,7.3,16.2,7.3z M50.3,9	c-1.6,0-5.1,0-5.1,0l-1.7,3.8h2.4v18.5l-1.4,0c-0.4,0-0.7,0.3-0.7,0.7v2.8c0,0.4,0.3,0.7,0.7,0.7c0,0,4.4,0,5.9,0 c0.3,0,0.7-0.3,0.7-0.7V9.7C51,9.4,51,9,50.3,9z M5.6,0.7c0,0-3.1,0-4.5,0C0.8,0.7,0.4,1,0.4,1.4v29.2c0,0.4,0.2,4.9,4.5,4.9		c1.6,0,3.5,0,3.5,0l1.7-3.8H5.6V0.7z M18.5,13.2l1.4,0c0.4,0,0.7-0.3,0.7-0.7V9.7c0-0.4-0.3-0.7-0.7-0.7c0,0-4.4,0-5.9,0			c-0.3,0-0.7,0.3-0.7,0.7v25.1c0,0.4,0.1,0.7,0.8,0.7c1.6,0,5.1,0,5.1,0l1.7-3.8h-2.4V13.2z"/></svg>
