<svg width="135" height="33.3" xmlns="http://www.w3.org/2000/svg" xmlns:xlink="http://www.w3.org/1999/xlink">
 <style type="text/css">.st0{clip-path:url(#XMLID_11_);}
	.st1{clip-path:url(#XMLID_17_);}
	.st2{clip-path:url(#XMLID_18_);}
	.st3{fill:#969696;}
	.st4{fill:#B5B5B5;}
	.st5{fill:#919191;}
	.st6{clip-path:url(#XMLID_22_);}
	.st7{clip-path:url(#XMLID_23_);}</style>
 <g>
  <title>background</title>
  <rect fill="none" id="canvas_background" height="35.3" width="137" y="-1" x="-1"/>
 </g>
 <g>
  <title>Layer 1</title>
  <g stroke="null" id="XMLID_4_">
   <g stroke="null" id="XMLID_87_">
    <g stroke="null" id="XMLID_88_">
     <defs transform="translate(0.1639343500137329,0) translate(-0.10000000149011612,0) scale(0.9856092929840088) translate(0.10000000149011612,0) " stroke="null">
      <rect stroke="null" height="36.5" width="137" id="XMLID_52_"/>
     </defs>
     <clipPath transform="translate(0.1639343500137329,0) translate(-0.10000000149011612,0) scale(0.9856092929840088) translate(0.10000000149011612,0) " stroke="null" id="XMLID_9_">
      <use stroke="null" id="svg_1" xlink:href="#XMLID_52_"/>
     </clipPath>
    </g>
   </g>
   <g stroke="null" id="XMLID_82_">
    <g stroke="null" id="XMLID_83_">
     <defs transform="translate(0.1639343500137329,0) translate(-0.10000000149011612,0) scale(0.9856092929840088) translate(0.10000000149011612,0) " stroke="null">
      <rect stroke="null" height="36.5" width="137" id="XMLID_50_"/>
     </defs>
     <clipPath transform="translate(0.1639343500137329,0) translate(-0.10000000149011612,0) scale(0.9856092929840088) translate(0.10000000149011612,0) " stroke="null" id="XMLID_11_">
      <use stroke="null" id="svg_2" xlink:href="#XMLID_50_"/>
     </clipPath>
     <g stroke="null" class="st0" id="XMLID_85_">
      <defs transform="translate(0.1639343500137329,0) translate(-0.10000000149011612,0) scale(0.9856092929840088) translate(0.10000000149011612,0) " stroke="null">
       <rect stroke="null" height="36.5" width="137" id="XMLID_51_"/>
      </defs>
      <clipPath transform="translate(0.1639343500137329,0) translate(-0.10000000149011612,0) scale(0.9856092929840088) translate(0.10000000149011612,0) " stroke="null" id="XMLID_16_">
       <use stroke="null" id="svg_3" xlink:href="#XMLID_51_"/>
      </clipPath>
     </g>
    </g>
   </g>
   <g stroke="null" id="XMLID_75_">
    <g stroke="null" id="XMLID_76_">
     <defs transform="translate(0.1639343500137329,0) translate(-0.10000000149011612,0) scale(0.9856092929840088) translate(0.10000000149011612,0) " stroke="null">
      <rect stroke="null" height="36.5" width="137" id="XMLID_47_"/>
     </defs>
     <clipPath transform="translate(0.1639343500137329,0) translate(-0.10000000149011612,0) scale(0.9856092929840088) translate(0.10000000149011612,0) " stroke="null" id="XMLID_17_">
      <use stroke="null" id="svg_4" xlink:href="#XMLID_47_"/>
     </clipPath>
     <g stroke="null" class="st1" id="XMLID_78_">
      <defs transform="translate(0.1639343500137329,0) translate(-0.10000000149011612,0) scale(0.9856092929840088) translate(0.10000000149011612,0) " stroke="null">
       <rect stroke="null" height="36.5" width="137" id="XMLID_48_"/>
      </defs>
      <clipPath transform="translate(0.1639343500137329,0) translate(-0.10000000149011612,0) scale(0.9856092929840088) translate(0.10000000149011612,0) " stroke="null" id="XMLID_18_">
       <use stroke="null" id="svg_5" xlink:href="#XMLID_48_"/>
      </clipPath>
      <g stroke="null" class="st2" id="XMLID_80_">
       <defs transform="translate(0.1639343500137329,0) translate(-0.10000000149011612,0) scale(0.9856092929840088) translate(0.10000000149011612,0) " stroke="null">
        <rect stroke="null" height="36.5" width="137" id="XMLID_49_"/>
       </defs>
       <clipPath transform="translate(0.1639343500137329,0) translate(-0.10000000149011612,0) scale(0.9856092929840088) translate(0.10000000149011612,0) " stroke="null" id="XMLID_19_">
        <use stroke="null" id="svg_6" xlink:href="#XMLID_49_"/>
       </clipPath>
      </g>
     </g>
    </g>
   </g>
   <g stroke="null" id="XMLID_72_">
    <g stroke="null" id="XMLID_73_">
     <defs transform="translate(0.1639343500137329,0) translate(-0.10000000149011612,0) scale(0.9856092929840088) translate(0.10000000149011612,0) " stroke="null">
      <rect stroke="null" height="36.5" width="137" id="XMLID_46_"/>
     </defs>
     <clipPath transform="translate(0.1639343500137329,0) translate(-0.10000000149011612,0) scale(0.9856092929840088) translate(0.10000000149011612,0) " stroke="null" id="XMLID_20_">
      <use stroke="null" id="svg_7" xlink:href="#XMLID_46_"/>
     </clipPath>
    </g>
   </g>
   <g stroke="null" id="XMLID_12_">
    <g stroke="null" id="XMLID_13_">
     <g stroke="null" id="XMLID_14_">
      <g stroke="null" id="XMLID_15_">
       <path stroke="null" d="m51.31562,14.29133c-0.39424,2.66115 -2.46402,2.66115 -4.43524,2.66115l-1.08417,0l0.78849,-5.02661c0,-0.29568 0.29568,-0.4928 0.59137,-0.4928l0.4928,0c1.37985,0 2.66115,0 3.25251,0.78849c0.4928,0.4928 0.59137,1.18273 0.39424,2.06978zm-0.78849,-6.89927l-7.49063,0c-0.4928,0 -0.98561,0.39424 -0.98561,0.88705l-3.05539,19.12082c-0.09856,0.39424 0.19712,0.68993 0.59137,0.68993l3.54819,0c0.4928,0 0.98561,-0.39424 0.98561,-0.88705l0.78849,-5.12517c0.09856,-0.4928 0.4928,-0.88705 0.98561,-0.88705l2.36546,0c4.92805,0 7.68775,-2.36546 8.47624,-7.09639c0.29568,-2.06978 0,-3.64675 -0.98561,-4.82949c-0.88705,-1.28129 -2.75971,-1.87266 -5.22373,-1.87266z" class="st3" id="XMLID_57_"/>
       <path stroke="null" d="m67.77529,21.1906c-0.29568,2.06978 -1.97122,3.44963 -4.041,3.44963c-1.08417,0 -1.87266,-0.29568 -2.36546,-0.98561c-0.4928,-0.59137 -0.68993,-1.47841 -0.59137,-2.46402c0.29568,-1.97122 1.97122,-3.44963 4.041,-3.44963c0.98561,0 1.87266,0.29568 2.36546,0.98561c0.4928,0.59137 0.78849,1.47841 0.59137,2.46402zm4.92805,-6.99783l-3.54819,0c-0.29568,0 -0.59137,0.19712 -0.59137,0.4928l-0.19712,0.98561l-0.19712,-0.29568c-0.78849,-1.08417 -2.46402,-1.47841 -4.23812,-1.47841c-3.94244,0 -7.29351,2.95683 -7.98344,7.19495c-0.29568,2.06978 0.09856,4.041 1.28129,5.51941c1.08417,1.28129 2.66115,1.7741 4.5338,1.7741c3.15395,0 4.92805,-2.06978 4.92805,-2.06978l-0.19712,0.98561c-0.09856,0.39424 0.19712,0.68993 0.59137,0.68993l3.25251,0c0.4928,0 0.98561,-0.39424 0.98561,-0.88705l1.97122,-12.22156c0.09856,-0.29568 -0.19712,-0.68993 -0.59137,-0.68993z" class="st3" id="XMLID_54_"/>
       <path stroke="null" d="m91.7256,14.19277l-3.54819,0c-0.29568,0 -0.68993,0.19712 -0.88705,0.4928l-4.92805,7.29351l-2.06978,-6.99783c-0.09856,-0.39424 -0.4928,-0.68993 -0.98561,-0.68993l-3.54819,0c-0.39424,0 -0.68993,0.39424 -0.59137,0.78849l3.94244,11.63019l-3.74532,5.22373c-0.29568,0.39424 0,0.98561 0.4928,0.98561l3.54819,0c0.29568,0 0.68993,-0.19712 0.88705,-0.4928l11.92587,-17.24816c0.29568,-0.39424 0,-0.98561 -0.4928,-0.98561z" class="st3" id="XMLID_33_"/>
       <path stroke="null" d="m104.43996,14.29133c-0.39424,2.66115 -2.46402,2.66115 -4.43524,2.66115l-1.08417,0l0.78849,-5.02661c0,-0.29568 0.29568,-0.4928 0.59137,-0.4928l0.4928,0c1.37985,0 2.66115,0 3.25251,0.78849c0.4928,0.4928 0.59137,1.18273 0.39424,2.06978zm-0.78849,-6.89927l-7.49063,0c-0.4928,0 -0.98561,0.39424 -0.98561,0.88705l-3.05539,19.12082c-0.09856,0.39424 0.19712,0.68993 0.59137,0.68993l3.84388,0c0.39424,0 0.68993,-0.29568 0.68993,-0.59137l0.88705,-5.42085c0.09856,-0.4928 0.4928,-0.88705 0.98561,-0.88705l2.36546,0c4.92805,0 7.68775,-2.36546 8.47624,-7.09639c0.29568,-2.06978 0,-3.64675 -0.98561,-4.82949c-0.98561,-1.28129 -2.85827,-1.87266 -5.32229,-1.87266z" class="st4" id="XMLID_38_"/>
       <path stroke="null" d="m120.89963,21.1906c-0.29568,2.06978 -1.97122,3.44963 -4.041,3.44963c-0.98561,0 -1.87266,-0.29568 -2.36546,-0.98561c-0.4928,-0.59137 -0.68993,-1.47841 -0.59137,-2.46402c0.29568,-1.97122 1.97122,-3.44963 4.041,-3.44963c0.98561,0 1.87266,0.29568 2.36546,0.98561c0.4928,0.59137 0.78849,1.47841 0.59137,2.46402zm4.92805,-6.99783l-3.54819,0c-0.29568,0 -0.59137,0.19712 -0.59137,0.4928l-0.19712,0.98561l-0.29568,-0.39424c-0.78849,-1.08417 -2.46402,-1.47841 -4.23812,-1.47841c-3.94244,0 -7.29351,2.95683 -7.98344,7.19495c-0.29568,2.06978 0.09856,4.041 1.28129,5.51941c1.08417,1.28129 2.66115,1.7741 4.5338,1.7741c3.15395,0 4.92805,-2.06978 4.92805,-2.06978l-0.19712,0.98561c-0.09856,0.39424 0.19712,0.68993 0.59137,0.68993l3.25251,0c0.4928,0 0.98561,-0.39424 0.98561,-0.88705l1.97122,-12.22156c0.19712,-0.19712 -0.09856,-0.59137 -0.4928,-0.59137z" class="st4" id="XMLID_21_"/>
       <path stroke="null" d="m130.0658,7.88487l-3.05539,19.4165c-0.09856,0.39424 0.19712,0.68993 0.59137,0.68993l3.05539,0c0.4928,0 0.98561,-0.39424 0.98561,-0.88705l3.05539,-19.12082c0.09856,-0.39424 -0.19712,-0.68993 -0.59137,-0.68993l-3.44963,0c-0.29568,0.09856 -0.59137,0.29568 -0.59137,0.59137z" class="st4" id="XMLID_28_"/>
       <path stroke="null" d="m8.04737,31.73662l0.59137,-3.64675l-1.28129,0l-6.01222,0l4.13956,-26.71001c0,-0.09856 0.09856,-0.19712 0.09856,-0.19712c0.09856,-0.09856 0.09856,-0.09856 0.19712,-0.09856l10.25034,0c3.35107,0 5.71653,0.68993 6.99783,2.06978c0.59137,0.68993 0.98561,1.37985 1.08417,2.06978c0.19712,0.78849 0.19712,1.7741 0,2.85827l0,0.09856l0,0.68993l0.59137,0.29568c0.4928,0.29568 0.88705,0.59137 1.18273,0.88705c0.4928,0.59137 0.78849,1.28129 0.98561,2.06978c0.09856,0.88705 0.09856,1.87266 -0.09856,3.05539c-0.29568,1.37985 -0.68993,2.46402 -1.28129,3.44963c-0.4928,0.88705 -1.18273,1.57697 -1.97122,2.16834c-0.78849,0.4928 -1.67554,0.98561 -2.66115,1.18273c-0.98561,0.29568 -2.06978,0.39424 -3.35107,0.39424l-0.78849,0c-0.59137,0 -1.08417,0.19712 -1.57697,0.59137c-0.39424,0.39424 -0.68993,0.88705 -0.78849,1.47841l-0.09856,0.29568l-0.98561,6.40646l0,0.19712c0,0.09856 0,0.09856 -0.09856,0.09856c0,0 -0.09856,0 -0.09856,0l-5.02661,0l0,0.29568z" class="st3" id="XMLID_27_"/>
       <path stroke="null" d="m25.29553,8.37768c0,0.19712 -0.09856,0.39424 -0.09856,0.59137c-1.37985,6.89927 -5.91366,9.26473 -11.82731,9.26473l-2.95683,0c-0.68993,0 -1.28129,0.4928 -1.47841,1.28129l-1.57697,9.75753l-0.39424,2.75971c-0.09856,0.4928 0.29568,0.88705 0.78849,0.88705l5.22373,0c0.59137,0 1.18273,-0.4928 1.28129,-1.08417l0.09856,-0.29568l0.98561,-6.3079l0.09856,-0.39424c0.09856,-0.59137 0.59137,-1.08417 1.28129,-1.08417l0.78849,0c5.12517,0 9.16617,-2.06978 10.3489,-8.18056c0.4928,-2.56258 0.19712,-4.63236 -1.08417,-6.11078c-0.4928,-0.39424 -0.98561,-0.78849 -1.47841,-1.08417z" class="st4" id="XMLID_26_"/>
       <path stroke="null" d="m23.81712,7.78631c-0.19712,-0.09856 -0.39424,-0.09856 -0.59137,-0.19712c-0.19712,0 -0.39424,-0.09856 -0.68993,-0.09856c-0.78849,-0.09856 -1.67554,-0.19712 -2.66115,-0.19712l-7.98344,0c-0.19712,0 -0.39424,0 -0.59137,0.09856c-0.39424,0.19712 -0.68993,0.4928 -0.68993,0.98561l-1.67554,10.8417l0,0.29568c0.09856,-0.68993 0.68993,-1.28129 1.47841,-1.28129l2.95683,0c5.91366,0 10.44746,-2.36546 11.82731,-9.26473c0,-0.19712 0.09856,-0.39424 0.09856,-0.59137c-0.29568,-0.19712 -0.68993,-0.29568 -1.08417,-0.4928c-0.19712,0 -0.29568,-0.09856 -0.39424,-0.09856z" class="st5" id="XMLID_25_"/>
       <path stroke="null" d="m10.60995,8.37768c0.09856,-0.39424 0.29568,-0.78849 0.68993,-0.98561c0.19712,-0.09856 0.39424,-0.09856 0.59137,-0.09856l7.98344,0c0.98561,0 1.87266,0.09856 2.66115,0.19712c0.19712,0 0.4928,0.09856 0.68993,0.09856c0.19712,0 0.39424,0.09856 0.59137,0.19712c0.09856,0 0.19712,0.09856 0.29568,0.09856c0.39424,0.09856 0.78849,0.29568 1.08417,0.4928c0.39424,-2.56258 0,-4.33668 -1.37985,-5.91366c-1.47841,-1.67554 -4.23812,-2.46402 -7.68775,-2.46402l-10.25034,0c-0.68993,0 -1.37985,0.4928 -1.47841,1.28129l-4.23812,26.90713c-0.09856,0.4928 0.29568,0.98561 0.88705,0.98561l6.3079,0l1.57697,-10.05321l1.67554,-10.74314z" class="st3" id="XMLID_24_"/>
      </g>
     </g>
    </g>
   </g>
   <g stroke="null" id="XMLID_5_">
    <g stroke="null" id="XMLID_6_">
     <defs transform="translate(0.1639343500137329,0) translate(-0.10000000149011612,0) scale(0.9856092929840088) translate(0.10000000149011612,0) " stroke="null">
      <polyline stroke="null" points="137,0 137,36.5 0,36.5 0,0     " id="XMLID_1_"/>
     </defs>
     <clipPath transform="translate(0.1639343500137329,0) translate(-0.10000000149011612,0) scale(0.9856092929840088) translate(0.10000000149011612,0) " stroke="null" id="XMLID_22_">
      <use stroke="null" id="svg_8" xlink:href="#XMLID_1_"/>
     </clipPath>
     <g stroke="null" class="st6" id="XMLID_8_">
      <defs transform="translate(0.1639343500137329,0) translate(-0.10000000149011612,0) scale(0.9856092929840088) translate(0.10000000149011612,0) " stroke="null">
       <polyline stroke="null" points="137,0 137,36.5 0,36.5 0,0      " id="XMLID_2_"/>
      </defs>
      <clipPath transform="translate(0.1639343500137329,0) translate(-0.10000000149011612,0) scale(0.9856092929840088) translate(0.10000000149011612,0) " stroke="null" id="XMLID_23_">
       <use stroke="null" id="svg_9" xlink:href="#XMLID_2_"/>
      </clipPath>
      <g stroke="null" class="st7" id="XMLID_10_">
       <defs transform="translate(0.1639343500137329,0) translate(-0.10000000149011612,0) scale(0.9856092929840088) translate(0.10000000149011612,0) " stroke="null">
        <polyline stroke="null" points="137,0 137,36.5 0,36.5 0,0       " id="XMLID_3_"/>
       </defs>
       <clipPath transform="translate(0.1639343500137329,0) translate(-0.10000000149011612,0) scale(0.9856092929840088) translate(0.10000000149011612,0) " stroke="null" id="XMLID_39_">
        <use stroke="null" id="svg_10" xlink:href="#XMLID_3_"/>
       </clipPath>
      </g>
     </g>
    </g>
   </g>
  </g>
 </g>
</svg>