<svg width="182" height="31" viewBox="0 0 182 31" xmlns="http://www.w3.org/2000/svg"><g><path d="m28.96459,11.46019c-0.59721,-5.07627 -2.98604,-9.05766 -5.27534,-9.05766c-2.5879,0 -4.67813,3.58325 -5.47441,9.05766l-0.39814,0c-5.1758,-1.09488 -7.86324,-2.5879 -7.86324,-4.47906c0,-2.68744 5.87255,-4.8772 13.33765,-4.8772c7.56464,0 13.93486,2.09023 13.93486,4.8772c-0.09953,1.89116 -3.28464,3.78232 -8.26138,4.47906l0,0zm18.11531,3.98139c0,-8.65952 -10.35161,-15.22881 -23.68925,-15.22881c-13.03904,0 -23.39065,6.56929 -23.39065,15.02974c0,8.65952 10.35161,15.42788 23.58972,15.42788c12.83997,-0.09953 23.49019,-6.76836 23.49019,-15.22881l0,0zm-21.7981,13.23811c2.68744,-2.48837 3.98139,-6.96743 3.98139,-13.53672l0,0l0.19907,-0.19907c6.76836,-0.79628 11.44649,-3.78232 11.44649,-6.96743l0,-0.19907c1.89116,2.09023 2.68744,4.47906 2.68744,6.96743c0.09953,7.26603 -7.96277,13.33765 -18.31438,13.93486l0,0zm-19.21019,-21.10135c-0.19907,0.19907 -0.19907,0.19907 -0.19907,0.49767c0,3.18511 4.67813,5.97208 11.64556,6.96743l0.19907,0.19907l0,0.39814c0,6.37022 1.49302,10.74975 3.98139,13.03904c-10.74975,-0.79628 -18.31438,-6.66882 -18.31438,-14.13393c0,-2.2893 0.79628,-4.8772 2.68744,-6.96743l0,0zm20.70321,4.27999l-0.19907,0c-0.79628,0 -1.89116,0 -2.88651,0c-1.29395,0 -2.2893,0 -3.18511,0l-0.39814,-0.19907c0.59721,-3.58325 1.89116,-5.67348 3.38418,-5.67348c1.69209,0 2.68744,1.89116 3.38418,5.67348l0,0.19907l-0.09953,0zm0.39814,3.58325c-0.19907,5.07627 -1.69209,8.65952 -3.58325,8.65952c-2.09023,0 -3.58325,-3.58325 -3.78232,-8.65952l0.19907,0c1.09488,0 2.2893,0.19907 3.78232,0.19907c1.79162,0 2.18976,0 3.38418,-0.19907l0,0z" fill-rule="evenodd" clip-rule="evenodd" fill="#B2B2B2"/><polygon points="72.66031646728516,8.872283101081848 65.89196014404297,8.872283101081848 65.89196014404297,26.191319584846497 61.0147590637207,26.191319584846497 61.0147590637207,8.872283101081848 54.445472717285156,8.872283101081848 54.445472717285156,4.890895962715149 72.66031646728516,4.890895962715149 72.66031646728516,8.872283101081848 " fill-rule="evenodd" clip-rule="evenodd" fill="#B2B2B2"/><path d="m91.17377,15.64064c0,4.18046 -2.48837,7.1665 -6.07162,7.1665c-3.78232,0 -6.27069,-2.68744 -6.27069,-7.1665c0.19907,-4.18046 2.48837,-7.1665 6.27069,-7.1665c3.58325,0 6.07162,2.98604 6.07162,7.1665l0,0zm5.07627,0c0,-6.37022 -5.07627,-11.44649 -11.14788,-11.44649c-6.37022,0 -11.44649,5.07627 -11.44649,11.64556c0,6.17115 5.07627,11.24742 11.24742,11.24742c6.46975,0 11.34695,-5.07627 11.34695,-11.44649l0,0z" fill-rule="evenodd" clip-rule="evenodd" fill="#B2B2B2"/><polygon points="109.98582458496094,18.328078389167786 109.98582458496094,26.191319584846497 105.10862731933594,26.191319584846497 105.10862731933594,18.328078389167786 96.64817810058594,4.890895962715149 102.1225814819336,4.890895962715149 107.3979263305664,13.749483227729797 112.8723373413086,4.890895962715149 118.64533996582031,4.890895962715149 109.98582458496094,18.328078389167786 " fill-rule="evenodd" clip-rule="evenodd" fill="#B2B2B2"/><path d="m135.96438,15.64064c0,4.18046 -2.2893,7.1665 -6.07162,7.1665c-3.78232,0 -6.07162,-2.68744 -6.07162,-7.1665c0,-4.18046 2.48837,-7.1665 6.27069,-7.1665c3.48371,0 5.87255,2.98604 5.87255,7.1665l0,0zm5.27534,0c0,-6.37022 -5.07627,-11.44649 -11.44649,-11.44649c-6.07162,0 -11.24742,5.07627 -11.24742,11.54602c0,6.17115 4.8772,11.24742 11.24742,11.24742c6.37022,0.09953 11.44649,-4.97673 11.44649,-11.34695l0,0z" fill-rule="evenodd" clip-rule="evenodd" fill="#B2B2B2"/><polygon points="160.4499053955078,8.872283101081848 153.68154907226562,8.872283101081848 153.68154907226562,26.191319584846497 148.80435180664062,26.191319584846497 148.80435180664062,8.872283101081848 142.3345947265625,8.872283101081848 142.3345947265625,4.890895962715149 160.4499053955078,4.890895962715149 160.4499053955078,8.872283101081848 " fill-rule="evenodd" clip-rule="evenodd" fill="#B2B2B2"/><path d="m170.60245,9.56903l2.98604,8.16184l-6.07162,0l3.08558,-8.16184l0,0zm2.88651,-4.67813l-5.97208,0l-8.65952,21.30042l5.27534,0l1.69209,-4.67813l9.05766,0l1.89116,4.67813l5.27534,0l-8.55998,-21.30042l0,0z" fill-rule="evenodd" clip-rule="evenodd" fill="#B2B2B2"/></g></svg>