<svg xmlns="http://www.w3.org/2000/svg" width="124" height="35" fill-rule="evenodd" shape-rendering="geometricPrecision" text-rendering="geometricPrecision" image-rendering="optimizeQuality" clip-rule="evenodd" viewBox="0 0 866937 244128">
  <path fill="#BDBBBB" d="M866929 122056c0 18445-4259 36182-11352 51793 0-24830-11352-48959-28380-70955 4967-30514 2133-56052-2834-73797 25538 22712 42574 56060 42574 92959h-8zm-37599 87983c0-13486-4967-29097-22004-46834-19862 39024-46833 68830-83724 79473 7093 1417 13478 1417 20571 1417 33356 709 63153-12060 85157-34056zm-151853 14903c-33348-22004-55352-59611-55352-102186 0-12061 1417-23413 4968-34056 39024-17737 95084 2133 140501 35481-34065 75214-69538 97210-90117 100761zM655482 38324C677477 14903 709408 0 744173 0c12777 0 24838 2134 36898 5684 7810 16320 8519 36891 4968 59603-12769-8518-25546-15611-42574-21996-35474-13486-65988-12069-87983-4967zM317011 58186c-4259-709-10644-1417-17037-1417-5676 0-24121-1417-39024 11352-14902 12777-12060 36190-12060 36190v64570s-709 7802 5676 7802h18445c6393 0 5684-7802 5684-7802v-59602c0-17737 709-21288 7093-26255 7093-5676 24130-3551 28380-3551 2134 0 3551-3542 3551-3542s2126-8519 2126-12069c716-3543 1425-4259-2834-5676zm0 0zm90825 58186c0 15611-4968 39740-28381 39740-23420 0-28388-23413-28388-39740 0-15612 4968-36891 28388-36891 23413 0 28381 21288 28381 36891zm-28381-58895c-35481 0-59610 26964-59610 60320 0 33348 24129 60311 59610 60311 35474 0 59603-26963 59603-60311s-24129-60320-59603-60320zM111231 171723s-2834-10643-17028-31931c-8518-12060-15611-19870-20579-24837 4968-4251 12061-11353 18445-20571 12069-17745 15611-28389 17028-30514 717-2134 1425-5676-2834-5676H84976s-2134 0-2842 2125c0 709-709 709-1417 2843-2125 4967-13478 24829-23413 35473-10643-10644-21287-34765-21995-36899-1417-2834-3551-2834-3551-2834H6212c-4260 0-2126 4968-2126 4968s2834 10644 16320 32639c6384 9936 12060 17029 16319 22705-4967 4259-12777 11352-19870 21295C4795 158246 1244 169598 535 171732c-708 2125-1416 5676 2843 5676h21995s2126 0 2126-1426c0-708 708-1416 1417-2833 2842-5677 15611-29089 25546-38316 11352 7802 24130 37607 25547 39733 1416 2842 3550 2842 3550 2842h26255c2834 0 1417-5676 1417-5676v-9zm0 0zm442065 0s-2834-10643-17028-31931c-8510-12060-15611-19870-20579-24837 4968-4251 12069-11353 18453-20571 12061-17745 15612-28389 17029-30514 708-2134 1417-5676-2834-5676h-20579s-2134 0-2842 2125c0 709-709 709-1417 2843-2126 4967-13478 24829-23413 35473-10644-10644-21287-34765-21996-36899-1425-2834-3550-2834-3550-2834h-26255c-4259 0-2134 4968-2134 4968s2842 10644 16320 32639c6384 9936 12069 17029 16320 22705-4968 4259-12769 11352-19862 21295-12069 17737-15612 29089-16320 31223-717 2125-1425 5676 2834 5676h21995s2134 0 2134-1426c0-708 709-1416 1417-2833 2834-5677 15611-29089 25546-38316 11353 7802 24122 37607 25539 39733 716 2842 2842 2842 2842 2842h26255c3550 0 2125-5676 2125-5676v-9zm0 0zm-332787-4259c-11352 7802-31930 10644-46833 10644-31223 0-57477-23413-57477-58894 0-31223 22704-61737 56768-61737 43992 0 56761 27680 56761 61737 0 0 0 7801-3543 7801h-78056s709 12777 9227 19870c7093 5677 15611 9936 31223 7802 13485-1417 24129-8510 24129-8510s3542-2134 5676 2834c2125 4967 4968 12060 4968 12060s1417 3551-2843 6393zm-73088-61019h53927s708-28389-25547-26964c-27672 2126-28380 26964-28380 26964z"/>
  <path fill="#BDBBBB" d="M810877 129857c15611-43283 13478-83732 2834-107853-1417-717-2834-2134-4968-2842 11352 23413 12069 64570-3542 109278-26963 75214-66704 102178-99343 110688 1417 716 3542 1425 4967 1425 35473-8518 73080-35482 100044-110696h8zm0 0z"/>
  <path fill="#BDBBBB" d="M799525 121339c16320-43991 14194-83724 2834-107145-1417-708-2834-1417-4259-2125 12068 22704 11352 68113-3543 107853-26971 73089-68837 105728-99343 114238 1417 717 2125 717 3542 1425 30514-5684 72380-34773 100761-114246h8zm0 0z"/>
  <path fill="#BDBBBB" d="M787456 110704c19162-55352 11352-86575 4259-100761-1417-716-2834-1425-4259-1425 9227 19162 14903 60320-13478 122756-31222 69538-70954 95084-89408 98635 1417 709 2126 1417 3551 1417 33348-5676 75922-54635 99335-120622z"/>
  <path fill="#BDBBBB" d="M769719 74514c43292 25538 75223 65987 78765 111404 708-1426 1417-2843 2842-4259-3551-46126-35481-86567-79473-112113-43291-25546-89408-37607-124890-21996-1417 2126-2834 4259-4259 5676 36190-16319 83024-4967 127015 21288zm0 0z"/>
  <path fill="#BDBBBB" d="M763335 89408c46125 28389 74505 65287 78056 107145 1417-1417 2125-2834 3542-4259-4967-44700-36190-84432-78764-109270-46117-26964-92951-38316-128432-20579-709 1417-2134 3550-2834 5676 35473-19154 81598-7802 128432 21287z"/>
  <path fill="#BDBBBB" d="M759076 97926c-46125-28380-92951-39740-128432-21995-709 2125-1417 3550-2134 5676 35481-17737 81607-6385 128440 21995 43992 26964 72380 61737 77340 101469 716-708 1425-2133 2842-2834-4968-41157-32640-76639-78056-104311z"/>
</svg>
