<?xml version="1.0" standalone="no"?>
<!DOCTYPE svg PUBLIC "-//W3C//DTD SVG 20010904//EN"
 "http://www.w3.org/TR/2001/REC-SVG-20010904/DTD/svg10.dtd">
<svg version="1.0" xmlns="http://www.w3.org/2000/svg"
 width="512.000000pt" height="512.000000pt" viewBox="0 0 512.000000 512.000000"
 preserveAspectRatio="xMidYMid meet">
<metadata>
Created by potrace 1.11, written by Peter Selinger 2001-2013
</metadata>
<g transform="translate(0.000000,512.000000) scale(0.100000,-0.100000)"
fill="#000000" stroke="none">
<path d="M4820 4254 c0 -8 -61 -11 -197 -11 -109 -1 -211 -3 -228 -6 -52 -8
-117 -28 -140 -43 -12 -8 -23 -13 -26 -12 -2 2 -3 1 -2 -1 5 -8 -72 -49 -81
-44 -5 4 -6 1 -3 -4 4 -6 -11 -27 -32 -46 -22 -20 -37 -38 -33 -41 3 -3 0 -6
-6 -6 -6 0 -14 -9 -17 -20 -4 -11 -10 -18 -15 -15 -5 3 -12 0 -16 -6 -4 -8 -3
-9 4 -5 7 4 12 2 12 -3 0 -6 -5 -11 -10 -11 -6 0 -9 -3 -8 -7 1 -5 -4 -21 -10
-36 -7 -16 -17 -49 -23 -73 -11 -41 -13 -43 -26 -27 -13 16 -13 16 -4 -4 15
-29 14 -56 -1 -47 -7 4 -8 3 -4 -4 6 -11 -19 -125 -32 -147 -7 -11 -8 -17 -10
-58 -1 -16 -6 -26 -11 -23 -5 4 -7 -4 -3 -16 3 -13 1 -19 -5 -15 -6 4 -8 -3
-5 -18 2 -15 0 -25 -7 -25 -7 0 -10 -4 -7 -8 3 -4 1 -25 -4 -45 -7 -31 -6 -36
5 -27 7 6 16 7 19 2 7 -12 64 -13 72 -1 3 5 11 6 17 2 17 -11 57 -11 63 -1 3
4 10 6 15 2 5 -3 7 -10 4 -15 -6 -8 8 -13 20 -6 2 1 11 -7 20 -18 14 -19 15
-19 8 -1 -4 13 -3 17 5 12 6 -3 13 -2 16 3 3 5 -8 7 -24 6 -17 -1 -30 1 -30 5
0 9 112 6 127 -3 6 -4 13 -2 15 5 3 7 7 5 11 -6 5 -12 3 -15 -6 -10 -8 5 -7 2
2 -9 17 -22 19 -21 17 3 0 11 1 19 4 18 3 -1 15 4 26 10 17 9 24 9 33 -2 9
-10 4 -12 -24 -11 -19 2 -32 -1 -30 -6 3 -4 13 -5 23 -2 15 6 16 5 2 -13 -14
-18 -14 -19 6 -1 20 17 23 17 38 1 16 -15 17 -15 11 9 -6 22 -4 24 19 22 14
-2 28 1 32 6 3 5 11 6 17 2 22 -14 49 -14 41 -1 -5 9 -2 9 9 -1 9 -7 17 -10
17 -5 0 5 8 0 16 -11 16 -20 16 -20 10 0 -4 15 -1 21 12 22 9 1 22 2 27 3 22
5 35 -1 35 -14 0 -8 4 -18 10 -21 7 -4 7 2 0 19 -8 22 -6 28 13 38 24 13 43
19 68 21 11 1 15 7 11 17 -3 8 -2 12 3 8 4 -4 13 0 20 9 9 13 14 13 20 3 5 -9
4 -11 -3 -6 -7 4 -12 2 -12 -3 0 -12 35 -9 47 4 5 4 3 5 -3 2 -7 -4 -15 0 -18
9 -5 13 0 15 27 10 29 -5 29 -5 8 4 -28 12 -19 28 19 35 12 2 25 7 29 11 3 4
-2 4 -11 1 -10 -4 -18 -2 -18 3 0 10 15 14 34 11 5 -1 3 5 -4 14 -11 13 -10
15 4 9 12 -5 16 0 16 16 0 17 4 21 18 15 13 -5 14 -3 5 6 -8 8 -5 22 13 57 13
25 24 53 24 63 0 10 5 21 10 24 6 4 8 11 5 16 -4 5 1 12 10 15 10 4 13 9 6 13
-15 10 10 87 34 106 13 10 15 13 4 10 -10 -4 -16 0 -16 10 0 9 6 14 14 11 9
-4 11 -2 6 7 -13 21 -12 37 2 37 8 0 17 4 20 10 3 6 -1 7 -9 4 -21 -8 -20 6 2
22 10 8 12 13 5 14 -7 0 -10 7 -7 15 4 8 11 12 18 8 6 -4 4 2 -4 12 -14 17
-13 18 5 11 16 -6 18 -5 8 5 -16 16 -17 43 -2 33 8 -4 9 1 4 16 -4 13 -3 20 2
17 5 -3 7 7 5 25 -3 23 -1 29 8 23 9 -6 10 -3 2 11 -9 17 -22 19 -99 18 -54
-1 -91 3 -95 10 -6 8 -8 8 -8 0z"/>
<path d="M1275 4232 c-21 -7 -45 -10 -52 -8 -7 3 -13 2 -13 -3 0 -16 -47 -30
-59 -18 -9 9 -11 8 -6 -3 6 -17 -47 -54 -60 -42 -5 4 -5 1 -1 -5 4 -7 3 -13
-2 -13 -5 0 -26 -18 -47 -39 -22 -22 -43 -37 -47 -35 -4 3 -6 -1 -3 -8 3 -7
-6 -25 -20 -40 -14 -15 -25 -32 -25 -37 0 -6 -10 -20 -22 -32 -13 -12 -17 -18
-9 -14 11 6 13 4 7 -11 -4 -10 -12 -38 -19 -61 -6 -24 -14 -43 -18 -43 -5 0
-6 -9 -4 -20 2 -11 -1 -20 -7 -20 -6 0 -8 -3 -5 -7 4 -3 1 -13 -6 -21 -10 -13
-9 -14 1 -8 10 6 9 -1 -2 -28 -8 -20 -16 -40 -18 -44 -2 -4 -7 -6 -11 -4 -5 1
-5 -3 -1 -10 11 -17 5 -61 -10 -70 -6 -4 -8 -8 -4 -8 4 0 2 -15 -4 -32 -5 -18
-11 -42 -13 -53 -2 -11 -8 -35 -14 -52 -10 -33 -1 -50 19 -38 6 3 10 2 10 -3
0 -10 50 -10 67 1 19 12 25 -10 7 -27 -8 -9 -11 -16 -5 -16 5 0 13 5 16 11 5
7 14 4 28 -8 22 -18 22 -18 5 3 -25 29 -23 31 20 29 20 -1 45 2 54 7 9 4 19 4
22 -1 5 -7 115 -9 141 -1 6 1 12 1 15 0 17 -8 98 -5 93 3 -4 6 -1 7 8 1 19
-12 52 -12 61 1 5 6 8 6 8 -2 0 -7 7 -13 16 -13 8 0 12 4 9 10 -3 5 0 7 9 4 8
-3 14 -11 12 -17 -1 -7 -1 -9 1 -5 2 3 15 5 28 2 13 -2 26 0 29 5 3 4 -6 7
-19 5 -14 -1 -25 2 -25 6 0 5 20 8 44 7 34 -2 42 1 34 11 -10 11 0 15 28 11 4
0 11 5 16 13 8 10 9 9 4 -4 -4 -13 -1 -15 11 -11 12 5 14 3 8 -7 -5 -9 -4 -11
4 -6 9 6 9 11 0 22 -8 10 -9 18 -2 25 8 8 13 7 18 -2 6 -8 4 -10 -5 -4 -9 5
-11 4 -6 -4 10 -16 29 -3 22 16 -3 8 -2 12 3 9 5 -3 11 0 14 8 6 16 47 10 47
-7 0 -6 2 -8 5 -5 10 10 -7 38 -19 31 -6 -4 -4 1 4 11 13 17 14 17 21 -1 6
-15 8 -14 8 7 1 15 19 44 45 72 24 26 41 50 38 54 -4 4 2 4 12 0 14 -5 16 -3
9 6 -12 16 19 72 33 60 4 -4 3 0 -3 8 -7 10 -8 21 -3 30 5 8 6 18 4 22 -3 4 3
8 13 9 10 0 13 3 6 6 -14 5 -7 51 10 68 7 7 7 5 2 -5 -8 -13 -7 -13 11 0 29
22 30 24 12 17 -10 -3 -20 -2 -23 3 -4 6 -3 10 2 10 4 0 9 16 10 37 1 20 8 40
15 44 7 5 9 9 4 9 -4 0 -1 12 9 26 10 15 12 23 4 19 -9 -6 -11 -4 -6 8 3 9 11
34 17 56 8 31 14 39 28 34 15 -5 15 -4 -1 8 -15 12 -16 19 -8 42 18 46 21 77
8 78 -7 1 -145 2 -307 3 -217 1 -306 -2 -335 -12z"/>
<path d="M2833 4240 c-2 -3 -9 -6 -14 -6 -5 -1 -10 -2 -11 -4 -2 -1 -10 -3
-19 -5 -27 -5 -91 -37 -135 -66 -56 -38 -154 -137 -154 -156 0 -3 -12 -22 -27
-41 -15 -20 -21 -32 -15 -28 8 5 10 2 6 -9 -5 -13 -9 -13 -23 -3 -14 12 -14
11 -2 -4 8 -11 10 -25 6 -35 -4 -10 -9 -27 -10 -38 -6 -53 -38 -154 -48 -148
-5 3 -7 1 -3 -5 8 -13 -12 -112 -26 -129 -6 -7 -8 -13 -5 -13 3 0 -1 -24 -10
-52 -8 -29 -17 -64 -18 -78 -2 -23 1 -26 26 -24 15 1 33 5 40 9 8 5 10 4 5 -4
-7 -11 2 -11 49 -1 6 1 12 1 15 0 3 -1 27 -4 53 -6 36 -3 46 0 41 9 -6 9 -4 9
7 1 16 -11 267 -13 286 -1 6 4 14 3 18 -3 6 -10 40 -8 52 3 4 4 12 -2 18 -14
11 -19 13 -19 18 -5 5 11 3 15 -5 10 -7 -5 -8 -3 -4 5 5 7 10 10 13 8 2 -3 26
3 53 13 33 12 47 14 44 6 -3 -7 -10 -13 -17 -14 -29 -2 -48 -9 -59 -20 -9 -9
-9 -12 0 -12 7 0 12 5 12 12 0 6 8 4 19 -6 14 -13 21 -14 27 -5 4 7 3 10 -4 5
-6 -3 -13 -2 -17 4 -6 9 7 14 27 11 4 0 15 10 24 24 20 31 67 55 85 44 8 -5
19 -9 24 -9 6 1 2 5 -8 11 -14 8 -16 14 -6 25 6 7 15 12 19 9 4 -3 10 2 14 10
3 8 10 15 16 15 6 0 8 -4 5 -10 -3 -5 -1 -10 5 -10 8 0 10 9 6 25 -5 18 -3 23
8 19 8 -3 16 3 19 16 3 12 10 19 16 15 6 -3 9 0 5 8 -3 9 4 22 16 30 12 9 19
20 15 26 -3 6 2 11 12 11 15 0 16 2 3 10 -10 6 -11 10 -2 10 6 0 11 6 10 13
-2 7 5 11 17 10 11 -1 14 0 8 3 -7 3 -13 12 -13 20 0 9 5 12 13 8 9 -5 9 -4 0
6 -10 11 -9 16 5 27 9 8 12 12 5 8 -13 -6 -11 13 6 58 6 15 8 27 5 27 -4 0 -2
6 4 13 6 7 13 26 16 42 2 17 5 30 6 30 1 0 3 9 5 19 2 11 7 31 11 45 4 14 7
29 6 34 -1 4 3 7 9 7 5 0 7 5 4 10 -3 6 -3 16 2 23 8 12 9 17 11 50 1 10 5 16
10 14 4 -3 8 17 9 44 1 44 -1 49 -20 50 -81 4 -610 3 -614 -1z"/>
<path d="M3457 4115 c-4 -8 -3 -16 1 -19 4 -3 9 4 9 15 2 23 -3 25 -10 4z"/>
<path d="M1910 4039 c0 -5 5 -7 10 -4 6 3 10 8 10 11 0 2 -4 4 -10 4 -5 0 -10
-5 -10 -11z"/>
<path d="M3428 4008 c-7 -17 15 -19 29 -3 4 4 3 5 -4 2 -6 -4 -13 -2 -15 5 -3
8 -6 6 -10 -4z"/>
<path d="M4970 3979 c0 -5 5 -7 10 -4 6 3 10 8 10 11 0 2 -4 4 -10 4 -5 0 -10
-5 -10 -11z"/>
<path d="M3415 3971 c-3 -5 -2 -12 3 -15 5 -3 9 1 9 9 0 17 -3 19 -12 6z"/>
<path d="M1874 3948 l-19 -23 23 19 c21 18 27 26 19 26 -2 0 -12 -10 -23 -22z"/>
<path d="M1826 3814 c-5 -14 -4 -15 9 -4 17 14 19 20 6 20 -5 0 -12 -7 -15
-16z"/>
<path d="M3374 3818 c-4 -7 -4 -10 1 -6 4 4 15 2 24 -5 14 -11 14 -10 2 6 -16
20 -18 21 -27 5z"/>
<path d="M1815 3760 c-3 -5 -1 -10 4 -10 6 0 11 5 11 10 0 6 -2 10 -4 10 -3 0
-8 -4 -11 -10z"/>
<path d="M4905 3760 c3 -5 11 -10 16 -10 6 0 7 5 4 10 -3 6 -11 10 -16 10 -6
0 -7 -4 -4 -10z"/>
<path d="M1790 3685 c-7 -9 -10 -18 -6 -22 3 -3 6 -1 6 6 0 7 4 10 8 7 5 -3 9
1 9 9 0 19 -2 19 -17 0z"/>
<path d="M4873 3678 c-17 -22 -26 -45 -10 -26 8 10 16 16 19 13 2 -3 5 2 5 10
0 18 -2 18 -14 3z"/>
<path d="M2345 3620 c-3 -6 1 -7 9 -4 18 7 21 14 7 14 -6 0 -13 -4 -16 -10z"/>
<path d="M1741 3606 c-9 -11 -9 -16 1 -22 7 -4 10 -4 6 1 -4 4 -3 14 3 22 6 7
9 13 6 13 -2 0 -10 -6 -16 -14z"/>
<path d="M2330 3580 c0 -5 5 -10 11 -10 5 0 7 5 4 10 -3 6 -8 10 -11 10 -2 0
-4 -4 -4 -10z"/>
<path d="M1695 3560 c-26 -28 -15 -31 12 -3 12 13 19 23 14 23 -4 0 -16 -9
-26 -20z"/>
<path d="M1610 3482 c0 -4 10 -13 23 -21 22 -14 22 -14 3 8 -20 22 -26 25 -26
13z"/>
<path d="M3190 3479 c0 -5 5 -7 10 -4 6 3 10 8 10 11 0 2 -4 4 -10 4 -5 0 -10
-5 -10 -11z"/>
<path d="M3119 3453 c-13 -16 -12 -17 4 -4 9 7 17 15 17 17 0 8 -8 3 -21 -13z"/>
<path d="M3091 3434 c0 -11 3 -14 6 -6 3 7 2 16 -1 19 -3 4 -6 -2 -5 -13z"/>
<path d="M4640 3441 c-8 -6 -17 -8 -21 -5 -4 2 -13 -4 -20 -14 -12 -15 -12
-16 1 -6 8 6 23 10 33 9 9 -2 17 1 17 6 0 6 5 7 12 3 7 -4 8 -3 4 4 -9 14 -7
14 -26 3z"/>
<path d="M1594 3420 c0 -13 4 -16 10 -10 7 7 7 13 0 20 -6 6 -10 3 -10 -10z"/>
<path d="M1513 3413 c0 -11 7 -20 14 -20 10 0 10 4 1 16 -7 9 -13 18 -15 20
-1 2 -1 -5 0 -16z"/>
<path d="M4541 3394 c0 -11 3 -14 6 -6 3 7 2 16 -1 19 -3 4 -6 -2 -5 -13z"/>
<path d="M4600 3400 c-9 -6 -10 -10 -3 -10 6 0 15 5 18 10 8 12 4 12 -15 0z"/>
<path d="M1001 3390 c-8 -4 -27 -7 -43 -5 -17 3 -26 0 -22 -6 3 -5 22 -7 41
-4 31 5 34 3 23 -10 -7 -9 -8 -15 -2 -15 5 0 12 6 15 13 5 14 34 16 53 4 6 -3
11 0 11 8 0 8 -8 12 -20 9 -11 -2 -26 1 -32 6 -6 5 -17 5 -24 0z"/>
<path d="M1160 3390 c-8 -5 -17 -7 -21 -4 -4 2 -11 0 -14 -6 -5 -8 -11 -7 -21
1 -18 15 -18 2 0 -17 17 -17 27 -18 24 -3 -2 6 8 13 21 15 21 4 22 3 10 -13
-13 -17 -12 -17 6 -3 21 16 43 19 61 8 6 -4 11 -1 11 7 0 8 -8 12 -20 9 -11
-2 -26 1 -32 6 -6 5 -17 5 -25 0z"/>
<path d="M1470 3396 c0 -2 8 -10 18 -17 15 -13 16 -12 3 4 -13 16 -21 21 -21
13z"/>
<path d="M2440 3390 c-8 -5 -18 -6 -22 -4 -4 3 -8 0 -8 -6 0 -7 8 -9 22 -4 21
6 22 5 8 -12 -14 -18 -14 -18 5 -3 11 9 25 14 32 12 6 -2 15 1 19 8 4 8 3 9
-5 5 -6 -4 -17 -3 -24 3 -8 6 -18 6 -27 1z"/>
<path d="M2840 3391 c-8 -6 -18 -7 -22 -5 -14 9 -8 -7 9 -24 16 -16 16 -16 10
0 -7 19 14 21 43 3 9 -5 8 0 -4 13 -11 12 -20 22 -20 22 -1 0 -8 -4 -16 -9z"/>
<path d="M3969 3399 c-8 -42 -8 -52 0 -40 12 18 41 23 41 8 0 -8 3 -7 9 2 6 9
11 10 15 2 4 -6 4 -16 0 -23 -5 -7 -3 -8 5 -4 7 5 10 14 7 21 -2 7 1 18 7 25
9 10 9 11 -3 4 -20 -12 -52 -12 -67 -1 -7 5 -13 8 -14 6z"/>
<path d="M4389 3394 c-1 -5 -1 -12 0 -16 0 -5 -4 -8 -10 -8 -5 0 -7 -5 -3 -11
5 -8 10 -6 16 5 5 9 14 14 19 11 5 -4 6 -12 3 -18 -4 -7 -3 -8 1 -4 5 4 10 15
11 23 1 9 0 13 -3 10 -4 -3 -12 -1 -20 5 -7 6 -14 8 -14 3z"/>
<path d="M4513 3379 c-2 -23 3 -25 10 -4 4 8 3 16 -1 19 -4 3 -9 -4 -9 -15z"/>
<path d="M794 3383 c3 -3 19 -7 36 -8 17 -1 28 0 25 3 -3 3 -19 7 -36 8 -17 2
-28 0 -25 -3z"/>
<path d="M1250 3381 c0 -5 7 -12 16 -15 14 -5 15 -4 4 9 -14 17 -20 19 -20 6z"/>
<path d="M1286 3378 c3 -5 9 -6 14 -3 4 3 11 -1 13 -7 4 -10 6 -10 6 0 1 7 5
11 10 7 5 -3 12 -2 15 3 2 4 -11 8 -29 8 -18 0 -31 -4 -29 -8z"/>
<path d="M2375 3379 c-6 -8 -4 -10 5 -4 10 6 12 4 6 -11 -6 -15 -5 -17 5 -6 9
9 10 15 2 23 -8 8 -13 7 -18 -2z"/>
<path d="M2593 3368 c-2 -16 0 -16 13 -4 17 18 18 23 1 23 -7 0 -14 -9 -14
-19z"/>
<path d="M2633 3374 c0 -7 6 -10 14 -7 7 3 13 8 13 12 0 4 -6 8 -13 8 -8 0
-14 -6 -14 -13z"/>
<path d="M2670 3383 c0 -6 8 -17 18 -24 16 -13 16 -13 2 6 -8 11 -16 22 -17
24 -2 2 -3 0 -3 -6z"/>
<path d="M2697 3377 c3 -5 14 -6 25 -4 14 4 18 1 14 -8 -3 -8 -1 -17 5 -20 5
-4 9 -3 8 2 -5 28 1 32 40 24 2 -1 -3 -9 -10 -18 -11 -15 -11 -16 1 -6 30 27
19 38 -36 39 -29 0 -50 -4 -47 -9z"/>
<path d="M2896 3378 c3 -4 11 -5 19 -1 21 7 19 12 -4 10 -11 0 -18 -5 -15 -9z"/>
<path d="M3875 3380 c-3 -5 -1 -10 4 -10 6 0 11 5 11 10 0 6 -2 10 -4 10 -3 0
-8 -4 -11 -10z"/>
<path d="M4146 3373 c-5 -12 -4 -13 7 -5 8 7 16 9 19 6 3 -3 8 -1 11 3 3 5 -3
9 -13 10 -10 1 -21 -5 -24 -14z"/>
<path d="M4443 3376 c-3 -6 -3 -8 2 -4 4 4 13 3 20 -2 8 -7 12 -5 12 3 0 16
-25 18 -34 3z"/>
<path d="M1353 3363 c-10 -10 -13 -14 -6 -10 6 5 16 6 21 3 5 -3 9 1 9 9 0 19
-1 19 -24 -2z"/>
<path d="M2532 3376 c2 -1 12 -8 22 -16 11 -8 17 -10 13 -3 -4 6 -1 13 5 16 7
2 0 4 -15 4 -15 0 -27 0 -25 -1z"/>
<path d="M3935 3369 c-4 -6 -5 -12 -2 -15 2 -3 7 2 10 11 7 17 1 20 -8 4z"/>
<path d="M2920 3366 c0 -2 8 -10 18 -17 15 -13 16 -12 3 4 -13 16 -21 21 -21
13z"/>
<path d="M2966 3358 c3 -5 10 -6 15 -3 13 9 11 12 -6 12 -8 0 -12 -4 -9 -9z"/>
<path d="M4067 3359 c7 -7 15 -10 18 -7 3 3 -2 9 -12 12 -14 6 -15 5 -6 -5z"/>
<path d="M4190 3362 c0 -5 7 -9 15 -9 8 0 12 4 9 9 -3 4 -9 8 -15 8 -5 0 -9
-4 -9 -8z"/>
<path d="M895 3340 c-3 -5 -1 -10 4 -10 6 0 11 5 11 10 0 6 -2 10 -4 10 -3 0
-8 -4 -11 -10z"/>
<path d="M2655 3340 c-3 -5 -1 -10 4 -10 6 0 11 5 11 10 0 6 -2 10 -4 10 -3 0
-8 -4 -11 -10z"/>
<path d="M1217 2983 c-1 0 -63 -3 -137 -4 -104 -2 -147 -7 -185 -22 -27 -11
-58 -20 -67 -20 -9 -1 -14 -6 -11 -11 4 -5 -1 -7 -11 -3 -10 4 -15 3 -11 -3 3
-6 2 -10 -3 -10 -5 0 -19 -9 -32 -20 -12 -11 -27 -17 -32 -14 -4 3 -8 2 -7 -3
2 -4 -20 -32 -48 -61 -41 -44 -93 -124 -99 -154 -1 -5 -3 -10 -4 -13 -4 -9 -7
-25 -9 -45 0 -11 -6 -20 -12 -20 -5 0 -7 5 -3 12 4 7 3 8 -5 4 -8 -6 -9 -11
-1 -20 9 -12 5 -37 -17 -96 -4 -8 -5 -21 -4 -29 1 -8 -2 -10 -10 -5 -8 4 -10
3 -5 -5 10 -15 -13 -111 -25 -111 -6 0 -9 -6 -8 -12 4 -31 -2 -59 -11 -53 -5
3 -10 1 -10 -4 0 -6 5 -11 10 -11 6 0 4 -13 -5 -30 -9 -16 -12 -30 -8 -30 5 0
1 -5 -7 -10 -13 -9 -13 -10 0 -10 13 0 13 -1 0 -10 -13 -8 -11 -11 8 -16 25
-7 27 -14 10 -34 -10 -11 -9 -11 6 0 18 14 19 13 13 -3 -4 -11 -3 -16 4 -12 5
4 7 15 4 25 -5 16 -2 18 17 15 13 -3 24 -9 26 -15 6 -18 22 -11 16 8 -5 16 -5
16 6 -1 6 -9 9 -21 6 -25 -3 -5 1 -9 8 -9 8 0 12 7 8 15 -3 10 -1 13 6 8 8 -5
10 -1 5 10 -4 12 -3 15 6 10 7 -5 11 -17 8 -27 -3 -11 -1 -17 4 -13 5 3 9 13
9 23 0 14 6 17 25 14 13 -3 23 -8 22 -12 -1 -3 3 -6 8 -6 6 0 8 6 7 14 -3 13
-1 13 12 2 9 -7 13 -18 9 -25 -3 -6 0 -6 8 2 19 18 39 15 33 -5 -5 -14 -4 -15
4 -4 6 8 8 21 4 29 -4 11 -1 13 7 8 7 -5 11 -17 8 -27 -3 -11 -1 -17 4 -13 5
3 9 13 9 22 0 11 8 17 24 17 13 0 23 -2 21 -5 -2 -3 0 -12 6 -20 7 -12 9 -11
9 6 0 17 6 20 28 18 15 -1 39 -2 55 -3 18 -1 27 -7 28 -18 1 -12 4 -9 9 7 l7
25 10 -24 c9 -24 10 -24 15 -3 4 15 14 21 34 21 26 0 55 4 104 14 8 1 21 7 29
11 9 6 12 5 8 -1 -7 -11 22 -28 31 -18 3 3 0 5 -6 5 -17 0 -10 24 8 31 8 4 24
2 35 -4 18 -9 18 -8 7 6 -11 13 -10 17 5 25 10 5 24 7 31 5 7 -3 11 1 10 9 -2
7 4 12 14 10 13 -2 16 2 11 14 -4 11 -2 15 4 11 6 -4 23 0 39 8 15 7 31 12 36
9 4 -3 8 0 8 6 0 12 -36 4 -58 -13 -9 -7 -11 -6 -6 7 3 9 13 16 20 16 8 0 17
8 21 18 3 9 15 26 27 37 12 11 22 27 24 35 2 8 14 37 27 65 14 28 26 62 29 75
2 14 9 24 17 22 10 -3 10 0 -1 13 -11 13 -10 18 6 31 10 9 14 13 8 10 -7 -3
-9 3 -6 19 2 14 8 23 12 20 4 -2 6 8 4 24 -2 19 4 39 19 57 12 15 16 25 9 20
-8 -4 -12 -1 -12 9 0 9 4 14 8 11 4 -3 9 10 9 29 1 18 5 39 9 46 4 7 9 23 10
34 1 12 7 41 14 64 6 24 10 45 8 47 -4 3 -368 11 -371 7z"/>
<path d="M2766 2983 c-1 -1 -57 -3 -125 -4 -67 -1 -145 -7 -171 -14 -27 -7
-51 -10 -54 -7 -3 3 -6 1 -6 -4 0 -6 -19 -19 -42 -29 -24 -10 -51 -27 -62 -37
-11 -10 -26 -16 -33 -14 -7 3 -12 2 -10 -3 3 -11 -99 -121 -106 -114 -3 3 -3
-4 0 -16 3 -12 1 -21 -6 -21 -6 0 -11 -7 -11 -15 0 -8 -6 -29 -14 -47 -22 -49
-29 -70 -33 -98 -2 -14 -11 -30 -19 -36 -8 -7 -11 -14 -5 -15 7 -3 6 -19 -2
-47 -7 -23 -15 -41 -18 -38 -2 2 -4 -10 -4 -27 0 -23 -4 -31 -15 -29 -11 3
-12 0 -4 -8 12 -12 7 -63 -5 -56 -4 3 -7 -5 -8 -17 0 -12 -3 -33 -6 -47 -3
-14 -6 -31 -6 -38 -1 -7 -5 -10 -11 -7 -6 3 -7 -1 -4 -10 4 -8 1 -21 -5 -29
-15 -18 -1 -22 66 -21 28 0 50 -2 48 -5 -2 -3 0 -12 6 -20 7 -12 9 -11 9 6 0
17 6 20 28 18 15 -1 39 -2 54 -3 16 -1 28 -8 31 -18 4 -15 5 -15 6 2 1 18 8
20 79 19 107 -2 112 -3 109 -13 -1 -5 3 -9 8 -9 6 -1 8 7 7 16 -3 13 -1 14 12
3 9 -7 13 -18 9 -25 -3 -6 0 -6 8 2 19 18 39 15 33 -5 -5 -14 -4 -15 4 -4 6 8
8 19 6 26 -3 7 11 11 43 10 26 -1 51 3 54 8 3 5 9 1 13 -8 5 -14 2 -16 -14
-12 -11 3 -18 1 -14 -4 3 -5 12 -9 20 -9 9 0 12 -5 8 -12 -4 -7 -3 -8 5 -4 6
4 9 11 6 16 -3 5 3 14 12 20 17 11 17 11 0 6 -11 -4 -16 -2 -12 5 4 5 12 8 18
6 7 -2 20 0 31 5 12 7 16 7 12 0 -7 -12 20 -10 31 3 4 4 2 5 -4 1 -7 -4 -13
-2 -13 3 0 6 12 11 28 11 21 0 24 -2 12 -10 -8 -5 -11 -10 -7 -10 5 0 20 9 34
20 14 11 30 17 36 13 6 -3 7 -1 3 6 -6 9 -13 8 -31 -3 -13 -9 -26 -12 -29 -7
-3 5 5 12 19 15 14 4 25 11 25 16 0 6 6 10 13 10 7 0 24 11 38 24 17 16 30 21
36 15 6 -6 9 -1 9 13 -1 19 4 22 24 20 19 -2 22 -1 10 7 -12 8 -12 13 4 30 19
21 42 29 31 11 -3 -5 -1 -10 4 -10 13 0 14 17 2 24 -5 3 3 30 17 60 14 31 29
53 33 51 4 -3 5 4 2 15 -4 13 1 27 13 36 11 9 13 13 6 9 -10 -5 -11 0 -6 22 4
15 10 30 13 33 3 3 7 16 8 30 4 48 7 60 15 60 4 0 8 17 10 38 2 20 8 36 14 35
7 -1 9 8 6 22 -2 14 -1 33 3 42 4 10 9 28 11 41 1 13 7 29 12 35 5 7 8 20 7
30 -2 9 0 17 3 17 4 0 7 11 7 25 0 24 -2 25 -70 25 -38 1 -121 2 -183 3 -63 1
-115 1 -116 0z"/>
<path d="M4074 2977 c-9 -5 -18 -6 -21 -3 -4 4 -61 -13 -133 -41 -8 -4 -18 -5
-22 -5 -5 1 -8 -3 -8 -9 0 -6 -7 -8 -16 -5 -8 3 -13 2 -9 -3 3 -5 -9 -20 -27
-32 -18 -13 -45 -36 -60 -53 -16 -16 -28 -26 -28 -21 0 9 -10 -9 -66 -114 -13
-25 -24 -53 -24 -63 0 -10 -6 -18 -14 -18 -8 0 -18 -4 -21 -10 -3 -6 1 -7 10
-4 13 5 15 2 9 -22 -4 -16 -11 -40 -17 -54 -6 -14 -11 -32 -13 -40 -2 -8 -6
-30 -9 -48 -3 -18 -10 -30 -15 -27 -4 3 -6 -4 -3 -16 4 -12 0 -25 -8 -30 -11
-7 -12 -9 -1 -9 10 0 8 -9 -7 -36 -12 -19 -15 -32 -9 -27 7 4 5 -6 -6 -21 -10
-16 -14 -26 -8 -22 5 3 3 -17 -5 -45 -8 -28 -12 -53 -9 -56 4 -5 58 -9 173
-12 21 -1 33 -7 36 -18 4 -15 5 -15 6 2 1 13 8 21 20 21 11 0 17 -4 15 -8 -3
-4 2 -8 11 -8 9 0 14 4 11 8 -2 4 8 8 24 7 15 0 27 -2 25 -5 -2 -3 0 -12 6
-20 7 -12 9 -11 9 6 0 17 6 20 28 18 15 -1 39 -2 54 -3 16 -1 28 -8 31 -18 4
-15 5 -14 6 3 1 19 6 21 66 19 36 -1 68 2 71 7 3 5 12 4 19 -2 8 -7 15 -7 19
-1 4 5 18 8 32 5 19 -3 24 -1 18 8 -4 7 -4 10 1 6 4 -4 20 -1 35 7 21 11 30
11 39 2 10 -9 11 -8 6 4 -5 12 4 21 35 33 26 10 38 20 34 28 -4 6 -3 8 3 5 6
-4 21 5 34 19 12 13 28 23 34 20 7 -2 18 0 26 6 11 8 10 9 -3 4 -10 -3 -18 -1
-18 4 0 6 6 10 14 10 8 0 21 9 29 20 8 11 17 17 22 12 5 -4 5 -1 1 6 -4 7 -12
9 -19 5 -6 -3 -1 8 12 25 13 19 27 29 34 25 9 -5 9 -3 0 8 -9 11 -8 18 3 33 7
10 11 23 8 27 -8 13 10 11 26 -3 12 -11 12 -10 2 3 -6 9 -8 20 -4 24 4 5 0 4
-8 0 -10 -6 -8 -1 4 13 10 12 23 19 29 15 6 -3 7 -1 3 6 -6 8 -12 9 -20 2 -9
-8 -13 -7 -13 4 0 8 7 15 16 15 9 0 12 3 6 8 -14 10 -18 35 -5 27 7 -4 9 3 6
19 -4 20 0 26 12 26 15 0 15 2 2 10 -12 8 -12 10 5 10 15 0 17 2 6 9 -9 6 -11
15 -6 27 4 11 10 29 12 42 2 12 9 35 15 50 6 15 12 36 13 47 2 11 10 49 19 85
9 36 16 68 16 72 0 10 -588 15 -606 5z m401 -657 c-3 -5 -11 -10 -16 -10 -6 0
-7 5 -4 10 3 6 11 10 16 10 6 0 7 -4 4 -10z"/>
<path d="M1574 2862 c4 -3 14 -7 22 -8 9 -1 13 0 10 4 -4 3 -14 7 -22 8 -9 1
-13 0 -10 -4z"/>
<path d="M4679 2833 c-13 -16 -12 -17 4 -4 16 13 21 21 13 21 -2 0 -10 -8 -17
-17z"/>
<path d="M1566 2818 c3 -5 10 -6 15 -3 13 9 11 12 -6 12 -8 0 -12 -4 -9 -9z"/>
<path d="M4640 2740 c-8 -5 -12 -12 -9 -15 4 -3 12 1 19 10 14 17 11 19 -10 5z"/>
<path d="M1526 2677 c3 -10 9 -15 12 -12 3 3 0 11 -7 18 -10 9 -11 8 -5 -6z"/>
<path d="M4600 2600 c-9 -6 -10 -10 -3 -10 6 0 15 5 18 10 8 12 4 12 -15 0z"/>
<path d="M3045 2560 c3 -5 8 -10 11 -10 2 0 4 5 4 10 0 6 -5 10 -11 10 -5 0
-7 -4 -4 -10z"/>
<path d="M1450 2440 c0 -5 5 -10 10 -10 6 0 10 5 10 10 0 6 -4 10 -10 10 -5 0
-10 -4 -10 -10z"/>
<path d="M2997 2435 c-4 -8 -3 -16 1 -19 4 -3 9 4 9 15 2 23 -3 25 -10 4z"/>
<path d="M1430 2383 c0 -5 5 -15 10 -23 7 -12 9 -10 7 8 -1 19 -17 33 -17 15z"/>
<path d="M475 2369 c-4 -6 -5 -12 -2 -15 2 -3 7 2 10 11 7 17 1 20 -8 4z"/>
<path d="M4515 2369 c-4 -6 -5 -12 -2 -15 2 -3 7 2 10 11 7 17 1 20 -8 4z"/>
<path d="M1400 2319 c0 -5 5 -7 10 -4 6 3 10 8 10 11 0 2 -4 4 -10 4 -5 0 -10
-5 -10 -11z"/>
<path d="M2926 2322 c-3 -5 1 -9 9 -9 8 0 12 4 9 9 -3 4 -7 8 -9 8 -2 0 -6 -4
-9 -8z"/>
<path d="M2890 2280 c0 -5 9 -14 20 -20 11 -6 20 -9 20 -8 0 2 -9 11 -20 21
-11 9 -20 13 -20 7z"/>
<path d="M4407 2252 c-24 -27 -21 -36 4 -11 11 11 19 23 16 25 -2 2 -11 -4
-20 -14z"/>
<path d="M2836 2227 c-22 -18 -26 -26 -16 -32 9 -5 11 -4 6 3 -4 7 3 17 18 24
14 6 26 15 26 20 0 11 -1 11 -34 -15z"/>
<path d="M1319 2228 c-5 -18 -6 -38 -1 -34 7 8 12 36 6 36 -2 0 -4 -1 -5 -2z"/>
<path d="M4410 2219 c0 -5 5 -7 10 -4 6 3 10 8 10 11 0 2 -4 4 -10 4 -5 0 -10
-5 -10 -11z"/>
<path d="M1240 2200 c-9 -6 -10 -10 -3 -10 6 0 15 5 18 10 8 12 4 12 -15 0z"/>
<path d="M4370 2199 c0 -5 5 -7 10 -4 6 3 10 8 10 11 0 2 -4 4 -10 4 -5 0 -10
-5 -10 -11z"/>
<path d="M1264 2184 c-18 -14 -18 -15 4 -4 12 6 22 13 22 15 0 8 -5 6 -26 -11z"/>
<path d="M4323 2193 c-15 -5 -17 -23 -4 -23 5 0 11 7 15 15 3 8 4 15 3 14 -1
0 -8 -3 -14 -6z"/>
<path d="M1196 2172 c-3 -5 1 -9 9 -9 8 0 12 4 9 9 -3 4 -7 8 -9 8 -2 0 -6 -4
-9 -8z"/>
<path d="M2775 2160 c-3 -6 1 -7 9 -4 18 7 21 14 7 14 -6 0 -13 -4 -16 -10z"/>
<path d="M4251 2156 c-20 -11 -21 -14 -7 -19 11 -4 15 -3 10 4 -4 7 1 9 17 5
13 -3 18 -3 11 0 -6 3 -10 10 -6 15 7 12 4 11 -25 -5z"/>
<path d="M1110 2135 c-11 -13 -10 -14 4 -9 9 3 16 10 16 15 0 13 -6 11 -20 -6z"/>
<path d="M1060 2131 c-8 -6 -18 -7 -22 -5 -4 3 -8 0 -8 -6 0 -7 7 -9 16 -6 12
5 15 2 10 -9 -3 -9 -2 -13 4 -10 6 3 10 14 10 23 0 15 2 15 10 2 8 -13 10 -12
10 3 0 19 -8 21 -30 8z"/>
<path d="M4125 2130 c-3 -6 -12 -7 -18 -3 -7 4 -6 -1 2 -11 9 -11 18 -13 24
-7 5 5 17 7 26 4 17 -7 16 -5 -11 15 -11 9 -18 10 -23 2z"/>
<path d="M4177 2123 c3 -7 6 -13 8 -13 2 0 5 6 8 13 3 8 -1 14 -8 14 -7 0 -11
-6 -8 -14z"/>
<path d="M504 2110 c0 -13 4 -16 10 -10 7 7 7 13 0 20 -6 6 -10 3 -10 -10z"/>
<path d="M846 2115 c-9 -26 -7 -32 5 -12 6 10 9 21 6 23 -2 3 -7 -2 -11 -11z"/>
<path d="M2031 2114 c0 -11 3 -14 6 -6 3 7 2 16 -1 19 -3 4 -6 -2 -5 -13z"/>
<path d="M2053 2107 c-1 -11 -1 -18 0 -16 2 2 8 11 15 20 9 12 9 16 -1 16 -7
0 -14 -9 -14 -20z"/>
<path d="M2126 2115 c-9 -26 -7 -32 5 -12 6 10 9 21 6 23 -2 3 -7 -2 -11 -11z"/>
<path d="M2257 2119 c7 -7 15 -10 18 -7 3 3 -2 9 -12 12 -14 6 -15 5 -6 -5z"/>
<path d="M2336 2115 c-3 -8 -1 -15 4 -15 6 0 10 7 10 15 0 8 -2 15 -4 15 -2 0
-6 -7 -10 -15z"/>
<path d="M2380 2120 c0 -5 5 -10 11 -10 5 0 7 5 4 10 -3 6 -8 10 -11 10 -2 0
-4 -4 -4 -10z"/>
<path d="M2517 2111 c-4 -17 -3 -21 5 -13 5 5 8 16 6 23 -3 8 -7 3 -11 -10z"/>
<path d="M2544 2111 c0 -10 9 -16 23 -16 20 0 21 2 8 11 -8 6 -13 13 -10 16 3
2 -1 5 -8 5 -7 0 -13 -7 -13 -16z"/>
<path d="M2660 2120 c0 -4 7 -7 15 -6 23 3 26 12 5 13 -11 1 -20 -2 -20 -7z"/>
<path d="M3580 2114 c0 -8 -4 -13 -9 -9 -5 3 -12 1 -15 -4 -4 -5 2 -8 11 -7
16 3 33 36 19 36 -3 0 -6 -7 -6 -16z"/>
<path d="M3620 2118 c0 -4 7 -8 15 -8 8 0 15 4 15 8 0 5 -7 9 -15 9 -8 0 -15
-4 -15 -9z"/>
<path d="M3829 2117 c6 -8 7 -18 3 -22 -4 -5 -1 -5 6 -1 10 6 10 11 1 22 -6 8
-14 14 -16 14 -3 0 0 -6 6 -13z"/>
<path d="M3886 2115 c-9 -26 -7 -32 5 -12 6 10 9 21 6 23 -2 3 -7 -2 -11 -11z"/>
<path d="M4004 2118 c2 -7 11 -13 22 -13 10 0 25 -4 32 -9 11 -6 11 -4 1 11
-6 11 -18 20 -25 20 -7 0 -11 -4 -8 -9 3 -4 1 -8 -5 -8 -5 0 -12 5 -14 10 -3
6 -4 5 -3 -2z"/>
<path d="M4066 2118 c3 -5 10 -6 15 -3 13 9 11 12 -6 12 -8 0 -12 -4 -9 -9z"/>
<path d="M627 2107 c-3 -8 1 -14 8 -14 7 0 11 6 8 14 -3 7 -6 13 -8 13 -2 0
-5 -6 -8 -13z"/>
<path d="M787 2106 c-4 -10 -1 -13 8 -9 8 3 12 9 9 14 -7 12 -11 11 -17 -5z"/>
<path d="M900 2110 c8 -5 20 -10 25 -10 6 0 3 5 -5 10 -8 5 -19 10 -25 10 -5
0 -3 -5 5 -10z"/>
<path d="M2180 2110 c8 -5 20 -10 25 -10 6 0 3 5 -5 10 -8 5 -19 10 -25 10 -5
0 -3 -5 5 -10z"/>
<path d="M2290 2116 c0 -2 7 -7 16 -10 8 -3 12 -2 9 4 -6 10 -25 14 -25 6z"/>
<path d="M3700 2110 c8 -5 20 -10 25 -10 6 0 3 5 -5 10 -8 5 -19 10 -25 10 -5
0 -3 -5 5 -10z"/>
<path d="M3767 2109 c7 -7 15 -10 18 -7 3 3 -2 9 -12 12 -14 6 -15 5 -6 -5z"/>
<path d="M3940 2110 c8 -5 20 -10 25 -10 6 0 3 5 -5 10 -8 5 -19 10 -25 10 -5
0 -3 -5 5 -10z"/>
<path d="M870 2100 c0 -5 5 -10 11 -10 5 0 7 5 4 10 -3 6 -8 10 -11 10 -2 0
-4 -4 -4 -10z"/>
<path d="M990 2106 c0 -2 9 -6 20 -9 11 -3 18 -1 14 4 -5 9 -34 13 -34 5z"/>
<path d="M2150 2100 c0 -5 5 -10 11 -10 5 0 7 5 4 10 -3 6 -8 10 -11 10 -2 0
-4 -4 -4 -10z"/>
<path d="M3655 2101 c-3 -5 0 -13 6 -17 8 -5 9 -3 4 6 -6 10 -4 12 9 7 10 -4
15 -3 11 3 -8 13 -22 13 -30 1z"/>
<path d="M3910 2100 c0 -5 5 -10 11 -10 5 0 7 5 4 10 -3 6 -8 10 -11 10 -2 0
-4 -4 -4 -10z"/>
<path d="M4090 2100 c0 -5 5 -10 11 -10 5 0 7 5 4 10 -3 6 -8 10 -11 10 -2 0
-4 -4 -4 -10z"/>
<path d="M667 1717 c-12 -5 -32 -6 -44 -4 -13 2 -23 0 -23 -6 0 -6 -3 -8 -6
-5 -9 9 -144 -48 -156 -66 -4 -6 -8 -8 -8 -4 0 4 -12 -4 -27 -18 -20 -19 -29
-22 -35 -12 -6 9 -8 7 -6 -7 2 -12 -2 -19 -9 -18 -7 2 -12 0 -11 -5 5 -13 -46
-73 -58 -68 -6 2 -11 -3 -11 -12 0 -35 -3 -43 -13 -37 -6 4 -9 3 -8 -2 4 -13
-25 -102 -33 -98 -3 3 -5 -7 -3 -20 2 -23 -6 -30 -29 -26 -5 1 -6 -3 -2 -9 3
-6 11 -7 17 -4 8 5 9 -1 4 -17 -4 -13 -10 -34 -13 -46 -3 -13 -10 -23 -15 -23
-5 0 -7 -4 -4 -8 3 -4 0 -26 -5 -48 -5 -21 -11 -44 -12 -51 -2 -7 -6 -15 -9
-19 -4 -3 -4 -13 -1 -22 4 -8 2 -13 -3 -10 -5 4 -10 -6 -11 -20 -3 -26 -9 -61
-13 -72 -1 -3 -2 -8 -1 -12 0 -5 -2 -8 -7 -8 -4 0 -8 -15 -9 -34 l-1 -33 48 1
c39 2 47 -1 42 -14 -5 -13 -4 -13 13 0 17 14 17 13 10 -9 -6 -21 -5 -22 8 -10
8 8 12 20 10 26 -3 7 0 13 7 13 6 0 8 -4 5 -10 -8 -13 1 -13 27 1 15 8 19 8
14 0 -4 -6 0 -14 9 -17 13 -5 13 -9 3 -23 -12 -14 -11 -15 5 -2 14 11 20 11
33 1 12 -11 15 -11 12 0 -4 17 63 53 75 41 5 -5 24 -5 43 -1 28 6 36 5 44 -10
5 -9 7 -19 5 -22 -3 -3 2 -5 10 -5 8 0 11 5 7 11 -14 23 -11 36 8 26 9 -5 20
-6 24 -3 10 10 46 11 40 1 -3 -4 2 -11 11 -14 13 -5 13 -9 3 -22 -9 -11 -4
-10 14 3 15 11 28 24 28 29 0 5 -6 3 -14 -3 -10 -8 -16 -9 -21 -1 -3 5 -4 11
-1 11 22 5 34 3 53 -9 16 -10 23 -10 29 -1 4 7 3 9 -4 5 -6 -3 -13 -2 -17 3
-6 10 27 7 45 -4 6 -3 10 1 10 10 0 9 4 14 10 10 5 -3 6 -13 3 -22 -4 -11 -3
-14 5 -9 7 4 12 13 12 21 0 8 5 17 12 21 7 4 8 3 4 -4 -4 -7 -2 -12 3 -12 6 0
11 -5 11 -11 0 -5 -5 -7 -12 -3 -7 5 -8 3 -3 -6 6 -10 11 -10 20 3 7 9 16 13
20 9 5 -4 5 -1 1 6 -4 7 -12 10 -17 7 -5 -3 -6 0 -3 8 2 7 11 14 19 14 8 0 12
-4 10 -8 -3 -4 2 -9 10 -12 9 -4 12 -1 8 9 -8 21 27 45 49 33 10 -6 19 -5 23
1 4 6 12 7 18 3 7 -4 6 0 -2 10 -11 14 -9 20 15 41 60 50 89 80 86 89 -2 5 5
7 14 3 12 -4 15 -2 10 9 -4 10 1 15 17 16 21 0 21 1 2 9 -18 7 -19 8 -3 15 10
4 15 11 12 16 -3 5 0 9 6 9 6 0 10 6 9 13 -3 24 1 38 9 33 5 -3 10 7 10 22 2
41 28 117 40 117 6 0 14 4 19 9 5 5 3 6 -5 2 -7 -4 -15 0 -19 10 -4 10 -2 19
5 22 7 2 9 8 6 13 -3 6 2 21 11 36 9 14 12 22 6 19 -6 -4 -11 -3 -11 2 0 6 7
12 15 16 8 3 15 11 15 18 0 9 -3 9 -11 -2 -9 -12 -10 -12 -5 3 3 11 9 30 12
43 4 14 11 21 18 17 6 -4 5 1 -3 10 -16 20 -2 23 19 5 12 -11 12 -10 0 6 -20
26 -21 46 -2 46 14 0 15 2 3 9 -10 7 -12 14 -5 23 6 7 11 27 13 44 l2 32 -80
-2 c-45 0 -81 3 -81 7 0 5 -5 5 -11 2 -17 -11 -59 -13 -65 -3 -3 4 -10 5 -17
1 -16 -9 -87 -10 -87 0 0 4 -4 6 -9 2 -17 -10 -71 -13 -71 -3 0 5 -8 4 -19 -1
-10 -6 -21 -8 -24 -5 -8 9 -97 9 -120 1z m258 -766 c3 -5 2 -12 -3 -15 -5 -3
-9 1 -9 9 0 17 3 19 12 6z m-572 -94 c-13 -13 -18 -15 -25 -5 -4 7 -8 9 -8 5
0 -5 -5 -5 -10 -2 -17 11 -3 21 29 20 28 0 29 -1 14 -18z"/>
<path d="M2277 1724 c-4 -4 -35 -9 -70 -11 -109 -7 -115 -8 -109 -17 3 -5 -5
-7 -16 -4 -12 4 -20 3 -17 -2 5 -8 -74 -47 -87 -43 -5 2 -7 -3 -5 -10 1 -6 -6
-11 -15 -11 -10 1 -15 -2 -13 -7 7 -10 -53 -55 -67 -51 -5 1 -6 -3 -2 -9 4 -7
0 -17 -8 -23 -8 -6 -26 -30 -40 -54 -14 -24 -29 -44 -34 -44 -5 0 -11 -2 -14
-5 -3 -4 1 -3 8 1 6 4 12 2 12 -3 0 -6 -4 -11 -10 -11 -5 0 -7 -7 -4 -15 4 -8
2 -15 -3 -15 -5 0 -9 -10 -10 -21 -1 -12 -10 -31 -20 -42 -10 -11 -13 -17 -6
-14 8 5 11 0 10 -13 -1 -11 -4 -20 -7 -20 -3 0 -7 -12 -8 -27 -1 -15 -10 -44
-21 -65 -10 -21 -14 -35 -8 -31 7 4 8 -1 3 -13 -4 -10 -9 -26 -11 -34 -2 -8
-14 -49 -25 -90 -26 -87 -28 -99 -29 -123 -1 -11 -6 -15 -13 -11 -7 5 -8 3 -4
-5 5 -7 14 -10 21 -7 7 2 21 -1 31 -9 20 -14 48 -9 37 8 -4 6 -1 7 6 3 7 -5
10 -14 8 -20 -4 -9 3 -11 19 -8 15 3 24 0 24 -9 0 -7 2 -10 5 -7 11 10 -7 37
-21 31 -8 -3 -14 -1 -14 5 0 9 19 9 40 2 3 -1 18 -1 34 0 18 1 26 -2 22 -9 -4
-7 -1 -8 8 -5 9 3 14 9 11 13 -5 9 26 8 41 -2 6 -3 14 -3 18 0 3 4 15 7 26 8
19 2 19 1 3 -17 -11 -13 -19 -15 -24 -7 -3 6 -9 7 -12 2 -3 -5 3 -14 14 -21
15 -10 19 -10 17 0 -4 15 61 50 76 40 6 -3 24 -5 40 -3 18 2 26 -1 22 -8 -4
-7 -1 -8 8 -5 9 3 14 9 11 13 -6 11 27 6 52 -7 27 -15 34 -15 30 -1 -1 7 16
13 43 14 25 2 56 6 70 10 47 12 55 12 68 2 9 -7 11 -6 6 7 -6 15 -2 17 28 20
7 1 23 11 37 24 13 12 26 20 29 17 3 -2 11 3 19 13 8 9 12 11 8 4 -4 -7 -1
-11 7 -10 7 2 12 -4 10 -12 -2 -8 0 -11 4 -7 11 11 14 38 3 31 -14 -9 -10 4 8
26 10 11 23 20 30 20 7 0 12 3 11 8 0 4 2 15 6 24 7 15 12 16 29 6 19 -9 20
-9 11 3 -5 8 -10 19 -10 24 2 18 33 55 40 47 5 -4 7 0 6 8 -5 31 13 80 29 81
10 0 12 2 3 6 -6 2 -9 10 -5 16 4 7 8 23 9 37 1 13 6 26 12 28 5 1 8 11 5 21
-3 10 0 22 6 25 5 4 8 13 4 21 -3 8 0 15 6 15 6 0 8 7 4 17 -4 9 -2 14 3 11 5
-3 10 14 10 39 1 27 9 52 20 65 11 12 13 18 7 14 -9 -5 -11 -2 -7 8 3 8 12 12
20 9 8 -3 14 0 14 6 0 6 -3 10 -7 9 -8 -3 -13 5 -13 23 0 5 4 8 9 4 5 -3 13 0
17 6 4 7 3 9 -3 6 -6 -4 -13 0 -17 8 -3 8 -1 17 5 20 5 4 7 10 4 15 -3 5 -1
11 3 14 5 3 8 15 7 28 -2 21 -6 23 -63 23 -34 0 -62 4 -62 8 0 5 -4 6 -9 2
-16 -9 -71 -13 -71 -4 0 4 -13 4 -30 -1 -19 -5 -30 -5 -30 1 0 6 -5 7 -12 3
-16 -10 -148 -11 -148 -1 0 5 -5 5 -11 2 -16 -11 -68 -12 -72 -2 -1 4 -6 5
-10 1z"/>
<path d="M3777 1724 c-3 -4 -26 -9 -49 -11 -24 -3 -50 -9 -58 -13 -8 -4 -23
-6 -32 -5 -10 2 -18 -1 -18 -5 0 -5 -10 -12 -21 -15 -31 -10 -139 -81 -133
-88 3 -3 -3 -8 -13 -11 -10 -3 -36 -32 -58 -65 -33 -49 -43 -57 -55 -48 -13
10 -13 10 -2 -4 13 -17 6 -53 -8 -44 -5 3 -6 -5 -2 -17 3 -13 1 -19 -5 -15 -6
4 -9 -4 -7 -18 1 -14 -2 -25 -7 -25 -4 0 -5 -7 -2 -17 4 -10 2 -14 -4 -10 -5
3 -9 -3 -8 -16 1 -12 -3 -28 -9 -36 -6 -8 -9 -16 -7 -18 4 -5 -9 -75 -17 -88
-7 -11 -8 -17 -10 -53 -1 -14 -6 -21 -13 -16 -8 4 -9 0 -4 -15 4 -12 2 -21 -4
-21 -6 0 -8 -7 -5 -15 9 -24 -5 -38 -24 -23 -11 8 -10 4 3 -11 19 -22 19 -23
0 -37 -11 -8 -14 -14 -6 -14 9 0 10 -4 4 -12 -19 -26 -13 -56 13 -62 14 -4 22
-11 19 -16 -3 -6 -1 -10 4 -10 6 0 11 6 11 13 0 8 7 14 15 14 13 0 13 -3 0
-24 -9 -12 -11 -23 -5 -23 5 0 10 5 10 11 0 6 6 9 13 6 6 -2 11 -10 9 -16 -1
-7 2 -10 8 -6 8 5 8 11 0 20 -17 21 -3 37 20 25 22 -12 33 -13 27 -2 -3 4 10
7 28 7 32 0 33 -1 17 -18 -10 -11 -18 -14 -20 -8 -5 16 -19 13 -19 -4 0 -8 3
-13 5 -10 3 3 11 0 19 -7 11 -9 13 -8 11 2 -4 17 60 52 76 43 6 -4 22 -7 36
-7 14 -1 24 -6 23 -13 -2 -8 4 -10 15 -6 15 6 16 5 2 -13 -13 -17 -13 -18 0
-8 8 6 23 10 33 9 9 -2 15 1 11 6 -3 5 -1 9 5 9 5 0 13 -5 17 -11 4 -8 9 -8
17 0 14 14 30 14 21 0 -4 -8 0 -8 15 0 11 7 21 9 21 5 0 -4 10 1 23 12 14 13
37 19 67 19 25 0 47 3 50 6 3 4 10 1 17 -6 10 -11 5 -13 -25 -10 -31 2 -38 -1
-38 -15 0 -19 16 -20 37 -4 8 6 24 9 37 8 18 -1 20 1 11 13 -17 20 -3 28 16 9
22 -22 28 -20 15 4 -6 11 -7 20 -3 19 29 -5 53 2 47 14 -4 6 2 4 13 -6 14 -12
23 -15 28 -7 3 6 1 9 -6 8 -6 -2 -14 3 -16 10 -3 8 1 10 13 5 11 -4 15 -3 11
4 -7 11 28 27 53 23 8 -1 12 1 8 5 -3 4 2 15 13 26 24 24 30 24 22 2 -3 -10 4
-6 16 10 13 15 27 24 33 21 6 -4 8 -2 5 3 -4 6 0 13 8 17 8 3 15 10 15 16 0 6
-14 -3 -32 -19 -18 -17 -34 -28 -37 -25 -3 2 4 11 15 18 11 8 33 35 49 60 16
25 33 46 38 46 5 0 4 -6 -2 -14 -9 -11 -9 -16 0 -22 7 -4 9 -3 5 4 -3 6 -2 14
4 17 8 5 7 11 -1 21 -14 17 -6 18 24 3 19 -9 18 -7 -3 10 -23 19 -24 21 -5 22
11 0 14 3 8 6 -7 2 -13 9 -13 14 0 6 4 7 10 4 6 -3 7 1 4 9 -4 10 -1 16 9 16
8 0 21 8 28 18 11 14 11 15 -1 5 -19 -17 -27 -16 -27 2 0 8 4 15 8 15 4 0 6 9
4 20 -2 11 3 24 13 30 10 5 12 10 5 10 -7 0 -13 4 -13 10 0 5 6 7 13 4 8 -3
14 2 14 10 0 8 -5 12 -10 9 -7 -4 -7 1 -2 13 4 10 8 27 9 36 0 9 5 14 10 11 5
-4 7 1 3 10 -7 20 2 49 13 42 4 -2 5 7 2 20 -2 15 0 25 7 25 7 0 9 5 6 10 -4
6 -3 19 1 28 7 18 10 27 12 50 1 7 7 10 13 6 8 -4 8 -1 1 12 -10 21 -5 47 8
39 5 -3 12 -1 15 5 4 6 3 10 -2 9 -20 -3 -25 2 -13 16 7 9 10 18 7 22 -6 5
-62 15 -82 14 -5 0 -29 -2 -52 -4 -26 -2 -43 1 -43 7 0 7 -3 6 -8 -1 -4 -7
-13 -9 -20 -4 -8 4 -31 5 -53 1 -22 -4 -39 -3 -39 2 0 5 -8 4 -19 -1 -10 -6
-21 -8 -24 -5 -9 9 -67 11 -67 3 0 -8 -39 -3 -48 5 -2 3 -13 1 -23 -5 -13 -7
-19 -6 -19 1 0 6 -5 8 -12 3 -17 -10 -41 -10 -49 0 -3 4 -8 4 -12 1z m-214
-864 c4 0 5 6 1 13 -5 9 -4 9 6 0 19 -18 3 -35 -20 -20 -11 6 -20 16 -20 21 0
6 5 5 12 -2 7 -7 16 -12 21 -12z m130 3 c-3 -6 -17 -10 -33 -8 -16 2 -32 0
-35 -6 -5 -8 -35 12 -35 23 0 2 24 3 54 3 37 0 52 -4 49 -12z m117 -7 c0 -3
-4 -8 -10 -11 -5 -3 -10 -1 -10 4 0 6 5 11 10 11 6 0 10 -2 10 -4z"/>
<path d="M1215 1519 c-4 -6 -5 -12 -2 -15 2 -3 7 2 10 11 7 17 1 20 -8 4z"/>
<path d="M2750 1502 c0 -5 7 -9 15 -9 8 0 12 4 9 9 -3 4 -9 8 -15 8 -5 0 -9
-4 -9 -8z"/>
<path d="M2750 1460 c0 -5 5 -10 11 -10 5 0 7 5 4 10 -3 6 -8 10 -11 10 -2 0
-4 -4 -4 -10z"/>
<path d="M1141 1244 c0 -11 3 -14 6 -6 3 7 2 16 -1 19 -3 4 -6 -2 -5 -13z"/>
<path d="M2670 1199 c0 -5 5 -7 10 -4 6 3 10 8 10 11 0 2 -4 4 -10 4 -5 0 -10
-5 -10 -11z"/>
<path d="M2664 1164 c-18 -14 -18 -15 4 -4 12 6 22 13 22 15 0 8 -5 6 -26 -11z"/>
<path d="M1130 1159 c0 -5 5 -7 10 -4 6 3 10 8 10 11 0 2 -4 4 -10 4 -5 0 -10
-5 -10 -11z"/>
<path d="M2655 1120 c-3 -5 -1 -10 4 -10 6 0 11 5 11 10 0 6 -2 10 -4 10 -3 0
-8 -4 -11 -10z"/>
<path d="M2615 1100 c-3 -6 2 -13 12 -17 10 -3 22 -8 27 -11 5 -3 6 0 2 6 -4
7 -14 12 -22 12 -8 0 -12 5 -9 10 3 6 4 10 1 10 -3 0 -8 -5 -11 -10z"/>
<path d="M4150 1078 c0 -6 3 -8 7 -5 3 4 12 -1 20 -11 13 -15 13 -15 3 6 -11
23 -30 30 -30 10z"/>
<path d="M1051 1051 c-8 -5 -9 -11 -3 -15 5 -3 12 1 16 9 6 17 6 18 -13 6z"/>
<path d="M2580 1040 c-9 -6 -10 -10 -3 -10 6 0 15 5 18 10 8 12 4 12 -15 0z"/>
<path d="M1017 1027 c-3 -8 -2 -20 3 -26 5 -9 8 -4 8 13 0 29 -3 32 -11 13z"/>
<path d="M970 985 c-20 -22 -22 -27 -10 -38 8 -6 12 -8 8 -3 -9 11 10 48 22
41 5 -3 11 -1 14 4 14 22 -13 18 -34 -4z"/>
<path d="M2546 994 c-5 -13 -4 -14 7 -6 8 7 18 8 22 4 5 -4 5 -1 1 6 -10 17
-23 15 -30 -4z"/>
<path d="M4095 980 c-3 -5 -1 -10 4 -10 6 0 11 5 11 10 0 6 -2 10 -4 10 -3 0
-8 -4 -11 -10z"/>
<path d="M4050 961 c0 -6 4 -13 10 -16 6 -3 7 1 4 9 -7 18 -14 21 -14 7z"/>
<path d="M2455 932 c-3 -7 -9 -11 -13 -8 -5 3 -9 -1 -9 -9 0 -10 4 -12 12 -5
7 5 16 6 20 2 5 -4 5 -1 1 6 -4 7 -1 12 8 12 8 0 17 4 20 8 2 4 -4 8 -14 8
-11 0 -22 -6 -25 -14z"/>
<path d="M4002 938 c-15 -15 -15 -28 0 -28 6 0 8 3 5 7 -4 3 -2 12 4 20 14 16
7 17 -9 1z"/>
<path d="M4020 925 c0 -7 30 -13 34 -7 3 4 -4 9 -15 9 -10 1 -19 0 -19 -2z"/>
<path d="M865 911 c-3 -5 0 -13 6 -17 8 -4 9 -3 5 4 -4 7 -1 12 9 12 10 0 13
-5 9 -12 -4 -7 -3 -8 5 -4 14 9 5 26 -14 26 -8 0 -16 -4 -20 -9z"/>
<path d="M2390 900 c0 -5 5 -10 10 -10 6 0 10 5 10 10 0 6 -4 10 -10 10 -5 0
-10 -4 -10 -10z"/>
<path d="M2326 883 c-5 -5 -47 -15 -79 -17 -33 -3 -65 -30 -48 -41 6 -3 10 -1
9 5 -2 7 4 14 12 16 50 10 61 13 69 18 5 4 12 0 14 -6 4 -10 6 -9 6 1 1 11 4
11 16 1 13 -11 14 -10 8 6 -6 16 -4 17 8 7 13 -10 16 -10 16 0 0 12 -22 19
-31 10z"/>
<path d="M2426 878 c3 -5 10 -6 15 -3 13 9 11 12 -6 12 -8 0 -12 -4 -9 -9z"/>
<path d="M3930 880 c0 -5 5 -10 10 -10 6 0 10 5 10 10 0 6 -4 10 -10 10 -5 0
-10 -4 -10 -10z"/>
<path d="M167 849 c4 -13 8 -18 11 -10 2 7 -1 18 -6 23 -8 8 -9 4 -5 -13z"/>
<path d="M400 860 c-13 -8 -13 -11 -1 -22 10 -10 12 -10 7 0 -4 6 -2 12 3 12
6 0 11 -5 11 -12 0 -6 3 -9 6 -5 3 3 2 12 -3 21 -6 10 -13 12 -23 6z"/>
<path d="M486 862 c-2 -4 -1 -14 4 -22 7 -11 9 -9 7 8 -1 24 -3 26 -11 14z"/>
<path d="M565 860 c-4 -6 -11 -8 -16 -5 -5 4 -6 -2 -2 -11 4 -11 8 -13 11 -6
2 7 7 10 11 8 4 -3 8 1 8 9 0 18 -3 19 -12 5z"/>
<path d="M1874 855 c-18 -14 -18 -14 4 -8 12 3 22 9 22 14 0 12 -3 11 -26 -6z"/>
<path d="M2000 860 c-13 -8 -13 -11 -1 -22 10 -10 12 -10 7 0 -4 6 -2 12 3 12
6 0 11 -5 11 -12 0 -6 3 -9 6 -5 3 3 2 12 -3 21 -6 10 -13 12 -23 6z"/>
<path d="M2114 855 c-18 -14 -18 -14 4 -8 12 3 22 9 22 14 0 12 -3 11 -26 -6z"/>
<path d="M3300 866 c0 -3 9 -10 20 -16 11 -6 20 -8 20 -6 0 3 -9 10 -20 16
-11 6 -20 8 -20 6z"/>
<path d="M3440 860 c-13 -8 -13 -11 -1 -22 10 -10 12 -10 7 0 -4 6 -2 12 3 12
6 0 11 -5 11 -12 0 -6 3 -9 6 -5 3 3 2 12 -3 21 -6 10 -13 12 -23 6z"/>
<path d="M3724 861 c4 -6 3 -11 -2 -11 -5 0 -9 -7 -9 -16 0 -15 2 -15 13 1 7
9 17 14 23 11 5 -4 13 -1 17 6 4 7 4 10 -1 6 -4 -4 -17 -3 -28 3 -14 8 -18 8
-13 0z"/>
<path d="M456 845 c4 -8 8 -15 10 -15 2 0 4 7 4 15 0 8 -4 15 -10 15 -5 0 -7
-7 -4 -15z"/>
<path d="M1629 843 c-13 -16 -12 -17 4 -4 16 13 21 21 13 21 -2 0 -10 -8 -17
-17z"/>
<path d="M1673 847 c0 -8 6 -14 14 -14 9 0 10 4 2 14 -6 7 -12 13 -14 13 -1 0
-2 -6 -2 -13z"/>
<path d="M1816 845 c4 -8 8 -15 10 -15 2 0 4 7 4 15 0 8 -4 15 -10 15 -5 0 -7
-7 -4 -15z"/>
<path d="M2056 845 c4 -8 8 -15 10 -15 2 0 4 7 4 15 0 8 -4 15 -10 15 -5 0 -7
-7 -4 -15z"/>
<path d="M3496 845 c4 -8 8 -15 10 -15 2 0 4 7 4 15 0 8 -4 15 -10 15 -5 0 -7
-7 -4 -15z"/>
<path d="M670 845 c0 -5 5 -17 10 -25 5 -8 10 -10 10 -5 0 6 -5 17 -10 25 -5
8 -10 11 -10 5z"/>
<path d="M710 841 c0 -6 4 -12 8 -15 5 -3 9 1 9 9 0 8 -4 15 -9 15 -4 0 -8 -4
-8 -9z"/>
<path d="M2275 841 c-3 -5 -2 -12 3 -15 5 -3 9 1 9 9 0 17 -3 19 -12 6z"/>
<path d="M2150 826 c0 -2 7 -7 16 -10 8 -3 12 -2 9 4 -6 10 -25 14 -25 6z"/>
</g>
</svg>
